<svg xmlns="http://www.w3.org/2000/svg" viewBox="0 0 20 20.214">
  <defs>
    <style>
      .cls-1 {
        fill: #e84457;
      }
    </style>
  </defs>
  <g id="Group_4956" data-name="Group 4956" transform="translate(-914 -992)">
    <path id="Path_12640" data-name="Path 12640" class="cls-1" d="M371.544,54.9a.612.612,0,0,0,.854.128l2.009-1.493a.612.612,0,0,0,.128-.854l-.008-.012a.612.612,0,0,0-.854-.128l-2.009,1.493a.612.612,0,0,0-.128.854Z" transform="translate(557.905 941.744)"/>
    <path id="Path_12641" data-name="Path 12641" class="cls-1" d="M336.982.152a.61.61,0,0,0-.875.177L334.767,2.5a.61.61,0,1,0,1.04.639l1.341-2.17A.611.611,0,0,0,336.982.152Z" transform="translate(593.131 991.962)"/>
    <path id="Path_12642" data-name="Path 12642" class="cls-1" d="M396.061,120.256l2.467-.66a.611.611,0,1,0-.318-1.18l-2.467.66a.61.61,0,0,0-.421.788A.618.618,0,0,0,396.061,120.256Z" transform="translate(535.018 878.488)"/>
    <path id="Path_12643" data-name="Path 12643" class="cls-1" d="M8.612,23.111a.693.693,0,0,0-.235.982A14.24,14.24,0,0,1,4.4,31.077a.928.928,0,0,0-1.114,0L1.3,32.554a2.556,2.556,0,0,0-.528,3.577l-.161-.219L.229,36.2a.524.524,0,0,0-.107.738L1.3,38.524a.528.528,0,0,0,.743.107l.384-.285-.219-.3a2.557,2.557,0,0,0,3.061.821l4.022,3.342a.317.317,0,0,0,.4.017l.14-.1,1.539-1.143.635-.47a.289.289,0,0,0,.012-.454l-.85-.705a.409.409,0,0,0-.507-.012,1.01,1.01,0,0,1-1.242-.029l-2.2-1.795.557-.417A.935.935,0,0,0,8.1,36.032a14.206,14.206,0,0,1,7.83-1.79.7.7,0,0,0,1.011.058A.722.722,0,0,0,17,33.351l-2.426-3.263a2.345,2.345,0,0,0-2.62-3.527L9.545,23.326A.74.74,0,0,0,8.612,23.111ZM4.784,37.241a.884.884,0,0,1-1.238-.182L2.115,35.133A.884.884,0,0,1,2.3,33.9l1.4-1.04L6.182,36.2Z" transform="translate(913.984 969.923)"/>
  </g>
</svg>
