<svg xmlns="http://www.w3.org/2000/svg" viewBox="0 0 330.16 227.522">
  <defs>
    <style>
      .cls-1 {
        fill: #bce1e9;
      }
    </style>
  </defs>
  <g id="Group_7676" data-name="Group 7676" transform="translate(-57.193 -977.591)">
    <path id="Path_30787" data-name="Path 30787" class="cls-1" d="M588.97,21.205a7.045,7.045,0,1,0,0-14.089H588.4a10.631,10.631,0,0,0-20.066,0c-.285,0-.569-.071-.854-.071a7.494,7.494,0,0,0-3.131.712,9.2,9.2,0,0,0-8.041-4.839,9.108,9.108,0,0,0,0,18.216H588.97Z" transform="translate(-355.479 1183.908)"/>
    <path id="Path_14626" data-name="Path 14626" class="cls-1" d="M286.882,189.365a10.283,10.283,0,1,0,0-20.566,9.762,9.762,0,0,0-3.522.634,15.9,15.9,0,0,0-30.568-.634,11.056,11.056,0,1,0-5.635,20.566h39.724Z" transform="translate(90.189 950.417)"/>
    <path id="Path_14632" data-name="Path 14632" class="cls-1" d="M511.376,123.564a13.96,13.96,0,0,0-6.622-26.25,11.784,11.784,0,0,0-1.676.08,17.756,17.756,0,0,0-29.442-13.165,26.01,26.01,0,0,0-51.224,6.383,30.514,30.514,0,0,0,.559,5.426,21.44,21.44,0,0,0-31.2,27.607h119.6Z" transform="translate(-332.107 912.991)"/>
  </g>
</svg>
