<svg xmlns="http://www.w3.org/2000/svg" viewBox="0 0 12.124 9.263">
  <defs>
    <style>
      .cls-1 {
        fill: #bcbcbc;
      }
    </style>
  </defs>
  <path id="Union_200" data-name="Union 200" class="cls-1" d="M-1978.407,9.252a11.14,11.14,0,0,0-3.365-.281c-.864-.152-.446-.393-.194-.488a5.953,5.953,0,0,1,2.235-.436,1.11,1.11,0,0,0,1.106-1.108V1.5h.314a.435.435,0,0,1,.434.434v6.9a.431.431,0,0,1-.163.339.43.43,0,0,1-.269.095A.437.437,0,0,1-1978.407,9.252Zm-11.43-.084a.43.43,0,0,1-.163-.339V1.934a.435.435,0,0,1,.434-.434h.315V6.94a1.11,1.11,0,0,0,1.106,1.108,5.206,5.206,0,0,1,2.436.532c.4.226.011.423-.209.408a11.8,11.8,0,0,0-3.551.265.441.441,0,0,1-.1.011A.431.431,0,0,1-1989.837,9.168ZM-1983.6,2a.414.414,0,0,1,.06-.219A4.38,4.38,0,0,1-1979.73,0h0a.427.427,0,0,1,.3.126.432.432,0,0,1,.128.308V6.94a.435.435,0,0,1-.434.434,5.371,5.371,0,0,0-3.869,1.434Zm-4.542,5.374a.435.435,0,0,1-.434-.434V.434a.431.431,0,0,1,.128-.308.428.428,0,0,1,.3-.126h0a4.379,4.379,0,0,1,3.811,1.78.412.412,0,0,1,.06.219V8.808A5.37,5.37,0,0,0-1988.144,7.373Z" transform="translate(1990)"/>
</svg>
