<svg xmlns="http://www.w3.org/2000/svg" xmlns:xlink="http://www.w3.org/1999/xlink" viewBox="0 0 545.03 373.05"><defs><style>.cls-1{isolation:isolate;}.cls-2{fill:#689eb3;}.cls-3{fill:#fcc14a;}.cls-4{fill:#e6e5ce;}.cls-5{fill:#cbc7ff;opacity:0.7;}.cls-11,.cls-12,.cls-5{mix-blend-mode:multiply;}.cls-6{fill:#41b093;}.cls-7{fill:#eb726f;}.cls-8{fill:#46acc3;}.cls-9{fill:#035e80;}.cls-10{fill:#faf8dc;}.cls-11,.cls-12{opacity:0.72;}.cls-11{fill:url(#linear-gradient);}.cls-12{fill:url(#linear-gradient-2);}.cls-13{fill:url(#linear-gradient-3);}.cls-14{fill:#f2f2f2;}.cls-15{fill:#7aba8e;}.cls-16{fill:#42966d;}.cls-17{fill:#7ac4b2;opacity:0.49;}.cls-18{fill:url(#linear-gradient-4);}.cls-19{fill:#9c5f2d;}</style><linearGradient id="linear-gradient" x1="369.74" y1="358.22" x2="369.74" y2="346.72" gradientUnits="userSpaceOnUse"><stop offset="0" stop-color="#cbc7ff"/><stop offset="1" stop-color="#fff"/></linearGradient><linearGradient id="linear-gradient-2" x1="332.92" y1="300.14" x2="369.63" y2="300.14" xlink:href="#linear-gradient"/><linearGradient id="linear-gradient-3" x1="369.77" y1="299.46" x2="369.77" y2="229.64" gradientUnits="userSpaceOnUse"><stop offset="0" stop-color="#996b5a"/><stop offset="1" stop-color="#5a3c37"/></linearGradient><linearGradient id="linear-gradient-4" x1="142.92" y1="98.25" x2="215.05" y2="98.25" gradientUnits="userSpaceOnUse"><stop offset="0" stop-color="#d6925a"/><stop offset="0.33" stop-color="#c37b40"/><stop offset="1" stop-color="#804b1f"/></linearGradient></defs><title>eduAsset 17</title><g class="cls-1"><g id="Layer_2" data-name="Layer 2"><g id="Layer_1-2" data-name="Layer 1"><path class="cls-2" d="M537.61,373.05H7.42a7.42,7.42,0,0,1,0-14.84H537.61a7.42,7.42,0,0,1,0,14.84Z"/><path class="cls-3" d="M79.17,243.78H298.41V199.26H79.17C72.23,208.47,71.19,234.16,79.17,243.78Z"/><rect class="cls-4" x="247.66" y="202.89" width="50.75" height="36.6" transform="translate(546.08 442.38) rotate(-180)"/><rect class="cls-5" x="243.99" y="199.26" width="54.42" height="44.51" transform="translate(542.41 443.04) rotate(-180)"/><path class="cls-6" d="M89,199.26H296.67V160.69H89C83.74,169,83.71,191,89,199.26Z"/><rect class="cls-4" x="230.12" y="163.34" width="66.55" height="32.86" transform="translate(526.8 359.53) rotate(-180)"/><rect class="cls-5" x="225.42" y="160.69" width="71.25" height="38.58" transform="translate(522.09 359.95) rotate(-180)"/><path class="cls-7" d="M84.38,160.69H284V127.05H84.38C80.87,134.78,79.11,153.84,84.38,160.69Z"/><rect class="cls-4" x="241.99" y="131.34" width="41.98" height="24.07" transform="translate(525.96 286.75) rotate(-180)"/><rect class="cls-5" x="237.68" y="127.05" width="46.29" height="33.63" transform="translate(521.65 287.74) rotate(-180)"/><path class="cls-8" d="M79.86,360.05H299.1V315.54H79.86C72.92,324.74,71.88,350.43,79.86,360.05Z"/><rect class="cls-4" x="248.35" y="319.17" width="50.75" height="36.6" transform="translate(547.45 674.94) rotate(-180)"/><rect class="cls-5" x="244.68" y="315.54" width="54.42" height="44.51" transform="translate(543.78 675.6) rotate(-180)"/><path class="cls-3" d="M67,315.54H274.67V277H67C61.74,285.32,61.71,307.29,67,315.54Z"/><rect class="cls-4" x="208.12" y="279.61" width="66.55" height="32.86" transform="translate(482.8 592.09) rotate(-180)"/><rect class="cls-5" x="203.42" y="276.96" width="71.25" height="38.58" transform="translate(478.09 592.51) rotate(-180)"/><path class="cls-9" d="M90.74,277H290.33V243.33H90.74C87.23,251.05,85.47,270.12,90.74,277Z"/><rect class="cls-4" x="248.35" y="247.62" width="41.98" height="24.07" transform="translate(538.68 519.31) rotate(-180)"/><rect class="cls-5" x="244.04" y="243.33" width="46.29" height="33.63" transform="translate(534.37 520.3) rotate(-180)"/><path class="cls-10" d="M430.79,341.91c-.28,4.67-9,14.46-13.1,17.3h-95.9c-5.77-3.78-12.21-14.37-13.1-17.3Z"/><path class="cls-11" d="M430.79,341.91c-.28,4.67-9,14.46-13.1,17.3h-95.9c-5.77-3.78-12.21-14.37-13.1-17.3Z"/><path class="cls-10" d="M415.39,275.66l-1.1-.21L417.17,261a2.21,2.21,0,0,0-2.17-2.64H324.49a2.21,2.21,0,0,0-2.17,2.64l16.14,80.9H401l3-14.83,1.62.31h0a23,23,0,0,0,26.86-18.31l1.24-6.56A23,23,0,0,0,415.39,275.66ZM425,300.87l-1.24,6.55a14.1,14.1,0,0,1-16.46,11.23l-1.53-.29,6.82-34.18,1.19.23A14.09,14.09,0,0,1,425,300.87Z"/><path class="cls-12" d="M415.39,275.66l-1.1-.21L417.17,261a2.21,2.21,0,0,0-2.17-2.64H324.49a2.21,2.21,0,0,0-2.17,2.64l16.14,80.9H401l3-14.83,1.62.31h0a23,23,0,0,0,26.86-18.31l1.24-6.56A23,23,0,0,0,415.39,275.66ZM425,300.87l-1.24,6.55a14.1,14.1,0,0,1-16.46,11.23l-1.53-.29,6.82-34.18,1.19.23A14.09,14.09,0,0,1,425,300.87Z"/><circle class="cls-10" cx="369.77" cy="258.97" r="47.45"/><circle class="cls-5" cx="369.77" cy="258.97" r="41.95"/><ellipse class="cls-13" cx="369.77" cy="264.89" rx="41.53" ry="36.03"/><path class="cls-14" d="M387.33,268.88l2.73-5.19c1.87-3.57-.42-7.52-3.08-9.91s-11.28-7.08-15-7.86a10.2,10.2,0,0,0-9.91,3.07c-2.33,2.76-7.44,13.12-7.86,15s-1,3.45-.62,5.13c4.82.31,10,.48,15.36.48C375.49,269.57,381.67,269.33,387.33,268.88Z"/><path class="cls-15" d="M186.11,15.46c.47,0-.12,1,7.17-14.73a.52.52,0,0,0-.94-.43C185.33,15.41,185,15.46,186.11,15.46Z"/><path class="cls-15" d="M190.34,17.62C206.16,1.81,205.54,2.73,205,2.21s.13-.86-15.41,14.69A.51.51,0,0,0,190.34,17.62Z"/><path class="cls-15" d="M193.6,21.82c13.52-8.38,13.43-8.07,13-8.7s.12-.67-13.59,7.82A.52.52,0,0,0,193.6,21.82Z"/><path class="cls-16" d="M192,68l4-35.42a17.49,17.49,0,1,0-34.77,0l4,35.42Z"/><path class="cls-17" d="M175.81,68c-2.21-43.6-1.67-41.73-3.14-41.67s-1.1-1.34,1.08,41.78A1,1,0,0,0,175.81,68Z"/><path class="cls-17" d="M183,68.78c1.44,0,.88,2,3.09-41.68a1,1,0,0,0-2.06-.1C181.85,70.55,181.48,68.78,183,68.78Z"/><path class="cls-18" d="M172.3,129.05c40.26,0,35.68-8.81,42.75-61.61H142.92l5.45,40.68A24.13,24.13,0,0,0,172.3,129.05Z"/><path class="cls-19" d="M198.52,72.17c-.09-.79-1.3-.57-1.7.11C196.16,73.37,198.74,74.19,198.52,72.17Z"/><path class="cls-19" d="M176.38,73c1.14-1.32-1.94-3.91-2.14-1.09C174.15,73.23,175.52,74,176.38,73Z"/><path class="cls-19" d="M179,70.72c-.28-.51-1.09-.72-1.39-.19C176.78,72,179.79,72.12,179,70.72Z"/><path class="cls-19" d="M169.67,68.26c-.86,0-.91,1.33-.06,1.33S170.53,68.26,169.67,68.26Z"/><path class="cls-19" d="M193.27,81.5c-1.36-.91-2.58,1.68-2,2.3C192.23,84.82,194.66,82.45,193.27,81.5Z"/><path class="cls-19" d="M188.41,76c.26-.82-.8-.73-.79-1.3a.67.67,0,0,0-1.33-.06C186.29,76.13,188.07,77.1,188.41,76Z"/><path class="cls-19" d="M179.38,82.79c-.35.61.63,1.65,1.13,1.51C181.94,83.9,180,81.64,179.38,82.79Z"/><path class="cls-19" d="M189.56,85.36c-.86,0-.92,1.33-.06,1.33S190.41,85.36,189.56,85.36Z"/><path class="cls-19" d="M211.5,68.57c-.85,0-.91,1.33-.05,1.33S212.36,68.57,211.5,68.57Z"/><path class="cls-19" d="M207,77.27c-.57-2.62-3-1-1.8-.13C206.19,78.77,207.1,77.92,207,77.27Z"/><path class="cls-19" d="M213.27,74.94c.16-.21.25-.21.25-.21.64.41.52.21.7-1.12a1.5,1.5,0,0,0-2.07.63A.66.66,0,0,0,213.27,74.94Z"/><path class="cls-19" d="M213.19,76.33c-.29-.48-1.46-.52-1.63.12C211.2,77.83,213.9,77.51,213.19,76.33Z"/><path class="cls-19" d="M206.1,107.74c-.28-1.2-1.66-1.41-1.91-.66C203.72,108.51,206.32,108.65,206.1,107.74Z"/><path class="cls-19" d="M206.14,115.4c-.12,1,2.37-.08,1.32-1.82-.34-1-1.47-1-1.52-.41-.07.81.53,1.08.44,1.48C206.25,115.22,206.17,115.14,206.14,115.4Z"/><path class="cls-19" d="M204.28,88.07c.42-1.59-2.14-1.6-2.25-1.68s-.76-1.6-1.85-.49c-.72-.48-1,.37-1,.77C197.64,89.08,203.71,90.23,204.28,88.07Z"/><path class="cls-19" d="M211.57,93.43c-.93-.51-1.84,1.37-.68,2C211.39,95.72,211.29,95.51,211.57,93.43Z"/><path class="cls-19" d="M210.79,99.2a2.45,2.45,0,0,0-.09.7Z"/><path class="cls-19" d="M205.94,91.44c-.53,0-.56.82,0,.82S206.46,91.44,205.94,91.44Z"/><path class="cls-19" d="M192.88,96.1c-1.5-.11-2.5,1.94-1.82,1.91C192.64,98,193.76,96.16,192.88,96.1Z"/><path class="cls-19" d="M197.11,104.47c0-.51-.7-.52-1,.36C194.92,105.88,197.16,108.18,197.11,104.47Z"/><path class="cls-19" d="M201.59,100.25c.46-.88.09-1-.13-1C200.53,99.54,201.17,101.05,201.59,100.25Z"/><path class="cls-19" d="M174.47,96.72c.83,0,1.13-3.17-.93-2.23a2.67,2.67,0,0,1,0-.4c0-.14-.21-.15-.23,0-.11,1-.91,1.21-.24,2C173.34,97.08,174.33,96.72,174.47,96.72Z"/><path class="cls-19" d="M182.33,103.53c.51-1.27-1-1-1.13.09C181.18,103.9,182.4,104.9,182.33,103.53Z"/><path class="cls-19" d="M188,112.76c.59.35,1.24-1.15.17-2-.48-.4-2.16,1.8-1.19,2.3C187.35,113.46,187.74,113.16,188,112.76Z"/><path class="cls-19" d="M186.35,96.51c.17-.94-.51-.72-.64-.25,0,.14,0,.15-.16.17s-.17.27-.05.23S186.14,97.63,186.35,96.51Z"/><path class="cls-19" d="M186,108.24c.23,0,1.21-.47.43-1.54S184.94,108.49,186,108.24Z"/><path class="cls-19" d="M172.29,119.12c-.93-1.83-2.95.06-2,1.71C171,122.13,173,120.51,172.29,119.12Z"/><path class="cls-19" d="M176.8,126.37c1.72-.52,1.49-2.68.39-2.56C175.87,124,175.83,126.67,176.8,126.37Z"/><path class="cls-19" d="M177.6,121.21c-.09.55.77.78.91.21.35-1.41-2-3.6-1.73-1.86A1.24,1.24,0,0,0,177.6,121.21Z"/><path class="cls-19" d="M164.22,107.89c.84-1.51-.66-3.11-1.93-1.79C160.52,107.93,164.07,110.36,164.22,107.89Z"/><path class="cls-19" d="M166.89,109.15c-.26-.71-.87-.8-1.13-.06C165.31,110.4,167.29,110.25,166.89,109.15Z"/><path class="cls-19" d="M164.05,80c-.09-1.24-2.51-.69-1.74.91C162.27,82.47,164.69,81.57,164.05,80Z"/><path class="cls-19" d="M159.9,84.54c1.79.19.83-5.29-1.25-.72A.74.74,0,0,0,159.9,84.54Z"/><path class="cls-19" d="M162.09,86.75c.56-1.17-1.26-2.07-1.5-.85C159.88,87.72,162,88.36,162.09,86.75Z"/><path class="cls-19" d="M163.64,84.76c.64.51,1.56-.09,1.17-.81C165.44,82.34,162.16,83.56,163.64,84.76Z"/><path class="cls-19" d="M159.05,89.26c1-.43-.91-1.81-1.13-.37A.6.6,0,1,0,159.05,89.26Z"/><path class="cls-19" d="M147.1,98.65l.17,1.23A1.3,1.3,0,0,0,147.1,98.65Z"/><path class="cls-19" d="M149.24,110.57c1.41,0,.25-3.24-.58-1C148.62,109.67,148.71,111,149.24,110.57Z"/><path class="cls-19" d="M155.57,118.35c-.85.35-1.34,1.91-.48,2.13C157.09,121,157.41,117.58,155.57,118.35Z"/><path class="cls-19" d="M152.75,114.93c.07-.22.23-.24.21-.52-.07-.72-1.45-.64-1.28.68A.6.6,0,0,0,152.75,114.93Z"/><path class="cls-19" d="M144.47,79l.47,3.49C147.12,81.76,146.36,79.58,144.47,79Z"/><path class="cls-19" d="M158.06,69.52c-.1-1.53-2.87-.13-2.31,1.08C155.91,72.88,158.16,71,158.06,69.52Z"/><path class="cls-19" d="M151,71.87c1.13-1.52-.35-2.84-1.16-1.49C148.88,72,150.59,72.87,151,71.87Z"/><path class="cls-19" d="M153.09,74.56c1-1.69-2.35-1-1.18.36C152.16,75.23,152.67,75.25,153.09,74.56Z"/><path class="cls-19" d="M158,90.08c-.51-.68-2.13.36-1.85,1.79C156.35,93.12,159.43,92,158,90.08Z"/></g></g></g></svg>