<svg id="Group_5795" data-name="Group 5795" xmlns="http://www.w3.org/2000/svg" viewBox="0 0 15 10.833">
  <defs>
    <style>
      .cls-1 {
        fill: #bcbcbc;
      }
    </style>
  </defs>
  <path id="Path_13239" data-name="Path 13239" class="cls-1" d="M68.733,8.6,64.5,12.583l4.233,4a1.261,1.261,0,0,0,.017-.25v-7.5A1.025,1.025,0,0,0,68.733,8.6Z" transform="translate(-53.75 -7.167)"/>
  <path id="Path_13240" data-name="Path 13240" class="cls-1" d="M10.35,6.467,16.533.617A1.62,1.62,0,0,0,15.25,0H3.583A1.62,1.62,0,0,0,2.3.617l6.2,5.85A1.361,1.361,0,0,0,10.35,6.467Z" transform="translate(-1.917)"/>
  <path id="Path_13241" data-name="Path 13241" class="cls-1" d="M.017,8.5A1.261,1.261,0,0,0,0,8.75v7.5a1.261,1.261,0,0,0,.017.25l4.233-4Z" transform="translate(0 -7.083)"/>
  <path id="Path_13242" data-name="Path 13242" class="cls-1" d="M10.917,37a2.22,2.22,0,0,1-3,0l-1.15-1.083L2.3,40.133a1.62,1.62,0,0,0,1.283.617H15.25a1.62,1.62,0,0,0,1.283-.617L12.067,35.9Z" transform="translate(-1.917 -29.917)"/>
</svg>
