<svg xmlns="http://www.w3.org/2000/svg" xmlns:xlink="http://www.w3.org/1999/xlink" viewBox="0 0 1261.16 877.32"><defs><style>.cls-1{fill:none;}.cls-2{isolation:isolate;}.cls-24,.cls-3{fill:#41b093;}.cls-14,.cls-15,.cls-16,.cls-17,.cls-21,.cls-33,.cls-34,.cls-4,.cls-5,.cls-6,.cls-66,.cls-7,.cls-8,.cls-9{mix-blend-mode:multiply;}.cls-4{fill:url(#New_Gradient_Swatch_copy_5);}.cls-5{fill:url(#New_Gradient_Swatch_copy_5-2);}.cls-6{fill:url(#New_Gradient_Swatch_copy_5-3);}.cls-7{fill:url(#New_Gradient_Swatch_copy_5-4);}.cls-8{fill:url(#New_Gradient_Swatch_copy_5-5);}.cls-9{fill:url(#New_Gradient_Swatch_copy_5-6);}.cls-10{fill:#1b4e61;}.cls-11{fill:#6bc1ab;}.cls-12,.cls-81{fill:#035e80;}.cls-13{fill:#5995ab;}.cls-14,.cls-17{fill:#cbc7ff;}.cls-14,.cls-66{opacity:0.7;}.cls-15,.cls-16{fill:#86b2c2;}.cls-15,.cls-73{opacity:0.53;}.cls-18{fill:#e289a9;}.cls-19{fill:#e2cdaf;}.cls-20{fill:#89cebc;}.cls-21{fill:#f4ffd4;}.cls-22{fill:#53917f;}.cls-23,.cls-73{fill:#184657;}.cls-24{opacity:0.55;}.cls-24,.cls-80{mix-blend-mode:overlay;}.cls-25{fill:#bce1e9;}.cls-26{fill:#31444b;}.cls-27{fill:#cfd3d5;}.cls-28{fill:#516166;}.cls-29{fill:#0d232b;}.cls-30,.cls-74{fill:#fff;}.cls-31{fill:#677479;}.cls-32,.cls-80{fill:#faf8dc;}.cls-33,.cls-34{opacity:0.72;}.cls-33{fill:url(#linear-gradient);}.cls-34{fill:url(#linear-gradient-2);}.cls-35{fill:url(#linear-gradient-3);}.cls-36{fill:#f2f2f2;}.cls-37{fill:url(#linear-gradient-4);}.cls-38{fill:#9c5f2d;}.cls-39{fill:#d28d54;}.cls-40{fill:#60423a;}.cls-41{fill:#7aba8e;}.cls-42{fill:#7ac4b2;}.cls-43,.cls-51{fill:#42966d;}.cls-43{opacity:0.49;}.cls-44{fill:#efbdcf;}.cls-45{fill:#7b959f;}.cls-46{clip-path:url(#clip-path);}.cls-47{fill:#e85f5b;}.cls-48{fill:#46acc3;}.cls-49{fill:#fcc14a;}.cls-50{fill:#58b9a0;}.cls-52{fill:#fdcc69;}.cls-53{fill:#1f708e;}.cls-54{fill:#253940;}.cls-55{fill:#20353c;}.cls-56{fill:#826b49;}.cls-57{fill:#d6b88d;}.cls-58{fill:#2a3d44;}.cls-59{fill:#f29d7e;}.cls-60{fill:#ed6d53;}.cls-61{fill:#bd422a;}.cls-62{fill:#dbc19b;}.cls-63{fill:#ddc5a2;}.cls-64{fill:#3b4d53;}.cls-65{fill:#58676d;}.cls-66{fill:#8e8bb3;}.cls-67{fill:#f4aa8f;}.cls-68{fill:#2c4047;}.cls-69{fill:#ef928f;}.cls-70{fill:#eb7572;}.cls-71{fill:#f19a98;}.cls-72{fill:#bbe0e9;}.cls-74{opacity:0.68;}.cls-75{fill:#345c6b;}.cls-76{fill:#f3a68a;}.cls-77{fill:#236780;}.cls-78{fill:#1e323a;}.cls-79{fill:#fbf9e3;}.cls-80{opacity:0.56;}.cls-81{opacity:0.29;}.cls-82{fill:#fdce70;}.cls-83{fill:#f18a75;}.cls-84{fill:#ee775f;}.cls-85{fill:#f5b198;}</style><linearGradient id="New_Gradient_Swatch_copy_5" x1="-13391.21" y1="154.07" x2="-13426.63" y2="121.21" gradientTransform="translate(14235.46 2700.06) rotate(10.62)" gradientUnits="userSpaceOnUse"><stop offset="0" stop-color="#bcc1e8"/><stop offset="1" stop-color="#bcc1e8" stop-opacity="0"/></linearGradient><linearGradient id="New_Gradient_Swatch_copy_5-2" x1="-13397.25" y1="125.89" x2="-13375.96" y2="60.2" xlink:href="#New_Gradient_Swatch_copy_5"/><linearGradient id="New_Gradient_Swatch_copy_5-3" x1="-9856.56" y1="609.16" x2="-9899.25" y2="569.56" gradientTransform="translate(9649.96 5331.01) rotate(33.31)" xlink:href="#New_Gradient_Swatch_copy_5"/><linearGradient id="New_Gradient_Swatch_copy_5-4" x1="-9852.93" y1="576.9" x2="-9860.4" y2="504.24" gradientTransform="translate(9649.96 5331.01) rotate(33.31)" xlink:href="#New_Gradient_Swatch_copy_5"/><linearGradient id="New_Gradient_Swatch_copy_5-5" x1="-15830.12" y1="676.33" x2="-15814.93" y2="648.01" gradientTransform="matrix(-0.82, -0.57, -0.57, 0.82, -11520.92, -9167.39)" xlink:href="#New_Gradient_Swatch_copy_5"/><linearGradient id="New_Gradient_Swatch_copy_5-6" x1="7339.51" y1="689.77" x2="7370.96" y2="631.12" gradientTransform="translate(-4564.92 -4285.4) rotate(35.06)" xlink:href="#New_Gradient_Swatch_copy_5"/><linearGradient id="linear-gradient" x1="537.83" y1="863.08" x2="537.83" y2="851.58" gradientUnits="userSpaceOnUse"><stop offset="0" stop-color="#cbc7ff"/><stop offset="1" stop-color="#fff"/></linearGradient><linearGradient id="linear-gradient-2" x1="501" y1="805" x2="537.71" y2="805" xlink:href="#linear-gradient"/><linearGradient id="linear-gradient-3" x1="537.86" y1="804.32" x2="537.86" y2="734.5" gradientUnits="userSpaceOnUse"><stop offset="0" stop-color="#996b5a"/><stop offset="1" stop-color="#5a3c37"/></linearGradient><linearGradient id="linear-gradient-4" x1="7109.31" y1="831.46" x2="7216.68" y2="831.46" gradientTransform="matrix(-1, 0, 0, 1, 8288.71, 0)" gradientUnits="userSpaceOnUse"><stop offset="0" stop-color="#d6925a"/><stop offset="0.33" stop-color="#c37b40"/><stop offset="1" stop-color="#804b1f"/></linearGradient><clipPath id="clip-path"><rect class="cls-1" x="313.22" y="279.21" width="619.84" height="362.21"/></clipPath></defs><title>feedAsset 20</title><g class="cls-2"><g id="Layer_2" data-name="Layer 2"><g id="Layer_1-2" data-name="Layer 1"><path class="cls-3" d="M1099.15,280.76c27.07,12.62-6.43,45.83-36.76,59.9C1035.7,353,1001,386.25,986.26,417.77c-8.73,18.62-11.09,41.85-11.09,41.85l-10-1.88s13-86.73,49-133.31S1080,271.85,1099.15,280.76Z"/><path class="cls-4" d="M1099.15,280.76c27.07,12.62-6.43,45.83-36.76,59.9C1035.7,353,1001,386.25,986.26,417.77c-8.73,18.62-11.09,41.85-11.09,41.85l-10-1.88s13-86.73,49-133.31S1080,271.85,1099.15,280.76Z"/><path class="cls-3" d="M1062.39,340.66c28.29-13.12,59.31-42.89,41.42-57.07l-1.29,0c-56.91,33.5-90.92,64.82-112.47,110.52-18.74,39.74-20.83,60.52-20.9,64.42l6,1.13s2.36-23.23,11.09-41.85C1001,386.25,1035.7,353,1062.39,340.66Z"/><path class="cls-5" d="M1062.39,340.66c28.29-13.12,59.31-42.89,41.42-57.07l-1.29,0c-56.91,33.5-90.92,64.82-112.47,110.52-18.74,39.74-20.83,60.52-20.9,64.42l6,1.13s2.36-23.23,11.09-41.85C1001,386.25,1035.7,353,1062.39,340.66Z"/><path class="cls-3" d="M958,467s70.35-56.56,77.34-78.5,26.35-52.07,68-58.84,77.47,11,86.07,25.07-7.47,40-46.74,50-99.77,21.34-116.82,33.72-53.28,38.09-53.28,38.09Z"/><path class="cls-6" d="M958,467s70.35-56.56,77.34-78.5,26.35-52.07,68-58.84,77.47,11,86.07,25.07-7.47,40-46.74,50-99.77,21.34-116.82,33.72-53.28,38.09-53.28,38.09Z"/><path class="cls-3" d="M1175.8,342.59c-32,16.45-65.66,37.09-90.13,50.11-25.15,13.37-87,57.78-87,57.78l11.44-.77c5.86-4.12,11.42-8.08,15.79-11.24,17.05-12.38,77.54-23.73,116.82-33.72s55.33-35.94,46.74-50C1187.11,351,1182.34,346.69,1175.8,342.59Z"/><path class="cls-7" d="M1175.8,342.59c-32,16.45-65.66,37.09-90.13,50.11-25.15,13.37-87,57.78-87,57.78l11.44-.77c5.86-4.12,11.42-8.08,15.79-11.24,17.05-12.38,77.54-23.73,116.82-33.72s55.33-35.94,46.74-50C1187.11,351,1182.34,346.69,1175.8,342.59Z"/><path class="cls-3" d="M957.53,500.67c33.68-41.07,81.3-58.5,138.64-56.16s46.25,53.73,11.79,56.35-80.89-14.25-113.77-5a64.9,64.9,0,0,0-25.89,14Z"/><path class="cls-8" d="M957.53,500.67c33.68-41.07,81.3-58.5,138.64-56.16s46.25,53.73,11.79,56.35-80.89-14.25-113.77-5a64.9,64.9,0,0,0-25.89,14Z"/><path class="cls-3" d="M1135.1,480.88c-38.65-11.16-84.06-17.49-113.54-10.15-15,3.73-39.72,18.84-61.34,33.5a76.13,76.13,0,0,0,7.36,5.7l.74.47c10.07-6.87,19.9-12.83,25.87-14.51,32.88-9.28,79.32,7.6,113.77,5C1121.61,499.82,1131.58,491.14,1135.1,480.88Z"/><path class="cls-9" d="M1135.1,480.88c-38.65-11.16-84.06-17.49-113.54-10.15-15,3.73-39.72,18.84-61.34,33.5a76.13,76.13,0,0,0,7.36,5.7l.74.47c10.07-6.87,19.9-12.83,25.87-14.51,32.88-9.28,79.32,7.6,113.77,5C1121.61,499.82,1131.58,491.14,1135.1,480.88Z"/><rect class="cls-3" x="380.13" y="701.68" width="315.56" height="167.99"/><path class="cls-10" d="M499.14,161.88a2,2,0,0,1-2-2V97.38a2,2,0,0,1,4,0v62.5A2,2,0,0,1,499.14,161.88Z"/><path class="cls-10" d="M530.14,161.88a2,2,0,0,1-2-2V97.38a2,2,0,0,1,4,0v62.5A2,2,0,0,1,530.14,161.88Z"/><polygon class="cls-11" points="749.14 156.38 749.14 65.38 590.14 65.38 590.14 156.38 418.14 156.38 418.14 259.38 843.14 259.38 843.14 156.38 749.14 156.38"/><rect class="cls-12" x="447.64" y="194.88" width="6.5" height="27"/><rect class="cls-12" x="492.14" y="194.88" width="6.5" height="27"/><rect class="cls-12" x="536.64" y="194.88" width="6.5" height="27"/><rect class="cls-12" x="581.14" y="194.88" width="6.5" height="27"/><rect class="cls-12" x="625.64" y="194.88" width="6.5" height="27"/><rect class="cls-12" x="670.14" y="194.88" width="6.5" height="27"/><rect class="cls-12" x="714.64" y="194.88" width="6.5" height="27"/><rect class="cls-12" x="625.64" y="106.88" width="6.5" height="27"/><rect class="cls-12" x="670.14" y="106.88" width="6.5" height="27"/><rect class="cls-12" x="714.64" y="106.88" width="6.5" height="27"/><rect class="cls-12" x="759.14" y="194.88" width="6.5" height="27"/><rect class="cls-12" x="803.64" y="194.88" width="6.5" height="27"/><polygon class="cls-13" points="613.56 198.44 1003.9 198.44 1003.9 607.47 1139.56 607.47 1139.56 868.02 613.56 868.02 613.56 198.44"/><rect class="cls-3" x="912.65" y="569.04" width="226.91" height="38.43"/><rect class="cls-14" x="1055.09" y="569.04" width="84.47" height="298.98"/><path class="cls-15" d="M950.32,308.33h-7.25V227h7.25Zm0,40.39h-7.25V430h7.25Zm0,123.74h-7.25v81.32h7.25ZM976.77,285.8h-7.25v81.32h7.25Zm0,116.92h-7.25V484h7.25Z"/><path class="cls-16" d="M912.65,264.39H613.56v-5H912.65Zm0,56.15H613.56v5H912.65Zm0,61.14H613.56v5H912.65Zm0,61.14H613.56v5H912.65Zm0,61.14H613.56v5H912.65Zm0,61.14H613.56v5H912.65Zm142.44,61.14H613.56v5h441.53Zm0,61.14H613.56v5h441.53Z"/><rect class="cls-3" x="702.73" y="133.62" width="197.95" height="64.83"/><rect class="cls-17" x="847.93" y="133.62" width="52.76" height="64.83"/><rect class="cls-12" x="788.79" y="104.08" width="7.5" height="29.54"/><path class="cls-18" d="M820.68,82.44a28.63,28.63,0,1,1-28.63-28.63A28.63,28.63,0,0,1,820.68,82.44ZM792.05,66a16.5,16.5,0,1,0,16.5,16.49A16.49,16.49,0,0,0,792.05,66Z"/><rect class="cls-14" x="912.12" y="199.49" width="91.45" height="371.43" transform="translate(1915.69 770.41) rotate(180)"/><rect class="cls-14" x="618.22" y="570.92" width="521.31" height="299.65"/><polygon class="cls-19" points="262.11 864.75 242.14 864.75 246.18 769.16 257.27 769.16 262.11 864.75"/><path class="cls-20" d="M398.78,669.23a43.27,43.27,0,0,0-7-32.07c-4.8-7.11-5.28-15.92-1-23a58.56,58.56,0,0,0,7.51-19.85c3.55-19.54-3.05-38.75-16.26-53-6.92-7.44-9.29-17.54-5.95-26.6A41.57,41.57,0,0,0,378,508c3.12-17.2-5.23-34-19.91-43.7-8.51-5.59-11.87-15.8-7.64-24.37a49.15,49.15,0,0,0,4.4-12.65c4.95-27.26-15-53.73-44.66-59.12h-.09c-4.36-.79-7.25-4.71-6.49-8.71,0-.15.05-.29.08-.44,6.34-34.91-19.72-68.78-58-74.88-35.94-5.73-71.32,17.25-77.35,50.2a58.77,58.77,0,0,0,.44,23.4c3.7,16.62-5.15,33.3-21.68,40-28.48,11.54-50.16,35.6-55.74,66.3a86,86,0,0,0,8.73,55.55,34.49,34.49,0,0,1-8.76,43A70.13,70.13,0,0,0,66.76,604c-5.39,29.68,9.24,58.72,34.83,75.11a13.27,13.27,0,0,1,6.22,13.57l0,.14c-2.79,15.37,8.48,30.28,25.17,33.32l.38.06a3.32,3.32,0,0,1,2.89,3.73v0c-3.93,21.64,11.94,42.65,35.45,46.92a47,47,0,0,0,10.52.72,23.78,23.78,0,0,1,20.1,9.51c14.21,19.41,36.51,33.83,63.23,38.4,49.87,8.52,99-22.72,107.63-68.48a80.94,80.94,0,0,0,.32-28.39,39.5,39.5,0,0,1,12.22-35.74A42.71,42.71,0,0,0,398.78,669.23Z"/><path class="cls-21" d="M352.35,670.25a37.7,37.7,0,0,0-8.55-27.92c-4.86-6-5.9-13.74-2.46-20.3a50.23,50.23,0,0,0,5.5-18c1.91-17.47-5.42-34-18.44-45.81-6.81-6.15-9.67-14.94-7.24-23.15a34.42,34.42,0,0,0,1.22-6.06c1.68-15.38-7.08-29.76-21.14-37.42-8.14-4.44-11.89-13.25-8.62-21.08a41.86,41.86,0,0,0,3.15-11.43c2.66-24.39-17.38-46.58-44.76-49.57h-.08c-4-.44-6.94-3.73-6.51-7.31,0-.13,0-.26,0-.39,3.41-31.22-22.67-59.59-58-62.7-33.17-2.92-63.87,19.48-67.14,49a50.62,50.62,0,0,0,2,20.64c4.51,14.47-2.43,29.73-17,36.63C79.08,457.23,61,479.77,58,507.23A74.64,74.64,0,0,0,69.69,555.8c8.07,12.59,6,28.29-5.06,38.5a60.9,60.9,0,0,0-19.56,38.13C42.17,659,57.5,683.76,82,696.72c4.58,2.42,7.14,6.95,6.6,11.61v.13c-1.5,13.74,9.79,26.25,25.22,27.94l.35,0a3,3,0,0,1,2.89,3.13v0c-2.12,19.35,13.79,37,35.52,39.34a44.48,44.48,0,0,0,9.65,0,22.26,22.26,0,0,1,19,7.21c14.29,16.3,35.61,27.71,60.3,30.15,46.06,4.56,88.71-26,93.5-66.91a69.35,69.35,0,0,0-1.64-25.11A34,34,0,0,1,342,692,37.07,37.07,0,0,0,352.35,670.25Z"/><path class="cls-22" d="M169.17,462.1c0,59,82.22,26.19,86.9,80.19,3.89,44.84-77.65,35.48-71.63,86.27,7.58,64,57.47,30.08,78.19,68.17,18.86,34.67,12.46,61.48,60.15,61.48s51.2-3.55,75.52-60.81c20.72-48.79,54-9.31,70.84-71.51,13.68-50.62-74.18-40.1-71.77-83.59,3-54.13,86.9-21.15,86.9-80.2s-80.62-26.36-86.9-80.2c-7-60.31,78.63-48.51,65-99.12-16.81-62.21-109,1.3-106.64-47.29,2.84-59,18.72-111.77-29-111.77s-24.32,67.77-29,111.76c-5.1,48.38-89.84-14.91-106.64,47.29-13.68,50.62,72,38.81,64.95,99.13C249.8,435.74,169.17,403,169.17,462.1Z"/><path class="cls-23" d="M358.81,865.71c-37.71-705.43,3.44-415.3-28.06-687.95-5.38,31.34-.41,85.1-1.24,128.85-.95,53.72-17.67,67.32-11.71,193.67,2.38,98.27-12.77,73.52-23.72,363.65Z"/><path class="cls-3" d="M86.59,865A59.95,59.95,0,0,1,123.4,757.74a60.52,60.52,0,0,1,11.09,1,61.35,61.35,0,1,1,118.22,32.88,47.81,47.81,0,0,1,52,73.35Z"/><path class="cls-24" d="M207.87,864.37a49.6,49.6,0,0,0-39.64-87.89,50.76,50.76,0,1,0-97.81,27.2,39.56,39.56,0,0,0-43,60.69Z"/><path class="cls-3" d="M817.05,865a59.95,59.95,0,0,1,36.81-107.27,60.62,60.62,0,0,1,11.1,1,61.35,61.35,0,1,1,118.21,32.88,47.82,47.82,0,0,1,52,73.35Z"/><path class="cls-24" d="M938.33,864.37a49.6,49.6,0,0,0-39.64-87.89,50.76,50.76,0,1,0-97.8,27.2,39.56,39.56,0,0,0-43,60.69Z"/><path class="cls-25" d="M402.36,61a15.09,15.09,0,1,1,0-30.18c.42,0,.84,0,1.26.06a22.65,22.65,0,0,1,42.79.07,14.29,14.29,0,0,1,1.86-.13,15,15,0,0,1,6.65,1.56A19.44,19.44,0,1,1,472.06,61Z"/><path class="cls-25" d="M1025.7,92.59a29.95,29.95,0,1,0-10.22-58.06,46.31,46.31,0,0,0-89-1.93,32.27,32.27,0,1,0-16.5,60Z"/><path class="cls-25" d="M1117.13,217a16,16,0,1,0-5.46-31,24.77,24.77,0,0,0-47.61-1,17.25,17.25,0,1,0-8.82,32.08Z"/><path class="cls-25" d="M230.58,192.14A10.64,10.64,0,1,0,227,171.51a16.45,16.45,0,0,0-31.62-.68,11.46,11.46,0,1,0-5.87,21.31Z"/><polygon class="cls-26" points="681 865.05 544.62 865.05 556.52 701.71 669.11 701.71 681 865.05"/><polygon class="cls-17" points="552.6 755.5 672.07 742.46 669.2 703.03 555.52 715.45 552.6 755.5"/><rect class="cls-27" x="292.26" y="251.91" width="668" height="471.66" rx="36.52"/><rect class="cls-28" x="289.14" y="254.38" width="668" height="471.66" rx="32.73"/><path class="cls-29" d="M924.41,254.38H321.88a32.74,32.74,0,0,0-32.74,32.74V667.38h668V287.12A32.73,32.73,0,0,0,924.41,254.38Z"/><rect class="cls-30" x="313.22" y="279.21" width="619.84" height="362.21"/><rect class="cls-31" x="503" y="860.02" width="215.42" height="5.02"/><path class="cls-32" d="M598.88,846.77c-.28,4.67-9,14.46-13.1,17.3h-95.9c-5.77-3.78-12.21-14.37-13.1-17.3Z"/><path class="cls-33" d="M598.88,846.77c-.28,4.67-9,14.46-13.1,17.3h-95.9c-5.77-3.78-12.21-14.37-13.1-17.3Z"/><path class="cls-32" d="M583.48,780.52l-1.11-.21,2.88-14.44a2.2,2.2,0,0,0-2.16-2.64H492.57a2.2,2.2,0,0,0-2.16,2.64l16.14,80.9h62.57l3-14.83,1.62.31h0a23,23,0,0,0,26.86-18.31l1.24-6.56A23,23,0,0,0,583.48,780.52Zm9.57,25.21-1.24,6.55a14.1,14.1,0,0,1-16.46,11.23l-1.54-.29L580.63,789l1.2.22A14.11,14.11,0,0,1,593.05,805.73Z"/><path class="cls-34" d="M583.48,780.52l-1.11-.21,2.88-14.44a2.2,2.2,0,0,0-2.16-2.64H492.57a2.2,2.2,0,0,0-2.16,2.64l16.14,80.9h62.57l3-14.83,1.62.31h0a23,23,0,0,0,26.86-18.31l1.24-6.56A23,23,0,0,0,583.48,780.52Zm9.57,25.21-1.24,6.55a14.1,14.1,0,0,1-16.46,11.23l-1.54-.29L580.63,789l1.2.22A14.11,14.11,0,0,1,593.05,805.73Z"/><circle class="cls-32" cx="537.86" cy="763.83" r="47.45"/><circle class="cls-14" cx="537.86" cy="763.83" r="41.95"/><ellipse class="cls-35" cx="537.86" cy="769.75" rx="41.53" ry="36.03"/><path class="cls-36" d="M555.41,773.74l2.73-5.2c1.88-3.56-.42-7.51-3.08-9.9s-11.27-7.08-15-7.86a10.16,10.16,0,0,0-9.9,3.07c-2.33,2.76-7.44,13.12-7.87,15s-1,3.45-.62,5.13c4.83.31,10,.48,15.37.48C543.57,774.43,549.76,774.18,555.41,773.74Z"/><path class="cls-37" d="M1143.93,877.32H1107.5a26.49,26.49,0,0,1-26.26-23L1072,785.6H1179.4l-9.21,68.75A26.49,26.49,0,0,1,1143.93,877.32Z"/><path class="cls-38" d="M1112.17,789.75c-1.17,0-1.25-1.82-.08-1.82S1113.34,789.75,1112.17,789.75Z"/><path class="cls-38" d="M1100.22,790.06c1.17-1.25,4.45,1.54.31,1.54A1,1,0,0,1,1100.22,790.06Z"/><path class="cls-38" d="M1076.71,790.64c-.07.73.48.92.12,1,.2,0,.17.13.25.37.32,1-1.16,1.52-2.23-.37C1073.16,788.61,1077.06,786.8,1076.71,790.64Z"/><path class="cls-38" d="M1170.65,787c.54.62-.05,3.14-1,2.12C1167.61,786.9,1168.5,784.45,1170.65,787Z"/><path class="cls-38" d="M1173.74,785.88c0-.46,1.43-.6,1.68.42C1176,787.71,1173.61,789.28,1173.74,785.88Z"/><path class="cls-38" d="M1145.92,785.6h1.95C1148.38,786.69,1146.46,786.68,1145.92,785.6Z"/><path class="cls-38" d="M1123.13,785.6c1.44,0,1.27-.12,1.38.37C1124.69,786.83,1123.41,787.14,1123.13,785.6Z"/><path class="cls-38" d="M1134,859.81c.85-.66,2.54.88,1.63,2.31C1135.3,866.77,1130.8,862.29,1134,859.81Z"/><path class="cls-38" d="M1134.19,851.54a2,2,0,0,1,1-2.46.91.91,0,0,1,1,1.55c-.33.2-.23.27-.18.36A.91.91,0,0,1,1134.19,851.54Z"/><path class="cls-38" d="M1131.43,860.78a.9.9,0,0,1-1.75,0C1127.47,859,1132.13,856.15,1131.43,860.78Z"/><path class="cls-38" d="M1124.12,842.17c.32.55,1.27.89,1.4,2.18s-2.24,1.54-3.18-1.28C1122,842.14,1123.51,841.18,1124.12,842.17Z"/><path class="cls-38" d="M1131.17,837.52c.29,2.38-3.14,1-1.81-.46C1130.39,835.94,1131.23,836.84,1131.17,837.52Z"/><path class="cls-38" d="M1126.07,831.87c.36-.47.58-.2.81-.42,1.11-1,2.35.84,2,2.32C1127.73,839.34,1123.36,835.46,1126.07,831.87Z"/><path class="cls-38" d="M1117.22,834.37c0-1.12,2.08-1.87,2.24.31C1119.58,836.42,1117.2,836.76,1117.22,834.37Z"/><path class="cls-38" d="M1111.61,849.55c-1,1.94-2.17.67-2-.24C1110.17,846.88,1112.71,847.32,1111.61,849.55Z"/><path class="cls-38" d="M1119.72,866.85c-.3,1.19-1.23,1.69-1.25,2.3,0,1.16-1.85,1.25-1.82.07,0-1.58,1.1-2,1.3-2.78A.91.91,0,0,1,1119.72,866.85Z"/><path class="cls-38" d="M1100.31,833.42c1.17,0,1.25,1.82.08,1.82S1099.14,833.42,1100.31,833.42Z"/><path class="cls-38" d="M1142.42,855.19c.65-.75,1.95-.16,1.53,1.26C1143.12,859.33,1140.36,855.81,1142.42,855.19Z"/><path class="cls-38" d="M1150.3,861.76c-.68,3.23-4.32,1.26-2.83-2.79C1148.35,856.57,1151.6,855.57,1150.3,861.76Z"/><path class="cls-38" d="M1143.71,868.84c1.06-1.16,2.53,1.12,1,2.49S1142,869,1143.71,868.84Z"/><path class="cls-38" d="M1142.78,876.18c.48,0,1.89.71-.82,1A.82.82,0,0,1,1142.78,876.18Z"/><path class="cls-38" d="M1132.76,869c1.17,0,1.25,1.82.08,1.82S1131.59,869,1132.76,869Z"/><path class="cls-38" d="M1164.69,864.31a.59.59,0,0,1,.27-.64C1165,863.3,1166.22,862.27,1164.69,864.31Z"/><path class="cls-38" d="M1155.4,846c-.75.06-1.4-2.17-1-2.62C1155.38,841.52,1157.59,847.35,1155.4,846Z"/><path class="cls-38" d="M1168.39,834.08c-.25.5-1.15.75-1.39-1C1166.85,831.9,1169.18,832.52,1168.39,834.08Z"/><path class="cls-38" d="M1152.05,812.44c-.8-1.84,2,.71,2.17,1.84.66,1.87-.72,3.49-1.6,2.46C1150.74,816.67,1149,812.24,1152.05,812.44Z"/><path class="cls-38" d="M1148.15,824.89c.67,2.67-2.57,1.59-2.17-.93C1146.12,823,1147.72,823.18,1148.15,824.89Z"/><path class="cls-38" d="M1145.41,838a.8.8,0,0,1-1.32.09c-1.52,2-3.25-.45-2.36-2.31C1141.64,832,1146.55,835.41,1145.41,838Z"/><path class="cls-38" d="M1164.81,809.13c.69-1.28,3.47.88,2.27,2.43C1166.83,814,1163.52,811.52,1164.81,809.13Z"/><path class="cls-38" d="M1174.93,809.15c.93-.16.42,3-1.12.85C1173.44,809.49,1174.19,808,1174.93,809.15Z"/><path class="cls-38" d="M1171.61,813.63c1.58-1.73,2.38,3.36.5,3.08C1171.11,817.11,1169.35,814,1171.61,813.63Z"/><path class="cls-38" d="M1165.55,814.74c.3.53-.16,1.26-1,.91C1163.32,815.12,1164.79,813.4,1165.55,814.74Z"/><path class="cls-38" d="M1153.86,799.87c-2.85-.23-2.5-5.39,0-3.44C1154.47,796.45,1155,800,1153.86,799.87Z"/><path class="cls-38" d="M1136.5,798c0-.15-.67-1.77.4-1.68C1139.36,796.49,1136.91,799.84,1136.5,798Z"/><path class="cls-38" d="M1137.09,804.65c1.25-1,2.47,3,.88,3.19C1136.3,809.38,1135.27,806.09,1137.09,804.65Z"/><path class="cls-38" d="M1130.52,822.5c-.75-1.28-.14-1.91.57-1.64C1132.76,821.52,1131.05,823.42,1130.52,822.5Z"/><path class="cls-38" d="M1124.58,818.69c.18-1.21,2.05-.49,2.68.93C1128.47,822.36,1123.93,823.05,1124.58,818.69Z"/><path class="cls-38" d="M1128.25,815.84c.14-1.13,1.79-.82,1.44.56C1130.29,818.2,1127.92,817,1128.25,815.84Z"/><path class="cls-38" d="M1089.26,858.83a4.76,4.76,0,0,1,4.31,1c1.36,1.46,0,3.88-1.44,1.81a1.26,1.26,0,0,1-1.61-.95C1088.43,860.44,1088.39,859.13,1089.26,858.83Z"/><path class="cls-38" d="M1083.46,852.31c3.46,4.54-.84,3.76-.84,2.66C1081,853,1082.58,851.15,1083.46,852.31Z"/><path class="cls-38" d="M1088.83,855.06c1.06-.08.15,3.41-1.18.4C1087.41,854.94,1088.18,854.22,1088.83,855.06Z"/><path class="cls-38" d="M1104.78,853.86c1.85,1.29,0,3.62-1.2.53A.66.66,0,0,1,1104.78,853.86Z"/><path class="cls-38" d="M1090.85,821c-.51-.77-.79-2.46,0-2.81,1-2.71,3.84,1.16,2,3.21C1092.71,823.16,1090.3,822,1090.85,821Z"/><path class="cls-38" d="M1083.69,811.24a.62.62,0,0,1-1.15-.38c-.68.2-1.08-.72-1.08-1.25C1081.49,806.5,1085.17,809.07,1083.69,811.24Z"/><path class="cls-38" d="M1116.57,802.25c.56-1.61,3,.9,1.4,2.85C1117.11,806.18,1115.23,803.28,1116.57,802.25Z"/><path class="cls-38" d="M1104.41,802.14c.43.61-.07,1.78-.92.65a.63.63,0,0,1-.48-.94C1102.38,800.27,1105.06,800.68,1104.41,802.14Z"/><path class="cls-38" d="M1110.74,804.27c.06-.63.88-.9,1.61-.22C1116,805.81,1110,811.65,1110.74,804.27Z"/><path class="cls-38" d="M1110.75,801a.71.71,0,0,1-1.22-.39c-.81.18-.92-1-.82-1.86C1108.91,797,1111.83,799.49,1110.75,801Z"/><path class="cls-38" d="M1114.5,799.89c-.49.06-1.2-1.15-.65-1.61C1114.77,797.51,1115.8,799.74,1114.5,799.89Z"/><path class="cls-38" d="M1074.86,802.8c.07.21,0,4.21-.71-1.38A3.36,3.36,0,0,1,1074.86,802.8Z"/><path class="cls-38" d="M1089.83,802.21c.75,2.25-2.23,2.62-2,.75C1086.82,801.34,1089,799.73,1089.83,802.21Z"/><path class="cls-38" d="M1082.66,803.91c.06,1.19-2,.37-1.6-.78C1081.31,802.2,1082.86,801.9,1082.66,803.91Z"/><path class="cls-38" d="M1103.75,791.6c.39-1.55,2.31-1.67,2.38-.4,0,.26.06.36-.21.4h.18C1105.92,793.61,1103.24,793.63,1103.75,791.6Z"/><path class="cls-38" d="M1101.83,791.6a1.1,1.1,0,0,1-1.3,0Z"/><path class="cls-38" d="M1080,791.55a.6.6,0,0,1,.38.05h-.2a1.59,1.59,0,0,1,.79.68.7.7,0,0,1-1.19.74C1079.18,792.11,1079.48,791.5,1080,791.55Z"/><path class="cls-38" d="M1172.53,791.6a1.37,1.37,0,0,1,1.08-.79c.51-.71,1-.43,1.34.17.84.48.66.6-.28.62,1,.1,1.56.52,0,2C1174,794.36,1171.87,793.11,1172.53,791.6Z"/><circle class="cls-39" cx="1125.72" cy="780.99" r="53.68"/><circle class="cls-40" cx="1125.72" cy="780.99" r="46.69"/><path class="cls-41" d="M1186.23,659.08c16.44,6,16.28,5.61,15.94,6.55a.69.69,0,0,1-.9.42c-16.44-6-16.29-5.61-16-6.55A.72.72,0,0,1,1186.23,659.08Z"/><path class="cls-41" d="M1200.91,668.92a.71.71,0,0,1,0,1.41c-19.09,0-18.56.29-18.56-.71S1182.1,668.92,1200.91,668.92Z"/><path class="cls-41" d="M1071.11,722.86a.71.71,0,0,1,.45-1.34C1098.2,730.4,1101.31,732.92,1071.11,722.86Z"/><path class="cls-41" d="M1091.68,736.64c-23.25-3.75-22.62-3.34-22.45-4.33s-.7-.83,22.68,2.94A.7.7,0,0,1,1091.68,736.64Z"/><path class="cls-41" d="M1241.53,580.59c.7.74.71.3-12.73,13a.7.7,0,0,1-1,0c-.7-.74-.71-.3,12.72-13A.72.72,0,0,1,1241.53,580.59Z"/><path class="cls-41" d="M1231.45,572.33c.91.44.8,0-7.79,17.52a.7.7,0,0,1-.94.33c-.91-.45-.8,0,7.79-17.53A.7.7,0,0,1,1231.45,572.33Z"/><path class="cls-41" d="M1156.71,543.33a.71.71,0,0,1-.43-1.27c22.55-17.29,21.54-16.9,22.15-16.09S1156.86,543.33,1156.71,543.33Z"/><path class="cls-41" d="M1154.24,539.45a.71.71,0,0,1-.56-1.14C1189.85,491.45,1155.91,539.45,1154.24,539.45Z"/><path class="cls-41" d="M1074.51,645.28c0-22-.31-21.52.7-21.52s.71-.66.71,21.52A.7.7,0,1,1,1074.51,645.28Z"/><path class="cls-41" d="M1069.57,645.28c-.78,0-.21.93-7-19.89a.71.71,0,0,1,1.34-.44C1070.41,644.86,1071,645.28,1069.57,645.28Z"/><path class="cls-41" d="M1023.4,570.24c8.87-23.29,8.42-23,9.38-22.63s1-.65-8.06,23.13A.71.71,0,0,1,1023.4,570.24Z"/><path class="cls-41" d="M1018.42,571.55c-.72,0,.05,1.62-8.78-24.11A.7.7,0,0,1,1011,547C1019.41,571.58,1019.82,571.55,1018.42,571.55Z"/><path class="cls-42" d="M1250.9,669.62v33.52a47.27,47.27,0,0,1-47.27,47.27h-52.92V703.14c55.24,0,50.09,6.47,50.09-33.52C1200.8,636.51,1250.9,636.46,1250.9,669.62Z"/><path class="cls-43" d="M1235,662.22c2,0,1.41-.69,1.41,37.22a35.13,35.13,0,0,1-35.09,35.09h-39a1.41,1.41,0,0,1,0-2.82h39a32.3,32.3,0,0,0,32.27-32.27C1233.61,661.57,1233,662.22,1235,662.22Z"/><path class="cls-43" d="M1216,661.86c2,0,1.41-.25,1.41,33.36a21.34,21.34,0,0,1-21.32,21.32h-34.42a1.41,1.41,0,0,1,0-2.82h34.42a18.52,18.52,0,0,0,18.5-18.5C1214.56,661.66,1214,661.86,1216,661.86Z"/><path class="cls-42" d="M1058.36,644.58h57.54l-8.46,47h-58.26a57.06,57.06,0,0,1-57-53.74l-2.26-39a27,27,0,0,1,27-28.61h5.25a27,27,0,0,1,26.92,29.54l-2.92,31.42A12.22,12.22,0,0,0,1058.36,644.58Z"/><path class="cls-43" d="M1054,662.22A23.05,23.05,0,0,1,1031,639.76l-1-48.78a1.41,1.41,0,0,1,2.82-.05l1,48.77A20.2,20.2,0,0,0,1054,659.39c39.2,0,38.54-.6,38.54,1.41S1093.3,662.22,1054,662.22Z"/><path class="cls-43" d="M1049.88,677.38a39.87,39.87,0,0,1-39.65-38.83l-1-46.86c0-1.63,1.87-1.44,1.41-1.44,2,0,1.34-2,2.39,48.24a37,37,0,0,0,36.83,36.07h41.21a1.41,1.41,0,0,1,0,2.82Z"/><path class="cls-42" d="M1212.34,628l-72.92-2.19V589.07l72.92-2.18C1240.29,586.05,1240.33,628.79,1212.34,628Z"/><path class="cls-43" d="M1216.56,602.24c-58.07,0-56,.62-56-1.41s-2.58-1.41,56-1.41A1.41,1.41,0,0,1,1216.56,602.24Z"/><path class="cls-43" d="M1216.56,613.53c-58.07,0-56,.62-56-1.41s-2.58-1.41,56-1.41A1.41,1.41,0,0,1,1216.56,613.53Z"/><path class="cls-42" d="M1089,562.26a36.75,36.75,0,1,1,73.49,0l-2.4,215.9c.12,40.16-67.63,37.45-68.68,0Z"/><path class="cls-18" d="M1196.67,565.71s4.79-17.12,5.94-17.15c1.63,0,14.9,39.35-3.91,39.71-14.58.29-29.54,3.8-25.28-20.76,3.95-22.73,3.87-25.44,10.52-2.8C1189.38,535.6,1190,537,1196.67,565.71Z"/><path class="cls-44" d="M1185.52,573.64c4.4-17.72,5-17.52,10.34.58,0,0,4-10.71,4.9-10.73s3.6,7,4.56,12.18c2.78,15-9.22,12.66-20.07,12.86-15.29.3-5.66-24.63-4.65-24.65C1181.82,563.85,1185.52,573.64,1185.52,573.64Z"/><path class="cls-43" d="M1144.59,802.28a1.5,1.5,0,0,1-1.41-1.6c4-260.31,3-245.93,5.18-245.93a1.49,1.49,0,0,1,1.41,1.59C1145.76,816.66,1146.75,802.28,1144.59,802.28Z"/><path class="cls-43" d="M1131.89,806.74a1.51,1.51,0,0,1-1.41-1.59c2-278.12,1.12-262.63,3.3-262.63a1.52,1.52,0,0,1,1.41,1.6C1133.18,822.24,1134.07,806.74,1131.89,806.74Z"/><path class="cls-43" d="M1117.78,805.7c-2.19,0-1.38,15.49-1.88-262.08a1.49,1.49,0,0,1,1.41-1.57c2.19,0,1.38-15.49,1.89,262.07A1.49,1.49,0,0,1,1117.78,805.7Z"/><path class="cls-43" d="M1105.55,800.69c-2.18,0-1.32,13.47-2.82-234.51a1.47,1.47,0,0,1,1.41-1.55c2.18,0,1.32-13.48,2.83,234.5A1.48,1.48,0,0,1,1105.55,800.69Z"/><path class="cls-18" d="M1086.23,586.68c-7.34.25-20.68-5.31-16.44-32.27,5.55-35.22,5.35-39.41,16.18-4.59,7.66-45,8.69-43.08,19.69,1.23,0,0,7-26.58,8.75-26.64,2.47-.09,24.06,60.42-5.05,61.45Z"/><path class="cls-44" d="M1075.44,566.55c4.73-22,4.61-24.67,13.19-3,6.38-27.54,7.3-27.12,16,.63,0,0,5.86-16.65,7.29-16.7,2-.07,19.13,37.59-4.52,38.42C1092.41,586.46,1070.1,591.35,1075.44,566.55Z"/><rect class="cls-45" y="864.05" width="1261.16" height="13.12" rx="6.56"/><g class="cls-46"><rect class="cls-30" x="311.14" y="277.38" width="624" height="365.33"/><path class="cls-47" d="M490.73,387.49H388.65a29.47,29.47,0,1,1,14-55.38A41.84,41.84,0,0,1,482.4,334a27.12,27.12,0,0,1,8.33-1.33,27.41,27.41,0,0,1,0,54.82ZM388.65,330.56a27.47,27.47,0,0,0,0,54.93H490.73a25.41,25.41,0,1,0-8.67-49.26l-1,.37-.28-1.06a39.84,39.84,0,0,0-76.59-1.66l-.37,1.22-1.1-.65A27.36,27.36,0,0,0,388.65,330.56Z"/><path class="cls-47" d="M664,654.69H570.57a27.05,27.05,0,1,1,12.75-50.88,38.37,38.37,0,0,1,73.09,1.74,24.88,24.88,0,0,1,7.57-1.19,25.17,25.17,0,0,1,0,50.33Zm-93.41-52.1a25.05,25.05,0,1,0,0,50.1H664a23.17,23.17,0,1,0-7.91-44.92l-1,.38-.28-1.06a36.37,36.37,0,0,0-69.92-1.51l-.37,1.21-1.1-.65A25,25,0,0,0,570.57,602.59Z"/><path class="cls-48" d="M876.07,471.49H774a29.47,29.47,0,1,1,14-55.38A41.84,41.84,0,0,1,867.73,418a27.13,27.13,0,0,1,8.34-1.33,27.41,27.41,0,0,1,0,54.82ZM774,414.56a27.47,27.47,0,1,0,0,54.93H876.07a25.41,25.41,0,1,0-8.68-49.26l-1,.37-.27-1.06a39.84,39.84,0,0,0-76.59-1.66l-.38,1.22-1.09-.65A27.38,27.38,0,0,0,774,414.56Z"/><path class="cls-12" d="M734.07,307.49H632a29.47,29.47,0,1,1,14-55.38A41.84,41.84,0,0,1,725.73,254a27.13,27.13,0,0,1,8.34-1.33,27.41,27.41,0,0,1,0,54.82ZM632,250.56a27.47,27.47,0,1,0,0,54.93H734.07a25.41,25.41,0,1,0-8.68-49.26l-1,.37-.27-1.06a39.84,39.84,0,0,0-76.59-1.66l-.38,1.22-1.09-.65A27.38,27.38,0,0,0,632,250.56Z"/><path class="cls-49" d="M563.36,487.49H489.47a21.61,21.61,0,1,1,10-40.76,30.57,30.57,0,0,1,58.08,1.41,20.11,20.11,0,1,1,5.85,39.35Zm-73.89-41.21a19.61,19.61,0,1,0,0,39.21h73.89a18.12,18.12,0,1,0,0-36.23,17.92,17.92,0,0,0-6.18,1.11l-1,.37-.27-1.06A28.56,28.56,0,0,0,501,448.49l-.38,1.22-1.09-.65A19.56,19.56,0,0,0,489.47,446.28Z"/><path class="cls-18" d="M496.83,566.16H433.77A18.59,18.59,0,1,1,442.19,531a26.23,26.23,0,0,1,49.75,1.23,17,17,0,0,1,4.89-.72,17.32,17.32,0,0,1,0,34.63ZM433.77,531a16.59,16.59,0,1,0,0,33.17h63.06a15.32,15.32,0,1,0-5.23-29.69l-1,.37-.28-1.06a24.23,24.23,0,0,0-46.58-1l-.37,1.22-1.09-.65A16.55,16.55,0,0,0,433.77,531Z"/><path class="cls-3" d="M361.5,480.83H298.44a18.59,18.59,0,1,1,8.42-35.14,26.23,26.23,0,0,1,49.74,1.23,17.1,17.1,0,0,1,4.9-.72,17.32,17.32,0,0,1,0,34.63Zm-63.06-35.18a16.59,16.59,0,1,0,0,33.18H361.5a15.32,15.32,0,1,0-5.23-29.7l-1,.38-.28-1.06a24.23,24.23,0,0,0-46.58-1l-.37,1.22-1.1-.66A16.58,16.58,0,0,0,298.44,445.65Z"/><path class="cls-50" d="M944.16,294.49a16.31,16.31,0,1,0-5.57-31.63,25.23,25.23,0,0,0-48.5-1.05,17.58,17.58,0,1,0-9,32.68Z"/><path class="cls-51" d="M943.5,622.16H880.44A18.59,18.59,0,1,1,888.86,587a26.23,26.23,0,0,1,49.74,1.23,17.1,17.1,0,0,1,4.9-.72,17.32,17.32,0,0,1,0,34.63ZM880.44,587a16.59,16.59,0,1,0,0,33.17H943.5a15.32,15.32,0,1,0-5.23-29.69l-1,.37-.28-1.06a24.23,24.23,0,0,0-46.58-1L890,590l-1.1-.65A16.49,16.49,0,0,0,880.44,587Z"/><path class="cls-12" d="M600.42,361.57H553.84A14,14,0,1,1,559.92,335a19.63,19.63,0,0,1,37.06.95,12.68,12.68,0,0,1,3.44-.47,13.05,13.05,0,1,1,0,26.1Zm-46.58-26a12,12,0,0,0,0,24h46.58a11.05,11.05,0,1,0-3.77-21.43l-1,.38-.28-1.06a17.63,17.63,0,0,0-33.9-.74l-.38,1.22-1.09-.65A11.88,11.88,0,0,0,553.84,335.59Z"/><rect class="cls-52" x="808.48" y="314.71" width="87.33" height="18" rx="9"/><path class="cls-47" d="M454,431.22H409a6.84,6.84,0,1,1,0-13.68h45a6.84,6.84,0,0,1,0,13.68Zm-45-11.68a4.84,4.84,0,1,0,0,9.68h45a4.84,4.84,0,0,0,0-9.68Z"/><rect class="cls-48" x="510.79" y="289.54" width="56.71" height="11.69" rx="5.84"/><path class="cls-53" d="M709.53,350.55c0,8.9-7,14-15.35,14-6.59,0-12.45-3.23-14.56-9.29l3-1.71c1.52,4.94,5.93,7.64,11.6,7.64,6.85,0,11.86-4,11.86-10.68s-5-10.67-11.86-10.67H681.86l1.58-22.14h24.38V321H686.54l-1.06,15.48h8.7C702.48,336.52,709.53,341.66,709.53,350.55Z"/><path class="cls-53" d="M345.46,299.08V345.2H342V302.9l-10.67,3.36-.86-3,12.06-4.15Z"/><path class="cls-53" d="M422.4,505.89c0,8.89-7,14-15.22,14-6.72,0-12.45-3.1-14.69-8.76l2.9-1.71c1.71,4.61,6,7.11,11.79,7.11,6.72,0,11.73-4,11.73-10.67s-5-10.68-11.86-10.68v-.06l-.06.06h-.93l-1.51-2.3,11.66-16.54H393.68v-3.29h26.55v3.29L409.1,492.25C416.47,493,422.4,497.72,422.4,505.89Z"/><path class="cls-53" d="M539.49,567.37,556.42,550c4-4.15,7.45-8.5,7.45-13,0-6.33-4.55-9.89-10.15-9.89a11.47,11.47,0,0,0-11,7l-3-1.78a15,15,0,0,1,14-8.57c7,0,13.7,4.68,13.7,13.25,0,5.73-3.95,10.8-8.63,15.55L544.5,567.17h24v3.36h-29Z"/><path class="cls-53" d="M910.76,388.18h-5.93v9.68h-3.49v-9.68H876.5v-3.3L894,351.74h3.82l-17.46,33.14h21V370.39h3.49v14.49h5.93Z"/><path class="cls-53" d="M917.63,523.4l-15.42,22.46h-4l11.79-17.19a18.16,18.16,0,0,1-5.07.72c-9,0-15.48-6.19-15.48-15.22S896,499,905,499s15.48,6.19,15.48,15.15A15.66,15.66,0,0,1,917.63,523.4ZM905,526c7.31,0,12-4.94,12-11.86s-4.68-11.79-12-11.79-11.93,4.94-11.93,11.79S897.67,526,905,526Z"/><rect class="cls-47" x="563.14" y="625.38" width="104" height="3.33" rx="1.67"/><rect class="cls-30" x="631.14" y="277.38" width="104" height="3.33" rx="1.67"/><rect class="cls-47" x="388.48" y="358.71" width="104" height="3.33" rx="1.67"/><rect class="cls-49" x="491.81" y="464.71" width="104" height="3.33" rx="1.67"/><rect class="cls-48" x="774.48" y="441.38" width="104" height="3.33" rx="1.67"/><rect class="cls-3" x="298.64" y="460.71" width="61" height="3.33" rx="1.28"/></g><path class="cls-51" d="M334.64,411.38a1,1,0,0,1-1-1v-39.5a1,1,0,0,1,2,0v39.5A1,1,0,0,1,334.64,411.38Z"/><path class="cls-51" d="M361.14,426.38a1,1,0,0,1-1-1v-24.5a1,1,0,0,1,2,0v24.5A1,1,0,0,1,361.14,426.38Z"/><path class="cls-51" d="M329.64,531.88a1,1,0,0,1-1-1v-32a1,1,0,0,1,2,0v32A1,1,0,0,1,329.64,531.88Z"/><path class="cls-51" d="M358.14,519.88a1,1,0,0,1-1-1v-15.5a1,1,0,0,1,2,0v15.5A1,1,0,0,1,358.14,519.88Z"/><path class="cls-51" d="M440.64,484.38a1,1,0,0,1-1-1v-30.5a1,1,0,0,1,2,0v30.5A1,1,0,0,1,440.64,484.38Z"/><path class="cls-51" d="M479.14,430.88a1,1,0,0,1-1-1v-29.5a1,1,0,0,1,2,0v29.5A1,1,0,0,1,479.14,430.88Z"/><path class="cls-51" d="M367.14,319.88a1,1,0,0,1-1-1v-25.5a1,1,0,0,1,2,0v25.5A1,1,0,0,1,367.14,319.88Z"/><path class="cls-51" d="M397.64,310.38a1,1,0,0,1-1-1v-16a1,1,0,0,1,2,0v16A1,1,0,0,1,397.64,310.38Z"/><path class="cls-51" d="M491.14,317.38a1,1,0,0,1-1-1v-22a1,1,0,0,1,2,0v22A1,1,0,0,1,491.14,317.38Z"/><path class="cls-51" d="M528.14,349.88a1,1,0,0,1-1-1v-30.5a1,1,0,0,1,2,0v30.5A1,1,0,0,1,528.14,349.88Z"/><path class="cls-51" d="M504.14,418.38a1,1,0,0,1-1-1v-18a1,1,0,0,1,2,0v18A1,1,0,0,1,504.14,418.38Z"/><path class="cls-51" d="M532.64,411.38a1,1,0,0,1-1-1v-36.5a1,1,0,0,1,2,0v36.5A1,1,0,0,1,532.64,411.38Z"/><path class="cls-51" d="M458.64,502.38a1,1,0,0,1-1-1v-21a1,1,0,0,1,2,0v21A1,1,0,0,1,458.64,502.38Z"/><path class="cls-51" d="M500.64,520.88a1,1,0,0,1-1-1v-21a1,1,0,0,1,2,0v21A1,1,0,0,1,500.64,520.88Z"/><path class="cls-51" d="M526.64,540.88a1,1,0,0,1-1-1v-39.5a1,1,0,0,1,2,0v39.5A1,1,0,0,1,526.64,540.88Z"/><path class="cls-51" d="M555.14,513.38a1,1,0,0,1-1-1v-11.5a1,1,0,0,1,2,0v11.5A1,1,0,0,1,555.14,513.38Z"/><path class="cls-51" d="M509.64,607.38a1,1,0,0,1-1-1v-28.5a1,1,0,0,1,2,0v28.5A1,1,0,0,1,509.64,607.38Z"/><path class="cls-51" d="M528.14,635.38a1,1,0,0,1-1-1v-41a1,1,0,0,1,2,0v41A1,1,0,0,1,528.14,635.38Z"/><path class="cls-51" d="M551.64,595.88a1,1,0,0,1-1-1v-12.5a1,1,0,0,1,2,0v12.5A1,1,0,0,1,551.64,595.88Z"/><path class="cls-51" d="M582.64,579.88a1,1,0,0,1-1-1v-37a1,1,0,0,1,2,0v37A1,1,0,0,1,582.64,579.88Z"/><path class="cls-51" d="M606.14,566.38a1,1,0,0,1-1-1v-28.5a1,1,0,0,1,2,0v28.5A1,1,0,0,1,606.14,566.38Z"/><path class="cls-51" d="M607.14,323.38a1,1,0,0,1-1-1v-13.5a1,1,0,0,1,2,0v13.5A1,1,0,0,1,607.14,323.38Z"/><path class="cls-51" d="M631.14,360.38a1,1,0,0,1-1-1v-35a1,1,0,0,1,2,0v35A1,1,0,0,1,631.14,360.38Z"/><path class="cls-51" d="M658.64,347.38a1,1,0,0,1-1-1v-26a1,1,0,0,1,2,0v26A1,1,0,0,1,658.64,347.38Z"/><path class="cls-51" d="M686.64,397.88a1,1,0,0,1-1-1v-18.5a1,1,0,0,1,2,0v18.5A1,1,0,0,1,686.64,397.88Z"/><path class="cls-51" d="M713.14,416.88a1,1,0,0,1-1-1v-28.5a1,1,0,0,1,2,0v28.5A1,1,0,0,1,713.14,416.88Z"/><path class="cls-51" d="M725.64,344.88a1,1,0,0,1-1-1v-27a1,1,0,0,1,2,0v27A1,1,0,0,1,725.64,344.88Z"/><path class="cls-51" d="M764.14,330.38a1,1,0,0,1-1-1v-29a1,1,0,0,1,2,0v29A1,1,0,0,1,764.14,330.38Z"/><path class="cls-51" d="M784.64,364.38a1,1,0,0,1-1-1v-30.5a1,1,0,0,1,2,0v30.5A1,1,0,0,1,784.64,364.38Z"/><path class="cls-51" d="M813.64,378.88a1,1,0,0,1-1-1v-24a1,1,0,0,1,2,0v24A1,1,0,0,1,813.64,378.88Z"/><path class="cls-51" d="M790.64,306.88a1,1,0,0,1-1-1v-20a1,1,0,0,1,2,0v20A1,1,0,0,1,790.64,306.88Z"/><path class="cls-51" d="M828.52,306.63a1,1,0,0,1-1-1v-25.5a1,1,0,0,1,2,0v25.5A1,1,0,0,1,828.52,306.63Z"/><path class="cls-51" d="M844.14,369.38a1,1,0,0,1-1-1v-15.5a1,1,0,0,1,2,0v15.5A1,1,0,0,1,844.14,369.38Z"/><path class="cls-51" d="M914.14,343.38a1,1,0,0,1-1-1v-34a1,1,0,0,1,2,0v34A1,1,0,0,1,914.14,343.38Z"/><path class="cls-51" d="M919.64,448.38a1,1,0,0,1-1-1v-32.5a1,1,0,0,1,2,0v32.5A1,1,0,0,1,919.64,448.38Z"/><path class="cls-51" d="M872.14,507.88a1,1,0,0,1-1-1v-22a1,1,0,0,1,2,0v22A1,1,0,0,1,872.14,507.88Z"/><path class="cls-51" d="M907.64,485.88a1,1,0,0,1-1-1v-16.5a1,1,0,0,1,2,0v16.5A1,1,0,0,1,907.64,485.88Z"/><path class="cls-51" d="M745.14,512.88a1,1,0,0,1-1-1v-29.5a1,1,0,0,1,2,0v29.5A1,1,0,0,1,745.14,512.88Z"/><path class="cls-51" d="M722.14,556.88a1,1,0,0,1-1-1v-23a1,1,0,0,1,2,0v23A1,1,0,0,1,722.14,556.88Z"/><path class="cls-51" d="M753.14,597.88a1,1,0,0,1-1-1v-33.5a1,1,0,0,1,2,0v33.5A1,1,0,0,1,753.14,597.88Z"/><path class="cls-51" d="M659.14,583.38a1,1,0,0,1-1-1v-21.5a1,1,0,0,1,2,0v21.5A1,1,0,0,1,659.14,583.38Z"/><path class="cls-51" d="M691.64,598.88a1,1,0,0,1-1-1v-26.5a1,1,0,0,1,2,0v26.5A1,1,0,0,1,691.64,598.88Z"/><path class="cls-51" d="M716.64,635.88a1,1,0,0,1-1-1v-24.5a1,1,0,0,1,2,0v24.5A1,1,0,0,1,716.64,635.88Z"/><path class="cls-51" d="M920.64,561.88a1,1,0,0,1-1-1v-16.5a1,1,0,0,1,2,0v16.5A1,1,0,0,1,920.64,561.88Z"/><path class="cls-51" d="M386.64,460.38a1,1,0,0,1-1-1v-34a1,1,0,0,1,2,0v34A1,1,0,0,1,386.64,460.38Z"/><path class="cls-30" d="M491.81,635.71a91.18,91.18,0,0,1-8.7,39H317.17a91.67,91.67,0,1,1,174.64-39Z"/><path class="cls-54" d="M483.11,674.71a91.69,91.69,0,0,1-165.94,0Z"/><path class="cls-47" d="M492.08,625.3a3.41,3.41,0,0,1-2.42-1,32.61,32.61,0,0,0-34.38-7.59,3.43,3.43,0,0,1-4.48-2.36,52.58,52.58,0,0,0-101.07-2.18,3.42,3.42,0,0,1-5,1.93,35.49,35.49,0,0,0-38.11,1,3.43,3.43,0,0,1-3.84-5.68,42.37,42.37,0,0,1,41.78-3.2,59.44,59.44,0,0,1,111.88,2.92,39.49,39.49,0,0,1,38.09,10.29,3.43,3.43,0,0,1-2.42,5.85Z"/><path class="cls-47" d="M452.76,654H332.09a3.43,3.43,0,0,1,0-6.86H452.76a3.43,3.43,0,0,1,0,6.86Z"/><circle class="cls-49" cx="397.77" cy="649.51" r="12.99"/><circle class="cls-32" cx="397.77" cy="649.51" r="5.89"/><path class="cls-55" d="M756.93,430.44c-12,4.51-45.49,47.92-45.49,47.92s-24,24.8-14.69,28,33.94-5.63,60.39-25.75Z"/><path class="cls-56" d="M876.23,839.8c-.34,5-10.67,13-17.34,15.66s-13,3-13.33,5.34l-.33,2.33s15.16-.37,27.16-1.5a53.82,53.82,0,0,0,18.84-5.5l.29,3.13,9.75-.75s-.38-13.71-4.71-23.71Z"/><path class="cls-29" d="M891.23,856.13l.29,3.13,9.75-.75s-.06-2.13-.39-5.3a83.72,83.72,0,0,0-8.49.8c-4.87.75-9.91,4.7-18.12,5.62-5.66.63-17.31,1.59-28.79,1.74-.25,1.74-.25,1.76-.25,1.76s15.16-.37,27.16-1.5A53.82,53.82,0,0,0,891.23,856.13Z"/><path class="cls-14" d="M896.56,834.8l-20.33,5c-.11,1.65-1.32,3.63-3.12,5.64a40.61,40.61,0,0,0,16.7,2.19c4.85-.46,8.38-1,10.09-1.23A55.09,55.09,0,0,0,896.56,834.8Z"/><path class="cls-57" d="M837.81,685.05c.67,34.66,34,157.33,34,157.33,6,2.53,23.05,1.58,28.33-2.33,0,0-11.66-107.67-16.33-139.67s-4-38-4-38Z"/><path class="cls-56" d="M781.77,841.59c-.77,5-11.77,12-18.64,14.09s-13.22,1.84-13.75,4.14l-.54,2.29s15.14,1,27.19.9a53.68,53.68,0,0,0,19.25-3.83v3.14l9.78.11s.83-13.69-2.6-24Z"/><path class="cls-29" d="M795.28,859.18v3.14l9.78.11s.13-2.12.08-5.31c-2-.08-5.39-.15-8.52,0-4.93.32-10.3,3.82-18.55,4-5.7.13-17.38.07-28.83-.8-.41,1.71-.41,1.73-.41,1.73s15.14,1,27.19.9A53.68,53.68,0,0,0,795.28,859.18Z"/><path class="cls-14" d="M802.47,838.4l-20.7,3.2c-.25,1.63-1.63,3.5-3.6,5.34a40.49,40.49,0,0,0,16.44,3.65c4.88,0,8.44-.22,10.16-.33A55,55,0,0,0,802.47,838.4Z"/><path class="cls-57" d="M774.63,684.17c-6,34.16,3.85,160.13,3.85,160.13,3.71,3.41,22.17,3,27.47.13,0,0,9.38-104.12,10.91-136.43s3.32-38.06,3.32-38.06Z"/><path class="cls-14" d="M879.81,662.38l-42,22.67a140.88,140.88,0,0,0,1.65,16.66,88.64,88.64,0,0,0,28.18-3.08,146.39,146.39,0,0,0,15.22-4.9C879.24,667.54,879.81,662.38,879.81,662.38Z"/><path class="cls-14" d="M774.63,684.17a172.07,172.07,0,0,0-1.77,23.15c8.34,1.89,26.49,5.14,43.91,2.42q0-.9.09-1.74c1.52-32.3,3.32-38.06,3.32-38.06Z"/><path class="cls-58" d="M759.14,427.71c-9.26,6.77-12.33,19.67-6,56.67s10.67,116.33,10,144-3,70.67-3,70.67,34.5,6.16,56.5-3.17l-34-275S769.64,420.05,759.14,427.71Z"/><path class="cls-58" d="M740.81,412.88c-1.55,2.17,9.5,2.17,16.17,8.33,4.85,4.5,14,16.17,14,16.17l-1-39.67S744.14,408.21,740.81,412.88Z"/><polygon class="cls-59" points="775.02 375.01 793.64 407.63 772.39 439.88 759.39 406.13 765.14 370.63 775.02 375.01"/><path class="cls-14" d="M768.77,377.88l-4.38,3.75L756,406.51l.52,2.79a15.43,15.43,0,0,0,3.74-.88l3.78,9.84a32.87,32.87,0,0,0,5.21-10.38c2.75-9.62-.75-24.87-.75-24.87a49.44,49.44,0,0,1,5.37-4.75Z"/><path class="cls-59" d="M730,368.55c2.5,11.83,11.5,39.16,21.83,40.66,7.89,1.15,13.63-1,16.46-11.7s-8.88-41.38-8.88-41.38Z"/><path class="cls-54" d="M745.14,370.63c2.17,2.92,5.5,2.33,7.84,3s4.33,4.67,4.33,4.67l3.17-1.5-.09-7.75s5.17,9.66,9.42,10.33a16.58,16.58,0,0,0,7.5-.5s-1.67-18.79-8.67-26.12-12.7-8.5-20.12-6.5S745.14,370.63,745.14,370.63Z"/><path class="cls-60" d="M735.31,384.67l-.59,11a.91.91,0,0,0,1.28.88l4.64-2.06Z"/><circle class="cls-29" cx="741.02" cy="383.38" r="1.08"/><path class="cls-23" d="M736.22,381.83a4.83,4.83,0,0,1,1.2-2.29,7.43,7.43,0,0,1,2-1.61,8,8,0,0,1,2.41-.89,5.41,5.41,0,0,1,2.56,0c-1.54.76-2.89,1.42-4.24,2.18-.67.37-1.32.76-2,1.18S736.91,381.3,736.22,381.83Z"/><path class="cls-60" d="M756.17,367.59a9.68,9.68,0,0,1,8.18,17.54Z"/><path class="cls-61" d="M758.1,371.74a5.1,5.1,0,1,1,4.31,9.24Z"/><path class="cls-14" d="M770.4,355c-2.85-3.37-8.74-8.86-17.25-9.54a24.42,24.42,0,0,0-4.63.82c-4.47,1.2-4.78,9.79-4.32,16.44L730,368.55a128.69,128.69,0,0,0,5.25,17.59l-.12,2.22c4.73-4.21,6.59-11.64,7.27-13a59.88,59.88,0,0,0,15.38-4.48,32.91,32.91,0,0,0,5.22-3.06,35.7,35.7,0,0,0,14.27,10.47C777,375.47,775.31,362.37,770.4,355Z"/><path class="cls-57" d="M727.77,375c5.79.12,19.32-.79,29.61-5.62A33,33,0,0,0,772,356.11s-11.55-18.92-31.81-9.73C722.12,354.58,727.77,375,727.77,375Z"/><path class="cls-62" d="M727.77,375a63.45,63.45,0,0,0-7.46,13.88.79.79,0,0,0,1,1,46.35,46.35,0,0,0,12.6-6.85c6.54-5.17,8.36-9.76,8.36-9.76Z"/><path class="cls-62" d="M772,356.11a71.75,71.75,0,0,1,15.31,10.06.8.8,0,0,1-.26,1.36c-2.74.89-10.27,2.38-24.62-1.22Z"/><path class="cls-63" d="M742.27,373.32c-4.39-10.92-4.12-23.49.27-28a22.61,22.61,0,0,1,14.52,8.32c5.68,7.47,5.36,12.64,5.36,12.64s-5.68,4.14-10.83,5.51A45,45,0,0,1,742.27,373.32Z"/><path class="cls-60" d="M740.81,398.21c2.5-.91,5.33-3.5,6.33-2.75s-5.16,4.42-5.16,4.42Z"/><path class="cls-29" d="M737.9,346.35a2.3,2.3,0,0,1-1.48-.3.6.6,0,0,1-.17-.55,1.61,1.61,0,0,1,1-1,6.32,6.32,0,0,1,5.52.44.48.48,0,0,1,.24.49.47.47,0,0,1-.39.39A30.44,30.44,0,0,1,737.9,346.35Zm-.39-.93a23.11,23.11,0,0,0,3.2-.27,5.19,5.19,0,0,0-2.85.1A2.3,2.3,0,0,0,737.51,345.42Z"/><path class="cls-29" d="M742.54,345.82h-.09a.5.5,0,0,1-.37-.36c0-.12-.73-3.15.32-4.67a2,2,0,0,1,1.43-.86,1.1,1.1,0,0,1,1.2.46c.68,1.14-1.24,4.05-2.1,5.24A.47.47,0,0,1,742.54,345.82Zm1.55-5H744a1,1,0,0,0-.77.46,4.56,4.56,0,0,0-.36,2.77c1-1.51,1.59-2.92,1.4-3.23Z"/><path class="cls-29" d="M742.54,345.82a.5.5,0,0,1-.38-.19.48.48,0,0,1,.1-.66l.52-.4c1.81-1.38,3.53-2.69,6.05-2.84a.48.48,0,0,1,.5.44.47.47,0,0,1-.45.5c-2.22.14-3.76,1.31-5.53,2.66l-.52.39A.46.46,0,0,1,742.54,345.82Z"/><circle class="cls-60" cx="750.77" cy="387.01" r="4.63"/><polygon class="cls-30" points="765.31 421.71 775.48 406.38 780.64 426.21 771.14 436.55 765.31 421.71"/><path class="cls-64" d="M797.66,379.63a1.79,1.79,0,0,0-2.58-1.58,36,36,0,0,0-17.77,17.16c-3.3,6.61-8.42,19.84-6.67,39.34s8.5,128.33,21.5,178.33,25.5,87.5,25.5,87.5,36.5-4.5,61-15,37-21.5,37-21.5-18.5-92.5-43-151-38.5-81-52-90.5-19.5-10-19.5-10a42.41,42.41,0,0,1-4.5-15.83C796.3,390.67,797.69,383.44,797.66,379.63Z"/><path class="cls-65" d="M782,413.55s-5.3-14.91-2.2-22.6a40.5,40.5,0,0,0-2.47,4.26c-3.3,6.61-8.42,19.84-6.67,39.34C774.48,424.71,779,416.21,782,413.55Z"/><path class="cls-66" d="M837.81,456.38l-43-2a121.94,121.94,0,0,1-17.33,36c-5.8,8-14,14.43-21,19,2.76,25.07,4.87,56.38,5.93,81.84,2.43-1.74,5.1-3.68,8-5.86C810.48,555.71,840.48,488.38,837.81,456.38Z"/><path class="cls-67" d="M735.64,405c2.29-1.93,11.91-.37,12,1.05s-8,.8-8,.8,4.2,4.68,4.14,7.27-.45,7-.45,7,2.65-14,4.43-14.16,1.48,11.7.26,15.34S736.68,441,736.68,441l-10.91-6.1s5.78-8.57,5.83-12.37-3.34-13.63-1.94-15.48,2.5-.84,2.5-.84,0-2.42,1.1-2.63S735.64,405,735.64,405Z"/><path class="cls-68" d="M724.48,429.29l18.07,11.06s-19.82,73.07-45.8,66S724.48,429.29,724.48,429.29Z"/><path class="cls-55" d="M864.81,594.38a.92.92,0,0,1-.36-.07c-22.85-8.94-57.53-32.87-57.88-33.11a1,1,0,0,1,1.14-1.64c.35.24,34.84,24,57.46,32.89a1,1,0,0,1-.36,1.93Z"/><path class="cls-47" d="M711.17,532.78s-8.91-65-32.1-101.17c-25.36-39.55-86.27-74-86.27-74l-25.33,19.84c-30.07,19.29-28.86,74.82,2.7,124s81.52,73.46,111.59,54.17a40.7,40.7,0,0,0,5.67-4.4Z"/><path class="cls-14" d="M681.76,555.63a40.7,40.7,0,0,0,5.67-4.4l23.74-18.45s-.46-3.37-1.45-9c-22.29,2.83-56.09,7.07-56.74,6.79-23.6-10.46-52.83-18.11-90.75-42.83,2.39,4.6,5,9.19,7.94,13.72C601.73,550.66,651.69,574.92,681.76,555.63Z"/><ellipse class="cls-69" cx="649.04" cy="447.68" rx="64.69" ry="105.85" transform="translate(-138.98 421.26) rotate(-32.68)"/><ellipse class="cls-70" cx="649.94" cy="446.68" rx="64.69" ry="105.85" transform="translate(-138.3 421.59) rotate(-32.68)"/><path class="cls-71" d="M701.85,525.22a28.77,28.77,0,0,1-4.58,2.37c6.42-22.65-.66-56.73-20.39-87.5-21.73-33.88-54.68-56.71-80.12-55.52A33.2,33.2,0,0,0,585.59,387c2.56-9.08,7.3-16.33,14.25-20.79a31.46,31.46,0,0,1,15.76-4.78C641,360.2,674,383,695.72,416.91,723.37,460,726.18,509.62,701.85,525.22Z"/><path class="cls-47" d="M700.94,526.21a28.25,28.25,0,0,1-4.57,2.37c6.42-22.65-.66-56.73-20.39-87.5-21.73-33.88-54.68-56.71-80.13-55.52A33.3,33.3,0,0,0,584.68,388c2.57-9.08,7.31-16.33,14.26-20.79a31.56,31.56,0,0,1,15.76-4.78c25.44-1.19,58.39,21.64,80.12,55.52C722.47,461,725.28,510.61,700.94,526.21Z"/><path class="cls-14" d="M700.94,526.21a28.25,28.25,0,0,1-4.57,2.37c6.42-22.65-.66-56.73-20.39-87.5-21.73-33.88-54.68-56.71-80.13-55.52A33.3,33.3,0,0,0,584.68,388c2.57-9.08,7.31-16.33,14.26-20.79a31.56,31.56,0,0,1,15.76-4.78c25.44-1.19,58.39,21.64,80.12,55.52C722.47,461,725.28,510.61,700.94,526.21Z"/><path class="cls-72" d="M696.37,528.58A32.83,32.83,0,0,1,685.2,531c-25.45,1.19-58.4-21.64-80.13-55.52-19.74-30.77-26.82-64.86-20.39-87.52a33.3,33.3,0,0,1,11.17-2.39c25.45-1.19,61.86,17.37,83.59,51.25C699.17,467.58,702.79,505.93,696.37,528.58Z"/><path class="cls-73" d="M679.44,436.81c-21.73-33.88-58.14-52.44-83.59-51.25A33.3,33.3,0,0,0,584.68,388a66.73,66.73,0,0,0-1.93,10.36c14.75-5.75,70.88,8.72,92.61,42.6,18.9,29.48,23,65.89,17.68,88.82a29.07,29.07,0,0,0,3.33-1.15C702.79,505.93,699.17,467.58,679.44,436.81Z"/><path class="cls-74" d="M628.26,418c14.68,4.43,33.16,24.21,39.26,42.9Z"/><path class="cls-23" d="M791.13,675.31c8.72,12.2-12.33,27-20.91,15L677,556.7c.17-5.1,10.3-13.27,17.82-12.74Z"/><path class="cls-75" d="M681.81,549.34l89.83,128.78c5.33,7.44,15.44,4.59,20.28-1.55a12.44,12.44,0,0,0-.79-1.26L694.86,544C690.58,543.66,685.46,546.18,681.81,549.34Z"/><path class="cls-17" d="M694.86,544c-7.52-.53-17.65,7.64-17.82,12.74l5.52,7.91c0-3,.43-7.55,2.26-10.6,3.09-5.14,7.63-7.27,12.48-6.72Z"/><path class="cls-76" d="M713.25,562.54a19.53,19.53,0,0,1-5.07-.29l3.24,4.66s-3.67,8.74-9.59,9.72-10.86-1-11.28.57,3.39,3.1,6.77,3.52c0,0-5.78-.84-5.5.43s4.23,2.82,8,2.68c0,0-5.92-.85-5.5.84s8.74,2.26,8.74,2.26-6.49-.57-6.06,1,3.94,2.26,12.12,1.7,16.36-14.1,16.36-14.1Z"/><path class="cls-14" d="M719.1,583.75a51.46,51.46,0,0,0,6.42-8.24l-12.27-13a10.52,10.52,0,0,1-1.61.08C712.66,569.31,715.73,579.36,719.1,583.75Z"/><path class="cls-64" d="M794.81,454.38c-2.33,22-19.33,57-36.67,70.67s-45.66,35.33-45.66,35.33,2.33,7.33,6,12a50.82,50.82,0,0,0,8,8s42.33-18.67,68.66-47,39.67-52.33,42.67-77c0,0-3-14.33-18.67-16.67S794.81,454.38,794.81,454.38Z"/><path class="cls-68" d="M722.89,564.38c-.4-4.45,5.45-8.17,10.25-6.17l9.55,12.64a1.81,1.81,0,0,1-.59,2.69l-7.73,4.1a1.82,1.82,0,0,1-2.32-.54Z"/><polygon class="cls-10" points="292.25 859.34 289.44 857.92 289.64 864.05 292.34 864.07 292.25 859.34"/><path class="cls-59" d="M303,851.68c-2.69-5.6,2-17.17,7.48-42.8-5.5-.75-13-3.45-18.88-1.87-1.62,14.87-.07,24.19-2.12,34.75-1.09,5.62-2.83,12-2.7,15.49,4.1,1.32,8.23.45,13,3.75a18.3,18.3,0,0,0,13.09,2.62,6.19,6.19,0,0,0,2.67-1.24C314.86,860.64,306.12,858.1,303,851.68Z"/><path class="cls-77" d="M314.73,863.59c-1.89.84-8.05,1.71-12-.26s-9.86-3.34-13.14-4.53c-.09,1.36.12,3.14.09,5.41a7.58,7.58,0,0,0-2.75-.08s.06-3.39-.07-6.88c4.1,1.32,7.8.28,13.17,3.23,5.16,2.84,10.77,3.64,12.9,3.14a6.19,6.19,0,0,0,2.67-1.24C315.75,862.85,315.53,863.23,314.73,863.59Z"/><path class="cls-23" d="M312.89,863.62a6.19,6.19,0,0,0,2.67-1.24c-.43-1.06-3.57-2.62-7.38-5a8.5,8.5,0,0,1-7,1c-4.83-2.54-10-5.12-14.24-5.71a14,14,0,0,0-.16,4.62c4.1,1.32,11,3.14,13,4C305.68,863.88,310.76,864.12,312.89,863.62Z"/><polygon class="cls-10" points="148.87 847.16 149.12 844.36 143.26 843.84 144.17 846.7 148.87 847.16"/><path class="cls-59" d="M149.53,857.82c2.48-.37,25.53,2.06,50.75,5.11-.65-6-.08-15-1-21-12.84-.6-26.92,2.56-36.92,1.84-4.91-.36-9.25-1.73-12.3-2-1.79,3.92-3.74,6.5-8.37,10s-6,7.28-6.16,9.46a6.28,6.28,0,0,0,.33,2.92C137.76,864.06,142.48,858.85,149.53,857.82Z"/><path class="cls-77" d="M135,863a12.12,12.12,0,0,1,3.58-9.2c3.14-3.16,8.08-6.32,9.64-9.44-1.34-.24-2.71-.24-5-.52a12.92,12.92,0,0,1,1.31-2.46s2,.18,5.52.45c-1.79,3.92-3.74,6.5-8.37,10s-6,7.28-6.16,9.46a6.28,6.28,0,0,0,.33,2.92C135.39,864.2,135.09,863.87,135,863Z"/><path class="cls-23" d="M135.56,861.25a6.28,6.28,0,0,0,.33,2.92c1.14-.07,3.33-2,6.44-3.76a6.83,6.83,0,0,1,1.46-6.43c3.89-2.05,8.21-7.74,9.28-11.92l-3-.23c-1.79,3.92-3.74,6.5-8.37,10S135.76,859.07,135.56,861.25Z"/><path class="cls-29" d="M214.14,785.71l78.5-23.33-9.5,70,22,2s28.5-77.5,10-101c-19-24.17-93,1.5-93,1.5l-38.5-26.5,1.5,56Z"/><path class="cls-78" d="M183.14,707.88c-14,17-38,67.5-27,93.5,11.54,27.28,95.5,33,95.5,33l-69,7-1,21.5s49.5,1.5,69.5,1.5,45.5-16.5,31.5-43-82.83-52.67-82.83-52.67l37.83-39.83Z"/><polygon class="cls-79" points="261.89 673.86 294.63 665.2 298.14 677.38 261.89 692.8 261.89 673.86"/><polygon class="cls-14" points="261.89 673.86 294.63 665.2 298.14 677.38 261.89 692.8 261.89 673.86"/><path class="cls-49" d="M499,641.88A104.67,104.67,0,1,1,394.31,537.21,104.67,104.67,0,0,1,499,641.88ZM394.31,552.82a89.06,89.06,0,1,0,89.06,89.06A89.06,89.06,0,0,0,394.31,552.82Z"/><path class="cls-17" d="M499,641.88A104.67,104.67,0,1,1,394.31,537.21,104.67,104.67,0,0,1,499,641.88ZM394.31,552.82a89.06,89.06,0,1,0,89.06,89.06A89.06,89.06,0,0,0,394.31,552.82Z"/><path class="cls-23" d="M204.1,827.49c-11.12,10.07-28.2-9.16-17.25-19.06l122-107.85c5.08-.41,14.35,8.72,14.69,16.24Z"/><path class="cls-75" d="M316.73,704.48l-117.65,104c-6.79,6.13-2.8,15.85,3.86,20a12.11,12.11,0,0,0,1.16-.93L323.57,716.82C323.38,712.54,320.29,707.74,316.73,704.48Z"/><path class="cls-17" d="M323.57,716.82c-.34-7.52-9.61-16.65-14.69-16.24L301.65,707c2.93-.3,7.55-.44,10.79,1,5.46,2.48,8.09,6.75,8.1,11.63Z"/><circle class="cls-80" cx="396.48" cy="639.05" r="89.06"/><path class="cls-81" d="M388.14,562.65A89.09,89.09,0,0,1,466.5,694.09a89.07,89.07,0,1,0-148.37-97.42A88.86,88.86,0,0,1,388.14,562.65Z"/><path class="cls-82" d="M502.48,635.38A104.67,104.67,0,1,1,397.81,530.71,104.67,104.67,0,0,1,502.48,635.38ZM397.81,546.32a89.06,89.06,0,1,0,89.06,89.06A89.06,89.06,0,0,0,397.81,546.32Z"/><path class="cls-49" d="M503.48,634.13A104.67,104.67,0,1,1,398.81,529.46,104.67,104.67,0,0,1,503.48,634.13ZM398.81,545.07a89.06,89.06,0,1,0,89.06,89.06A89.06,89.06,0,0,0,398.81,545.07Z"/><path class="cls-74" d="M414.05,577.79c15.14,2.41,36.12,19.52,44.68,37.22Z"/><path class="cls-83" d="M298.28,623.85l1,6.44a.71.71,0,0,1-.8.81l-3.38-.51Z"/><path class="cls-59" d="M303.1,605c2.63,4,0,12.22-3.24,17.24s-8.63,21.36-16.89,20.37a36.7,36.7,0,0,1-11-3.25l-14.53,19.46-20-12.14,35.66-36Z"/><path class="cls-47" d="M298,620.39a12.44,12.44,0,0,1,1.37-.09c.24,0,.47,0,.71,0a3.2,3.2,0,0,1,.75.13.38.38,0,0,1,.25.47.38.38,0,0,1-.47.26.24.24,0,0,1-.11-.06,3.06,3.06,0,0,0-.54-.25l-.63-.21A11.62,11.62,0,0,0,298,620.39Z"/><circle class="cls-84" cx="290.14" cy="629.09" r="3.95"/><path class="cls-79" d="M204.92,660.65c-8.36,12.79-24.28,50.23-24.28,50.23a114.6,114.6,0,0,0,20.25,10.5c12.29,5.06,28.75,4.25,28.75,4.25l19.3-41.13Z"/><path class="cls-23" d="M270,582.36c15.8-7.21,24.45,9.61,29.85,10.9,11,2.65,6.53,20.15-6.54,25-10.09,3.77-13,24.63-27.18,16.29-8.81-5.18-12.6,8.57-27.18-.79-9-5.76-15.88,11.52-31.7,5.11s-25.5-10.22-34.64-1.63-21.59,16.78-36.79,11.65-18.32-17-17.38-22.57c2.64-15.82,18.28-15.55,20.36-24.83,2.61-11.64,16.3-20,30.92-15.58s23.56,9.69,30.73,4,14.43-11.85,28.16-7.34S252.87,590.21,270,582.36Z"/><path class="cls-85" d="M299.08,736.38a1.89,1.89,0,0,0,1.73-2.32c-1.34.66-6.46.65-9.25,1.68-3-.75-6.38-1.59-9.94-2.71.28,4.19-1.53,9-3.26,12.58,5.87.18,10.58.45,13.45,1.27,8.42,2.42,8.67-7.83,8.67-7.83a10.89,10.89,0,0,0-4-1.95A9,9,0,0,1,299.08,736.38Z"/><path class="cls-14" d="M232.39,725.88l11-46.25-29.5,45.25s6.25,2,10.5,2A34.91,34.91,0,0,0,232.39,725.88Z"/><path class="cls-79" d="M278.36,745.61c-15.06-.48-36.14-1.21-44.85-7.9-12.11-9.3,8-54.44,8-54.44l-36.54-22.62s21-22,36.47-16.52c17.15,6.08,20.31,11.12,23.61,26.2s-13.1,54.54-13.1,54.54,16,3.86,29.72,8.16C281.9,737.22,280.09,742,278.36,745.61Z"/></g></g></g></svg>