<svg xmlns="http://www.w3.org/2000/svg" viewBox="0 0 16 14.529">
  <defs>
    <style>
      .cls-1 {
        fill: #0d0d0d;
      }
    </style>
  </defs>
  <g id="Group_4570" data-name="Group 4570" transform="translate(-261 3972)">
    <path id="Path_12676" data-name="Path 12676" class="cls-1" d="M14.789,17.345a4.133,4.133,0,0,0-5.845,0L.908,25.381a3.092,3.092,0,0,0,3.68,4.9.512.512,0,0,0,.338-.146l8.036-8.036a2.066,2.066,0,1,0-2.922-2.922L3.465,25.748a.517.517,0,0,0,.73.73L10.771,19.9a1.033,1.033,0,1,1,1.461,1.461L4.56,29.036a2.066,2.066,0,0,1-2.922-2.922l8.036-8.038a3.1,3.1,0,1,1,4.384,4.384L6.753,29.765a.517.517,0,1,0,.73.73l7.306-7.306A4.133,4.133,0,0,0,14.789,17.345Z" transform="translate(261 -3988.135)"/>
  </g>
</svg>
