<svg xmlns="http://www.w3.org/2000/svg" viewBox="0 0 40 40">
  <defs>
    <style>
      .cls-1 {
        fill: #f5f5f4;
      }

      .cls-2 {
        fill: #bcbcbc;
      }
    </style>
  </defs>
  <g id="Group_5517" data-name="Group 5517" transform="translate(-1202 2349)">
    <circle id="Ellipse_1128" data-name="Ellipse 1128" class="cls-1" cx="20" cy="20" r="20" transform="translate(1202 -2349)"/>
    <g id="file" transform="translate(951.012 1634)">
      <path id="Path_12676" data-name="Path 12676" class="cls-2" d="M18.476,17.647a5.163,5.163,0,0,0-7.3,0L1.137,27.684a3.862,3.862,0,0,0,4.6,6.121.64.64,0,0,0,.422-.182L16.194,23.585a2.581,2.581,0,1,0-3.65-3.65L4.331,28.143a.646.646,0,0,0,.912.912l8.214-8.217a1.29,1.29,0,0,1,1.825,1.825L5.7,32.25a2.581,2.581,0,1,1-3.65-3.65L12.087,18.56a3.872,3.872,0,1,1,5.476,5.476L8.438,33.161a.646.646,0,1,0,.912.912l9.126-9.126a5.163,5.163,0,0,0,0-7.3Z" transform="translate(261 -3988.135)"/>
    </g>
  </g>
</svg>
