<svg xmlns="http://www.w3.org/2000/svg" viewBox="0 0 15.266 16.8">
  <defs>
    <style>
      .cls-1 {
        fill: #bcbcbc;
      }
    </style>
  </defs>
  <g id="noun_Settings_943929" transform="translate(-11.2 -7.3)">
    <g id="Group_6543" data-name="Group 6543" transform="translate(11.2 7.3)">
      <path id="Path_13685" data-name="Path 13685" class="cls-1" d="M25.738,38.508h-1.5a2.614,2.614,0,0,0-2.5-1.908,2.68,2.68,0,0,0-2.518,1.908h-7.3a.728.728,0,1,0,0,1.456h7.3a2.59,2.59,0,0,0,5,0h1.5a.726.726,0,0,0,.728-.728A.7.7,0,0,0,25.738,38.508Zm-3.993,1.908a1.184,1.184,0,0,1-1.18-1.18,1.18,1.18,0,1,1,2.361,0A1.184,1.184,0,0,1,21.744,40.416Z" transform="translate(-11.2 -30.836)"/>
      <path id="Path_13686" data-name="Path 13686" class="cls-1" d="M11.928,10.664h1.554a2.59,2.59,0,0,0,5,0h7.259a.726.726,0,0,0,.728-.728.714.714,0,0,0-.728-.728H18.479a2.59,2.59,0,0,0-5,0H11.928a.726.726,0,0,0-.728.728A.714.714,0,0,0,11.928,10.664ZM15.98,8.756a1.184,1.184,0,0,1,1.18,1.18,1.159,1.159,0,0,1-1.18,1.18,1.184,1.184,0,0,1-1.18-1.18A1.21,1.21,0,0,1,15.98,8.756Z" transform="translate(-11.2 -7.3)"/>
      <path id="Path_13687" data-name="Path 13687" class="cls-1" d="M25.738,67.808H18.479a2.59,2.59,0,0,0-5,0H11.928a.726.726,0,0,0-.728.728.714.714,0,0,0,.728.728h1.554a2.59,2.59,0,0,0,5,0h7.259a.726.726,0,0,0,.728-.728A.714.714,0,0,0,25.738,67.808ZM15.98,69.716a1.184,1.184,0,0,1-1.18-1.18,1.18,1.18,0,0,1,2.361,0A1.184,1.184,0,0,1,15.98,69.716Z" transform="translate(-11.2 -54.372)"/>
    </g>
  </g>
</svg>
