<svg xmlns="http://www.w3.org/2000/svg" viewBox="0 0 20 15.829">
  <defs>
    <style>
      .cls-1 {
        fill: #fff;
      }
    </style>
  </defs>
  <g id="glasses" transform="translate(0 -50.87)">
    <path id="Path_12824" data-name="Path 12824" class="cls-1" d="M19.7,60.925l-2.649-8.409a2.329,2.329,0,0,0-2.9-1.546.553.553,0,0,0,.32,1.058,1.219,1.219,0,0,1,1.521.812v0l1.894,6.023A4.145,4.145,0,0,0,11.738,62H8.253A4.146,4.146,0,0,0,2.1,58.945l1.919-6.1v0a1.219,1.219,0,0,1,1.521-.812.553.553,0,1,0,.32-1.058,2.331,2.331,0,0,0-2.9,1.546L.32,60.934A.429.429,0,0,0,.3,61a4.144,4.144,0,1,0,7.95,2.1h3.506A4.144,4.144,0,0,0,20,62.479,4.079,4.079,0,0,0,19.7,60.925ZM4.149,65.591a3.038,3.038,0,1,1,3.038-3.038A3.039,3.039,0,0,1,4.149,65.591Zm11.71-.074A3.038,3.038,0,1,1,18.9,62.479,3.039,3.039,0,0,1,15.859,65.517Z"/>
  </g>
</svg>
