<svg xmlns="http://www.w3.org/2000/svg" viewBox="0 0 18 18.004">
  <defs>
    <style>
      .cls-1 {
        fill: #4285f4;
      }

      .cls-2 {
        fill: #34a853;
      }

      .cls-3 {
        fill: #fbbc05;
      }

      .cls-4 {
        fill: #ea4335;
      }

      .cls-5 {
        fill: none;
      }
    </style>
  </defs>
  <g id="logo_googleg_48dp" data-name="logo googleg 48dp" transform="translate(-156 -17)">
    <path id="Shape" class="cls-1" d="M173.64,26.2a11,11,0,0,0-.16-1.84H165v3.49h4.84a4.12,4.12,0,0,1-1.79,2.71v2.26H171a8.78,8.78,0,0,0,2.68-6.62Z"/>
    <path id="Shape-2" data-name="Shape" class="cls-2" d="M165,35a8.62,8.62,0,0,0,6-2.18l-2.91-2.26a5.43,5.43,0,0,1-3.05.86,5.37,5.37,0,0,1-5-3.71h-3V30a9,9,0,0,0,8,5Z"/>
    <path id="Shape-3" data-name="Shape" class="cls-3" d="M160,27.71a5.36,5.36,0,0,1,0-3.42V22h-3a9,9,0,0,0,0,8l3-2.33Z"/>
    <path id="Shape-4" data-name="Shape" class="cls-4" d="M165,20.58a4.83,4.83,0,0,1,3.44,1.35L171,19.34A8.65,8.65,0,0,0,165,17a9,9,0,0,0-8,5l3,2.33a5.37,5.37,0,0,1,5-3.71Z"/>
    <path id="Shape-5" data-name="Shape" class="cls-5" d="M156,17h18V35H156Z"/>
  </g>
</svg>
