<svg xmlns="http://www.w3.org/2000/svg" viewBox="0 0 49.844 49.844">
  <defs>
    <style>
      .cls-1 {
        fill: #f4f4f5;
      }

      .cls-2 {
        fill: #bcbcbc;
      }
    </style>
  </defs>
  <g id="Group_6388" data-name="Group 6388" transform="translate(20475 -3910)">
    <path id="Path_13471" data-name="Path 13471" class="cls-1" d="M24.922,0A24.922,24.922,0,1,1,0,24.922,24.922,24.922,0,0,1,24.922,0Z" transform="translate(-20475 3910)"/>
    <g id="Group_6387" data-name="Group 6387" transform="translate(-20507.789 3868.451)">
      <path id="Path_13470" data-name="Path 13470" class="cls-2" d="M57.761,75.7c-2.305,0-4.611-.019-6.911.01a2.77,2.77,0,0,1-2.147-4.8,12.1,12.1,0,0,1,5.144-3.055c1.484-.519,1.561-.744.62-1.945a6.336,6.336,0,0,1-1.22-5.956A4.6,4.6,0,0,1,58.3,56.585a4.756,4.756,0,0,1,4.289,4.649A6.592,6.592,0,0,1,60.96,66.1c-.73.879-.581,1.206.451,1.662a46.487,46.487,0,0,1,4.351,2.171,5.274,5.274,0,0,1,1.474,1.479,2.5,2.5,0,0,1,.178,2.887,2.621,2.621,0,0,1-2.449,1.4C62.564,75.691,60.162,75.7,57.761,75.7Z" transform="translate(0 0)"/>
    </g>
  </g>
</svg>
