<svg xmlns="http://www.w3.org/2000/svg" viewBox="0 0 20 17.74">
  <defs>
    <style>
      .cls-1 {
        fill: #fff;
      }
    </style>
  </defs>
  <g id="Group_5838" data-name="Group 5838" transform="translate(0 0.01)">
    <path id="Path_12829" data-name="Path 12829" class="cls-1" d="M7.872,9.529a5.064,5.064,0,0,0-.932,1.554,4.188,4.188,0,0,1,1.346,1.554c.829-.518,1.243-.518,1.761-.932C13.051,9.219,20.3.311,19.99,0S10.461,6.629,7.872,9.529ZM6.111,11.7c-1.243-.207-2.589.621-3.418,2.589-.829,2.072-2.382,2.9-2.693,2.8,1.554.621,6.422,2.072,7.561-3.522A3.2,3.2,0,0,0,6.111,11.7Z" transform="translate(0 0)"/>
  </g>
</svg>
