<svg xmlns="http://www.w3.org/2000/svg" viewBox="0 0 528.385 394.068">
  <defs>
    <style>
      .cls-1 {
        fill: #78c7b2;
      }

      .cls-2 {
        fill: #faf8dc;
        opacity: 0.2;
      }
    </style>
  </defs>
  <g id="Group_7675" data-name="Group 7675" transform="translate(-752 -1191.869)">
    <path id="Path_14608" data-name="Path 14608" class="cls-1" d="M594.682,280.159a49.643,49.643,0,0,0-87.265-32.047A67.247,67.247,0,0,0,394.584,288.54h-.563a60.869,60.869,0,0,0-60.853,60.853,61.511,61.511,0,0,0,3.31,19.862,38.99,38.99,0,0,0-45.992,38.315c0,.916.07,1.831.07,2.676a65.689,65.689,0,0,0-92.97,71,62.976,62.976,0,0,0-86.491,76.771A52.3,52.3,0,0,0,66.3,609.781a60.467,60.467,0,0,0,1.62,13.946H594.682V280.159Z" transform="translate(685.699 962.069)"/>
    <path id="Path_14609" data-name="Path 14609" class="cls-2" d="M582.186,315.008c-.141-25.426-19.3-45.922-42.964-45.922a41.523,41.523,0,0,0-32.54,16.129A56.059,56.059,0,0,0,466.748,268.1c-29.652,0-54.092,23.876-57.754,54.726H408.5c-29.088,0-52.683,25.356-52.683,56.7a59.629,59.629,0,0,0,2.888,18.524,29.169,29.169,0,0,0-6.128-.634c-18.594,0-33.737,16.27-33.737,36.273,0,.845.07,1.69.07,2.536a53.045,53.045,0,0,0-24.581-5.987c-31.342,0-56.839,27.4-56.839,61.135a63.1,63.1,0,0,0,.916,10.987,51.445,51.445,0,0,0-23.1-5.494c-30.075,0-54.514,26.271-54.514,58.67a63.082,63.082,0,0,0,2.747,18.383c-21.9,3.381-38.738,23.665-38.738,48.246a61.535,61.535,0,0,0,1.409,13.03H582.045V315.008Z" transform="translate(698.199 950.745)"/>
  </g>
</svg>
