<svg xmlns="http://www.w3.org/2000/svg" viewBox="0 0 32 32">
  <defs>
    <style>
      .cls-1 {
        fill: #22283a;
      }

      .cls-2 {
        fill: #fff;
      }
    </style>
  </defs>
  <g id="Group_5403" data-name="Group 5403" transform="translate(-1004 -635)">
    <circle id="Ellipse_1123" data-name="Ellipse 1123" class="cls-1" cx="16" cy="16" r="16" transform="translate(1004 635)"/>
    <g id="Group_5386" data-name="Group 5386" transform="translate(1013 645.001)">
      <path id="XMLID_2_" class="cls-2" d="M7.055,0C2.646,0,0,5.6,0,5.6s3.527,5.6,7.055,5.6c4.409,0,7.055-5.6,7.055-5.6S11.376,0,7.055,0Zm0,9.808A4.074,4.074,0,0,1,3.087,5.6,4.074,4.074,0,0,1,7.055,1.4a4.074,4.074,0,0,1,3.968,4.2A4.074,4.074,0,0,1,7.055,9.808Z" transform="translate(0 0)"/>
      <ellipse id="XMLID_1_" class="cls-2" cx="1.764" cy="1.868" rx="1.764" ry="1.868" transform="translate(5.291 3.736)"/>
    </g>
  </g>
</svg>
