<svg xmlns="http://www.w3.org/2000/svg" xmlns:xlink="http://www.w3.org/1999/xlink" viewBox="0 0 1416.43 1010.77"><defs><style>.cls-1{fill:none;}.cls-2{isolation:isolate;}.cls-3{fill:#a4d6e2;}.cls-4{fill:#95dbca;}.cls-5{fill:#7fd4bf;}.cls-6{fill:#63bea6;}.cls-7{fill:#41b093;}.cls-8{fill:#9fd4e0;}.cls-9{fill:#c2e4eb;}.cls-10{fill:#d8dfe2;}.cls-11{fill:#0c252e;}.cls-12{fill:#184657;}.cls-13{fill:#79aabc;}.cls-14{clip-path:url(#clip-path);}.cls-15{fill:#9ad5c6;}.cls-16,.cls-43{fill:#fff;}.cls-17{fill:#035e80;}.cls-18{clip-path:url(#clip-path-2);}.cls-19{fill:#d64b88;}.cls-20{fill:#606060;opacity:0.5;}.cls-20,.cls-25,.cls-30,.cls-31,.cls-34,.cls-35,.cls-36,.cls-37,.cls-39,.cls-45,.cls-50,.cls-52,.cls-58{mix-blend-mode:multiply;}.cls-21{clip-path:url(#clip-path-3);}.cls-22{fill:#f09794;}.cls-23{fill:#f29d7e;}.cls-24{fill:#0d232b;}.cls-25,.cls-31,.cls-35,.cls-39,.cls-52{fill:#cbc7ff;}.cls-25{opacity:0.7;}.cls-26{fill:#faf8dc;}.cls-27{fill:#f6b7a0;}.cls-28{fill:#fdede8;}.cls-29{fill:#f8cdbd;}.cls-30{fill:url(#New_Gradient_Swatch_2);}.cls-31{opacity:0.61;}.cls-32{fill:#ed6d53;}.cls-33{fill:#e85f5b;}.cls-34{fill:#e1deff;opacity:0.71;}.cls-35{opacity:0.58;}.cls-36{fill:#c3b9dd;}.cls-37{fill:#1a1a1a;}.cls-38{fill:#1b4e61;}.cls-40{fill:#e289a9;}.cls-41{fill:#fcfbeb;}.cls-42{fill:#e6e5ce;}.cls-43{opacity:0.25;}.cls-44{fill:#fcc14a;}.cls-45{fill:url(#New_Gradient_Swatch_2-2);}.cls-46{fill:#bd422a;}.cls-47{opacity:0.16;}.cls-48{opacity:0.18;}.cls-49{fill:#d4ecf1;}.cls-50{fill:url(#New_Gradient_Swatch_2-3);}.cls-51{fill:#d6b88d;}.cls-52{opacity:0.63;}.cls-53{fill:url(#linear-gradient);}.cls-54{fill:url(#linear-gradient-2);}.cls-55{fill:#ffeee3;}.cls-56{fill:#f69548;}.cls-57{fill:#f2d79d;}.cls-58{fill:#b3b3b3;}.cls-59{fill:url(#linear-gradient-3);}.cls-60{fill:#9c5f2d;}.cls-61{fill:#d28d54;}.cls-62{fill:#60423a;}.cls-63{fill:#7aba8e;}.cls-64{fill:#2c544a;}.cls-65{fill:#65a36c;opacity:0.49;}.cls-66{fill:#f08eb5;}</style><clipPath id="clip-path"><rect class="cls-1" x="276.22" y="319.21" width="873.98" height="603.77"/></clipPath><clipPath id="clip-path-2"><circle class="cls-1" cx="896.03" cy="448.68" r="34.5"/></clipPath><clipPath id="clip-path-3"><rect class="cls-1" x="424.53" y="520.18" width="345" height="192"/></clipPath><linearGradient id="New_Gradient_Swatch_2" x1="957.66" y1="284.41" x2="953.05" y2="336.25" gradientTransform="translate(-26.84 -181.35) rotate(-1.51)" gradientUnits="userSpaceOnUse"><stop offset="0" stop-color="#f0c3a8"/><stop offset="1" stop-color="#fff"/></linearGradient><linearGradient id="New_Gradient_Swatch_2-2" x1="1641.04" y1="575.33" x2="1636.82" y2="622.79" gradientTransform="matrix(-0.97, 0.23, 0.23, 0.97, 2543.95, -289.34)" xlink:href="#New_Gradient_Swatch_2"/><linearGradient id="New_Gradient_Swatch_2-3" x1="2306.67" y1="552.61" x2="2302.45" y2="600.07" gradientTransform="matrix(0.73, 0.68, -0.68, 0.73, -1054, -1201.18)" xlink:href="#New_Gradient_Swatch_2"/><linearGradient id="linear-gradient" x1="1066.48" y1="1774.82" x2="1066.48" y2="197.23" gradientUnits="userSpaceOnUse"><stop offset="0" stop-color="#f8b33e"/><stop offset="1" stop-color="#e72552"/></linearGradient><linearGradient id="linear-gradient-2" x1="1071.21" y1="1774.8" x2="1071.21" y2="197.23" xlink:href="#linear-gradient"/><linearGradient id="linear-gradient-3" x1="-1407.89" y1="907.42" x2="-1325.71" y2="907.42" gradientTransform="matrix(-1, 0, 0, 1, -83.03, 0)" gradientUnits="userSpaceOnUse"><stop offset="0" stop-color="#d6925a"/><stop offset="0.33" stop-color="#c37b40"/><stop offset="1" stop-color="#804b1f"/></linearGradient></defs><title>higheredAsset 11</title><g class="cls-2"><g id="Layer_2" data-name="Layer 2"><g id="Layer_1-2" data-name="Layer 1"><path class="cls-3" d="M1416.36,702.45c2.22-21.31-50.86-23.48-80.07,8.53s-69.24,103-69.24,103l8.72,4.43s54.85-96.27,78.43-99.52S1414,724.69,1416.36,702.45Z"/><path class="cls-4" d="M1256.56,693.55s3.62-33.59,29.11-62,48.36-36,53-30.68-75.25,105.09-75.25,105.09Z"/><path class="cls-5" d="M1283.08,702s15.91-35.59,54-57.77,65.89-22.37,69.11-14.83-120,88.62-120,88.62Z"/><path class="cls-6" d="M1352.86,802.35a52.35,52.35,0,0,0-24.73-44.5,23,23,0,0,1-10.5-24.23,39.19,39.19,0,0,0-29.76-46.41,9.39,9.39,0,0,1-7.32-10.08,28.1,28.1,0,0,0,0-5.78c-1.41-10.82-7.51-16.73-16.31-21.56a11.26,11.26,0,0,1-5.46-12.7,34.21,34.21,0,0,0,1.06-7.71c.54-20-10.22-28.18-17.68-31.88a14.27,14.27,0,0,1-7.38-9.07,23.95,23.95,0,0,0-46.91,3.67l0,.27a7.32,7.32,0,0,1-7.69,6.62,29.85,29.85,0,0,0-30.94,34.48,12.74,12.74,0,0,1-5.76,12.81,44.15,44.15,0,0,0-17.92,22.26,11.8,11.8,0,0,1-8,7.33,38.9,38.9,0,0,0-26,51.11,12.93,12.93,0,0,1-7.19,16.53,48.2,48.2,0,0,0-24.1,66.94,25.1,25.1,0,0,1-5.15,30.39A59.28,59.28,0,0,0,1035.6,885v21.67h322.26V885c0-8.78-5.54-17.11-12.1-24.61a23.94,23.94,0,0,1-1.63-29.05A52.12,52.12,0,0,0,1352.86,802.35Z"/><path class="cls-7" d="M1275.64,809.38A49.86,49.86,0,0,0,1252.09,767a21.94,21.94,0,0,1-10-23.07,37.31,37.31,0,0,0-28.34-44.19,9,9,0,0,1-7-9.6,26.1,26.1,0,0,0,0-5.5c-1.34-10.31-7.15-15.94-15.53-20.53a10.72,10.72,0,0,1-5.2-12.1,32.65,32.65,0,0,0,1-7.34c.51-19-9.73-26.83-16.84-30.36a13.53,13.53,0,0,1-7-8.63,22.81,22.81,0,0,0-44.68,3.49,2.28,2.28,0,0,1,0,.26,7,7,0,0,1-7.33,6.3,29.14,29.14,0,0,0-3.73.06,28.41,28.41,0,0,0-25.72,32.77,12.17,12.17,0,0,1-5.49,12.21A41.94,41.94,0,0,0,1059.22,682a11.24,11.24,0,0,1-7.59,7,37.05,37.05,0,0,0-24.73,48.67,12.31,12.31,0,0,1-6.84,15.74,45.88,45.88,0,0,0-22.95,63.74A23.88,23.88,0,0,1,992.2,846a56.49,56.49,0,0,0-18.67,42v20.64H1280.4V888.05c0-8.36-5.28-16.29-11.52-23.43a22.79,22.79,0,0,1-1.55-27.67A49.65,49.65,0,0,0,1275.64,809.38Z"/><path class="cls-6" d="M360.57,791.72c0-20.44-9.88-38.36-24.73-48.43a26,26,0,0,1-10.49-26.36,46.5,46.5,0,0,0,.85-8.91c0-20.34-13.1-37.36-30.62-41.6-4.64-1.12-7.76-5.82-7.32-11a31.67,31.67,0,0,0,.05-6.29c-1.4-11.78-7.51-18.21-16.3-23.46a12.69,12.69,0,0,1-5.46-13.83,41,41,0,0,0,1.06-8.39c.53-21.72-10.22-30.67-17.69-34.69a15.3,15.3,0,0,1-7.37-9.87c-2.9-11.61-13-20-24.75-19.15-11.49.83-20.93,10.67-22.17,23.14l0,.29c-.38,4.28-3.75,7.41-7.69,7.2a28.6,28.6,0,0,0-3.92.08c-14.59,1.3-26.28,14.18-27.3,30.07a35.36,35.36,0,0,0,.29,7.38,14.4,14.4,0,0,1-5.77,14A47.37,47.37,0,0,0,133.3,646.1a12.28,12.28,0,0,1-8,8c-16.4,5-28.44,21.33-28.44,40.76a45.63,45.63,0,0,0,2.47,14.86c2.47,7.15-.7,15-7.18,18-17.42,7.89-29.66,26.58-29.66,48.39a55.76,55.76,0,0,0,5.56,24.45c5.37,11.06,3.37,24.7-5.16,33.08a67.2,67.2,0,0,0-19.61,48v23.58H365.57V881.64c0-9.55-5.54-18.62-12.09-26.78-7.13-8.87-7.62-21.82-1.63-31.63A60.36,60.36,0,0,0,360.57,791.72Z"/><path class="cls-7" d="M390.44,801.89c0-18.28-8.84-34.31-22.11-43.31A23.24,23.24,0,0,1,358.94,735a41.64,41.64,0,0,0,.76-8c0-18.2-11.71-33.41-27.38-37.2-4.15-1-6.94-5.21-6.54-9.82a29.47,29.47,0,0,0,0-5.62c-1.25-10.54-6.71-16.28-14.58-21a11.34,11.34,0,0,1-4.88-12.36,36.83,36.83,0,0,0,.95-7.51c.47-19.42-9.14-27.42-15.82-31a13.68,13.68,0,0,1-6.59-8.82c-2.6-10.39-11.62-17.89-22.13-17.13-10.28.74-18.72,9.55-19.82,20.69l0,.27A6.76,6.76,0,0,1,236,604a25.64,25.64,0,0,0-3.5.06c-13,1.17-23.51,12.68-24.42,26.89a32.06,32.06,0,0,0,.26,6.6A12.85,12.85,0,0,1,203.23,650a42.39,42.39,0,0,0-16,21.66,11,11,0,0,1-7.12,7.14c-14.67,4.43-25.44,19.07-25.44,36.45a40.94,40.94,0,0,0,2.21,13.29c2.21,6.39-.63,13.45-6.42,16.08-15.57,7.06-26.52,23.77-26.52,43.28a50,50,0,0,0,5,21.86c4.8,9.88,3,22.08-4.61,29.58a60.07,60.07,0,0,0-17.54,42.94v21.09H394.91V882.29c0-8.54-5-16.65-10.82-23.94-6.37-7.93-6.81-19.51-1.45-28.28A54.09,54.09,0,0,0,390.44,801.89Z"/><path class="cls-8" d="M1391.07,916.93H6.46a6.46,6.46,0,1,1,0-12.91H1391.07a6.46,6.46,0,1,1,0,12.91Z"/><path class="cls-9" d="M1009.12,325.63a52.35,52.35,0,0,0-24.73-44.5,23,23,0,0,1-10.5-24.22,39.19,39.19,0,0,0-29.77-46.41,9.39,9.39,0,0,1-7.31-10.08,28.1,28.1,0,0,0,.05-5.78c-1.41-10.83-7.51-16.73-16.31-21.56a11.26,11.26,0,0,1-5.46-12.7,34.3,34.3,0,0,0,1.06-7.72c.54-19.95-10.22-28.17-17.68-31.87a14.27,14.27,0,0,1-7.38-9.07,23.95,23.95,0,0,0-46.91,3.66l0,.27a7.32,7.32,0,0,1-7.69,6.62,30.46,30.46,0,0,0-3.93.07A30,30,0,0,0,805.23,150a30.6,30.6,0,0,0,.29,6.79,12.75,12.75,0,0,1-5.76,12.81,44.11,44.11,0,0,0-17.92,22.26,11.82,11.82,0,0,1-8,7.33,38.9,38.9,0,0,0-26,51.11,12.94,12.94,0,0,1-7.19,16.53,48.19,48.19,0,0,0-24.1,66.93,25.11,25.11,0,0,1-5.15,30.4,59.28,59.28,0,0,0-19.61,44.13v21.67h322.26V408.26c0-8.78-5.54-17.11-12.1-24.61a24,24,0,0,1-1.63-29.06A52.07,52.07,0,0,0,1009.12,325.63Z"/><rect class="cls-10" x="215.11" y="300.98" width="1004.4" height="632.05" rx="60.24"/><rect class="cls-11" x="206.24" y="305.01" width="1008.86" height="638.94" rx="63.7"/><rect class="cls-12" x="211.01" y="305.07" width="1004.4" height="632.05" rx="56.54"/><rect class="cls-13" x="276.22" y="319.21" width="873.98" height="603.77"/><path class="cls-8" d="M1199.48,221.5a8.57,8.57,0,1,0,0-17.13c-.24,0-.48,0-.71,0a12.85,12.85,0,0,0-24.28,0,7.45,7.45,0,0,0-1.06-.08,8.55,8.55,0,0,0-3.78.89,11,11,0,1,0-9.72,16.24Z"/><path class="cls-8" d="M390.6,488.08a8.57,8.57,0,0,0,0-17.13c-.25,0-.49,0-.72,0a12.85,12.85,0,0,0-24.28,0,9.28,9.28,0,0,0-1.06-.07,8.55,8.55,0,0,0-3.78.89A11,11,0,1,0,351,488.08Z"/><path class="cls-8" d="M307.74,199.07a9.09,9.09,0,0,1,0-18.17c.26,0,.51,0,.76,0a13.64,13.64,0,0,1,25.76,0,10.36,10.36,0,0,1,1.12-.08,9.09,9.09,0,0,1,4,.94,11.7,11.7,0,1,1,10.32,17.23Z"/><path class="cls-8" d="M700.1,118.59a16.42,16.42,0,1,0-5.61-31.84,25.38,25.38,0,0,0-48.8-1,17.69,17.69,0,1,0-9.05,32.89Z"/><path class="cls-8" d="M170.19,305.38a16.46,16.46,0,1,0-5.61-31.92,25.46,25.46,0,0,0-48.93-1,17.73,17.73,0,1,0-9.07,33Z"/><g class="cls-14"><path class="cls-15" d="M475.85,821.75a52.36,52.36,0,0,0-24.72-44.5A23,23,0,0,1,440.63,753a39.19,39.19,0,0,0-29.77-46.41,9.41,9.41,0,0,1-7.32-10.08,27.46,27.46,0,0,0,.06-5.78c-1.41-10.83-7.51-16.73-16.31-21.56a11.23,11.23,0,0,1-5.46-12.7,34.88,34.88,0,0,0,1.06-7.72c.53-19.95-10.22-28.17-17.69-31.87a14.23,14.23,0,0,1-7.37-9.07,24,24,0,0,0-46.92,3.67,2.28,2.28,0,0,0,0,.26,7.33,7.33,0,0,1-7.7,6.62,30.33,30.33,0,0,0-3.92.07,29.86,29.86,0,0,0-27,34.42,12.77,12.77,0,0,1-5.76,12.81A44,44,0,0,0,248.58,688a11.84,11.84,0,0,1-8,7.33,38.9,38.9,0,0,0-26,51.11,12.93,12.93,0,0,1-7.18,16.53,48.16,48.16,0,0,0-24.1,66.93,25.1,25.1,0,0,1-5.16,30.4,59.31,59.31,0,0,0-19.61,44.13v21.67H480.86V904.38c0-8.78-5.55-17.11-12.1-24.61a23.94,23.94,0,0,1-1.63-29.06A52.15,52.15,0,0,0,475.85,821.75Z"/><path class="cls-15" d="M1279.55,691.2a55.69,55.69,0,0,0-26.29-47.33,24.47,24.47,0,0,1-11.17-25.76,41.7,41.7,0,0,0-31.65-49.35,10,10,0,0,1-7.79-10.73,28.86,28.86,0,0,0,.06-6.14c-1.5-11.51-8-17.8-17.34-22.93a12,12,0,0,1-5.81-13.51,36.77,36.77,0,0,0,1.13-8.2c.56-21.22-10.87-30-18.81-33.9a15.19,15.19,0,0,1-7.85-9.65,25.47,25.47,0,0,0-49.89,3.9l0,.29a7.79,7.79,0,0,1-8.18,7,32.37,32.37,0,0,0-4.17.07,31.85,31.85,0,0,0-29,29.39,32.52,32.52,0,0,0,.3,7.21,13.57,13.57,0,0,1-6.12,13.63,46.88,46.88,0,0,0-19.06,23.67,12.59,12.59,0,0,1-8.47,7.8,41.36,41.36,0,0,0-27.62,54.35,13.75,13.75,0,0,1-7.64,17.58,51.23,51.23,0,0,0-25.63,71.18A26.71,26.71,0,0,1,963,732.14c-12.81,11.57-40,45.78-10.45,80.79C982.75,848.69,968.47,927,968.47,927h306l10.42-148c0-9.34-5.89-18.2-12.86-26.17a25.46,25.46,0,0,1-1.73-30.9A55.49,55.49,0,0,0,1279.55,691.2Z"/><rect class="cls-16" x="424.53" y="395.18" width="345" height="102"/><rect class="cls-16" x="424.53" y="738.18" width="345" height="265"/><rect class="cls-17" x="424.53" y="520.18" width="345" height="192"/><rect class="cls-16" x="813.53" y="395.18" width="165" height="158"/><rect class="cls-16" x="813.53" y="589.18" width="165" height="42"/><rect class="cls-16" x="813.53" y="659.18" width="165" height="270"/><circle class="cls-9" cx="896.03" cy="448.68" r="34.5"/><circle class="cls-17" cx="895.4" cy="444.29" r="11.29"/><g class="cls-18"><circle class="cls-17" cx="896.66" cy="485.69" r="28.85"/></g><rect class="cls-17" x="510.53" y="422.18" width="163" height="11"/><rect class="cls-17" x="532.76" y="441.18" width="118.55" height="8"/><rect class="cls-19" x="558.53" y="472.18" width="66" height="8"/><path class="cls-20" d="M591.91,642.78c13.25,3.23,9.37-1.94,21.32,1s113.68,40.69,141.14,41,24.22-26.16,24.22-26.16S630,623.08,628.09,623.4,591.91,642.78,591.91,642.78Z"/><g class="cls-21"><polygon class="cls-15" points="424.37 624.48 587.96 520.47 794.53 500.18 826.53 597.18 848.53 663.18 775.53 729.18 450.53 742.18 399.53 729.18 424.37 624.48"/><path class="cls-16" d="M468.53,624.15c2-1.5,86.15-64.61,86.15-64.61l110,76.34-88.42,76.3Z"/><path class="cls-22" d="M564.61,711.8l-2-2.13c10.19-9.36,11.71-26.06,5.17-43.12-20.28-9-44.44-21.77-47.68-32.35-2.24-7.31.56-10,2.42-11,6.74-3.44,23.64,5.14,37.12,23a79,79,0,0,1,10.37,18.15c9.9,4.36,18.79,7.84,23.58,9.66l-27.86-48.88a1.45,1.45,0,0,1,2.29-1.74l32.64,33.24-1-18.44,2.89-.15,1.2,22.26a1.44,1.44,0,0,1-.86,1.41,1.46,1.46,0,0,1-1.62-.31l-27.51-28,24.32,42.67a1.45,1.45,0,0,1-.15,1.65,1.43,1.43,0,0,1-1.6.43c-1.11-.4-11.84-4.3-24.93-10C577.26,685.41,575.14,702.14,564.61,711.8Zm-38.36-86.46a5.24,5.24,0,0,0-2.37.48c-2.34,1.2-1.82,4.76-1,7.53,2.79,9.13,24.14,20.61,43.26,29.27a78.11,78.11,0,0,0-8.8-14.67C546,632.87,532.71,625.34,526.25,625.34Z"/><path class="cls-23" d="M631.31,593.92c-5.16.08-17.78,8.72-21.11,10.28s-5.41,8.1-6.88,11.45-1.63,12.41-2.32,14.51.11,3.9,3.53,2.72c4.58-1.56,7.06-14.71,7.06-14.71,2.76-1.21,12.36-7.56,12.36-7.56a37.6,37.6,0,0,1,7.14,3c6.11-4.43,11.55-9.55,17.21-14.43C640.58,596.18,633.61,593.88,631.31,593.92Z"/><path class="cls-24" d="M647.58,590.44c-3.23,4.6-6.74,8.95-10.34,13.21s-7.3,8.43-11.09,12.51-7.68,8.08-11.71,11.94-8.12,7.66-12.52,11.17a.92.92,0,0,1-1.29-.14.93.93,0,0,1,0-1.1c3.21-4.63,6.7-9,10.31-13.25s7.31-8.41,11.12-12.47,7.71-8,11.74-11.91,8.12-7.66,12.5-11.2a.92.92,0,0,1,1.29.13A.93.93,0,0,1,647.58,590.44Z"/><path class="cls-23" d="M673.08,610.45c-4.42-2.73-15.18-7.54-24.78-11.27-5.66,4.88-11.1,10-17.21,14.43,1.83,1.11,2.87,2.34,2,3.54-1.86,2.48-10.57,4.51-14.12,5.44a15.42,15.42,0,0,0-7.79,5,83.07,83.07,0,0,1-7.7,6.7s.14,3.78,6.07,3.76,7.16-4.71,12.5-4.51,8.86,3.78,20,5,12,1.75,18.42,2,18.15,4.38,18.15,4.38l9.52-31.45Z"/><path class="cls-25" d="M648.3,599.18c-2.73-1.06-5.36-2-7.72-2.84l-13.26,15.48a26.51,26.51,0,0,1,3.77,1.79c4.92-3.74,16.22-10.3,23.34-12C652.38,600.79,650.32,600,648.3,599.18Z"/><path class="cls-12" d="M685.18,612.27l.3-1.06s30.69,2.35,66.23,6.35c21.48,2.42,81.21-22.94,68.66,4.24,0,0-13.61,51.71-52.32,49-32.34-2.27-91.64-23.29-91.64-23.29Z"/><path class="cls-26" d="M674.14,610.3l13.76,2.27a24.75,24.75,0,0,1,.3,16.48A56.21,56.21,0,0,1,678.68,646l-17.09-4.23s7-10.1,9.68-16.34A37.16,37.16,0,0,0,674.14,610.3Z"/><path class="cls-27" d="M609,632.56a6.28,6.28,0,0,0-1.49-1.58c-2.06,1.76-4,3.29-4,3.29,1.53,1.27,3.37.94,5.13,0A1.14,1.14,0,0,0,609,632.56Z"/><path class="cls-28" d="M603.65,634.1a1.82,1.82,0,0,0-.21.17,3.45,3.45,0,0,0,1.71.78A4.4,4.4,0,0,1,603.65,634.1Z"/><path class="cls-29" d="M607.47,631l-1.22,1c.61.58,2.46.24,2.46.24l-.06-.11A5.91,5.91,0,0,0,607.47,631Z"/></g><rect class="cls-17" x="849.53" y="499.18" width="90" height="9"/><rect class="cls-17" x="852.53" y="517.18" width="85" height="7"/><rect class="cls-17" x="457.53" y="761.18" width="117" height="11"/><rect class="cls-17" x="457.53" y="780.18" width="98" height="6"/><rect class="cls-9" x="456.53" y="810.18" width="253" height="66"/><circle class="cls-9" cx="839.53" cy="701.18" r="14"/><rect class="cls-12" x="866.53" y="692.18" width="88" height="9"/><rect class="cls-12" x="866.53" y="709.18" width="70" height="4"/><circle class="cls-9" cx="839.53" cy="761.18" r="14"/><rect class="cls-12" x="866.53" y="752.18" width="88" height="9"/><rect class="cls-12" x="866.53" y="769.18" width="70" height="4"/><circle class="cls-9" cx="839.53" cy="818.18" r="14"/><rect class="cls-12" x="866.53" y="809.18" width="88" height="9"/><rect class="cls-12" x="866.53" y="826.18" width="70" height="4"/></g><path d="M1151.91,924.69H274.52V317.51h877.39Zm-874-3.41H1148.5V320.92H277.93Z"/><path class="cls-23" d="M953.81,125.9c-2.11-7.83-1-51.58-1-51.58L918.5,75.58s-.41,43.2-1.31,50.11-12.71,9.67-26.58,16.73c-1.9,1-4,3.2-5.92,4.83,2.24,5,48.44,21.87,51.72,26.2,3.62,4.77,38-20.6,42-31.6C962.22,133,955.79,133.25,953.81,125.9Z"/><path class="cls-30" d="M954.46,127.79a11.49,11.49,0,0,1-.65-1.89c-2.11-7.83-1-51.58-1-51.58L918.5,75.58s-.41,43.2-1.31,50.11a7,7,0,0,1-1.27,3.11Z"/><path class="cls-31" d="M951.06,73.55l-31.7,1.17s-.12,10.14-.38,22.42c2.44,5.75,7.32,14.94,15.83,14.81,9.77-.16,12.84-8.67,15.91-13.71C950.62,85.31,951.06,73.55,951.06,73.55Z"/><circle class="cls-23" cx="916.09" cy="73.79" r="11.14"/><circle class="cls-32" cx="916.09" cy="73.79" r="5.87"/><path class="cls-33" d="M909.26,70.92c-5.09-4.45-6.26-20.52,3-27,3.4-2.36,8-3.16,9-6.54,1.84-6.53,11.78-11.36,19.11-7.7,9.44,4.71,14,1.09,19.44-4.43,5.83-5.92,9.48-12.18,25.56-9.36s20.81.92,23.83-6.73S1027-4.69,1040.62,4.83s18,17,27.19,13.57,18.52-8.71,26.67-.15,1.45,25.22-9.21,25-5.34,12.49-2.48,20.12-5,19.25-18.5,14.59-16.43-.79-20.8,6.21-15.85,6.66-21.42,2.54-12.34-7.41-20.33-2.51-10.63,8-20,4-11.24-2.53-16.56.32-16-1.2-16-1.2Z"/><path class="cls-34" d="M936,75.9l-.69-8.21,31.28,2c12.54-7.31,15.5-7.23,25.4-4.66s8.59-9.12,19-12.61,12.41,5.81,22,5.52,6.74-9.72,18.91-9c11.5.7,12.89,9.34,29,9.1.65,1.89,1.37,3.73,2,5.35,2.86,7.63-5,19.25-18.5,14.59s-16.43-.79-20.8,6.21-15.85,6.66-21.42,2.54-12.34-7.41-20.33-2.51-10.63,8-20,4-10.87-3-16.19-.18-15.72.32-15.72.32Z"/><circle class="cls-23" cx="955.35" cy="73.79" r="11.14"/><circle class="cls-32" cx="955.35" cy="73.79" r="5.87"/><path class="cls-23" d="M914.67,78.55c1.1,15.67,6.54,27,22.44,26.74,10-.16,18.39-11.16,18.3-26.87-.1-16.46-3.53-29.67-22.15-29.69C915.21,48.72,913.57,62.88,914.67,78.55Z"/><circle class="cls-32" cx="947.03" cy="86.96" r="4.88"/><circle class="cls-32" cx="922.74" cy="86.85" r="4.88"/><path class="cls-32" d="M935.25,78.33l-3.82,7.49a1.35,1.35,0,0,0,1.18,2l4.53,0Z"/><path class="cls-35" d="M966.15,76.57c-9,3.66-13.37.45-17.56-2s-3.65-13.86-9.82-15.78-7.69,3-14.31,1.27c-7.73-2-9.27,2.66-9.27,2.66S915,57,926.38,52.92s24.43-4.14,31.17,2.91c2.2,2.31,2.13,5.82,4.6,8.07A12.8,12.8,0,0,1,966.15,76.57Z"/><path class="cls-36" d="M951.33,73c-.54-.08-1.05-.2-1.57-.31s-1-.2-1.54-.26a19.67,19.67,0,0,0-3.05-.23,15.72,15.72,0,0,0-3,.31,13.09,13.09,0,0,0-2.88.93l0,0a.42.42,0,0,1-.48-.66,7.32,7.32,0,0,1,3-1.83,10.77,10.77,0,0,1,3.42-.58,12.53,12.53,0,0,1,3.4.49,14.29,14.29,0,0,1,1.59.57,16.29,16.29,0,0,1,1.49.79.42.42,0,0,1,.15.57.43.43,0,0,1-.42.2Z"/><path class="cls-37" d="M942.33,78.33c.68.13,1.33.26,2,.35a12.6,12.6,0,0,0,1.93.13,10.06,10.06,0,0,0,1.9-.22A8.68,8.68,0,0,0,950,78l0,0a.28.28,0,0,1,.33.43A5.71,5.71,0,0,1,946.28,80a8.39,8.39,0,0,1-2.19-.3,9.58,9.58,0,0,1-1-.37c-.32-.17-.64-.33-1-.51a.29.29,0,0,1-.09-.39.28.28,0,0,1,.29-.13Z"/><path class="cls-37" d="M920.51,78.33c.68.13,1.33.26,2,.35a12.73,12.73,0,0,0,1.94.13,10.15,10.15,0,0,0,1.9-.22,8.88,8.88,0,0,0,1.82-.62l0,0a.28.28,0,0,1,.37.13.26.26,0,0,1,0,.3A5.67,5.67,0,0,1,924.45,80a8.37,8.37,0,0,1-2.18-.3,9,9,0,0,1-1-.37c-.32-.17-.64-.33-.94-.51a.28.28,0,0,1-.1-.39.29.29,0,0,1,.29-.13Z"/><path class="cls-36" d="M930.32,72.68c-.48-.06-.93-.16-1.38-.25s-.91-.15-1.36-.21a20,20,0,0,0-2.66-.22,15.26,15.26,0,0,0-2.62.19,12.67,12.67,0,0,0-2.54.68l-.06,0a.41.41,0,0,1-.54-.23.41.41,0,0,1,.09-.44,6.38,6.38,0,0,1,2.66-1.58,9.47,9.47,0,0,1,3-.45,11.53,11.53,0,0,1,3,.48,13.82,13.82,0,0,1,1.4.52c.44.22.88.46,1.3.72a.42.42,0,0,1-.27.77Z"/><path class="cls-32" d="M929.94,92.3c0,.74,2.57,1.42,5.68,1.36s5.56-.67,5.6-1.57c0-1.09-2.53.18-5.65.24S930,91.18,929.94,92.3Z"/><path class="cls-38" d="M913.38,94.79a.55.55,0,0,1-.55-.55V82.39a.56.56,0,0,1,1.11,0V94.24A.56.56,0,0,1,913.38,94.79Z"/><path class="cls-38" d="M956.76,95.29a.55.55,0,0,1-.55-.55V82.89a.55.55,0,0,1,.55-.55.55.55,0,0,1,.55.55V94.74A.55.55,0,0,1,956.76,95.29Z"/><path class="cls-33" d="M966.33,69.74c-9,3.66-12.57,4.72-16.76,2.31s-3.66-13.85-9.83-15.77-7.57,3.67-14.36,2.87c-7.26-.85-10.54,2.34-10.54,2.34s-2.39-10.79,9-14.88,27.92-.39,34.66,6.66A31.74,31.74,0,0,1,966.33,69.74Z"/><path class="cls-17" d="M897.58,315.53c-20.86,0-26.25-22-21.75-44.67,5.27-26.55,31.76-39.21,56.41-39.21s50.35,15.19,57.34,41.26c5.43,20.26-1.83,42.62-22.69,42.62Z"/><rect class="cls-39" x="887.77" y="276.66" width="83.93" height="37.51" rx="8.39"/><path class="cls-40" d="M910,132.76s-20.91,7.62-28.3,15.34A70.92,70.92,0,0,0,873,158.79l21.37,69.45h75.93l26.59-69.57a49.75,49.75,0,0,0-18.75-17.61c-13-7.05-16.6-7.73-18.07-8.64,0,0-18.53,22.62-23.3,22.85S910,132.76,910,132.76Z"/><path class="cls-26" d="M936.76,157.31c5.75.11,22.21-20.9,24.77-24.21a10.18,10.18,0,0,1-1.47-.68s-18.53,22.62-23.3,22.85S910,132.76,910,132.76s-.58.21-1.57.6C910.86,135.93,930.88,157.2,936.76,157.31Z"/><path class="cls-23" d="M873.44,158.9c3.19,12.28,15.24,13.64,17.28,29.55-10.46,19.33-21.14,48.2-21.14,48.2s40.69,2,57.06,7L926.18,263H859.8c-14.54,0-21.51-9.91-16.82-32.28C848.89,202.55,864.81,171,873.44,158.9Z"/><path class="cls-23" d="M996.11,158.9c-1,12.51-20.65,21.2-17.27,29.55,7.73,19.1,19.86,48.65,19.86,48.65s-40.28-1.13-55.28,3.64V263h66.33c14.55,0,21.7-10.94,16.46-33.19C1021.07,208,1010.75,179.36,996.11,158.9Z"/><path class="cls-23" d="M890.71,279.87c16.32-2.45,22.8,13.3,28.8,38.1s21.59,91.18,29.39,114c7.18,21-1.2,14.4-4.8,25.8-3.34,10.57-8.77,18.47-16.79,18.89-5.7.3-.1-17.09,6.29-30.29-.9-12.3-13.79-36.29-33.89-79.78-19.78-42.82-20.2-49.59-21.4-64S884.71,280.77,890.71,279.87Z"/><circle class="cls-32" cx="894.31" cy="294.27" r="6.97"/><path class="cls-32" d="M846.39,249a7.84,7.84,0,0,0-4.13,1.18c1.43,6.24,5,10.11,10.21,11.83a7.82,7.82,0,0,0,1.85-5.08A7.93,7.93,0,0,0,846.39,249Z"/><path class="cls-32" d="M1026.88,251.07A7.92,7.92,0,0,0,1016,262.23C1021.37,260.72,1025.16,257,1026.88,251.07Z"/><path class="cls-27" d="M948,279.27c15.3,0,15,30.3,14.1,46.49S951.6,393,939.6,427.44s-13.79,40.2-14.09,50.09-11.4,11.7-18.9,11.4-7.5-2.1.3-23.39,17.7-81.29,19.5-116.68S920.41,279.27,948,279.27Z"/><circle class="cls-32" cx="945.3" cy="294.57" r="6.97"/><path class="cls-17" d="M875.49,291.66c6.37-10.68,77.63-10.91,99.11-1.36L973.24,260l-91.38,1.7Z"/><rect class="cls-41" x="873.9" y="187.77" width="111.39" height="74.56" rx="6.25"/><path class="cls-42" d="M880.14,189.14H979a6.25,6.25,0,0,1,6.25,6.25V263.7a0,0,0,0,1,0,0H873.9a0,0,0,0,1,0,0V195.38A6.25,6.25,0,0,1,880.14,189.14Z"/><path class="cls-12" d="M873.9,263.7H985.29a0,0,0,0,1,0,0v2.16a1.36,1.36,0,0,1-1.36,1.36H875.26a1.36,1.36,0,0,1-1.36-1.36V263.7A0,0,0,0,1,873.9,263.7Z"/><circle class="cls-26" cx="929.14" cy="226.19" r="9.78"/><path class="cls-17" d="M1180.53,639.55a3.6,3.6,0,0,1-3.6-3.6V593.46a3.61,3.61,0,0,1,7.21,0V636A3.61,3.61,0,0,1,1180.53,639.55Z"/><path class="cls-43" d="M765.24,305.07H267.55A56.55,56.55,0,0,0,211,361.61v519a56.54,56.54,0,0,0,56.54,56.54h55.76Z"/><circle cx="245.57" cy="614.7" r="5.46"/><circle class="cls-44" cx="508.96" cy="228.77" r="50.92"/><circle class="cls-16" cx="490.26" cy="228.41" r="5.56"/><circle class="cls-16" cx="509.39" cy="228.41" r="5.56"/><circle class="cls-16" cx="528.52" cy="228.41" r="5.56"/><circle class="cls-40" cx="747.21" cy="228.77" r="50.92"/><circle class="cls-16" cx="729.96" cy="228.41" r="5.56"/><circle class="cls-16" cx="749.09" cy="228.41" r="5.56"/><circle class="cls-16" cx="768.22" cy="228.41" r="5.56"/><rect class="cls-17" x="583.13" y="183.82" width="89.91" height="89.91" rx="10.18"/><rect class="cls-16" x="604.51" y="216.93" width="45.27" height="5.03"/><rect class="cls-16" x="604.51" y="231.08" width="45.27" height="5.03"/><path class="cls-23" d="M920.93,867.79c-1.54,8.33-8.5,42.77-8.61,49.93-.1,6.08-16.54,3.21-27.73,3.3-14.33.11-21.05,2.24-20.35-2.84.46-3.3,15.91-2.73,26.89-18.16L897,869.89Z"/><path class="cls-26" d="M907.51,915.07c-3,.73-16.79-1.4-16.79-1.4a34.44,34.44,0,0,0-3.91-7.38c-8.77,4.89-24.51,9.23-24.75,13.22-.16,2.63,7.38,2.4,25.39,1.91,11.2-.3,22.49,2,24.45-2.58a28.7,28.7,0,0,0,1.22-4.67C911.07,914.43,908.86,914.75,907.51,915.07Z"/><path class="cls-7" d="M912.43,917c-2,4.54-13.26,2.28-24.45,2.58-16.7.46-24.39.68-25.3-1.38a2.34,2.34,0,0,0-.62,1.33c-.16,2.63,7.38,2.4,25.39,1.91,11.2-.3,22.49,2,24.45-2.58a16.19,16.19,0,0,0,.7-2.3Z"/><path class="cls-25" d="M912.61,914.24c1.36-11.28,7-39.08,8.32-46.45L897,869.89,891.13,900a38.27,38.27,0,0,1-7.42,7.85c-7.82,3.73-18.39,7.13-21,10.31a3.43,3.43,0,0,0-.24.33l0,0a2.19,2.19,0,0,0-.17.29,1.17,1.17,0,0,1,0,.11,2.09,2.09,0,0,0-.08.23,2,2,0,0,0-.06.34c-.16,2.63,7.38,2.4,25.39,1.91,9.84-.26,19.76,1.45,23.34-1.21a2.87,2.87,0,0,0,1.53-2.49v-.14c0-.08.22-.81.28-1h0c.17-.69.34-1.48.52-2.37Z"/><path class="cls-23" d="M1081.72,742.86c-12.24,15.6-38.54,64.45-38.54,64.45s-36.48-65.47-44.67-80.47-10.68-14.21-10.68-14.21-9,6.25-3.41,18.18c2,4.25,3.18,9.32,6.14,19.1s20.12,84.79,50.58,89.11,69.08-57.3,76.49-68.42C1133.09,747.41,1102,717.06,1081.72,742.86Z"/><path class="cls-25" d="M1081.72,742.86c-12.24,15.6-38.54,64.45-38.54,64.45s-36.48-65.47-44.67-80.47-10.68-14.21-10.68-14.21-9,6.25-3.41,18.18c2,4.25,3.18,9.32,6.14,19.1s20.12,84.79,50.58,89.11,69.08-57.3,76.49-68.42C1133.09,747.41,1102,717.06,1081.72,742.86Z"/><path class="cls-23" d="M1104.56,716.78c-11.59,11.59-32.31,7.77-36.48,5.11-7.51-4.78-8.19-7.16-10.75-14.83,14.33-11.42,15.74-9.94,15.79-16.89.06-7.67-10.95-45.78-10.95-45.78l31.73-7s10.22,37.76,12.7,43.87c1.51,3.7,10.07,9.65,13.82,13.91C1117.32,704.46,1111.5,709.84,1104.56,716.78Z"/><path class="cls-45" d="M1073,692.05a10.37,10.37,0,0,0,.15-1.88c.06-7.67-10.95-45.78-10.95-45.78l31.73-7s10.22,37.76,12.7,43.87a6.55,6.55,0,0,0,1.91,2.55Z"/><path class="cls-35" d="M1072.77,669a23.18,23.18,0,0,1-3.87.62c-3.35-13.08-6.73-25.26-6.73-25.26l22.68-5.15C1087.33,653.69,1083.46,666.54,1072.77,669Z"/><path class="cls-23" d="M1046.68,640.25c3.57,15.31,12.19,26.57,26.85,23,11.25-2.62,17.47-17.16,13.9-32.48s-10.31-26.82-26.84-23C1042.38,612,1043.11,624.94,1046.68,640.25Z"/><path class="cls-38" d="M1093,604.19c5.23,6.82,13.07,13.64,1.48,35.12l-11.26-1.13,2.28-24.44Z"/><circle cx="1054.21" cy="633.63" r="1.57"/><path class="cls-32" d="M1080.24,643.32a11.16,11.16,0,0,0-5.07-21.73Z"/><path class="cls-46" d="M1079,638.18a5.88,5.88,0,0,0-2.67-11.45Z"/><circle class="cls-32" cx="1061.15" cy="640.78" r="4.89"/><path class="cls-32" d="M1047.31,634.12l-4.6,10.38a1.81,1.81,0,0,0,1.73,2.54l6.11-.25Z"/><path class="cls-38" d="M1075.63,624.29l2.14,8.5-3,.87a61.08,61.08,0,0,0-2.67-8.82Z"/><path class="cls-38" d="M1045.8,618.4c-4.45-2.29-6.37-11.14,4.32-18.3,9.13-6.12,18-7.5,26.59-6.25,7.59,1.1,11.26,5.11,12,5-.57-1.59-2.73-3.3-2-8.07,1.28-9,14.82-11.35,20.34-6s7.73,14.77-.11,20.68c-3.51,2.65-11.48.12-14-1.25,0,2,3.52,5,3.41,12.51-.19,12.64-18,10.86-22.62,10-6.14-1.15-10.14-7.24-14.1-15.12C1059.66,611.58,1054.34,610.64,1045.8,618.4Z"/><path class="cls-17" d="M1058.71,627.47c-.82.34-1.64.59-2.45.84l-2.41.73c-.79.24-1.58.48-2.36.75l-1.16.42-1.21.46-.1,0s0,0-.17,0a.51.51,0,0,1-.36-.19.47.47,0,0,1,.08-.66.48.48,0,0,1,.67.09.47.47,0,0,0-.35-.19c-.18,0-.13,0-.15,0h-.06s0,0,0,0l0,0,.11-.12.24-.25c.17-.17.34-.32.52-.47a9.72,9.72,0,0,1,1.16-.77,12,12,0,0,1,2.51-1.07,13.61,13.61,0,0,1,5.34-.53.48.48,0,0,1,.12.93Z"/><path class="cls-38" d="M1049.21,648s-1.33,20.32,5.91,21.14c11,1.26,21.62-6.5,25.36-9.17,3.38-2.42-.92-19.16-.92-19.16l-1.79-8-3,.87s.89,10.54-6.84,13C1065.3,647.56,1057.16,644.77,1049.21,648Z"/><path class="cls-16" d="M1050.41,651.41a10.62,10.62,0,0,1-1.3.21c0,.9,0,1.9.07,3a7.55,7.55,0,0,0,2-.2c2.49-.59,4.25-2.23,3.91-3.69S1052.9,650.83,1050.41,651.41Z"/><path class="cls-33" d="M1029.48,836.11c-14-20.54-48.82-78.83-88.38-74.8-41.86,4.26-53.48,139.14-53.48,139.14l31.59,1.36,28.87-94.38L1014,898.9l45.35-17.44Z"/><path class="cls-39" d="M1029.48,836.11c-14-20.54-48.82-78.83-88.38-74.8-41.86,4.26-53.48,139.14-53.48,139.14l31.59,1.36,28.87-94.38L1014,898.9l45.35-17.44Z"/><path class="cls-47" d="M945.64,781.74c-22.48.69-36.55,91.83-37.14,95.71l1.35.21c0-.24,3.65-23.86,9.92-47.25,8.22-30.68,17.18-47,25.91-47.31H946c21.6,0,64.82,74.26,65.25,75l1.18-.68C1010.6,854.32,967.94,781,945.64,781.74Z"/><path class="cls-23" d="M769.68,914.76c-8.36,1.37-45.54,7.25-51.2,6.51-4.9-.65-5.81-12.13-9.16-22.81-5.4-17.19-7.68-24.38-5.11-25,5-1.11,17.57,22.21,25.06,24.1L759.61,893Z"/><path class="cls-33" d="M1115.13,842.31c-10.07,22.48-23.25,76-71.7,78.68S941.1,910.14,902.35,910.92s-145,10.85-145,10.85A107.53,107.53,0,0,1,753.9,902c-.78-10.46,0-15.47,0-15.47s97.66-18.25,150-21.35,135.27,4.27,135.27,4.27l-29.46-8.53,24-45.35Z"/><path class="cls-48" d="M1064.78,876.11a27.22,27.22,0,0,1-9.11-8.34c-4.88-6.67-2.46-20.64-2.44-20.78l-1.34-.24c-.11.59-2.55,14.69,2.68,21.83a28.7,28.7,0,0,0,9.35,8.62c-5.5,6.91-12.53,13.39-21.11,16.89-16.42,6.69-44.59,3.31-77.2-.61-15.83-1.9-32.21-3.86-48.89-4.9-39.46-2.44-86.21,3.39-127.45,8.53-12.55,1.57-24.4,3-35.42,4.21,0,.23,0,.46,0,.68l.07.68c11-1.17,22.9-2.65,35.47-4.22,41.18-5.13,87.86-11,127.19-8.52,16.65,1,33,3,48.82,4.9,32.8,3.93,61.13,7.33,77.88.51,24.55-10,36.64-43.71,36.76-44.05l-1.29-.45A103.69,103.69,0,0,1,1064.78,876.11Z"/><path class="cls-49" d="M1057.33,707.06s8.25,15.34,26.2,14.43,36.89-26.37,36.89-26.37,47.23,21.37,32.45,79.8c-9.38,37.1-27,90.25-27,90.25s-54.11,3.63-102.75-29.56l4.54-92.29S1033,724.9,1057.33,707.06Z"/><path class="cls-12" d="M984.31,701.43l14.48.33a4.56,4.56,0,0,1,4.07,2.73l12.28,28.1a1.73,1.73,0,0,1-1.66,2.41l-15.55-.77a3.75,3.75,0,0,1-3.28-2.31L982.9,703.48A1.49,1.49,0,0,1,984.31,701.43Z"/><path class="cls-23" d="M1107.63,745.59c-12.23,15.6-45.46,67.74-45.46,67.74s-29.56-68.76-37.74-83.77S1007,716.27,1007,716.27l3.07,3.41s-5.69-1.25-5.8.22,5.12,2.39,6.48,4.21c0,0-5.23-2.5-6.25-1.25s5,3.29,6.14,4.77c0,0-4.78-2-5.35-.79s2.73,2.61,5,6.7,3.19,9.32,6.14,19.1,10.69,86.84,41.15,91.16,78.51-59.35,85.93-70.48C1159,750.14,1127.86,719.79,1107.63,745.59Z"/><path class="cls-32" d="M1057.62,843.8a24.46,24.46,0,0,0,7.61-.21,7.45,7.45,0,0,0,.08-1.06,7.33,7.33,0,0,0-14.57-1.1A19.62,19.62,0,0,0,1057.62,843.8Z"/><path class="cls-26" d="M720.91,916c-1.53-2.73-3.24-16.54-3.24-16.54a34.28,34.28,0,0,0,6-5.78c-7.1-7.1-15.59-21.05-19.49-20.19-2.57.57-.29,7.76,5.11,25,3.35,10.68,4.26,22.16,9.16,22.81a28.43,28.43,0,0,0,4.83-.1C722.5,919.27,721.59,917.23,720.91,916Z"/><path class="cls-7" d="M720.41,921.27c-4.9-.65-5.81-12.13-9.16-22.81-5-15.94-7.32-23.28-5.59-24.72a2.36,2.36,0,0,0-1.45-.23c-2.57.57-.29,7.76,5.11,25,3.35,10.68,4.26,22.16,9.16,22.81a16,16,0,0,0,2.41,0Z"/><path class="cls-8" d="M529.25,1010.77H96.56c-1.7,0-3.07-1.8-3.07-4s1.37-4,3.07-4H529.25c1.7,0,3.07,1.81,3.07,4S531,1010.77,529.25,1010.77Z"/><path class="cls-26" d="M249.49,823c8.19,20.12,11.43,48.68,12.45,69.14l-44.33,4.43Z"/><path class="cls-23" d="M374.92,887.43s-3.53-8.67-20.58-7.47c-14.81,1-72.49,10.41-87.37,12.85-5.82,9-11.75,18-18.1,26.66,26.43,9.92,81.63-17.89,90.34-20.36,9.82-2.79,14.71-4.84,19.39-5.13s7.59,1.74,8.34.59-3.55-4.07-3.55-4.07c1.85.16,6.83,4.13,7.33,2.59s-4.43-4.59-4.43-4.59c2.27.17,5.86,4.08,7,3.19s-2.94-5-2.94-5Z"/><path class="cls-25" d="M374.92,887.43s-3.53-8.67-20.58-7.47c-14.81,1-72.49,10.41-87.37,12.85-5.82,9-11.75,18-18.1,26.66,26.43,9.92,81.63-17.89,90.34-20.36,9.82-2.79,14.71-4.84,19.39-5.13s7.59,1.74,8.34.59-3.55-4.07-3.55-4.07c1.85.16,6.83,4.13,7.33,2.59s-4.43-4.59-4.43-4.59c2.27.17,5.86,4.08,7,3.19s-2.94-5-2.94-5Z"/><path class="cls-23" d="M204.4,819.93c4.35,15.8,24.25,22.72,29.19,22.47,8.89-.45,4.89,2.41,10.9-3-1.15-17-3-21,.39-27.07,3.74-6.7,32.14-34.39,32.14-34.39l-24.1-21.81S225.38,783.91,220.2,788c-3.13,2.47-13.52,3.41-18.89,5.27C199.39,802.91,201.79,810.46,204.4,819.93Z"/><path class="cls-50" d="M244.08,814a11,11,0,0,1,.8-1.71c3.74-6.7,32.14-34.39,32.14-34.39l-24.1-21.81S225.38,783.91,220.2,788a6.48,6.48,0,0,1-2.92,1.27Z"/><path class="cls-35" d="M254,795.78a24.78,24.78,0,0,0,3.14,2.34c9-10,17.66-19.29,17.66-19.29l-17.72-15.05C248.24,775.44,245.72,788.62,254,795.78Z"/><path class="cls-51" d="M260.16,729.41c-7.17,4.74-17.23,8.44-13.29,32.54l11.43,2.78,5.83-23.84Z"/><path class="cls-23" d="M292.13,778.61c-5,8-12.22,17.52-19.19,19.26-4.61,1.16-8.4-1.28-15.33-8.36-6.72-6.87-9.27-19.89-.89-33.19s18.51-22,32.87-13C305.41,753.33,300.51,765.31,292.13,778.61Z"/><circle cx="287.18" cy="769.9" r="1.57"/><path class="cls-32" d="M259.41,770.55a11.16,11.16,0,1,1,11.89-18.88Z"/><path class="cls-46" d="M262.22,766.08a5.88,5.88,0,0,1,6.27-10Z"/><circle class="cls-32" cx="278.28" cy="774.39" r="4.89"/><path class="cls-32" d="M293.54,772.61l1,11.31a1.8,1.8,0,0,1-2.46,1.84l-5.7-2.24Z"/><path class="cls-51" d="M270,754.07l-4.8,7.34,2.52,1.79a63.67,63.67,0,0,1,5.41-7.47Z"/><path class="cls-51" d="M302.91,739.87c-4-7.53-10.75-6.32-23.81-12.6-14.94-7.18-25,5.72-27.15,12.3-3.95,12,14.38,16.7,19,17.39,6.18.91,12-3.53,18.26-9.69,0,0,5.34.85,10.88,11C305.06,757.53,309,751.22,302.91,739.87Z"/><path class="cls-32" d="M285.5,761.53a13.55,13.55,0,0,1,5.1,1.66,11.6,11.6,0,0,1,2.23,1.59,8.27,8.27,0,0,1,1,1c.14.18.29.37.41.56l.19.3.07.15,0,.05s0,0,0,0l-.05,0a.8.8,0,0,0-.14-.05.47.47,0,0,0-.38.11.46.46,0,0,1,.66.06.47.47,0,0,1-.05.66.53.53,0,0,1-.4.11c-.18-.05-.14-.05-.16-.06l-.09,0-.16-.11-.93-.61c-.34-.23-.69-.44-1-.65-.7-.43-1.42-.83-2.14-1.25l-2.2-1.22c-.73-.42-1.48-.84-2.21-1.34a.49.49,0,0,1,.31-.89Z"/><path class="cls-32" d="M283.42,788.48c.33.31.66.59,1,.86-.29.4-.64.84-1,1.29a14.07,14.07,0,0,1-1.51-1.25c-1.82-1.75-2.68-3.52-1.93-4S281.61,786.73,283.42,788.48Z"/><path class="cls-23" d="M325.71,949.62c1.54,8.33,8.5,42.78,8.61,49.94.1,6.07,16.54,3.2,27.73,3.29,14.33.12,28.21,2.24,27.51-2.84-.45-3.29-23.07-2.73-34.05-18.16l-5.88-30.12Z"/><path class="cls-25" d="M325.71,949.62c1.54,8.33,8.5,42.78,8.61,49.94.1,6.07,16.54,3.2,27.73,3.29,14.33.12,28.21,2.24,27.51-2.84-.45-3.29-23.07-2.73-34.05-18.16l-5.88-30.12Z"/><path class="cls-12" d="M217.17,918c14-20.55,48.8-78.8,88.37-74.81,36.19,3.66,50.51,110.39,50.51,110.39l-33.76,10.74-23.73-75-65.89,91.48-45.35-17.45Z"/><path class="cls-39" d="M217.17,918c14-20.55,48.8-78.8,88.37-74.81,36.19,3.66,50.51,110.39,50.51,110.39l-33.76,10.74-23.73-75-65.89,91.48-45.35-17.45Z"/><path class="cls-47" d="M301,863.57c22.48.69,36.55,91.84,37.14,95.72l-1.35.2c0-.24-3.65-23.86-9.92-47.25-8.22-30.68-17.18-47-25.91-47.31h-.29c-21.6,0-64.82,74.27-65.25,75l-1.18-.68C236,936.15,278.7,862.87,301,863.57Z"/><path class="cls-12" d="M111.22,916.7c-8.87,31-10.86,79.46,20.12,86.27,17,3.75,39.21,1.37,96.5,1.71,56.61.33,93.43,3.07,93.09-28s-68.88-23.19-83.54-24.56-82.52-2-82.52-2Z"/><path class="cls-26" d="M244.72,812.87S240.51,820,227,813s-19.27-22.51-19.27-22.51-41.94,8.87-70.58,61.72c-18.24,33.65-32.74,81.84-32.74,81.84s19.55,23.76,98.66,16.6c0,0,23.76-45.24,36-67.07S261.43,843.56,244.72,812.87Z"/><path class="cls-52" d="M226.25,831.57c14.8,16.68,20,45.06,20,45.06l-8.1,10.23Z"/><path class="cls-52" d="M179.42,845.77c-6.59,19.21,11.82,82.75,27.73,97.07l16.26-30Z"/><path class="cls-17" d="M411.29,850.14l-.53-.17-20.41,65.74H319.68v.68a3.27,3.27,0,0,0,3.26,3.27h67.43a4,4,0,0,0,3.87-3.17l19.29-62.1A3.4,3.4,0,0,0,411.29,850.14Z"/><path class="cls-23" d="M224.77,841c7.12,15.7,25.41,85.82,25.41,85.82s69.31-28.26,85.66-33.21,21.73,2.73,21.73,2.73l-4.58.27s4.92,3.1,4,4.23-5.32-1.89-7.57-1.55c0,0,5.48,1.89,5.33,3.5s-5.87-1.16-7.72-.91c0,0,4.84,1.89,4.36,3.18s-3.77,0-8.26,1.27-8.81,4.41-17.78,9.3S256.78,970,232.05,951.72s-54-84.12-52.63-106C181.16,818,211.23,811.14,224.77,841Z"/><path class="cls-32" d="M232.34,952.16a24.39,24.39,0,0,1-5.48-5.28,8.58,8.58,0,0,1,.65-.84,7.33,7.33,0,0,1,11.51,9A20.09,20.09,0,0,1,232.34,952.16Z"/><path class="cls-40" d="M155.67,951.53l.67.13c3.43-16.94,21.68-70.58,28.6-82.18l-.59-.35C177.41,880.77,159.11,934.54,155.67,951.53Z"/><path class="cls-25" d="M244.15,904.29l-.39-1.42-6.37-7-37.06,8.41,3.22,10.51c1.19,2.12,2.39,4.21,3.62,6.25A85.83,85.83,0,0,0,244.15,904.29Z"/><path class="cls-26" d="M245.78,902.8c-6.45-23.48-15.22-54.06-19.79-64.13-14.75-32.54-47.52-25.1-49.42,5.21-.88,14.17,10.08,45.37,24.79,72.5C213.93,915,238,906.8,245.78,902.8Z"/><path class="cls-44" d="M302.41,1003l5.09-61.58a16.23,16.23,0,0,1,16.07-14.8H436A16.23,16.23,0,0,1,452,941.36l5.19,61.61h6.84l-5.24-62.18a23.08,23.08,0,0,0-22.86-21H323.57a23.09,23.09,0,0,0-22.87,21.05L295.57,1003Z"/><path class="cls-40" d="M197.1,908.75l.1.67c17.79-2.47,46.39-13.55,46.68-13.66l-.25-.63C243.34,895.24,214.82,906.28,197.1,908.75Z"/><path class="cls-40" d="M246.85,817.55c0,.06-2.65,5.19-17.14,3-14-2.11-24-15.79-27.69-28.4l-.65.19a49.64,49.64,0,0,0,7.54,15.2,35.18,35.18,0,0,0-10.86,7.2,27.12,27.12,0,0,0-5.77,1c-9.56,2.84-13.47,11.78-15.07,18.78a51.33,51.33,0,0,0,.52,24.15l.65-.19c-3.7-12.5-2.16-37.25,14.09-42.09a28.15,28.15,0,0,1,21.89,2.74c6.7,3.76,10.63,9,11.56,12.48l.66-.17c-1.16-4.38-5.94-9.56-11.89-12.9a29.63,29.63,0,0,0-15.59-3.91,33.48,33.48,0,0,1,10.24-6.57c5.08,6.65,12,11.86,20.27,13.12a46.13,46.13,0,0,0,6.77.56c9.16,0,11-3.75,11.09-3.94Z"/><path class="cls-53" d="M1065.25,303.07c-1.71-.9-1.77,1.51,2.45-14.86C1069.41,289.12,1069.47,286.7,1065.25,303.07Z"/><path class="cls-54" d="M1070.21,302.74c-1.63-.8-1.75,1.62,2-14.2C1073.85,289.34,1074,286.93,1070.21,302.74Z"/><path class="cls-55" d="M1077.72,269.72V250.8c0-10.25-5.52-16-12.32-16s-12.33,5.71-12.33,16v18.92c0,12.91,7,19.62,15.53,19.62H1075c8.58,0,15.54-6.71,15.54-19.62Z"/><polygon class="cls-56" points="1047.14 248.94 1054.93 253.36 1054.93 244.51 1047.14 248.94"/><ellipse cx="1061.21" cy="246.84" rx="1.32" ry="2.16"/><path class="cls-57" d="M1087.7,255.27s4.59,12.56-5.6,20c-6.79,4.93-14.63,5.6-17.32,1.75s.68-10.87,7.55-15.68A40.31,40.31,0,0,1,1087.7,255.27Z"/><path class="cls-58" d="M1351.76,939c0-4.59-89.13-4.59-89.13,0S1351.76,943.63,1351.76,939Z"/><path class="cls-59" d="M1297.71,942.52h-27.88a20.28,20.28,0,0,1-20.1-17.59l-7-52.62h82.18l-7,52.62A20.28,20.28,0,0,1,1297.71,942.52Z"/><path class="cls-60" d="M1273.4,875.49c-.89,0-1-1.39-.06-1.39S1274.3,875.49,1273.4,875.49Z"/><path class="cls-60" d="M1264.25,875.73c.9-1,3.41,1.17.24,1.17A.75.75,0,0,1,1264.25,875.73Z"/><path class="cls-60" d="M1246.26,876.17c0,.56.37.71.09.74.16,0,.13.1.19.28.25.73-.88,1.16-1.7-.29C1243.54,874.62,1246.53,873.23,1246.26,876.17Z"/><path class="cls-60" d="M1318.16,873.35c.41.48,0,2.41-.76,1.63C1315.84,873.31,1316.51,871.44,1318.16,873.35Z"/><path class="cls-60" d="M1320.53,872.53c0-.35,1.09-.46,1.28.32C1322.29,873.93,1320.43,875.13,1320.53,872.53Z"/><path class="cls-60" d="M1299.23,872.31h1.5C1301.11,873.15,1299.65,873.15,1299.23,872.31Z"/><path class="cls-60" d="M1281.79,872.31c1.11,0,1-.09,1,.29C1283,873.26,1282,873.5,1281.79,872.31Z"/><path class="cls-60" d="M1290.12,929.11c.65-.5,1.94.68,1.25,1.77C1291.11,934.44,1287.66,931,1290.12,929.11Z"/><path class="cls-60" d="M1290.26,922.78a1.53,1.53,0,0,1,.73-1.88.69.69,0,0,1,.73,1.18c-.24.16-.17.22-.13.29C1291.91,923.07,1290.71,923.76,1290.26,922.78Z"/><path class="cls-60" d="M1288.14,929.86a.69.69,0,0,1-1.34,0C1285.12,928.48,1288.68,926.32,1288.14,929.86Z"/><path class="cls-60" d="M1282.55,915.62c.24.42,1,.67,1.07,1.66s-1.72,1.18-2.44-1C1281,915.59,1282.08,914.86,1282.55,915.62Z"/><path class="cls-60" d="M1287.94,912.06c.23,1.82-2.4.75-1.38-.36C1287.35,910.85,1288,911.54,1287.94,912.06Z"/><path class="cls-60" d="M1284,907.73c.28-.36.44-.15.62-.32.85-.77,1.8.64,1.56,1.77C1285.31,913.45,1282,910.48,1284,907.73Z"/><path class="cls-60" d="M1277.27,909.64c0-.86,1.59-1.43,1.71.24C1279.07,911.21,1277.25,911.47,1277.27,909.64Z"/><path class="cls-60" d="M1273,921.26c-.74,1.49-1.66.51-1.51-.19C1271.87,919.21,1273.82,919.56,1273,921.26Z"/><path class="cls-60" d="M1279.18,934.5c-.23.91-.94,1.3-1,1.76,0,.89-1.42,1-1.4.06,0-1.21.85-1.55,1-2.13A.7.7,0,0,1,1279.18,934.5Z"/><path class="cls-60" d="M1264.32,908.92c.9,0,1,1.39.06,1.39S1263.43,908.92,1264.32,908.92Z"/><path class="cls-60" d="M1296.55,925.58c.5-.57,1.49-.12,1.18,1C1297.09,928.74,1295,926.05,1296.55,925.58Z"/><path class="cls-60" d="M1302.59,930.61c-.52,2.47-3.31,1-2.17-2.14C1301.09,926.63,1303.58,925.87,1302.59,930.61Z"/><path class="cls-60" d="M1297.54,936c.81-.89,1.94.85.8,1.9S1296.26,936.11,1297.54,936Z"/><path class="cls-60" d="M1296.83,941.64c.37,0,1.45.55-.63.75A.63.63,0,0,1,1296.83,941.64Z"/><path class="cls-60" d="M1289.16,936.13c.9,0,1,1.4.06,1.4S1288.27,936.13,1289.16,936.13Z"/><path class="cls-60" d="M1313.6,932.56a.45.45,0,0,1,.2-.49C1313.82,931.78,1314.77,931,1313.6,932.56Z"/><path class="cls-60" d="M1306.49,918.54c-.58,0-1.07-1.66-.73-2C1306.47,915.11,1308.17,919.57,1306.49,918.54Z"/><path class="cls-60" d="M1316.43,909.42c-.19.38-.87.58-1.06-.79C1315.25,907.75,1317,908.23,1316.43,909.42Z"/><path class="cls-60" d="M1303.92,892.86c-.61-1.41,1.54.54,1.67,1.41.51,1.43-.56,2.67-1.23,1.88C1302.92,896.09,1301.61,892.7,1303.92,892.86Z"/><path class="cls-60" d="M1300.94,902.38c.51,2-2,1.22-1.66-.71C1299.39,901,1300.61,901.08,1300.94,902.38Z"/><path class="cls-60" d="M1298.84,912.38a.6.6,0,0,1-1,.07c-1.17,1.54-2.49-.34-1.81-1.77C1296,907.81,1299.72,910.44,1298.84,912.38Z"/><path class="cls-60" d="M1313.69,890.32c.53-1,2.66.68,1.74,1.87C1315.24,894.05,1312.71,892.15,1313.69,890.32Z"/><path class="cls-60" d="M1321.44,890.34c.71-.12.32,2.29-.86.65C1320.3,890.6,1320.87,889.49,1321.44,890.34Z"/><path class="cls-60" d="M1318.9,893.77c1.21-1.33,1.82,2.57.38,2.35C1318.51,896.43,1317.17,894,1318.9,893.77Z"/><path class="cls-60" d="M1314.26,894.62c.23.4-.12,1-.75.69C1312.55,894.91,1313.68,893.59,1314.26,894.62Z"/><path class="cls-60" d="M1305.31,883.24c-2.18-.18-1.91-4.13,0-2.64C1305.78,880.62,1306.18,883.3,1305.31,883.24Z"/><path class="cls-60" d="M1292,881.78c0-.11-.51-1.35.31-1.28C1294.22,880.65,1292.34,883.22,1292,881.78Z"/><path class="cls-60" d="M1292.47,886.9c1-.76,1.89,2.26.68,2.44C1291.87,890.51,1291.08,888,1292.47,886.9Z"/><path class="cls-60" d="M1287.45,900.56c-.58-1-.11-1.47.43-1.25C1289.16,899.81,1287.85,901.26,1287.45,900.56Z"/><path class="cls-60" d="M1282.9,897.64c.14-.92,1.57-.37,2,.71C1285.88,900.45,1282.4,901,1282.9,897.64Z"/><path class="cls-60" d="M1285.71,895.46c.1-.87,1.37-.63,1.1.43C1287.27,897.27,1285.45,896.35,1285.71,895.46Z"/><path class="cls-60" d="M1255.87,928.37a3.67,3.67,0,0,1,3.3.77c1,1.12,0,3-1.11,1.39a1,1,0,0,1-1.23-.72C1255.23,929.6,1255.2,928.59,1255.87,928.37Z"/><path class="cls-60" d="M1251.43,923.37c2.65,3.48-.64,2.88-.65,2C1249.53,923.9,1250.75,922.49,1251.43,923.37Z"/><path class="cls-60" d="M1255.53,925.48c.82-.06.12,2.61-.9.31C1254.45,925.39,1255,924.83,1255.53,925.48Z"/><path class="cls-60" d="M1267.74,924.56c1.42,1,0,2.77-.92.41A.5.5,0,0,1,1267.74,924.56Z"/><path class="cls-60" d="M1257.09,899.38c-.4-.58-.61-1.88,0-2.14.74-2.08,2.94.88,1.56,2.46C1258.51,901.06,1256.66,900.15,1257.09,899.38Z"/><path class="cls-60" d="M1251.61,891.94a.48.48,0,0,1-.89-.29c-.52.15-.82-.55-.82-1C1249.92,888.31,1252.74,890.28,1251.61,891.94Z"/><path class="cls-60" d="M1276.77,885.06c.43-1.23,2.27.68,1.07,2.18C1277.18,888.07,1275.75,885.85,1276.77,885.06Z"/><path class="cls-60" d="M1267.46,885c.33.46,0,1.36-.7.49a.48.48,0,0,1-.37-.71C1265.91,883.55,1268,883.86,1267.46,885Z"/><path class="cls-60" d="M1272.31,886.61c0-.48.67-.7,1.23-.17C1276.31,887.79,1271.73,892.26,1272.31,886.61Z"/><path class="cls-60" d="M1272.31,884.13a.55.55,0,0,1-.93-.31c-.62.14-.7-.8-.63-1.42C1270.9,881.06,1273.15,883,1272.31,884.13Z"/><path class="cls-60" d="M1275.19,883.25c-.38,0-.92-.88-.5-1.23C1275.39,881.43,1276.18,883.14,1275.19,883.25Z"/><path class="cls-60" d="M1244.85,885.48c.05.16,0,3.22-.55-1.06A2.7,2.7,0,0,1,1244.85,885.48Z"/><path class="cls-60" d="M1256.3,885c.58,1.72-1.7,2-1.55.57C1254,884.36,1255.66,883.13,1256.3,885Z"/><path class="cls-60" d="M1250.81,886.33c0,.91-1.54.28-1.22-.59S1251,884.79,1250.81,886.33Z"/><path class="cls-60" d="M1267,876.9c.29-1.18,1.76-1.27,1.82-.3,0,.2,0,.28-.16.3h.14C1268.62,878.44,1266.57,878.46,1267,876.9Z"/><path class="cls-60" d="M1265.49,876.9a.82.82,0,0,1-1,0Z"/><path class="cls-60" d="M1248.79,876.87a.48.48,0,0,1,.29,0h-.15a1.32,1.32,0,0,1,.6.52.54.54,0,0,1-.91.57C1248.15,877.3,1248.38,876.83,1248.79,876.87Z"/><path class="cls-60" d="M1319.6,876.9a1.07,1.07,0,0,1,.83-.6c.39-.54.76-.33,1,.13.64.37.51.46-.21.48.79.07,1.2.4,0,1.56C1320.73,879,1319.1,878.06,1319.6,876.9Z"/><circle class="cls-61" cx="1283.77" cy="868.79" r="41.09"/><circle class="cls-62" cx="1283.77" cy="868.79" r="35.73"/><path class="cls-63" d="M1233.88,778.47c-13.48,4.9-13.36,4.6-13.08,5.37a.58.58,0,0,0,.75.34c13.48-4.9,13.36-4.6,13.07-5.37A.57.57,0,0,0,1233.88,778.47Z"/><path class="cls-63" d="M1221.84,786.53a.58.58,0,0,0,0,1.16c15.66,0,15.22.24,15.22-.58S1237.27,786.53,1221.84,786.53Z"/><path class="cls-63" d="M1328.31,830.78a.58.58,0,0,0-.36-1.1C1306.09,837,1303.54,839,1328.31,830.78Z"/><path class="cls-63" d="M1311.44,842.09c19.07-3.08,18.55-2.74,18.42-3.56s.57-.68-18.61,2.42A.58.58,0,0,0,1311.44,842.09Z"/><path class="cls-63" d="M1188.52,714.08c-.57.6-.59.25,10.44,10.66a.58.58,0,0,0,.82,0c.56-.61.58-.25-10.44-10.66A.58.58,0,0,0,1188.52,714.08Z"/><path class="cls-63" d="M1196.79,707.3c-.75.37-.66,0,6.39,14.38a.57.57,0,0,0,.77.26c.74-.36.66,0-6.39-14.37A.58.58,0,0,0,1196.79,707.3Z"/><path class="cls-63" d="M1258.1,683.52a.58.58,0,0,0,.35-1c-18.5-14.19-17.67-13.87-18.17-13.21S1258,683.52,1258.1,683.52Z"/><path class="cls-63" d="M1260.13,680.33a.58.58,0,0,0,.45-.93C1230.91,641,1258.75,680.33,1260.13,680.33Z"/><path class="cls-63" d="M1325.53,767.15c0-18,.25-17.66-.58-17.66s-.58-.54-.58,17.66A.58.58,0,0,0,1325.53,767.15Z"/><path class="cls-63" d="M1329.58,767.15c.64,0,.17.75,5.76-16.32a.58.58,0,0,0-1.1-.36C1328.89,766.8,1328.45,767.15,1329.58,767.15Z"/><path class="cls-63" d="M1367.45,705.59c-7.28-19.1-6.91-18.87-7.69-18.56s-.83-.54,6.61,19A.58.58,0,0,0,1367.45,705.59Z"/><path class="cls-63" d="M1371.54,706.67c.59,0,0,1.33,7.2-19.78a.58.58,0,0,0-1.09-.38C1370.72,706.69,1370.39,706.67,1371.54,706.67Z"/><path class="cls-64" d="M1180.83,787.11V814.6a38.78,38.78,0,0,0,38.78,38.78H1263V814.6c-45.32,0-41.09,5.32-41.09-27.49C1221.93,760,1180.83,759.91,1180.83,787.11Z"/><path class="cls-65" d="M1193.86,781c-1.65,0-1.16-.56-1.16,30.53a28.82,28.82,0,0,0,28.79,28.79h32a1.16,1.16,0,0,0,0-2.32h-32A26.49,26.49,0,0,1,1195,811.57C1195,780.5,1195.51,781,1193.86,781Z"/><path class="cls-65" d="M1209.48,780.75c-1.63,0-1.15-.21-1.15,27.36a17.51,17.51,0,0,0,17.49,17.49h28.23a1.16,1.16,0,0,0,0-2.31h-28.23a15.2,15.2,0,0,1-15.18-15.18C1210.64,780.58,1211.14,780.75,1209.48,780.75Z"/><path class="cls-64" d="M1338.77,766.57h-47.2l7,38.58h47.79A46.8,46.8,0,0,0,1393,761.06l1.86-32a22.18,22.18,0,0,0-22.14-23.47h-4.31a22.18,22.18,0,0,0-22.08,24.24l2.4,25.77A10,10,0,0,1,1338.77,766.57Z"/><path class="cls-65" d="M1342.38,781a18.91,18.91,0,0,0,18.8-18.43l.81-40a1.16,1.16,0,0,0-2.32,0l-.8,40a16.59,16.59,0,0,1-16.49,16.15c-32.15,0-31.61-.49-31.61,1.16S1310.11,781,1342.38,781Z"/><path class="cls-65" d="M1345.73,793.48a32.72,32.72,0,0,0,32.53-31.86l.8-38.44c0-1.33-1.54-1.18-1.16-1.18-1.62,0-1.1-1.59-2,39.58a30.38,30.38,0,0,1-30.21,29.58h-33.81a1.16,1.16,0,0,0,0,2.32Z"/><path class="cls-64" d="M1212.47,752.93l59.81-1.8V721l-59.81-1.8C1189.53,718.56,1189.51,753.62,1212.47,752.93Z"/><path class="cls-65" d="M1209,731.84c47.63,0,45.92.51,45.92-1.16s2.11-1.15-45.92-1.15A1.16,1.16,0,0,0,1209,731.84Z"/><path class="cls-65" d="M1209,741.1c47.63,0,45.92.51,45.92-1.16s2.11-1.15-45.92-1.15A1.16,1.16,0,0,0,1209,741.1Z"/><path class="cls-64" d="M1313.61,699a30.14,30.14,0,1,0-60.28,0l2,177.11c10.41,27.21,42.76,30.08,56.34,0Z"/><path class="cls-66" d="M1225.32,701.87s-3.94-14-4.87-14.06c-1.34,0-12.23,32.28,3.2,32.57,12,.23,24.24,3.12,20.74-17-3.24-18.65-3.18-20.87-8.63-2.29C1231.3,677.17,1230.78,678.3,1225.32,701.87Z"/><path class="cls-19" d="M1234.47,708.38c-3.62-14.54-4.1-14.38-8.49.47,0,0-3.25-8.78-4-8.8s-3,5.77-3.75,10c-2.28,12.29,7.57,10.37,16.46,10.55,12.55.24,4.65-20.21,3.82-20.23C1237.5,700.35,1234.47,708.38,1234.47,708.38Z"/><path class="cls-65" d="M1268,875.76a1.16,1.16,0,0,0,1.15-1.18c-3.29-192.33-2.47-181.71-4.24-181.71a1.17,1.17,0,0,0-1.16,1.18C1267.08,886.39,1266.27,875.76,1268,875.76Z"/><path class="cls-65" d="M1278.45,885.53a1.19,1.19,0,0,0,1.16-1.22c-1.64-213.35-.91-201.46-2.7-201.46a1.19,1.19,0,0,0-1.16,1.22C1277.4,897.42,1276.67,885.53,1278.45,885.53Z"/><path class="cls-65" d="M1290,886.78c1.8,0,1.13,12,1.54-203.1a1.19,1.19,0,0,0-1.16-1.22c-1.79,0-1.13-12-1.54,203.1A1.2,1.2,0,0,0,1290,886.78Z"/><path class="cls-65" d="M1300.06,877.69c1.79,0,1.08,10.09,2.32-175.55a1.18,1.18,0,0,0-1.16-1.17c-1.79,0-1.09-10.08-2.32,175.55C1298.89,877.73,1300.22,877.69,1300.06,877.69Z"/><path class="cls-66" d="M1315.91,719.07c6,.21,17-4.35,13.49-26.47-4.55-28.89-4.39-32.33-13.28-3.76-6.28-36.92-7.12-35.34-16.15,1,0,0-5.73-21.8-7.18-21.85-2-.08-19.73,49.56,4.15,50.4Z"/><path class="cls-19" d="M1324.76,702.56c-3.88-18.06-3.78-20.23-10.81-2.44-5.24-22.59-6-22.24-13.13.52,0,0-4.81-13.65-6-13.69-1.69-.06-15.7,30.83,3.7,31.51C1310.84,718.89,1329.14,722.91,1324.76,702.56Z"/></g></g></g></svg>