<svg xmlns="http://www.w3.org/2000/svg" viewBox="0 0 20 9.478">
  <defs>
    <style>
      .cls-1 {
        fill: #fff;
      }
    </style>
  </defs>
  <g id="line-chart-2" transform="translate(0 -134.68)">
    <g id="Group_5734" data-name="Group 5734" transform="translate(0 134.68)">
      <g id="Group_5733" data-name="Group 5733" transform="translate(0 0)">
        <path id="Path_12828" data-name="Path 12828" class="cls-1" d="M17.876,134.68a2.122,2.122,0,0,0-1.779,3.282L13.8,140.256a2.118,2.118,0,0,0-2.352.024l-2.318-2.318a2.124,2.124,0,1,0-3.557,0l-2.294,2.294a2.127,2.127,0,1,0,.621.621L6.2,138.582a2.116,2.116,0,0,0,2.316,0l2.331,2.331a2.124,2.124,0,1,0,3.581-.037l2.294-2.294a2.123,2.123,0,1,0,1.158-3.9Z" transform="translate(0 -134.68)"/>
      </g>
    </g>
  </g>
</svg>
