<svg xmlns="http://www.w3.org/2000/svg" viewBox="0 0 32 32">
  <defs>
    <style>
      .cls-1 {
        fill: #22283a;
      }

      .cls-2 {
        fill: #fff;
      }
    </style>
  </defs>
  <g id="Group_6202" data-name="Group 6202" transform="translate(-527 -656)">
    <circle id="Ellipse_1154" data-name="Ellipse 1154" class="cls-1" cx="16" cy="16" r="16" transform="translate(527 656)"/>
    <g id="link" transform="translate(535.961 665)">
      <g id="Group_6157" data-name="Group 6157" transform="translate(0.039 4.501)">
        <g id="Group_6156" data-name="Group 6156" transform="translate(0)">
          <path id="Path_13433" data-name="Path 13433" class="cls-2" d="M8.58,165.57a3.175,3.175,0,0,0-.548-.441,3.267,3.267,0,0,0-4.071.441L.993,168.54a3.266,3.266,0,0,0,4.617,4.622l2.45-2.45a.233.233,0,0,0-.166-.4H7.8a3.927,3.927,0,0,1-1.493-.289.233.233,0,0,0-.254.051l-1.761,1.764a1.4,1.4,0,1,1-1.981-1.981l2.979-2.977a1.4,1.4,0,0,1,1.978,0,.957.957,0,0,0,1.311,0,.924.924,0,0,0,0-1.311Z" transform="translate(-0.039 -164.614)"/>
        </g>
      </g>
      <g id="Group_6159" data-name="Group 6159" transform="translate(5.219 0)">
        <g id="Group_6158" data-name="Group 6158" transform="translate(0 0)">
          <path id="Path_13434" data-name="Path 13434" class="cls-2" d="M197.363.957a3.266,3.266,0,0,0-4.619,0L190.3,3.4a.234.234,0,0,0,.17.4h.086a3.919,3.919,0,0,1,1.491.292.233.233,0,0,0,.254-.051l1.757-1.754a1.4,1.4,0,1,1,1.981,1.981l-2.188,2.186-.019.021-.765.761a1.4,1.4,0,0,1-1.978,0,.956.956,0,0,0-1.311,0,.93.93,0,0,0,0,1.316,3.238,3.238,0,0,0,.933.653c.049.023.1.042.147.063s.1.037.149.056.1.035.149.049l.138.037c.093.023.187.042.282.058a3.248,3.248,0,0,0,.348.033h.177l.14-.016c.051,0,.1-.014.166-.014h.079l.161-.023.075-.014.135-.028h.026a3.266,3.266,0,0,0,1.514-.859l2.97-2.97A3.266,3.266,0,0,0,197.363.957Z" transform="translate(-189.502 0)"/>
        </g>
      </g>
    </g>
  </g>
</svg>
