<svg xmlns="http://www.w3.org/2000/svg" viewBox="0 0 481.13 93.18"><defs><style>.cls-1{fill:#22283a;}.cls-2{fill:#e04859;}.cls-3{fill:#ebcb4d;}.cls-4{fill:#3ea7f4;}</style></defs><title>logoAsset 2</title><g id="Layer_2" data-name="Layer 2"><g id="Layer_1-2" data-name="Layer 1"><path class="cls-1" d="M144,28.78v3.27c1.94-3.47,7-7.15,13.88-7.15,13.26,0,21.33,7.76,21.33,24.49S171.14,74,157.88,74A16.29,16.29,0,0,1,144,66.84V89.91a3.27,3.27,0,0,1-6.53,0V28.78a3.27,3.27,0,0,1,6.53,0Zm13.88,39.29c9.39,0,14.69-5.92,14.69-18.68s-5.51-18.57-14.9-18.57c-7.55,0-13.87,5.31-13.87,18.57S149.92,68.07,157.88,68.07Z"/><path class="cls-1" d="M201,33.27c2-4.69,7.14-8.16,14.18-8.16a3.16,3.16,0,1,1,0,6.32C205.83,31.43,201,38,201,47.35V70.21a3.27,3.27,0,1,1-6.53,0V28.78a3.27,3.27,0,0,1,6.53,0Z"/><path class="cls-1" d="M270.43,49.39c0,16.74-8.17,24.6-21.43,24.6s-21.43-7.86-21.43-24.6S235.83,24.9,249,24.9,270.43,32.66,270.43,49.39Zm-6.64,0c0-12.85-5.4-18.57-14.79-18.57s-14.8,5.72-14.8,18.57c0,13.07,5.41,18.68,14.8,18.68S263.79,62.46,263.79,49.39Z"/><path class="cls-1" d="M317.06,31.54V3.27a3.27,3.27,0,0,1,6.53,0V53.88c0,13.47-8.37,20.11-20,20.11-13.17,0-20.92-7.86-20.92-24.6S290,24.9,303.18,24.9A17.3,17.3,0,0,1,317.06,31.54Zm0,8.26s-3.88-9-13.47-9c-9.29,0-14.39,6-14.39,18.57,0,12.76,5,18.68,14.39,18.68,7.85,0,13.47-4.49,13.47-14.19Z"/><path class="cls-1" d="M359.91,24.9c16.33,0,19.49,13,19.49,19.9,0,3,0,6.53-4.08,6.53h-29.8c0,10.11,5.82,16.64,15.41,16.64a18.83,18.83,0,0,0,12.25-4.39A2.83,2.83,0,0,1,375,63a3,3,0,0,1,3,3,3.05,3.05,0,0,1-1.12,2.35C375.32,69.8,370,74,360.93,74c-13.57,0-22-7.45-22-24.6C338.89,33.68,346.64,24.9,359.91,24.9Zm0,5.92c-8.88,0-13.78,5.72-14.39,14.8H373C373,38.27,370.42,30.82,359.91,30.82Z"/><path class="cls-1" d="M400.11,28.78V55.42c0,6.63,2.15,12.34,12.45,12.34S425,62.05,425,55.42V28.78a3.3,3.3,0,0,1,3.37-3.26,3.2,3.2,0,0,1,3.16,3.26V55.42c0,9.69-3.16,18.57-19,18.57s-19-8.88-19-18.57V28.78a3.22,3.22,0,0,1,3.27-3.26A3.28,3.28,0,0,1,400.11,28.78Z"/><path class="cls-1" d="M454.29,37.35c0,10.72,26.84,6.74,26.84,23.06,0,9.29-7.65,13.48-17.35,13.48-8.36,0-14.79-4-17.45-7.35a3.07,3.07,0,0,1-.71-1.94,3,3,0,0,1,3-3,3.1,3.1,0,0,1,2.24,1c3.17,3.16,7.25,5,13,5s10.82-1.94,10.82-7.25c0-10.51-26.84-6.32-26.84-23.06,0-8.47,6.94-12.34,15.61-12.34,6.94,0,12.35,2.34,15.52,6.53a3.12,3.12,0,0,1,.71,1.94,3,3,0,0,1-3,3,2.91,2.91,0,0,1-2.14-.92c-2.76-2.66-5.82-4.29-11.13-4.29C458.78,31.23,454.29,32.66,454.29,37.35Z"/><path class="cls-2" d="M91.28,34.59,64.18,19a1,1,0,0,0-1,0L55,23.7a1,1,0,0,0,0,1.72l10.19,6,22,12.68a1,1,0,0,0,1,0l4.12-2.38a1,1,0,0,0,.5-1,48.35,48.35,0,0,0-1-5.47A1,1,0,0,0,91.28,34.59Z"/><path class="cls-2" d="M37.2,73.58,45.05,69a1,1,0,0,0,0-1.73L39.33,64,10.64,47.19a1,1,0,0,1-.5-.86l0-25.7a1,1,0,0,0-1.82-.58A46.32,46.32,0,0,0,0,46.42v.35A46.27,46.27,0,0,0,8.36,73.22a1,1,0,0,0,1.82-.59l0-12.4a1,1,0,0,1,1.5-.86L32.3,71.32l3.9,2.26A1,1,0,0,0,37.2,73.58Z"/><path class="cls-3" d="M46.58,0q-2,0-4.08.18a1,1,0,0,0-.4,1.87L53.66,8.7h0L50,10.82h0l-9.11,5.29-6.88,4h0l-5.87,3.4a1,1,0,0,0-.5.87v9.1a1,1,0,0,0,1.49.86l16.91-9.72,0,0,3.65-2.09,0,0L59,17.2l4.24-2.42a1,1,0,0,1,1,0L87.34,28.09a1,1,0,0,0,1.42-1.29A46.78,46.78,0,0,0,46.58,0Z"/><path class="cls-3" d="M62.51,64.86A1,1,0,0,0,61,64l-9,5.23-1.83,1.06L28.25,83a1,1,0,0,0-.5.86v4.71a1,1,0,0,0,.61.93,46.26,46.26,0,0,0,5.25,1.87,1,1,0,0,0,.79-.1L62,75.25a1,1,0,0,0,.5-.87Z"/><path class="cls-4" d="M23.6,70.48l-8.3-4.81a1,1,0,0,0-1.5.87l0,12.73a1,1,0,0,0,.31.73,46.77,46.77,0,0,0,8.46,6.52,1,1,0,0,0,1.5-.86V71.34A1,1,0,0,0,23.6,70.48Z"/><path class="cls-4" d="M87.53,64.72l-9.85,5.7a1,1,0,0,1-1.5-.87V67.09h0V55.21h0V51h0V42.5a1,1,0,0,0-.5-.86L67.59,37a1,1,0,0,0-1.49.87v3.4l0,15.57h0V76.52a1,1,0,0,1-.5.87L41.92,91.11a1,1,0,0,0,.4,1.87c1.42.13,2.84.2,4.26.2a46.53,46.53,0,0,0,24-6.64l.23-.14A46.4,46.4,0,0,0,89,66,1,1,0,0,0,87.53,64.72Z"/><path class="cls-3" d="M27.71,52.39a1,1,0,0,0,.49.86l5.08,3,13.51,7.89a1,1,0,0,0,1.5-.87l-.1-10.19a1,1,0,0,0-.52-.87l-7.56-4.1h0L29.17,42.16A1,1,0,0,0,27.7,43Z"/><path class="cls-4" d="M13.74,14l0,30.26a1,1,0,0,0,.49.87l8.18,4.78A1,1,0,0,0,24,49l.1-9.38v-6.6L24,21.72l0,0V12.49a1,1,0,0,0-.5-.87L19.61,9.37a1,1,0,0,0-1.11.06A45.34,45.34,0,0,0,14,13.27,1,1,0,0,0,13.74,14Z"/><path class="cls-4" d="M31.19,39.13l8.44,4.57a1,1,0,0,0,.95,0l7.48-4,3.62-1.95h0l1.8-1,5.48-3A1,1,0,0,0,59,32l-4.82-2.78L50.39,27a1,1,0,0,0-1,0l-3.31,1.8L37,34l-5.85,3.36A1,1,0,0,0,31.19,39.13Z"/><path class="cls-3" d="M93.17,46.59h0a.6.6,0,0,0-.9-.52l-12,6.76a1,1,0,0,0-.51.87v9.52a1,1,0,0,0,1.5.87l10.05-5.82a1,1,0,0,0,.47-.64A46.17,46.17,0,0,0,93.17,46.59Z"/><path class="cls-2" d="M51.89,59.23l0,4.1a1,1,0,0,0,1.5.86l8.57-5a1,1,0,0,0,.5-.86l0-20.67A1,1,0,0,0,61,36.82l-8.74,4.71a1,1,0,0,0-.53.89Z"/><path class="cls-2" d="M24,7.56l11.6,6.83a1,1,0,0,0,1,0l8.26-4.8a1,1,0,0,0,0-1.73l-10.37-6a1.06,1.06,0,0,0-.78-.1,45.8,45.8,0,0,0-9.71,4A1,1,0,0,0,24,7.56Z"/></g></g></svg>