<svg xmlns="http://www.w3.org/2000/svg" viewBox="2311 -226 30 30">
  <defs>
    <style>
      .cls-1 {
        fill: #e04859;
      }

      .cls-2 {
        fill: #ebcb4d;
      }

      .cls-3 {
        fill: #3ea7f4;
      }

      .cls-4 {
        fill: #e84457;
      }

      .cls-5 {
        fill: #3e99f4;
      }
    </style>
  </defs>
  <g id="Group_4598" data-name="Group 4598" transform="translate(2691 1592)">
    <g id="Group_41" data-name="Group 41" transform="translate(-380 -1818)">
      <path id="Path_5" data-name="Path 5" class="cls-1" d="M103.4,37l-9.011-5.2L91.1,33.689l3.759,2.21,7.254,4.175,1.662-.963A16.006,16.006,0,0,0,103.4,37Z" transform="translate(-73.89 -25.792)"/>
      <path id="Path_6" data-name="Path 6" class="cls-1" d="M11.807,48.117l3.174-1.832-2.324-1.36-9.389-5.5L3.249,30A14.938,14.938,0,0,0,0,39.276v.113a14.968,14.968,0,0,0,3.268,9.295V43.167l7.122,4.118Z" transform="translate(0 -24.332)"/>
      <path id="Path_7" data-name="Path 7" class="cls-2" d="M53.2,0a15.325,15.325,0,0,0-2.286.17L55.488,2.8h0l-1.171.68h0l-2.928,1.7L49.159,6.461h0L47.1,7.651v3.684l5.932-3.4h-.019l1.171-.68h0l2.985-1.719,1.53-.869,8.445,4.855A15.013,15.013,0,0,0,53.2,0Z" transform="translate(-38.202)"/>
      <path id="Path_8" data-name="Path 8" class="cls-2" d="M58.484,107.6,55.1,109.565l-.586.34L47.3,114.08v1.908a16.109,16.109,0,0,0,2.021.718L58.5,111.4Z" transform="translate(-38.364 -87.273)"/>
      <path id="Path_9" data-name="Path 9" class="cls-3" d="M26.906,112.327,23.6,110.4v4.8a14.541,14.541,0,0,0,3.306,2.475l-.019-1.984.019-.019Z" transform="translate(-19.142 -89.544)"/>
      <path id="Path_10" data-name="Path 10" class="cls-3" d="M83.341,70.409,78.864,73V71.656h0V67.84h0V66.5h0V63.57L75.615,61.7v6.669h0v6.518L67,79.855a16.1,16.1,0,0,0,2.343.189,15.063,15.063,0,0,0,7.727-2.135l.076-.038A14.986,14.986,0,0,0,83.341,70.409Z" transform="translate(-54.343 -50.044)"/>
      <path id="Path_11" data-name="Path 11" class="cls-2" d="M47.2,74.241l1.795,1.039,4.836,2.834-.038-4.043-2.607-1.417h0L47.2,70.5Z" transform="translate(-38.283 -57.181)"/>
      <path id="Path_12" data-name="Path 12" class="cls-3" d="M23.4,16.855l.019,10.069,3.268,1.908.038-3.571V23.127l-.019-3.646h.019V16.326L25.119,15.4A12.724,12.724,0,0,0,23.4,16.855Z" transform="translate(-18.979 -12.491)"/>
      <path id="Path_13" data-name="Path 13" class="cls-3" d="M50.5,49.3l3.382,1.832,2.55-1.379,1.171-.623h0l.567-.321,2.286-1.228-.132-.076-1.927-1.1L57.018,45.6l-1.228.661L52.88,47.943Z" transform="translate(-40.96 -36.985)"/>
      <path id="Path_14" data-name="Path 14" class="cls-2" d="M140.307,78.021V77.7l-1.7,1-.057-.038L136,80.118v3.816l3.835-2.229A14.281,14.281,0,0,0,140.307,78.021Z" transform="translate(-110.307 -63.021)"/>
      <path id="Path_15" data-name="Path 15" class="cls-1" d="M88.157,68.862l.019,1.889,3.4-1.984L91.557,61.4,88.1,63.27Z" transform="translate(-71.456 -49.801)"/>
      <path id="Path_16" data-name="Path 16" class="cls-1" d="M38.4,4.506l1.644.907v.094l2.739,1.568L46.07,5.167,42.141,2.9A14.256,14.256,0,0,0,38.4,4.506Z" transform="translate(-31.146 -2.352)"/>
    </g>
    <path id="Path_17" data-name="Path 17" class="cls-4" d="M103.4,37l-9.011-5.2L91.1,33.689l3.759,2.21,7.254,4.175,1.662-.963A16.006,16.006,0,0,0,103.4,37Z" transform="translate(-453.889 -1843.792)"/>
    <path id="Path_18" data-name="Path 18" class="cls-4" d="M11.807,48.117l3.174-1.832-2.324-1.36-9.389-5.5L3.249,30A14.938,14.938,0,0,0,0,39.276v.113a14.968,14.968,0,0,0,3.268,9.295V43.168l7.122,4.118Z" transform="translate(-380 -1842.333)"/>
    <path id="Path_19" data-name="Path 19" class="cls-2" d="M53.2,0a15.325,15.325,0,0,0-2.286.17L55.488,2.8h0l-1.171.68h0l-2.928,1.7L49.159,6.461h0L47.1,7.651v3.684l5.932-3.4h-.019l1.171-.68h0l2.985-1.719,1.53-.869,8.445,4.855A15.013,15.013,0,0,0,53.2,0Z" transform="translate(-418.202 -1818)"/>
    <path id="Path_20" data-name="Path 20" class="cls-2" d="M58.484,107.6,55.1,109.565l-.586.34L47.3,114.08v1.908a16.109,16.109,0,0,0,2.021.718L58.5,111.4Z" transform="translate(-418.364 -1905.273)"/>
    <path id="Path_21" data-name="Path 21" class="cls-5" d="M26.906,112.327,23.6,110.4v4.8a14.541,14.541,0,0,0,3.306,2.475l-.019-1.984.019-.019Z" transform="translate(-399.142 -1907.544)"/>
    <path id="Path_22" data-name="Path 22" class="cls-5" d="M83.341,70.409,78.864,73V71.656h0V67.84h0V66.5h0V63.57L75.615,61.7v6.669h0v6.518L67,79.855a16.1,16.1,0,0,0,2.343.189,15.063,15.063,0,0,0,7.727-2.135l.076-.038A14.987,14.987,0,0,0,83.341,70.409Z" transform="translate(-434.342 -1868.044)"/>
    <path id="Path_23" data-name="Path 23" class="cls-2" d="M47.2,74.241l1.795,1.039,4.836,2.834-.038-4.043-2.607-1.417h0L47.2,70.5Z" transform="translate(-418.283 -1875.181)"/>
    <path id="Path_24" data-name="Path 24" class="cls-5" d="M23.4,16.855l.019,10.069,3.268,1.908.038-3.571V23.127l-.019-3.646h.019V16.326L25.119,15.4A12.724,12.724,0,0,0,23.4,16.855Z" transform="translate(-398.98 -1830.491)"/>
    <path id="Path_25" data-name="Path 25" class="cls-5" d="M50.5,49.3l3.382,1.832,2.55-1.379,1.171-.623h0l.567-.321,2.286-1.228-.132-.076-1.927-1.1L57.018,45.6l-1.228.661L52.88,47.943Z" transform="translate(-420.96 -1854.985)"/>
    <path id="Path_26" data-name="Path 26" class="cls-2" d="M140.307,78.021V77.7l-1.7,1-.057-.038L136,80.118v3.816l3.835-2.229A14.281,14.281,0,0,0,140.307,78.021Z" transform="translate(-490.307 -1881.021)"/>
    <path id="Path_27" data-name="Path 27" class="cls-4" d="M88.157,68.862l.019,1.889,3.4-1.984L91.557,61.4,88.1,63.27Z" transform="translate(-451.457 -1867.801)"/>
    <path id="Path_28" data-name="Path 28" class="cls-4" d="M38.4,4.506l1.644.907v.094l2.739,1.568L46.07,5.167,42.141,2.9A14.256,14.256,0,0,0,38.4,4.506Z" transform="translate(-411.146 -1820.352)"/>
  </g>
</svg>
