<svg xmlns="http://www.w3.org/2000/svg" viewBox="0 0 41.998 42">
  <defs>
    <style>
      .cls-1 {
        fill: #bcbcbc;
      }
    </style>
  </defs>
  <g id="logout" transform="translate(-0.014)">
    <g id="Group_6305" data-name="Group 6305" transform="translate(0.014)">
      <g id="Group_6304" data-name="Group 6304" transform="translate(0)">
        <path id="Path_13447" data-name="Path 13447" class="cls-1" d="M316.045,155.67a1.77,1.77,0,0,0-.38-.571l-5.248-5.248a1.75,1.75,0,0,0-2.474,2.474l2.263,2.263H300.43a1.75,1.75,0,0,0,0,3.5h9.775l-2.263,2.263a1.75,1.75,0,1,0,2.475,2.474l5.248-5.248a1.734,1.734,0,0,0,.38-.571A1.752,1.752,0,0,0,316.045,155.67Z" transform="translate(-274.18 -137.089)"/>
        <path id="Path_13448" data-name="Path 13448" class="cls-1" d="M29.764,24.5a1.749,1.749,0,0,0-1.75,1.75V35h-7V7a1.752,1.752,0,0,0-1.248-1.676L13.688,3.5H28.014v8.75a1.75,1.75,0,0,0,3.5,0V1.75A1.75,1.75,0,0,0,29.764,0h-28a1.56,1.56,0,0,0-.18.033A1.728,1.728,0,0,0,.842.292C.8.317.756.318.719.346.705.357.7.376.686.387A1.734,1.734,0,0,0,.22.94a1.429,1.429,0,0,0-.049.147A1.66,1.66,0,0,0,.033,1.5a1.089,1.089,0,0,0,.005.152c0,.035-.025.067-.025.1v35a1.749,1.749,0,0,0,1.407,1.715l17.5,3.5a1.629,1.629,0,0,0,.343.035,1.751,1.751,0,0,0,1.75-1.75V38.5h8.75a1.749,1.749,0,0,0,1.75-1.75V26.25A1.749,1.749,0,0,0,29.764,24.5Z" transform="translate(-0.014)"/>
      </g>
    </g>
  </g>
</svg>
