<svg xmlns="http://www.w3.org/2000/svg" viewBox="0 0 270.748 307.178">
  <defs>
    <style>
      .cls-1 {
        fill: #63bea6;
      }
    </style>
  </defs>
  <path id="Path_30784" data-name="Path 30784" class="cls-1" d="M309.88,751.382c0-17.137-8.316-32.258-20.749-40.658a21.917,21.917,0,0,1-8.821-22.177,37.006,37.006,0,0,0,.756-7.476c0-17.053-11-31.418-25.706-34.946a8.51,8.51,0,0,1-6.132-9.241,28.318,28.318,0,0,0,.084-5.292c-1.176-9.913-6.3-15.289-13.693-19.741A10.806,10.806,0,0,1,231,600.257a38.6,38.6,0,0,0,.924-7.056c.42-18.229-8.569-25.79-14.869-29.15a13.185,13.185,0,0,1-6.216-8.316c-2.436-9.745-10.921-16.8-20.749-16.045-9.661.672-17.557,8.989-18.649,19.405v.252a6.37,6.37,0,0,1-6.468,6.048,21.353,21.353,0,0,0-3.276.084c-12.265,1.092-22.093,11.929-22.933,25.286a25.543,25.543,0,0,0,.252,6.217,11.862,11.862,0,0,1-4.872,11.677A39.381,39.381,0,0,0,119.1,628.987a10.324,10.324,0,0,1-6.72,6.72c-13.777,4.2-23.857,17.893-23.857,34.274a38.746,38.746,0,0,0,2.1,12.517,12.171,12.171,0,0,1-6.048,15.121c-14.617,6.636-24.95,22.345-24.95,40.659a46.6,46.6,0,0,0,4.7,20.581c4.536,9.325,2.856,20.749-4.368,27.806A56.552,56.552,0,0,0,43.5,826.987v19.825H314.249V826.987c0-8.064-4.62-15.625-10.165-22.513a23.42,23.42,0,0,1-1.344-26.546A52.635,52.635,0,0,0,309.88,751.382Z" transform="translate(-43.5 -539.634)"/>
</svg>
