<svg xmlns="http://www.w3.org/2000/svg" xmlns:xlink="http://www.w3.org/1999/xlink" viewBox="0 0 1785 1080"><defs><style>.cls-1{fill:none;}.cls-2{isolation:isolate;}.cls-3{clip-path:url(#clip-path);}.cls-4{fill:#89cebc;}.cls-5{fill:#f4ffd4;}.cls-11,.cls-12,.cls-14,.cls-17,.cls-22,.cls-24,.cls-29,.cls-35,.cls-40,.cls-41,.cls-42,.cls-43,.cls-44,.cls-45,.cls-46,.cls-47,.cls-48,.cls-49,.cls-5,.cls-50,.cls-51,.cls-52,.cls-53,.cls-54,.cls-8,.cls-9{mix-blend-mode:multiply;}.cls-6{fill:#41b093;}.cls-7{fill:#5cbba2;}.cls-8{fill:url(#New_Gradient_Swatch_copy_5);}.cls-9{fill:url(#New_Gradient_Swatch_copy_5-2);}.cls-10{fill:#5abaa1;}.cls-11{fill:url(#New_Gradient_Swatch_copy_5-3);}.cls-12{fill:url(#New_Gradient_Swatch_copy_5-4);}.cls-13{fill:#5fbda4;}.cls-14{fill:url(#New_Gradient_Swatch_copy_5-5);}.cls-15{fill:#184657;}.cls-16{fill:#efbf7f;}.cls-17,.cls-22,.cls-24{fill:#cbc7ff;}.cls-18{fill:#dba25e;}.cls-19{fill:#b57c3c;}.cls-20{fill:#fff;}.cls-21{fill:#1b4e61;}.cls-22{opacity:0.74;}.cls-23{fill:#faf8dc;}.cls-24{opacity:0.7;}.cls-25{fill:#eaa9c0;}.cls-26{fill:#f29d7e;}.cls-27{fill:#fcc14a;}.cls-28{fill:#fcca63;}.cls-29,.cls-35{opacity:0.72;}.cls-29{fill:url(#New_Gradient_Swatch_2);}.cls-30{fill:#ed6d53;}.cls-31{fill:#bd422a;}.cls-32{fill:#0d232b;}.cls-33{fill:#035e80;}.cls-34{fill:#e85f5b;}.cls-35{fill:url(#New_Gradient_Swatch_2-2);}.cls-36{fill:#0a242b;}.cls-37{fill:#996d4b;}.cls-38{fill:#7f583b;}.cls-39{fill:#6d4021;}.cls-40{fill:url(#New_Gradient_Swatch_copy_5-6);}.cls-41{fill:url(#New_Gradient_Swatch_copy_5-7);}.cls-42{fill:url(#New_Gradient_Swatch_copy_5-8);}.cls-43{fill:url(#New_Gradient_Swatch_copy_5-9);}.cls-44{fill:url(#New_Gradient_Swatch_copy_5-10);}.cls-45{fill:url(#New_Gradient_Swatch_copy_5-11);}.cls-46{fill:url(#New_Gradient_Swatch_copy_5-12);}.cls-47{fill:url(#New_Gradient_Swatch_copy_5-13);}.cls-48{fill:url(#New_Gradient_Swatch_copy_5-14);}.cls-49{fill:url(#New_Gradient_Swatch_copy_5-15);}.cls-50{fill:url(#New_Gradient_Swatch_copy_5-16);}.cls-51{fill:url(#New_Gradient_Swatch_copy_5-17);}.cls-52{fill:url(#New_Gradient_Swatch_copy_5-18);}.cls-53{fill:url(#New_Gradient_Swatch_copy_5-19);}.cls-54{fill:url(#New_Gradient_Swatch_copy_5-20);}.cls-55{fill:#bce1e9;}.cls-56{fill:#f8e7a1;}.cls-57{fill:#ece8d8;}.cls-58{fill:#e2a63b;}.cls-59{fill:#c9b693;}.cls-60{fill:#eb716d;}</style><clipPath id="clip-path"><rect class="cls-1" x="-0.05" y="-7" width="1784.61" height="1086.53"/></clipPath><linearGradient id="New_Gradient_Swatch_copy_5" x1="1056.17" y1="670.53" x2="1080.57" y2="206.98" gradientUnits="userSpaceOnUse"><stop offset="0" stop-color="#bcc1e8"/><stop offset="1" stop-color="#bcc1e8" stop-opacity="0"/></linearGradient><linearGradient id="New_Gradient_Swatch_copy_5-2" x1="1217.99" y1="683.74" x2="1234.28" y2="374.07" xlink:href="#New_Gradient_Swatch_copy_5"/><linearGradient id="New_Gradient_Swatch_copy_5-3" x1="678.84" y1="897.35" x2="697.54" y2="542.14" xlink:href="#New_Gradient_Swatch_copy_5"/><linearGradient id="New_Gradient_Swatch_copy_5-4" x1="-3745.58" y1="631.65" x2="-4047.49" y2="684.31" gradientTransform="matrix(-1.32, -0.17, -0.13, 1.03, -4852.34, -522.73)" xlink:href="#New_Gradient_Swatch_copy_5"/><linearGradient id="New_Gradient_Swatch_copy_5-5" x1="-4954.15" y1="1085.53" x2="-5202.33" y2="1128.82" gradientTransform="matrix(-1, 0.06, 0.06, 1, -4948.56, 138.75)" xlink:href="#New_Gradient_Swatch_copy_5"/><linearGradient id="New_Gradient_Swatch_2" x1="565.55" y1="480.82" x2="551.06" y2="643.78" gradientUnits="userSpaceOnUse"><stop offset="0" stop-color="#f0c3a8"/><stop offset="1" stop-color="#fff"/></linearGradient><linearGradient id="New_Gradient_Swatch_2-2" x1="1122.62" y1="507.57" x2="1108.75" y2="663.56" xlink:href="#New_Gradient_Swatch_2"/><linearGradient id="New_Gradient_Swatch_copy_5-6" x1="580.9" y1="965.85" x2="472.82" y2="984.7" xlink:href="#New_Gradient_Swatch_copy_5"/><linearGradient id="New_Gradient_Swatch_copy_5-7" x1="806.19" y1="949.04" x2="661.36" y2="974.3" xlink:href="#New_Gradient_Swatch_copy_5"/><linearGradient id="New_Gradient_Swatch_copy_5-8" x1="930.23" y1="981.5" x2="750.42" y2="1012.86" xlink:href="#New_Gradient_Swatch_copy_5"/><linearGradient id="New_Gradient_Swatch_copy_5-9" x1="944.81" y1="1049.33" x2="837.28" y2="1068.09" xlink:href="#New_Gradient_Swatch_copy_5"/><linearGradient id="New_Gradient_Swatch_copy_5-10" x1="1222.67" y1="1085.04" x2="1231.94" y2="909.04" xlink:href="#New_Gradient_Swatch_copy_5"/><linearGradient id="New_Gradient_Swatch_copy_5-11" x1="1177.69" y1="1088.44" x2="1184.49" y2="959.31" xlink:href="#New_Gradient_Swatch_copy_5"/><linearGradient id="New_Gradient_Swatch_copy_5-12" x1="1038.62" y1="1078.57" x2="1048.95" y2="882.14" xlink:href="#New_Gradient_Swatch_copy_5"/><linearGradient id="New_Gradient_Swatch_copy_5-13" x1="1107.19" y1="1084.17" x2="1114.09" y2="952.95" xlink:href="#New_Gradient_Swatch_copy_5"/><linearGradient id="New_Gradient_Swatch_copy_5-14" x1="-13644.66" y1="330.73" x2="-13701.96" y2="277.58" gradientTransform="matrix(-1, -0.08, -0.08, 1, -12113.74, -474.65)" xlink:href="#New_Gradient_Swatch_copy_5"/><linearGradient id="New_Gradient_Swatch_copy_5-15" x1="-13654.77" y1="285.19" x2="-13620.44" y2="179.23" gradientTransform="matrix(-1, -0.08, -0.08, 1, -12113.74, -474.65)" xlink:href="#New_Gradient_Swatch_copy_5"/><linearGradient id="New_Gradient_Swatch_copy_5-16" x1="-14120.33" y1="1004.26" x2="-14098.34" y2="963.25" gradientTransform="matrix(-1, 0, 0, 1, -12459.03, 0)" xlink:href="#New_Gradient_Swatch_copy_5"/><linearGradient id="New_Gradient_Swatch_copy_5-17" x1="1673.25" y1="1023.95" x2="1719.14" y2="938.37" xlink:href="#New_Gradient_Swatch_copy_5"/><linearGradient id="New_Gradient_Swatch_copy_5-18" x1="-13537.97" y1="992.65" x2="-13586.66" y2="947.5" gradientTransform="matrix(-1, 0, 0, 1, -12136.31, 0)" xlink:href="#New_Gradient_Swatch_copy_5"/><linearGradient id="New_Gradient_Swatch_copy_5-19" x1="-13533.83" y1="955.46" x2="-13542.35" y2="872.6" gradientTransform="matrix(-1, 0, 0, 1, -12136.31, 0)" xlink:href="#New_Gradient_Swatch_copy_5"/><linearGradient id="New_Gradient_Swatch_copy_5-20" x1="41.23" y1="4506.17" x2="83.91" y2="4490.6" gradientTransform="matrix(0.89, -0.46, 0.46, 0.89, -768.89, -2939.02)" xlink:href="#New_Gradient_Swatch_copy_5"/></defs><title>peer degreesArtboard 1</title><g class="cls-2"><g id="Layer_1" data-name="Layer 1"><g class="cls-3"><path class="cls-4" d="M313,844.13a80.47,80.47,0,0,1,24.91,72.8,164.84,164.84,0,0,0,.65,57.85c17.65,93.24,117.67,156.89,219.27,139.52,54.45-9.31,99.89-38.69,128.85-78.23a48.44,48.44,0,0,1,40.94-19.39,95.32,95.32,0,0,0,21.44-1.46c47.89-8.7,80.23-51.5,72.21-95.6v-.07c-.65-3.55,2-6.94,5.88-7.6l.78-.13c34-6.18,57-36.57,51.27-67.88,0-.1,0-.2-.05-.29-2-10.62,2.93-21.4,12.68-27.65,52.13-33.4,81.94-92.55,70.95-153-6.2-34.13-24.42-63.3-50-84.56-26.22-21.78-33.6-57.48-17.84-87.6,17.92-34.22,25-73.47,17.78-113.19-11.37-62.55-55.53-111.56-113.56-135.07C765.49,228.92,747.46,195,755,161.08a119.62,119.62,0,0,0,.91-47.66C743.61,46.27,671.53-.55,598.31,11.13c-78,12.43-131.08,81.44-118.15,152.56,0,.3.11.59.16.89,1.55,8.16-4.34,16.14-13.22,17.74l-.18,0c-60.35,11-101.09,64.89-91,120.45a99.72,99.72,0,0,0,9,25.76c8.61,17.47,1.78,38.26-15.56,49.67-29.92,19.68-46.93,54-40.57,89A82.55,82.55,0,0,0,332.51,481c6.81,18.48,2,39.06-12.12,54.2-26.92,28.93-40.38,68.07-33.14,107.88a119.27,119.27,0,0,0,15.3,40.45c8.76,14.53,7.78,32.47-2,47-12.78,19-18.48,42-14.23,65.34A87,87,0,0,0,313,844.13Z"/><path class="cls-5" d="M402,842.17c17.29,18,23.69,42.28,17.76,65.81a141.52,141.52,0,0,0-3.35,51.15c9.75,83.43,96.65,145.62,190.5,136.33,50.3-5,93.75-28.23,122.85-61.44a45.36,45.36,0,0,1,38.67-14.69,90.27,90.27,0,0,0,19.65,0c44.28-4.84,76.68-40.73,72.38-80.16v-.06c-.35-3.18,2.31-6,5.88-6.37l.72-.07c31.44-3.44,54.44-28.92,51.39-56.91l0-.27c-1.1-9.5,4.12-18.73,13.45-23.67,49.82-26.4,81-76.89,75.13-131-3.34-30.52-18-57.37-39.85-77.68-22.43-20.81-26.74-52.79-10.31-78.46,18.67-29.17,27.8-63.42,23.92-98.94-6.11-55.94-43-101.88-94.39-126.1-29.79-14.06-43.92-45.15-34.74-74.63a102.89,102.89,0,0,0,4.07-42C849,162.92,786.49,117.27,718.9,123.22c-72,6.34-125.1,64.14-118.15,127.75l.09.79c.86,7.31-5.06,14-13.27,14.89l-.17,0c-55.79,6.1-96.62,51.32-91.19,101A85.44,85.44,0,0,0,502.63,391c6.67,16-1,33.91-17.57,43-28.63,15.61-46.49,44.89-43.06,76.23a69.82,69.82,0,0,0,2.48,12.35c4.95,16.73-.87,34.62-14.75,47.16-26.52,24-41.46,57.74-37.57,93.34a102.71,102.71,0,0,0,11.2,36.65c7,13.35,4.89,29.15-5,41.37-12.95,16-19.71,36-17.43,56.87A75.39,75.39,0,0,0,402,842.17Z"/><path class="cls-6" d="M85.11,1089.13A160.35,160.35,0,0,1,213.26,805,164.12,164.12,0,1,1,529.5,892.91a127.9,127.9,0,0,1,139,196.22Z"/><path class="cls-7" d="M1600.82,766.12c0-58.33-28.2-109.48-70.57-138.21-23.38-15.85-35.7-45.9-30-75.23a132.47,132.47,0,0,0,2.45-25.41c0-58.06-37.39-106.62-87.4-118.72-13.25-3.2-22.14-16.61-20.88-31.32a92.53,92.53,0,0,0,.15-17.94c-4-33.63-21.43-52-46.54-67-12.91-7.71-19.25-23.92-15.58-39.45a116.28,116.28,0,0,0,3-24c1.52-62-29.17-87.51-50.48-99-10.41-5.61-18-16-21-28.16-8.27-33.13-37.06-57.07-70.6-54.65-32.81,2.37-59.75,30.46-63.27,66,0,.27-.06.55-.08.83-1.09,12.2-10.71,21.15-22,20.56a79.2,79.2,0,0,0-11.19.21c-41.63,3.72-75,40.47-77.91,85.81a102.1,102.1,0,0,0,.82,21.07c2.27,15.69-4.1,31.32-16.44,39.8-23.41,16.08-41.59,40.36-51.13,69.13a35,35,0,0,1-22.73,22.76c-46.81,14.16-81.16,60.87-81.16,116.33a129.66,129.66,0,0,0,7,42.41c7.05,20.41-2,42.94-20.51,51.33-49.69,22.53-84.62,75.87-84.62,138.11a159.44,159.44,0,0,0,15.85,69.78c15.33,31.54,9.61,70.48-14.72,94.4-34.36,33.78-56,82.66-56,137V1090h919.66v-67.3c0-27.26-15.82-53.13-34.52-76.42-20.33-25.3-21.74-62.25-4.65-90.24A172.34,172.34,0,0,0,1600.82,766.12Z"/><path class="cls-6" d="M1740,795.14c0-52.16-25.21-97.9-63.1-123.59-20.91-14.18-31.92-41-26.79-67.27a117.8,117.8,0,0,0,2.19-22.72c0-51.92-33.43-95.35-78.15-106.16-11.85-2.87-19.8-14.86-18.67-28a82.4,82.4,0,0,0,.13-16c-3.59-30.07-19.16-46.48-41.61-59.88-11.55-6.89-17.22-21.39-13.93-35.27a103.93,103.93,0,0,0,2.7-21.42c1.36-55.42-26.08-78.26-45.13-88.53-9.31-5-16.1-14.27-18.82-25.18-7.4-29.63-33.15-51-63.14-48.87-29.34,2.12-53.42,27.23-56.58,59.05,0,.25,0,.5-.07.74-1,10.91-9.57,18.91-19.63,18.39a70,70,0,0,0-10,.19c-37.22,3.32-67.07,36.18-69.66,76.73a90.48,90.48,0,0,0,.73,18.84c2,14-3.67,28-14.7,35.59-20.93,14.38-37.19,36.08-45.72,61.81a31.35,31.35,0,0,1-20.33,20.36c-41.85,12.66-72.58,54.43-72.58,104a116.21,116.21,0,0,0,6.31,37.93c6.3,18.25-1.8,38.4-18.34,45.89-44.43,20.15-75.67,67.85-75.67,123.51a142.52,142.52,0,0,0,14.18,62.39c13.7,28.2,8.59,63-13.16,84.41-30.73,30.22-50,73.92-50,122.55v60.18h822.35v-60.18c0-24.38-14.14-47.51-30.87-68.33-18.17-22.63-19.44-55.67-4.15-80.7A154,154,0,0,0,1740,795.14Z"/><path class="cls-6" d="M1244,618.81c-13.44-21.33-43.7-44.43-35.29-81.76s14.83-74.21,0-97.75-34.14-60.43-34.14-104.86-4.48-78.2-15.68-96-22.58-77.41-32.18-92.64S1103.85,57.08,1095,43c-1-1.6-2-2-3-1.4,2.72,32.13,7.15,82.37,10.91,114.7,5.88,50.66-8,75.1-8,107.09s30.36,72.87,30.36,112S1095,450,1095,493.65s25.88,61.18,37.07,102.06c8.68,31.66-2.14,74-14.74,113.74h115S1257.45,640.14,1244,618.81Z"/><path class="cls-6" d="M1132,595.71c-11.19-40.88-37.07-58.37-37.07-102.06s30.36-79.15,30.36-118.29-30.36-80-30.36-112,13.84-56.43,8-107.09c-3.76-32.33-8.19-82.57-10.91-114.7-7.43,4.49-12.88,69.42-12.88,104.27,0,39.32-35.57,67.75-35.57,106.85s12.32,107.77-4.48,155.2-52,54.53-52,125.62,33,117.3,18.41,176h111.8C1129.88,669.68,1140.7,627.37,1132,595.71Z"/><path class="cls-8" d="M1132,595.71c-11.19-40.88-37.07-58.37-37.07-102.06s30.36-79.15,30.36-118.29-30.36-80-30.36-112,13.84-56.43,8-107.09c-3.76-32.33-8.19-82.57-10.91-114.7-7.43,4.49-12.88,69.42-12.88,104.27,0,39.32-35.57,67.75-35.57,106.85s12.32,107.77-4.48,155.2-52,54.53-52,125.62,33,117.3,18.41,176h111.8C1129.88,669.68,1140.7,627.37,1132,595.71Z"/><path class="cls-6" d="M1240.1,463.26c-2.52-37.08,26-54,32.76-89,5.29-27.55-4-74.8-11.9-109.69-10.5,3.6-.69,89.13.42,110.05,1.12,21.19-30.24,38.14-39.2,76.29s16.8,63.58-1.12,104.55-45.91,83.36-42.55,154h44.32c3-48,25.86-78.59,37.43-124.33C1272.86,535.32,1242.62,500.35,1240.1,463.26Z"/><path class="cls-9" d="M1240.1,463.26c-2.52-37.08,26-54,32.76-89,5.29-27.55-4-74.8-11.9-109.69-10.5,3.6-.69,89.13.42,110.05,1.12,21.19-30.24,38.14-39.2,76.29s16.8,63.58-1.12,104.55-45.91,83.36-42.55,154h44.32c3-48,25.86-78.59,37.43-124.33C1272.86,535.32,1242.62,500.35,1240.1,463.26Z"/><path class="cls-10" d="M1272.58,479.16c-14.56-48,11.2-63.58,13.44-104.55S1272.58,263,1261.38,264.4a3,3,0,0,0-.42.16c7.89,34.89,17.19,82.14,11.9,109.69-6.72,35-35.28,51.93-32.76,89s32.76,72.06,20.16,121.86c-11.57,45.74-34.42,76.29-37.43,124.33h65.43a373.49,373.49,0,0,1,1.12-81.94C1295,582.3,1287.14,527.2,1272.58,479.16Z"/><path class="cls-6" d="M641.14,927.24c14.19-281.78,41.87-513,61.83-512s24.64,230.25,10.45,512Z"/><path class="cls-11" d="M641.14,927.24c14.19-281.78,41.87-513,61.83-512s24.64,230.25,10.45,512Z"/><path class="cls-6" d="M583.48,927.24c-4.57-248.19,7.91-449.69,27.9-450.06s39.89,201.87,44.46,450.06Z"/><path class="cls-6" d="M700.08,927.24c12.49-247.92,38.79-451.72,58.75-450.72s26,202.8,13.53,450.72Z"/><path class="cls-6" d="M142.68,582.6c-56.72,6.21-22.9,91.32,76.78,183.61S366.35,1027.53,355.85,1084c6.47,9.91,28.62,10.82,37.12,4.83,0,0,5.16-233-83.15-376.27S165,580.15,142.68,582.6Z"/><path class="cls-12" d="M142.68,582.6l.68-.08C195.51,641.1,294.81,762.85,332,868.73c34.49,98.29,42.54,173,40.24,217.43L355.85,1084c10.5-56.51-36.71-225.55-136.39-317.83S86,588.81,142.68,582.6Z"/><path class="cls-13" d="M103.43,768.78c-39.39,32.75,33.36,111.8,93.32,165s86.68,164,86.68,164c10.65,9,33.75,9.19,39.35-2.47,0,0-8.7-138.36-78.61-245.09S119.7,755.25,103.43,768.78Z"/><path class="cls-14" d="M240.56,918.51C206.81,861,156.67,809.62,104.11,768.24c17-13.28,71.08-23.32,140.06,82,69.91,106.73,78.61,245.09,78.61,245.09L303,1096.55C291.15,1050.8,266.16,962.11,240.56,918.51Z"/><path class="cls-15" d="M1329.35,952.76c27.71,5,88,9.22,127.32,4.48s112.65-14.69,112.65-14.69l17.91,120.34-290.77,26.39Z"/><path class="cls-16" d="M1534.22,1014.87c-9,21-9.61,24.54-9.61,24.54l52.17,25.15,8.55-38.56Z"/><path class="cls-16" d="M1441.22,621.79c-5.26,7.16-11.41,14.42-19.18,19-11.84.94-23.53,2.38-34.63,3-10.57-3.15-19.59-9.19-28.63-17.14-16.26-14.3-26.53-27-39-45.38,38.35-17.1,44.34-15.31,47.06-32,3-18.43-9.26-114.18-9.26-114.18l78.92-5.12s10.5,94.62,14.2,110.25c2.23,9.44,13.51,15.23,29.47,21.19C1469.25,582.79,1455.35,602.53,1441.22,621.79Z"/><path class="cls-16" d="M1365.79,553.83a28,28,0,0,0,1.06-4.48c3-18.43-9.26-114.18-9.26-114.18l78.92-5.12s10.5,94.62,14.2,110.25a15.91,15.91,0,0,0,3.63,6.84Z"/><path class="cls-17" d="M1373.88,498.4a56.27,56.27,0,0,1-9.53,0c-3.18-32.71-6.76-63.27-6.76-63.27l56.45-3.91C1414.61,466.93,1400.52,496.38,1373.88,498.4Z"/><circle class="cls-18" cx="1423.49" cy="412.61" r="27.15"/><circle class="cls-19" cx="1423.49" cy="412.61" r="14.31"/><path class="cls-16" d="M1322.78,427.84c5.89,37.8,24.74,66.68,61,60.62,27.79-4.32,45.54-38.47,39.66-76.28s-20.14-67-61-60.62C1317.49,358.55,1316.9,390,1322.78,427.84Z"/><circle cx="1383.91" cy="402.7" r="3.83"/><circle class="cls-19" cx="1389.72" cy="427.77" r="11.89"/><path class="cls-20" d="M1340.65,442.23c.79,5.06,8.49,8.06,17.2,6.71s15.14-6.56,14.35-11.62-7.38-.17-16.09,1.19S1339.86,437.17,1340.65,442.23Z"/><path class="cls-21" d="M1419.76,391.15l3.64,21-7.36,1.57c-.31-5.27-3.7-17.79-4.88-21.89Z"/><path class="cls-22" d="M1419.76,391.15l3.64,21-7.36,1.57c-.31-5.27-3.7-17.79-4.88-21.89Z"/><path class="cls-21" d="M1326.4,372.37c-10.38-6.37-19.49-43.85,13.16-55.84,25.12-9.23,51.77-4.45,66.9,5.79s27.49,16.79,44,5.83,36.81-7.08,49.24,6.85,5.92,35-8.62,40.54-24.61-8.25-37.86,2.86c-19.8,16.6-30.87,18.74-41.89,15.81-14.68-3.91-23-12-31.15-31.9C1380.16,362.31,1343.54,373.93,1326.4,372.37Z"/><path class="cls-17" d="M1408.72,347.73c10.58,5.54,23.19,13.29,36.63,7.4s29.54-2.91,37.42,4.31c3.9,3.57,7.4,9.9,9.94,15.38-.54.26-1.09.51-1.65.72-14.54,5.53-24.61-8.25-37.86,2.86-19.8,16.6-30.87,18.74-41.89,15.81-14.68-3.91-23-12-31.15-31.9C1379.37,346.39,1398.15,342.2,1408.72,347.73Z"/><path class="cls-21" d="M1395.87,387.1a42.63,42.63,0,0,0-4-1.37,37.55,37.55,0,0,0-4.24-.73,30.37,30.37,0,0,0-8.71.34,31.67,31.67,0,0,0-4.25,1.22l-1,.39-1,.48-1,.48c-.33.17-.64.38-1,.57a18.26,18.26,0,0,0-6.42,6.1,1.15,1.15,0,0,0,1.64,1.54l.15-.1a36.17,36.17,0,0,1,6.65-3.61,40.78,40.78,0,0,1,7.19-2.16c1.24-.22,2.48-.46,3.75-.56s2.55-.19,3.84-.3a18,18,0,0,1,2,0l2,0c1.32,0,2.64.1,4,0h.11a1.17,1.17,0,0,0,1.11-1.22A1.19,1.19,0,0,0,1395.87,387.1Z"/><path class="cls-19" d="M1351.63,406l-6.73,19.32a3.26,3.26,0,0,0,3.48,4.31l10.95-1.36Z"/><path class="cls-21" d="M1345.05,396a34.71,34.71,0,0,0-3.1-1.58c-1.07-.43-2.19-.78-3.31-1.12a33.43,33.43,0,0,0-3.48-.68,23.11,23.11,0,0,0-3.63-.1,15.89,15.89,0,0,0-7.22,1.94,18.76,18.76,0,0,0-1.62,1.06,14.8,14.8,0,0,0-1.43,1.31,8.88,8.88,0,0,0-2,3.4,1.15,1.15,0,0,0,.75,1.42,1.13,1.13,0,0,0,1-.21l.28-.22a13.57,13.57,0,0,1,2.28-1.6,14.51,14.51,0,0,1,2.55-1.14,20.51,20.51,0,0,1,5.65-1c1-.12,2,0,3-.06l3.1.17c1,.14,2.1.17,3.17.29s2.15.24,3.28.26h.08a1.18,1.18,0,0,0,1.2-1.15A1.21,1.21,0,0,0,1345.05,396Z"/><circle cx="1331.54" cy="410.85" r="3.37"/><path class="cls-19" d="M1335.55,436.62a11.91,11.91,0,0,1-7.52,12.95,127.89,127.89,0,0,1-5.25-21.73l-.18-1.21A11.88,11.88,0,0,1,1335.55,436.62Z"/><path class="cls-23" d="M1357,560s-69.09,28.42-80.45,44c-22.22,30.5-32.08,172.46-36,256.13a74.37,74.37,0,0,0,57.53,76l39,9-13.94-226.47s8.9,152.76,4.06,193.7,6.34,48.9,6.34,48.9,46,13.28,116.93,7S1541.31,957,1541.31,957l-14.72,62,61.76,12.09s57.92-143.71,59.16-209.06-41.34-208.51-84-236.15-103-32.78-103-32.78c-7,20.65-42.46,66.11-56.55,80.11C1390.14,619.73,1363.67,578.73,1357,560Z"/><path class="cls-24" d="M1295.58,673.86c-9.25-14.6-19.41-28.57-29.73-42.41-10.17,34.1-19.24,99.12-25.35,228.69-3.58,76,81.7,80.23,86.11,82.58.38,3.11-11.19-102.42-20-143.48C1295.84,749,1294.1,706.93,1295.58,673.86Z"/><path class="cls-24" d="M1533.11,685.15,1572,826,1541.31,957l-44.52,6s26.94-75.23,31.26-123.18S1533.11,685.15,1533.11,685.15Z"/><path class="cls-16" d="M1242.28,885.88c7.39,48.62,74,190.62,74,190.62l37.52-36.19L1321.71,907.6C1309,891.37,1260.1,876,1242.28,885.88Z"/><path class="cls-25" d="M1199.36,820.71c32.09,29.72,90.62,151.85,109,259l-387,3.43s46.89-191.32,126.47-264.89Z"/><path class="cls-24" d="M940.16,1019.16l-.6,5.13s36.53-62.22,53.65-73.92l29.12-65.08s-1.14-12.84,4-32.25,21.44-34.84,21.44-34.84C997.89,864.3,960.87,956.63,940.16,1019.16Z"/><path class="cls-15" d="M1223.55,601c-21.41-21.4-111.3-29.62-111.3-29.62l-32.37,5.22s-64.76,20.13-87.17,74S939,796.18,942.56,832.34s50.65,118,50.65,118c7.14-17.13,20.84-49.1,29.12-65.08L995.28,822.7s34.26-114.17,40.27-133.61c0,0-15,29.32.74,60s11.47,69.08,11.47,69.08,15.76,11.85,78.35,11.23,73.25-8.72,73.25-8.72L1214,703.94,1256.81,801l-51.24,85.15c8.56,21.4,12.27,42.81,14.55,53.08,0,0,72.79-44.9,85.73-123.17S1253.78,631.25,1223.55,601Z"/><path class="cls-15" d="M366.44,1036.85c-6.85,40-36.54,54.8-36.54,54.8l-3.64,21a4.41,4.41,0,0,0,4.45,5.17l285.75-6.72,4.57-29.69Z"/><path class="cls-26" d="M659.29,879.16c-6.75,28-13,50.35-11.91,115.84s-25.09,92.19-25.09,92.19l-48.18-5.87L589,870.56l13.09-16.5Z"/><path class="cls-24" d="M620.46,862.24l-24-1.07L589,870.56l-14.9,210.76,36.41,4.43,8.49-191h36.57c1.19-5.2,2.44-10.27,3.71-15.55l-16.6-7.28H620Z"/><path class="cls-27" d="M685,700.34c14.56,48.81-19.69,183.24-19.69,183.24l-69.36-.86,14.56-116.45Z"/><path class="cls-24" d="M595.91,882.72l31.22.39c-1.51-19.67-3.34-53.92.18-73.46,5.14-28.54,10.84-35.39,22.83-54.23l-28.14.64-11.53,10.21Z"/><path class="cls-27" d="M512.57,568.19c-44.53-1.71-114.23-4.56-147.85,26-34.25,31.11-85.62,132.15-85.62,132.15,6.21,25.05,56.08,41.67,81.34,47.67l18-28.26s-7.09,44.33-13.7,120.73c-7.7,89-3.42,179.82-3.42,179.82s68.6,38.53,150.7,38.53c55.66,0,96.76,4.28,96.76,4.28s-6-201.22,0-238.9,14.55-73.63,14.55-73.63,71.07-45.39,61.65-76.21-116.45-96.76-116.45-96.76Z"/><path class="cls-24" d="M411.82,709.76s-12,11.13-33.4,36c0,0-7.08,44.33-13.7,120.73-2.09,24.22-3.3,48.56-4,71.17,6.08-9.65,13.83-24.25,21.93-45.48C400.69,845.05,411.82,709.76,411.82,709.76Z"/><path class="cls-28" d="M600,624.07c-17.88-12.14-31.44-20.49-31.44-20.49l-55.94-35.39c-5.86-.22-12.15-.47-18.74-.65l-3.55,8.36-.24,1c-.3,1.29-7.06,31.83,7.93,54.9,7.86,12.1,19.87,19.81,35.7,22.91a74.27,74.27,0,0,0,14.08,1.41h0C581.75,656.15,596.62,630.76,600,624.07Z"/><path class="cls-26" d="M550.1,465.73,501.72,579.61S489.29,633.84,536,643c39.8,7.78,53.66-25.12,53.66-25.12l30.53-127.22Z"/><path class="cls-29" d="M550.1,465.73,501.72,579.61S489.29,633.84,536,643c39.8,7.78,53.66-25.12,53.66-25.12l30.53-127.22Z"/><path class="cls-24" d="M544.87,478.05c6.67,27.35,23.54,46.67,48,46.67a40.89,40.89,0,0,0,20.07-5.15l7.25-28.94-70.06-24.9Z"/><path class="cls-30" d="M641,465.86a23.67,23.67,0,0,0,2.22-47.29Z"/><path class="cls-31" d="M641.51,454.67a12.47,12.47,0,1,0,1.17-24.92Z"/><path class="cls-26" d="M647.64,437c0,41.1-19.54,74.42-51.16,74.42-32.09,0-51.16-33.32-51.16-74.42s13.95-75.34,50.23-75.34C634.61,361.69,647.64,395.94,647.64,437Z"/><circle class="cls-30" cx="572.66" cy="451.48" r="11.86"/><circle class="cls-30" cx="631.01" cy="449.36" r="11.86"/><path class="cls-30" d="M600.26,419.77,616,451.62a4.89,4.89,0,0,1-3.89,7l-16.55,1.65Z"/><path class="cls-20" d="M618.71,471c0,6.61-7.65,12-17.09,12s-17.09-5.35-17.09-12,7.65-2.24,17.09-2.24S618.71,464.39,618.71,471Z"/><circle class="cls-32" cx="575.5" cy="428.34" r="2.95"/><circle class="cls-32" cx="629.03" cy="428.34" r="2.95"/><path class="cls-15" d="M558.67,416.92a12.35,12.35,0,0,1,6-5.67,20.89,20.89,0,0,1,8-2,21.12,21.12,0,0,1,8.18,1.16,14.86,14.86,0,0,1,3.73,1.93c.28.22.56.42.83.65s.52.5.75.77a7,7,0,0,1,1.18,1.73,28,28,0,0,0-7.34-1.13c-2.37-.12-4.73-.09-7.07,0a66.45,66.45,0,0,0-7,.69A37,37,0,0,0,558.67,416.92Z"/><path class="cls-15" d="M612.18,415.92a14.46,14.46,0,0,1,5.94-5.23,20.17,20.17,0,0,1,7.73-2.05,19.78,19.78,0,0,1,7.92,1.08,12,12,0,0,1,6.38,4.77,41.4,41.4,0,0,0-7.19-.82,66.86,66.86,0,0,0-6.8.1c-2.25.14-4.48.38-6.76.74S614.81,415.36,612.18,415.92Z"/><path class="cls-30" d="M549.5,467.1a23.67,23.67,0,0,1-2.23-47.29Z"/><path class="cls-31" d="M549,455.91A12.47,12.47,0,0,1,547.8,431Z"/><path class="cls-33" d="M571.65,378.1S585.92,387,608.19,387s45.09-17.41,38.81-32.54-25.11-9.7-25.11-9.7-7.71-18.27-24-15.7-19.69,16.27-19.69,16.27-20.55-5.42-35.4,19.41-6,58.08-6,58.08,6.68.82,6.85,5.42A61.24,61.24,0,0,0,546.25,443l4.71,1.43s1-29.13,3.57-35C558.52,400.36,571.65,378.1,571.65,378.1Z"/><path class="cls-33" d="M627.88,379.81c8.85,12.56,15.41,26.55,17.12,37.39S647.64,437,647.64,437l3.36-17s1.71-35.39-10.85-48.24Z"/><path class="cls-26" d="M281.67,726.88c-22.55,44-37.39,94.19-38.53,142.14s51.37,219.2,86.76,222.63,36.54-9.71,36.54-9.71-9.14,18.27-2.29,19.41,17.13-20.55,13.7-26.83c0,0-2.85,17.7,2.29,14.27s8.56-14.27,4-26.25-26.26-14.85-26.26-14.85S307.64,907.84,310.49,875.3c2.45-27.84,36.65-87.44,46.47-104.07a7,7,0,0,0-.92-8.36c-5.8-6.15-18.28-17.94-33.84-24.28A198.9,198.9,0,0,0,281.67,726.88Z"/><path class="cls-24" d="M318.77,745.44c15.56,6.34,28,18.13,33.85,24.28a6.94,6.94,0,0,1,1.79,5.86l2.55-4.35a7,7,0,0,0-.92-8.36c-5.8-6.15-18.28-17.94-33.84-24.28a198.9,198.9,0,0,0-40.53-11.71c-1.16,2.27-2.29,4.56-3.41,6.86A198.6,198.6,0,0,1,318.77,745.44Z"/><circle class="cls-33" cx="453.77" cy="756.85" r="11.99"/><circle class="cls-33" cx="520.56" cy="773.98" r="11.99"/><circle class="cls-33" cx="584.13" cy="783.72" r="11.99"/><path class="cls-34" d="M1124.12,376.78c-23.63-17.77-50.66-5-61.87,13.08-12.93,20.85-3,47-3,47l86.27,121.29,34.09-100.89-43.06-62.36Z"/><ellipse class="cls-24" cx="1135.02" cy="487.41" rx="68.07" ry="36.82" transform="translate(597.27 1599.46) rotate(-87.43)"/><path class="cls-26" d="M1139.56,495.94l10,77.87s37.28,91.86-36.17,90.76c-77.76-1.16-26-88-26-88l-10.27-83.06Z"/><path class="cls-35" d="M1139.56,495.94l10,77.87s37.28,91.86-36.17,90.76c-77.76-1.16-26-88-26-88l-10.27-83.06Z"/><path class="cls-24" d="M1141.49,510.9c-9.54,15.52-20.94,23.65-38.25,22.47-9.42-.64-16-2.78-22.47-9l-2-24.93,60.75-3.51Z"/><path class="cls-30" d="M1060.77,475.26a21.79,21.79,0,0,1,5.39-43.24Z"/><path class="cls-31" d="M1062.05,465a11.48,11.48,0,1,1,2.84-22.79Z"/><path class="cls-26" d="M1059.26,448.08c-6.44,37.28,6.06,70.56,34.75,75.51,29.11,5,51.62-22.21,58.06-59.49s-.85-70.53-33.76-76.21C1082.87,381.77,1065.69,410.8,1059.26,448.08Z"/><circle class="cls-30" cx="1125.23" cy="479.42" r="10.92"/><circle class="cls-30" cx="1070.94" cy="468.66" r="10.92"/><path class="cls-30" d="M1102,455.9l-12.67,17.39a3,3,0,0,0,1.6,4.59l9.71,2.69Z"/><path class="cls-20" d="M1080.72,486.06c-.73,4.28,4.84,8.81,12.45,10.13s14.38-1.09,15.12-5.37-5.92-2.51-13.53-3.83S1081.46,481.79,1080.72,486.06Z"/><circle class="cls-32" cx="1129.91" cy="457.89" r="2.96"/><circle class="cls-32" cx="1076.84" cy="450.09" r="2.96"/><path class="cls-30" d="M1141.77,450.23c-1.89-.74-3.6-1.39-5.35-1.94s-3.46-1.06-5.2-1.49-3.49-.81-5.27-1.11a36.18,36.18,0,0,0-5.6-.54A10.35,10.35,0,0,1,1126,443a17.53,17.53,0,0,1,6,.48,18.25,18.25,0,0,1,5.55,2.4A12.07,12.07,0,0,1,1141.77,450.23Z"/><path class="cls-30" d="M1090.12,441.55c-1.89-.74-3.6-1.38-5.35-1.94s-3.46-1.05-5.2-1.49-3.49-.81-5.27-1.1a35.12,35.12,0,0,0-5.61-.54,10.42,10.42,0,0,1,5.67-2.16,17.78,17.78,0,0,1,6,.48,18.76,18.76,0,0,1,5.55,2.4A12.16,12.16,0,0,1,1090.12,441.55Z"/><path class="cls-30" d="M1143.57,490.72a21.79,21.79,0,1,0,9.42-42.55Z"/><path class="cls-31" d="M1145.8,480.65a11.48,11.48,0,0,0,5-22.42Z"/><path class="cls-32" d="M947,896.42c14.84,44.81,39.38,193.52,39.38,193.52H666.13s1.71-104.47,49.66-198.66c37.54-73.74,49.09-81.63,49.09-81.63L903,798.81S932.14,851.61,947,896.42Z"/><path class="cls-34" d="M750,705.48s46.24-15.42,91.62-15.42a501,501,0,0,1,82.2,6.85l17,59.13c-1.71,10.85-14.67,48.55-25.24,61L758,823.35l-30.83-64.5Z"/><path class="cls-24" d="M731.05,766.89l23.17,48.48c-6.07,7.56-15.57,22.18-30.44,49.66-8.18,15.12-14.93,33.67-20.5,53.56,3.4.06,7,.09,10.8.09,51.37,0,102.18-35.39,102.18-35.39,25,4.84,94,13.94,132.5,18.87-.6-2-1.2-4-1.78-5.74-9.39-28.35-24.48-59.88-34.31-79.23l2.91-.11c10.57-12.49,23.53-50.19,25.24-61l-17-59.13s12.84,59.94-6.85,74.5c-26.74,19.76-15.7,59.37-15.7,59.37L768,846.76l4.28-55.66s-30.82-30-22.26-85.62Z"/><path class="cls-34" d="M1021.47,818.5c-22.6-13.73-45.38-19.37-71.07-17.12L923.86,696.91,750,705.48s-1.71,15.41-9.42,47.09c-6.9,28.36-7.62,56.7-7.69,62.35-10.53,13.6-26.71,36.34-36.87,59.2q-3-.76-6-1.67c-53.94-16.27-7.71-174.68,11.13-221.77s71.93-47.1,112.17-68.21l69.07,9.69s23.75,10.36,61.94,28.55C980.37,637.83,1021.47,818.5,1021.47,818.5Z"/><path class="cls-36" d="M825.22,379c-2.61-9.75-3.58-7.15-22.76-14.63s-12-29.9,6.83-29.25c15.81.54,8.12-18.21,22.75-24.71s17.88,7.8,25.36,7.15,5.25-20.35,25.36-17.23c14.62,2.28,13.65,15,12.67,23.73s15.58,2.18,19.51,14.63-13,15.61-13.65,27a26.32,26.32,0,0,1-7.81,17.56Z"/><path class="cls-36" d="M798.27,470.77c-10.34-11.15-18.8-29.87-7.59-45.65a14.24,14.24,0,0,0,2.4-10.85c-1.18-6.25-1.17-16.21,7.48-24.32A30.11,30.11,0,0,1,816.5,382a14.42,14.42,0,0,0,10.2-7.18c3-5.39,8.73-12.23,18.38-14C861.64,357.76,874.2,376,874.2,376s21.69-21.55,46.23-4.31c16,11.24,15.27,27.72,12.81,37.83a14.27,14.27,0,0,0,4.36,14c6,5.3,13,15.07,10.23,30.65C943.27,480,933.56,503.4,893.6,503.4S798.27,470.77,798.27,470.77Z"/><path class="cls-26" d="M831.1,506l-17.7,76.49s-46.22,87.7,27,93.9c77.49,6.57,42.1-84.19,42.1-84.19l14.27-79.35Z"/><path class="cls-37" d="M831.1,506l-17.7,76.49s-46.22,87.7,27,93.9c77.49,6.57,42.1-84.19,42.1-84.19l14.27-79.35Z"/><path class="cls-17" d="M827.7,520.66c7.95,16.4,21.16,27,38.5,27a38.16,38.16,0,0,0,26.12-10.21l4.42-24.61L831.1,506Z"/><path class="cls-38" d="M906.61,494.83a21.79,21.79,0,0,0,2-43.54Z"/><path class="cls-39" d="M907.09,484.53a11.48,11.48,0,0,0,1.08-22.94Z"/><path class="cls-37" d="M912.73,468.29c0,37.84-18,68.5-47.1,68.5-29.54,0-47.09-30.66-47.09-68.5s12.84-69.35,46.24-69.35C900.74,398.94,912.73,430.46,912.73,468.29Z"/><circle class="cls-24" cx="840.16" cy="482.78" r="10.92"/><circle class="cls-24" cx="899.53" cy="481.35" r="10.92"/><path class="cls-39" d="M870.77,461.73,880.3,481a3,3,0,0,1-2.36,4.25l-10,1Z"/><path class="cls-20" d="M885,496.61c0,3.34-6.26,6-14,6s-14-2.7-14-6,6.26-1.14,14-1.14S885,493.27,885,496.61Z"/><circle class="cls-32" cx="841.94" cy="459.73" r="2.71"/><circle class="cls-32" cx="895.6" cy="460.16" r="2.71"/><path class="cls-15" d="M830.81,449.15a12.24,12.24,0,0,1,4.86-3.58,18.55,18.55,0,0,1,5.87-1.42,17.61,17.61,0,0,1,6,.56,10.29,10.29,0,0,1,5.21,3.09,34.68,34.68,0,0,0-5.61-.43c-1.81,0-3.6.07-5.39.2s-3.57.32-5.37.58S832.8,448.74,830.81,449.15Z"/><path class="cls-15" d="M883.61,448.29a12.12,12.12,0,0,1,4.86-3.57,18.35,18.35,0,0,1,5.87-1.42,17.86,17.86,0,0,1,6,.55,10.36,10.36,0,0,1,5.21,3.09,35.71,35.71,0,0,0-5.61-.42c-1.81,0-3.59.06-5.38.19s-3.58.32-5.38.58S885.6,447.88,883.61,448.29Z"/><path class="cls-38" d="M822.39,496a21.79,21.79,0,0,1-2-43.53Z"/><path class="cls-39" d="M821.9,485.67a11.48,11.48,0,0,1-1.08-22.94Z"/><path class="cls-36" d="M813.12,452.6c7.42,5.42,12.84,5.7,15.41,3.14s6-29.69,18-39.11,29.68-12.27,29.68-12.27,8,23.4,23.12,37.1,23.41,13.7,23.41,13.7-2-64.5-56.8-63.64S813.12,452.6,813.12,452.6Z"/><path class="cls-26" d="M1021.47,818.5c6,32.83-18,48.81-47.66,48.81S795.71,853,795.71,853L882.47,804l69.64-2.57s19.41-3.14,39.39,3.14S1021.47,818.5,1021.47,818.5Z"/><path class="cls-37" d="M1021.47,818.5c6,32.83-18,48.81-47.66,48.81S795.71,853,795.71,853L882.47,804l69.64-2.57s19.41-3.14,39.39,3.14S1021.47,818.5,1021.47,818.5Z"/><path class="cls-24" d="M795.71,853s19.2,1.84,45.16,4.21c13.44-18.6,47.07-37.55,66.15-42.46,20-5.14,45.09-13.41,45.09-13.41L882.47,804Z"/><path class="cls-37" d="M950.4,801.48s-42.92-2.67-103.71,36.72c-58.54,37.93-99.44,49.52-150.63,35.92,10.59-32.5,22-45.63,36.87-59.2,0,.67,0,1,0,1s60.8-6.85,126.73-21.4S950.4,801.48,950.4,801.48Z"/><path class="cls-24" d="M1093.67,390a73.06,73.06,0,0,1,12.3-.76l-.09-.36s.66-.71,1.85-1.78a52.25,52.25,0,0,1,10.58.77c28.2,4.87,37.58,30,35.63,60.54a21.75,21.75,0,0,1-4.24,42.72c2.56-11.52,4.45-24,1.41-35.13-7.06-25.94-23.44-7.85-38.74-46.6-12.83,5.29-26.95,8.82-33.5,11.36-7.4,2.87-13.52,10.2-17.07,15.31C1067.33,414.22,1077.36,396.72,1093.67,390Z"/><path class="cls-34" d="M1131.07,366.4c14.39-1.24,28.69,3.42,42,33,9.39,20.91,17.58,18.25,25.26,33,11.44,21.94-6.27,51.78-3.17,71.92s24.72,25.39,22.82,55-15.17,38.89-10.86,57.36,12.72,34.86.45,53.74-18.4,15.17-20.38,33.94-25,22.88-28.12,2.74,7-29.4-4.23-45.9-13.4-32.6-7-48.88-3.26-29.29-6-44.84,8.38-33.91,6.16-48.3,12.59-43.37,5.7-66.45c-8.82-29.54-31.11-6.18-49.62-71.3C1104.1,381.38,1114.72,367.81,1131.07,366.4Z"/><path class="cls-34" d="M1134.07,382.24c-10.1,15-40.6,28.31-52.77,32.05s-21.86,19.16-21.86,19.16,7.81-40.36,24.78-46,33.92-1.48,33.92-1.48Z"/><path class="cls-6" d="M551.23,1080.14h77.56c.81-41.87-2.18-82.18-13.17-108-32.13-75.32-106-111.21-142.57-104-40.15,8-39.15,39.26,27.11,109.27C522.58,1001.18,539.14,1039.64,551.23,1080.14Z"/><path class="cls-40" d="M551.23,1080.14h38.44c0-.44-.1-.89-.16-1.34-9.82-81.48-56.17-147.22-124-208.64-32.19,10.41-27.16,42,34.64,107.33C522.58,1001.18,539.14,1039.64,551.23,1080.14Z"/><path class="cls-6" d="M691.4,1080.14a358.9,358.9,0,0,1,15.42-34.1C742.47,978,814,853.48,756.33,846.3c-11.88-1.48-44.56-13.32-81.2,80.63-13.12,33.66-23.45,92.08-31.3,153.21Z"/><path class="cls-41" d="M691.4,1080.14a358.9,358.9,0,0,1,15.42-34.1C742.23,978.43,813,855.13,757.46,846.46c-33.55,54.19-69.31,136.13-92.76,233.68Z"/><path class="cls-6" d="M762.31,1080.14c17.79-24.61,40.07-48,65.57-64.21,66.55-42.23,94.76-87.26,63-96.75-12.5-3.73-43.59-15.85-109,56.69-26.26,29.13-45.44,68.08-59,104.27Z"/><path class="cls-42" d="M890.93,919.18l-.38-.11c-35.9,28-105.32,87-137.61,143.59q-5.12,9-9.55,17.48h18.94c17.78-24.61,40-48,65.55-64.21C894.43,973.7,922.64,928.67,890.93,919.18Z"/><path class="cls-6" d="M923.83,988.59c18,13.19-11.48,49.62-36.14,74.43-22,22.16-31.24,63.63-33,72.23A4.18,4.18,0,0,1,853,1138c-4,2.59-10.36,3.14-13.89.8a4.24,4.24,0,0,1-1.82-3.68c.24-10.2,2.71-63.6,27.5-107.19C892.28,979.52,916.37,983.15,923.83,988.59Z"/><path class="cls-43" d="M868.19,1057.57c13.13-26,33.56-49.73,55.33-69.19-7.8-5.32-31.61-8.21-58.77,39.54-23,40.44-26.78,89.32-27.41,104.32a4.42,4.42,0,0,0,4.42,4.6h.47a4.42,4.42,0,0,0,4.33-3.55C850.73,1112.27,858.79,1076.17,868.19,1057.57Z"/><path class="cls-6" d="M1233.2,1029.2c4.61-21.61,1.08-32,3.52-58.83s14.37-31.21,14.91-54.42,4.61-44.42,8.94-68.43a99.8,99.8,0,0,0-8.94,20.41c-3.28,11.45-3.52,20.41-8.13,36.81s-10,15.21-14.91,36.42-3.25,44.82-8.13,60-18.7,26.81-20.87,43.62,2.17,38,.27,54.82h19.38c.06-5.76.38-14.41,1.49-24.81C1222.9,1054.41,1228.59,1050.81,1233.2,1029.2Z"/><path class="cls-44" d="M1233.2,1029.2c4.61-21.61,1.08-32,3.52-58.83s14.37-31.21,14.91-54.42,4.61-44.42,8.94-68.43a99.8,99.8,0,0,0-8.94,20.41c-3.28,11.45-3.52,20.41-8.13,36.81s-10,15.21-14.91,36.42-3.25,44.82-8.13,60-18.7,26.81-20.87,43.62,2.17,38,.27,54.82h19.38c.06-5.76.38-14.41,1.49-24.81C1222.9,1054.41,1228.59,1050.81,1233.2,1029.2Z"/><path class="cls-6" d="M1262.74,950c3.53-20.41-3.51-40.93-2.17-55.62,1.9-20.81,0-46.82,0-46.82-4.33,24-8.4,45.22-8.94,68.43s-12.47,27.61-14.91,54.42,1.09,37.22-3.52,58.83-10.3,25.21-12.47,45.62c-1.11,10.4-1.43,19-1.49,24.81h28s5.15-11.2,5.7-33.61-6-32.82-4.34-63.23S1259.22,970.37,1262.74,950Z"/><path class="cls-6" d="M1190.49,1015.83c-5.69-13.84-15.45-14.94-14.63-29.87s5.15-29.52,2.44-43.36c-1.8-9.19-4.79-22.37-6.6-30.21-3.11.77-.71,22,.36,33.85s-10.84,28.42-10.84,42.27,8.67,25.87,9.76,39-9.22,25.14-9,42.63a60.12,60.12,0,0,0,8.13,29.51h28.71c-1-13-7.37-29-7.83-43C1190.49,1040.24,1196.19,1029.68,1190.49,1015.83Z"/><path class="cls-45" d="M1190.49,1015.83c-5.69-13.84-15.45-14.94-14.63-29.87s5.15-29.52,2.44-43.36c-1.8-9.19-4.79-22.37-6.6-30.21-3.11.77-.71,22,.36,33.85s-10.84,28.42-10.84,42.27,8.67,25.87,9.76,39-9.22,25.14-9,42.63a60.12,60.12,0,0,0,8.13,29.51h28.71c-1-13-7.37-29-7.83-43C1190.49,1040.24,1196.19,1029.68,1190.49,1015.83Z"/><path class="cls-6" d="M1230.07,1051.9c-7-9.11-18.43-13.11-17.62-26.59s-.54-25.14-9.22-32.43-15.72-15.3-15.18-25.87.55-22.59-4.87-30.24S1175,912,1171.79,912.36l-.09,0c1.81,7.84,4.8,21,6.6,30.21,2.71,13.84-1.63,28.42-2.44,43.36s8.94,16,14.63,29.87,0,24.41.55,40.81c.46,13.95,6.78,30,7.83,43h33.37S1237.11,1061,1230.07,1051.9Z"/><path class="cls-6" d="M1118.22,1056.66c-5.7-9-18.52-18.83-15-34.65s6.29-31.45,0-41.42-14.47-25.61-14.47-44.44-1.9-33.13-6.64-40.67-9.57-32.8-13.64-39.25-9.69-37.61-13.46-43.59c-.43-.68-.85-.84-1.25-.59,1.15,13.61,3,34.9,4.62,48.6,2.49,21.47-3.37,31.82-3.37,45.38s12.86,30.88,12.86,47.46-12.86,31.62-12.86,50.13,11,25.92,15.71,43.25c3.68,13.41-.91,31.34-6.25,48.2h48.72S1123.91,1065.69,1118.22,1056.66Z"/><path class="cls-6" d="M1070.76,1046.87c-4.75-17.33-15.71-24.74-15.71-43.25s12.86-33.54,12.86-50.13-12.86-33.91-12.86-47.46,5.86-23.91,3.37-45.38c-1.59-13.7-3.47-35-4.62-48.6-3.15,1.9-5.46,29.41-5.46,44.18,0,16.66-15.07,28.71-15.07,45.28s5.22,45.67-1.9,65.76-22,23.11-22,53.24,14,49.7,7.8,74.56h47.37C1069.85,1078.21,1074.44,1060.28,1070.76,1046.87Z"/><path class="cls-46" d="M1070.76,1046.87c-4.75-17.33-15.71-24.74-15.71-43.25s12.86-33.54,12.86-50.13-12.86-33.91-12.86-47.46,5.86-23.91,3.37-45.38c-1.59-13.7-3.47-35-4.62-48.6-3.15,1.9-5.46,29.41-5.46,44.18,0,16.66-15.07,28.71-15.07,45.28s5.22,45.67-1.9,65.76-22,23.11-22,53.24,14,49.7,7.8,74.56h47.37C1069.85,1078.21,1074.44,1060.28,1070.76,1046.87Z"/><path class="cls-6" d="M1116.56,990.74c-1.07-15.71,11-22.9,13.88-37.72,2.24-11.67-1.7-31.69-5-46.48-4.45,1.53-.29,37.77.17,46.63s-12.81,16.17-16.61,32.33,7.12,27-.47,44.31-19.46,35.32-18,65.26h18.78c1.27-20.36,11-33.31,15.86-52.69C1130.44,1021.28,1117.63,1006.46,1116.56,990.74Z"/><path class="cls-47" d="M1116.56,990.74c-1.07-15.71,11-22.9,13.88-37.72,2.24-11.67-1.7-31.69-5-46.48-4.45,1.53-.29,37.77.17,46.63s-12.81,16.17-16.61,32.33,7.12,27-.47,44.31-19.46,35.32-18,65.26h18.78c1.27-20.36,11-33.31,15.86-52.69C1130.44,1021.28,1117.63,1006.46,1116.56,990.74Z"/><path class="cls-6" d="M1130.32,997.48c-6.17-20.36,4.75-26.94,5.69-44.31s-5.69-47.29-10.44-46.69a.58.58,0,0,0-.17.06c3.34,14.79,7.28,34.81,5,46.48-2.85,14.82-15,22-13.88,37.72s13.88,30.54,8.54,51.64c-4.9,19.38-14.59,32.33-15.86,52.69H1137a158.79,158.79,0,0,1,.48-34.73C1139.81,1041.18,1136.49,1017.83,1130.32,997.48Z"/><path class="cls-6" d="M1419.73,774.09c-47.48,8.14-9.45,74,31.78,108.81,36.29,30.58,76.12,97,85.74,152.3,5.69,32.68-.39,70.66-.39,70.66l16.62-.21s16.24-139.77-20-227.53S1453.27,768.34,1419.73,774.09Z"/><path class="cls-48" d="M1419.73,774.09c-47.48,8.14-9.45,74,31.78,108.81,36.29,30.58,76.12,97,85.74,152.3,5.69,32.68-.39,70.66-.39,70.66l16.62-.21s16.24-139.77-20-227.53S1453.27,768.34,1419.73,774.09Z"/><path class="cls-6" d="M1451.51,882.9c-38.45-32.42-74.1-91.91-40.24-106.39l2,.49c74.35,76.27,114,139.46,128.11,219.7,12.3,69.81,6.73,103,5.19,109.13l-10-.18s6.39-37.77.7-70.45C1527.63,979.88,1487.8,913.48,1451.51,882.9Z"/><path class="cls-49" d="M1451.51,882.9c-38.45-32.42-74.1-91.91-40.24-106.39l2,.49c74.35,76.27,114,139.46,128.11,219.7,12.3,69.81,6.73,103,5.19,109.13l-10-.18s6.39-37.77.7-70.45C1527.63,979.88,1487.8,913.48,1451.51,882.9Z"/><path class="cls-6" d="M1570,1105.55c5.86-78,48.51-138.4,119.64-184.11s101.26,25.64,61.93,58-109.63,51.29-141.43,90.31c-15.76,19.34-18.61,36.14-18.61,36.14Z"/><path class="cls-50" d="M1570,1105.55c5.86-78,48.51-138.4,119.64-184.11s101.26,25.64,61.93,58-109.63,51.29-141.43,90.31c-15.76,19.34-18.61,36.14-18.61,36.14Z"/><path class="cls-6" d="M1767.38,932.34c-56.06,19.27-116.19,50.06-145.52,83.86-14.91,17.19-31.76,53.77-45.43,89.76,4.56.42,15.59-.29,16-.31,6.33-16.81,11.93-28.85,17.7-35.93,31.8-39,102.1-58,141.43-90.31C1767.14,966.61,1771.82,947.69,1767.38,932.34Z"/><path class="cls-51" d="M1767.38,932.34c-56.06,19.27-116.19,50.06-145.52,83.86-14.91,17.19-31.76,53.77-45.43,89.76,4.56.42,15.59-.29,16-.31,6.33-16.81,11.93-28.85,17.7-35.93,31.8-39,102.1-58,141.43-90.31C1767.14,966.61,1771.82,947.69,1767.38,932.34Z"/><path class="cls-6" d="M1491.24,1105.73s-31.63-98-24.54-123.25,7.48-66.14-27.94-98.65-80.73-38-97.73-30-18,42.81,13.23,76.93,81.71,82.82,90.21,105.3,26.93,69.67,26.93,69.67Z"/><path class="cls-52" d="M1491.24,1105.73s-31.63-98-24.54-123.25,7.48-66.14-27.94-98.65-80.73-38-97.73-30-18,42.81,13.23,76.93,81.71,82.82,90.21,105.3,26.93,69.67,26.93,69.67Z"/><path class="cls-6" d="M1361.61,850.37c20.17,35.71,39.36,76.47,54.52,104.2,15.59,28.5,46.76,109.58,46.76,109.58l-10.42-7.89c-3-7.61-5.82-14.86-8-20.61-8.5-22.48-59-71.18-90.21-105.3S1324,861.45,1341,853.42C1345.59,851.26,1352.81,850.18,1361.61,850.37Z"/><path class="cls-53" d="M1361.61,850.37c20.17,35.71,39.36,76.47,54.52,104.2,15.59,28.5,46.76,109.58,46.76,109.58l-10.42-7.89c-3-7.61-5.82-14.86-8-20.61-8.5-22.48-59-71.18-90.21-105.3S1324,861.45,1341,853.42C1345.59,851.26,1352.81,850.18,1361.61,850.37Z"/><path class="cls-6" d="M1449.14,1105.86s-16.78-71.28-65.35-118.08-89.83-57.2-97.35-47.15S1424.86,1106,1424.86,1106Z"/><path class="cls-54" d="M1449.14,1105.86s-16.78-71.28-65.35-118.08-89.83-57.2-97.35-47.15S1424.86,1106,1424.86,1106Z"/></g><path class="cls-55" d="M334.14,157.76a13.82,13.82,0,0,1,0-27.63c.39,0,.78,0,1.16.06a20.73,20.73,0,0,1,39.16.06,13.35,13.35,0,0,1,7.8,1.31,17.8,17.8,0,1,1,15.68,26.2Z"/><path class="cls-55" d="M249.91,378.94A28.92,28.92,0,1,0,240,322.88a44.72,44.72,0,0,0-86-1.86,31.15,31.15,0,1,0-15.93,57.92Z"/><path class="cls-55" d="M1708.21,307.92a24,24,0,1,0-8.21-46.61,37.17,37.17,0,0,0-71.45-1.55,25.9,25.9,0,1,0-13.25,48.16Z"/><path class="cls-15" d="M1075.27,61.81,943.52,90.17,970.6,215.93l11.82-2.55a27.31,27.31,0,0,0,5.15,24l-11.81,2.55,5.15,23.95,131.75-28.36Z"/><path class="cls-27" d="M1014.91,247.11A27.56,27.56,0,1,0,982.16,226a27.55,27.55,0,0,0,32.75,21.14"/><path class="cls-56" d="M991.14,224a3.06,3.06,0,0,1,6-1.29,12.26,12.26,0,0,0,14.56,9.4,3.06,3.06,0,0,1,1.28,6A18.4,18.4,0,0,1,991.14,224"/><path class="cls-56" d="M1002.89,205.84a3.06,3.06,0,0,1,2.35-3.64,18.39,18.39,0,0,1,21.83,14.1,3.06,3.06,0,1,1-6,1.29,12.26,12.26,0,0,0-14.55-9.4,3.06,3.06,0,0,1-3.64-2.35"/><path class="cls-57" d="M1003.31,193.22a27.55,27.55,0,0,1,23.26,48.25l59.55-12.82a12.27,12.27,0,0,1,9.4-14.56L1068.45,88.34a12.26,12.26,0,0,1-14.56-9.4L970.06,97a12.25,12.25,0,0,1-9.4,14.55L982.5,213a27.57,27.57,0,0,1,20.81-19.79"/><path class="cls-58" d="M982.16,226a27.25,27.25,0,0,1,.26-12.59l-32.78,7.06,14.55,9.4-9.39,14.55,32.77-7.06A27.43,27.43,0,0,1,982.16,226"/><path class="cls-59" d="M1064.89,173.69l-7.73-35.93a3.06,3.06,0,1,1,6-1.29l7.73,35.93a3.06,3.06,0,0,1-6,1.29"/><path class="cls-59" d="M1056.37,206.86,1035.74,111a3.06,3.06,0,0,1,6-1.28l20.63,95.81a3.06,3.06,0,1,1-6,1.29"/><path class="cls-59" d="M1041.4,210.08l-20.63-95.81a3.06,3.06,0,0,1,6-1.29l20.63,95.81a3.06,3.06,0,0,1-6,1.29"/><path class="cls-59" d="M1018.69,177.37l-9-41.91a3.06,3.06,0,0,1,6-1.29l9,41.91a3.06,3.06,0,0,1-6,1.29"/><path class="cls-59" d="M1007.09,123.48l-1.29-6a3.06,3.06,0,0,1,6-1.29l1.29,6a3.06,3.06,0,1,1-6,1.29"/><path class="cls-59" d="M996,144.67l-5.16-24a3.06,3.06,0,1,1,6-1.29l5.15,24a3.06,3.06,0,1,1-6,1.29"/><path class="cls-59" d="M1003.72,180.6l-5.16-24a3.06,3.06,0,0,1,6-1.29l5.16,24a3.06,3.06,0,0,1-6,1.29"/><path class="cls-34" d="M730.34,156.78S693,123.3,681.56,135.73c-13.77,14.92,21.52,31.09,21.52,31.09s-37.78-15.3-40.17,2.87S695.43,186,695.43,186s-31.54,7.51-24.87,24.39c5.16,13.09,29.93,2.86,43.38-3.89a17.92,17.92,0,0,1,17,.48c13.69,7.86,43.37,21.6,80.26,19.19,51.17-3.35,62.17-22,78.91-25.35s33,.48,50.21-2.39,24.39-24.39,4.31-34.91c-15.92-8.34-57.39-16.74-114.3-15.78S730.34,156.78,730.34,156.78Z"/><polygon class="cls-27" points="947.46 184.75 953.91 171.84 974 186.91 949.61 194.32 947.46 184.75"/><circle cx="932.75" cy="179.85" r="7.05"/><path class="cls-60" d="M766.32,183.92s-2.39-65-1.43-97.56,8.61-42.33,14.35-38,11.83,56,11.83,56S788,33,801.83,32.55s16.86,66,16.86,66-.48-57.75,11.48-57.75,17.81,50,24.51,86.8,6.22,55.48,6.22,55.48-15.79,11-45,10S766.32,183.92,766.32,183.92Z"/><polygon class="cls-24" points="947.46 184.75 974 186.91 949.61 194.32 947.46 184.75"/></g></g></svg>