<svg xmlns="http://www.w3.org/2000/svg" viewBox="2417 -217 18 18">
  <defs>
    <style>
      .cls-1 {
        fill: #bcbcbc;
      }
    </style>
  </defs>
  <g id="Group_55" data-name="Group 55" transform="translate(1899 -255)">
    <path id="path" class="cls-1" d="M7.011,14.13A7.162,7.162,0,0,1,0,7.02,7.083,7.083,0,0,1,7.011,0a7.144,7.144,0,0,1,7.011,7.02A7.161,7.161,0,0,1,7.011,14.13Zm0-12.87A5.739,5.739,0,0,0,1.258,7.02a5.8,5.8,0,0,0,5.753,5.76,5.8,5.8,0,0,0,5.753-5.76A5.739,5.739,0,0,0,7.011,1.26Z" transform="translate(518 38)"/>
    <path id="path-2" data-name="path" class="cls-1" d="M13.5,12.6l5.573,5.58a.6.6,0,0,1,0,.9.581.581,0,0,1-.449.18c-.18,0-.36,0-.449-.18L12.6,13.5Z" transform="translate(516.726 36.74)"/>
  </g>
</svg>
