<svg xmlns="http://www.w3.org/2000/svg" xmlns:xlink="http://www.w3.org/1999/xlink" viewBox="0 0 20 16.654">
  <defs>
    <style>
      .cls-1 {
        clip-path: url(#clip-path);
      }

      .cls-2 {
        fill: #76a9ea;
      }
    </style>
    <clipPath id="clip-path">
      <rect id="Rectangle_5687" data-name="Rectangle 5687" width="20" height="16.655"/>
    </clipPath>
  </defs>
  <g id="Group_3918" data-name="Group 3918" transform="translate(0 -0.1)">
    <g id="Group_3917" data-name="Group 3917" transform="translate(0 0.1)">
      <g id="Group_3916" data-name="Group 3916" class="cls-1" transform="translate(0 0)">
        <path id="Path_6104" data-name="Path 6104" class="cls-2" d="M19.677,1.928a7.942,7.942,0,0,1-1.375.462A4.226,4.226,0,0,0,19.433.584.226.226,0,0,0,19.1.322a7.969,7.969,0,0,1-2.1.87.474.474,0,0,1-.134.018.563.563,0,0,1-.371-.14A4.3,4.3,0,0,0,13.655,0a4.581,4.581,0,0,0-1.363.213,4.174,4.174,0,0,0-2.81,3,4.661,4.661,0,0,0-.1,1.582.179.179,0,0,1-.036.122.153.153,0,0,1-.122.055H9.208A11.306,11.306,0,0,1,1.453.833a.225.225,0,0,0-.371.03,4.3,4.3,0,0,0,.7,5.231A3.754,3.754,0,0,1,.8,5.718a.225.225,0,0,0-.335.195A4.32,4.32,0,0,0,2.979,9.884H2.888a4.108,4.108,0,0,1-.724-.067.224.224,0,0,0-.255.292,4.307,4.307,0,0,0,3.406,2.932,7.968,7.968,0,0,1-4.446,1.35H.37a.326.326,0,0,0-.322.249.343.343,0,0,0,.164.377,11.822,11.822,0,0,0,5.937,1.6,11.931,11.931,0,0,0,5.073-1.077,11.253,11.253,0,0,0,3.71-2.78,12.239,12.239,0,0,0,2.275-3.808,12.044,12.044,0,0,0,.773-4.167V4.72a.738.738,0,0,1,.274-.572,8.381,8.381,0,0,0,1.709-1.88.234.234,0,0,0-.286-.341Zm0,0" transform="translate(-0.035 -0.006)"/>
      </g>
    </g>
  </g>
</svg>
