<svg xmlns="http://www.w3.org/2000/svg" viewBox="0 0 24.295 20">
  <defs>
    <style>
      .cls-1 {
        fill: #bcbcbc;
      }
    </style>
  </defs>
  <path id="Union_198" data-name="Union 198" class="cls-1" d="M9253.936-6049a1.178,1.178,0,0,1-1.177-1.176v-1.783a1.2,1.2,0,0,1,.851-1.136v-2.329a8.358,8.358,0,0,0-3.039,1.559l-2.169,1.783a.02.02,0,0,0-.021.021c-.019.021-.04.021-.061.042a.018.018,0,0,0-.019.019c-.021,0-.042.021-.061.021h-.2c-.019,0-.04-.021-.061-.021,0,0-.021,0-.021-.019-.019,0-.039-.021-.06-.042a.021.021,0,0,1-.021-.021l-2.166-1.762a8.4,8.4,0,0,0-5.289-1.885.4.4,0,0,1-.4-.4l-.021-5.024,8,2.614a.278.278,0,0,0,.121.019.285.285,0,0,0,.123-.019l8-2.6.019,5.024a.406.406,0,0,1-.4.407,8.614,8.614,0,0,0-1.438.121v2.492a1.183,1.183,0,0,1,.851,1.136v1.783A1.177,1.177,0,0,1,9254.1-6049Zm-5.9-11.529-8-2.615-3.749-1.236a.412.412,0,0,1-.283-.386.411.411,0,0,1,.283-.383l11.753-3.83c0-.021.021-.021.039-.021h.205l11.75,3.83h.021c.021,0,.021.021.042.021a.078.078,0,0,1,.04.019.072.072,0,0,1,.041.021l.019.021c.021,0,.042,0,.042.021a.073.073,0,0,0,.021.04c0,.021.019.021.019.04.021.021.021.021.021.042v.3c-.021.04-.039.061-.061.1v.021c-.021.042-.061.06-.081.081l-.021.021c-.04.019-.061.04-.1.04l-3.768,1.236-7.982,2.615a.289.289,0,0,1-.124.019A.272.272,0,0,1,9248.037-6060.529Z" transform="translate(-9236 6069)"/>
</svg>
