<svg xmlns="http://www.w3.org/2000/svg" xmlns:xlink="http://www.w3.org/1999/xlink" viewBox="0 0 1115.61 782.51"><defs><style>.cls-1{fill:none;}.cls-2{isolation:isolate;}.cls-253,.cls-254,.cls-257,.cls-260,.cls-269,.cls-270,.cls-271,.cls-3,.cls-4{mix-blend-mode:multiply;}.cls-4{fill:#f2f2f2;}.cls-5{fill:#f1f1f1;}.cls-6{fill:#f0f0f0;}.cls-7{fill:#efefef;}.cls-8{fill:#eee;}.cls-9{fill:#ededed;}.cls-10{fill:#ececec;}.cls-11{fill:#ebebeb;}.cls-12{fill:#eaeaea;}.cls-13{fill:#e9e9e9;}.cls-14{fill:#e8e8e8;}.cls-15{fill:#e7e7e7;}.cls-16{fill:#e6e6e6;}.cls-17{fill:#e5e5e5;}.cls-18{fill:#e4e4e4;}.cls-19{fill:#e3e3e3;}.cls-20{fill:#e2e2e2;}.cls-21{fill:#e1e1e1;}.cls-22{fill:#e0e0e0;}.cls-23{fill:#dfdfdf;}.cls-24{fill:#dedede;}.cls-25{fill:#ddd;}.cls-26{fill:#dcdcdc;}.cls-27{fill:#dbdbdb;}.cls-28{fill:#dadada;}.cls-29{fill:#d9d9d9;}.cls-30{fill:#d8d8d8;}.cls-31{fill:#d7d7d7;}.cls-32{fill:#d6d6d6;}.cls-33{fill:#d5d5d5;}.cls-34{fill:#d4d4d4;}.cls-35{fill:#d3d3d3;}.cls-36{fill:#d2d2d2;}.cls-37{fill:#d1d1d1;}.cls-38{fill:#d0d0d0;}.cls-39{fill:#cfcfcf;}.cls-40{fill:#cecece;}.cls-41{fill:#cdcdcd;}.cls-42{fill:#ccc;}.cls-43{fill:#cbcbcb;}.cls-44{fill:#cacaca;}.cls-45{fill:#c9c9c9;}.cls-46{fill:#c8c8c8;}.cls-47{fill:#c7c7c7;}.cls-48{fill:#c6c6c6;}.cls-49{fill:#c5c5c5;}.cls-50{fill:#c4c4c4;}.cls-51{fill:#c3c3c3;}.cls-52{fill:#c2c2c2;}.cls-53{fill:#c1c1c1;}.cls-54{fill:silver;}.cls-55{fill:#bfbfbf;}.cls-56{fill:#bebebe;}.cls-57{fill:#bdbdbd;}.cls-58{fill:#bcbcbc;}.cls-59{fill:#bbb;}.cls-60{fill:#bababa;}.cls-61{fill:#b9b9b9;}.cls-62{fill:#b8b8b8;}.cls-63{fill:#b7b7b7;}.cls-64{fill:#b6b6b6;}.cls-65{fill:#b5b5b5;}.cls-66{fill:#b4b4b4;}.cls-67{fill:#b3b3b3;}.cls-68{fill:#b2b2b2;}.cls-69{fill:#b1b1b1;}.cls-70{fill:#b0b0b0;}.cls-71{fill:#afafaf;}.cls-72{fill:#aeaeae;}.cls-73{fill:#adadad;}.cls-74{fill:#acacac;}.cls-75{fill:#ababab;}.cls-76{fill:#aaa;}.cls-77{fill:#a9a9a9;}.cls-78{fill:#a8a8a8;}.cls-79{fill:#a7a7a7;}.cls-80{fill:#a6a6a6;}.cls-81{fill:#a5a5a5;}.cls-82{fill:#a4a4a4;}.cls-83{fill:#a3a3a3;}.cls-84{fill:#a2a2a2;}.cls-85{fill:#a1a1a1;}.cls-86{fill:#a0a0a0;}.cls-87{fill:#9f9f9f;}.cls-88{fill:#9e9e9e;}.cls-89{fill:#9d9d9d;}.cls-90{fill:#9c9c9c;}.cls-91{fill:#9b9b9b;}.cls-92{fill:#9a9a9a;}.cls-93{fill:#999;}.cls-94{fill:#989898;}.cls-95{fill:#979797;}.cls-96{fill:#969696;}.cls-97{fill:#959595;}.cls-98{fill:#949494;}.cls-99{fill:#939393;}.cls-100{fill:#929292;}.cls-101{fill:#919191;}.cls-102{fill:#909090;}.cls-103{fill:#8f8f8f;}.cls-104{fill:#8e8e8e;}.cls-105{fill:#8d8d8d;}.cls-106{fill:#8c8c8c;}.cls-107{fill:#8b8b8b;}.cls-108{fill:#8a8a8a;}.cls-109{fill:#898989;}.cls-110{fill:#888;}.cls-111{fill:#878787;}.cls-112{fill:#868686;}.cls-113{fill:#858585;}.cls-114{fill:#848484;}.cls-115{fill:#838383;}.cls-116{fill:#828282;}.cls-117{fill:#818181;}.cls-118{fill:gray;}.cls-119{fill:#7f7f7f;}.cls-120{fill:#7e7e7e;}.cls-121{fill:#7d7d7d;}.cls-122{fill:#7c7c7c;}.cls-123{fill:#7b7b7b;}.cls-124{fill:#7a7a7a;}.cls-125{fill:#797979;}.cls-126{fill:#787878;}.cls-127{fill:#777;}.cls-128{fill:#767676;}.cls-129{fill:#757575;}.cls-130{fill:#747474;}.cls-131{fill:#737373;}.cls-132{fill:#727272;}.cls-133{fill:#717171;}.cls-134{fill:#707070;}.cls-135{fill:#6f6f6f;}.cls-136{fill:#6e6e6e;}.cls-137{fill:#6d6d6d;}.cls-138{fill:#6c6c6c;}.cls-139{fill:#6b6b6b;}.cls-140{fill:#6a6a6a;}.cls-141{fill:#696969;}.cls-142{fill:#686868;}.cls-143{fill:#676767;}.cls-144{fill:#666;}.cls-145{fill:#656565;}.cls-146{fill:#646464;}.cls-147{fill:#636363;}.cls-148{fill:#626262;}.cls-149{fill:#616161;}.cls-150{fill:#606060;}.cls-151{fill:#5f5f5f;}.cls-152{fill:#5e5e5e;}.cls-153{fill:#5d5d5d;}.cls-154{fill:#5c5c5c;}.cls-155{fill:#5b5b5b;}.cls-156{fill:#5a5a5a;}.cls-157{fill:#595959;}.cls-158{fill:#585858;}.cls-159{fill:#575757;}.cls-160{fill:#565656;}.cls-161{fill:#555;}.cls-162{fill:#545454;}.cls-163{fill:#535353;}.cls-164{fill:#525252;}.cls-165{fill:#515151;}.cls-166{fill:#505050;}.cls-167{fill:#4f4f4f;}.cls-168{fill:#4e4e4e;}.cls-169{fill:#4d4d4d;}.cls-170{fill:#4c4c4c;}.cls-171{fill:#4b4b4b;}.cls-172{fill:#4a4a4a;}.cls-173{fill:#494949;}.cls-174{fill:#484848;}.cls-175{fill:#474747;}.cls-176{fill:#464646;}.cls-177{fill:#454545;}.cls-178{fill:#444;}.cls-179{fill:#434343;}.cls-180{fill:#424242;}.cls-181{fill:#414141;}.cls-182{fill:#404040;}.cls-183{fill:#3f3f3f;}.cls-184{fill:#3e3e3e;}.cls-185{fill:#3d3d3d;}.cls-186{fill:#3c3c3c;}.cls-187{fill:#3b3b3b;}.cls-188{fill:#3a3a3a;}.cls-189{fill:#393939;}.cls-190{fill:#383838;}.cls-191{fill:#373737;}.cls-192{fill:#363636;}.cls-193{fill:#353535;}.cls-194{fill:#343434;}.cls-195{fill:#333;}.cls-196{fill:#323232;}.cls-197{fill:#313131;}.cls-198{fill:#303030;}.cls-199{fill:#2f2f2f;}.cls-200{fill:#2e2e2e;}.cls-201{fill:#2d2d2d;}.cls-202{fill:#2c2c2c;}.cls-203{fill:#2b2b2b;}.cls-204{fill:#2a2a2a;}.cls-205{fill:#292929;}.cls-206{fill:#282828;}.cls-207{fill:#272727;}.cls-208{fill:#262626;}.cls-209{fill:#252525;}.cls-210{fill:#242424;}.cls-211{fill:#232323;}.cls-212{fill:#222;}.cls-213{fill:#212121;}.cls-214{fill:#202020;}.cls-215{fill:#1f1f1f;}.cls-216{fill:#1e1e1e;}.cls-217{fill:#1d1d1d;}.cls-218{fill:#1c1c1c;}.cls-219{fill:#1b1b1b;}.cls-220{fill:#1a1a1a;}.cls-221{fill:#191919;}.cls-222{fill:#181818;}.cls-223{fill:#171717;}.cls-224{fill:#161616;}.cls-225{fill:#151515;}.cls-226{fill:#141414;}.cls-227{fill:#131313;}.cls-228{fill:#121212;}.cls-229{fill:#111;}.cls-230{fill:#101010;}.cls-231{fill:#0f0f0f;}.cls-232{fill:#0e0e0e;}.cls-233{fill:#0d0d0d;}.cls-234{fill:#0c0c0c;}.cls-235{fill:#0b0b0b;}.cls-236{fill:#0a0a0a;}.cls-237{fill:#090909;}.cls-238{fill:#080808;}.cls-239{fill:#070707;}.cls-240{fill:#060606;}.cls-241{fill:#050505;}.cls-242{fill:#040404;}.cls-243{fill:#030303;}.cls-244{fill:#020202;}.cls-245{fill:#010101;}.cls-246{clip-path:url(#clip-path);}.cls-247{fill:#eaa9c0;}.cls-248{fill:#21718f;}.cls-249{fill:#035e80;}.cls-250{fill:#e87950;}.cls-251{fill:#e85f5b;}.cls-252{fill:#efbf7f;}.cls-253{fill:url(#linear-gradient);}.cls-254,.cls-260,.cls-269,.cls-270,.cls-271{opacity:0.72;}.cls-255{fill:#b57c3c;}.cls-256{fill:#fff;}.cls-257{fill:#cbc7ff;opacity:0.7;}.cls-258{clip-path:url(#clip-path-2);}.cls-259{fill:#184657;}.cls-260{fill:url(#linear-gradient-2);}.cls-261{fill:#de4e31;}.cls-262{fill:#46acc3;}.cls-263{fill:#fffef1;}.cls-264{fill:#fcc14a;}.cls-265{clip-path:url(#clip-path-3);}.cls-266{fill:#0a242b;}.cls-267{fill:#7f583b;}.cls-268{fill:#996d4b;}.cls-269{fill:url(#linear-gradient-3);}.cls-270{fill:url(#linear-gradient-4);}.cls-271{fill:url(#linear-gradient-5);}.cls-272{fill:#6d4021;}</style><clipPath id="clip-path"><circle class="cls-1" cx="229.28" cy="533.2" r="229.28" transform="translate(-309.87 318.3) rotate(-45)"/></clipPath><linearGradient id="linear-gradient" x1="222.18" y1="562.01" x2="221.51" y2="639.54" gradientUnits="userSpaceOnUse"><stop offset="0" stop-color="#f5d0ba"/><stop offset="1" stop-color="#fff"/></linearGradient><clipPath id="clip-path-2"><circle class="cls-1" cx="553.4" cy="532.43" r="229.28" transform="translate(-214.4 547.26) rotate(-45)"/></clipPath><linearGradient id="linear-gradient-2" x1="542.11" y1="556.27" x2="534.02" y2="647.28" xlink:href="#linear-gradient"/><clipPath id="clip-path-3"><circle class="cls-1" cx="875.95" cy="532.43" r="229.28" transform="translate(-119.93 775.34) rotate(-45)"/></clipPath><linearGradient id="linear-gradient-3" x1="876.03" y1="546.2" x2="877.83" y2="615.41" xlink:href="#linear-gradient"/><linearGradient id="linear-gradient-4" x1="1009.9" y1="921.63" x2="1009.23" y2="811.07" xlink:href="#linear-gradient"/><linearGradient id="linear-gradient-5" x1="710.41" y1="923.45" x2="709.73" y2="812.9" xlink:href="#linear-gradient"/></defs><title>usersArtboard 2</title><g class="cls-2"><g id="Layer_1" data-name="Layer 1"><g class="cls-3"><circle class="cls-4" cx="239.28" cy="552.09" r="229.66" transform="translate(-320.3 330.9) rotate(-45)"/><circle class="cls-5" cx="239.22" cy="552.03" r="229.6" transform="translate(-320.28 330.84) rotate(-45)"/><circle class="cls-6" cx="239.16" cy="551.97" r="229.54" transform="translate(-320.25 330.78) rotate(-45)"/><circle class="cls-7" cx="239.1" cy="551.91" r="229.48" transform="translate(-320.23 330.72) rotate(-45)"/><circle class="cls-8" cx="239.04" cy="551.85" r="229.42" transform="translate(-320.2 330.66) rotate(-45)"/><circle class="cls-9" cx="238.98" cy="551.79" r="229.36" transform="translate(-320.18 330.6) rotate(-45)"/><circle class="cls-10" cx="238.92" cy="551.73" r="229.3" transform="translate(-320.15 330.54) rotate(-45)"/><circle class="cls-11" cx="238.86" cy="551.67" r="229.24" transform="translate(-320.13 330.48) rotate(-45)"/><circle class="cls-12" cx="238.8" cy="551.61" r="229.18" transform="translate(-320.1 330.42) rotate(-45)"/><circle class="cls-13" cx="238.74" cy="551.55" r="229.12" transform="translate(-320.08 330.36) rotate(-45)"/><circle class="cls-14" cx="238.68" cy="551.49" r="229.06" transform="translate(-320.05 330.3) rotate(-45)"/><circle class="cls-15" cx="238.62" cy="551.43" r="229" transform="translate(-320.03 330.24) rotate(-45)"/><circle class="cls-16" cx="238.56" cy="551.37" r="228.94" transform="translate(-320 330.18) rotate(-45)"/><circle class="cls-17" cx="238.5" cy="551.31" r="228.88" transform="translate(-319.98 330.12) rotate(-45)"/><circle class="cls-18" cx="238.44" cy="551.25" r="228.82" transform="translate(-319.95 330.06) rotate(-45)"/><circle class="cls-19" cx="238.38" cy="551.19" r="228.76" transform="translate(-319.93 330) rotate(-45)"/><circle class="cls-20" cx="238.32" cy="551.13" r="228.7" transform="translate(-319.9 329.94) rotate(-45)"/><circle class="cls-21" cx="238.26" cy="551.07" r="228.64" transform="translate(-319.88 329.88) rotate(-45)"/><circle class="cls-22" cx="238.2" cy="551.01" r="228.58" transform="translate(-319.85 329.82) rotate(-45)"/><circle class="cls-23" cx="238.14" cy="550.95" r="228.52" transform="translate(-319.83 329.76) rotate(-45)"/><circle class="cls-24" cx="238.08" cy="550.89" r="228.46" transform="translate(-319.8 329.7) rotate(-45)"/><circle class="cls-25" cx="238.02" cy="550.83" r="228.4" transform="translate(-319.78 329.64) rotate(-45)"/><circle class="cls-26" cx="237.96" cy="550.77" r="228.34" transform="translate(-319.75 329.58) rotate(-45)"/><circle class="cls-27" cx="237.9" cy="550.71" r="228.28" transform="translate(-319.73 329.52) rotate(-45)"/><circle class="cls-28" cx="237.84" cy="550.65" r="228.22" transform="translate(-319.7 329.46) rotate(-45)"/><circle class="cls-29" cx="237.78" cy="550.59" r="228.16" transform="translate(-319.68 329.4) rotate(-45)"/><circle class="cls-30" cx="237.72" cy="550.53" r="228.1" transform="translate(-319.65 329.34) rotate(-45)"/><circle class="cls-31" cx="237.66" cy="550.47" r="228.04" transform="translate(-319.63 329.28) rotate(-45)"/><circle class="cls-32" cx="237.6" cy="550.41" r="227.98" transform="translate(-319.61 329.22) rotate(-45)"/><circle class="cls-33" cx="237.54" cy="550.35" r="227.92" transform="translate(-319.58 329.16) rotate(-45)"/><circle class="cls-34" cx="237.48" cy="550.29" r="227.86" transform="translate(-319.56 329.1) rotate(-45)"/><circle class="cls-35" cx="237.42" cy="550.23" r="227.8" transform="translate(-319.53 329.04) rotate(-45)"/><circle class="cls-36" cx="237.36" cy="550.17" r="227.74" transform="translate(-319.51 328.98) rotate(-45)"/><circle class="cls-37" cx="237.3" cy="550.11" r="227.68" transform="translate(-319.48 328.92) rotate(-45)"/><circle class="cls-38" cx="237.24" cy="550.05" r="227.62" transform="translate(-319.46 328.86) rotate(-45)"/><circle class="cls-39" cx="237.18" cy="549.99" r="227.56" transform="translate(-319.43 328.8) rotate(-45)"/><circle class="cls-40" cx="237.12" cy="549.93" r="227.5" transform="translate(-319.41 328.74) rotate(-45)"/><circle class="cls-41" cx="237.06" cy="549.87" r="227.44" transform="translate(-319.38 328.68) rotate(-45)"/><circle class="cls-42" cx="237" cy="549.81" r="227.38" transform="translate(-319.36 328.62) rotate(-45)"/><circle class="cls-43" cx="236.94" cy="549.75" r="227.32" transform="translate(-319.33 328.56) rotate(-45)"/><circle class="cls-44" cx="236.88" cy="549.69" r="227.26" transform="translate(-319.31 328.5) rotate(-45)"/><circle class="cls-45" cx="236.82" cy="549.63" r="227.2" transform="translate(-319.28 328.44) rotate(-45)"/><circle class="cls-46" cx="236.76" cy="549.57" r="227.14" transform="translate(-319.26 328.38) rotate(-45)"/><circle class="cls-47" cx="236.7" cy="549.51" r="227.08" transform="translate(-319.23 328.32) rotate(-45)"/><circle class="cls-48" cx="236.64" cy="549.45" r="227.02" transform="translate(-319.21 328.26) rotate(-45)"/><circle class="cls-49" cx="236.58" cy="549.39" r="226.96" transform="translate(-319.18 328.2) rotate(-45)"/><circle class="cls-50" cx="236.52" cy="549.33" r="226.9" transform="translate(-319.16 328.14) rotate(-45)"/><circle class="cls-51" cx="236.46" cy="549.27" r="226.84" transform="translate(-319.13 328.08) rotate(-45)"/><circle class="cls-52" cx="236.4" cy="549.21" r="226.78" transform="translate(-319.11 328.02) rotate(-45)"/><circle class="cls-53" cx="236.34" cy="549.15" r="226.72" transform="translate(-319.08 327.96) rotate(-45)"/><circle class="cls-54" cx="236.28" cy="549.09" r="226.66" transform="translate(-319.06 327.9) rotate(-45)"/><circle class="cls-55" cx="236.22" cy="549.03" r="226.6" transform="translate(-319.03 327.84) rotate(-45)"/><circle class="cls-56" cx="236.16" cy="548.97" r="226.54" transform="translate(-319.01 327.78) rotate(-45)"/><circle class="cls-57" cx="236.1" cy="548.91" r="226.48" transform="translate(-318.98 327.72) rotate(-45)"/><circle class="cls-58" cx="236.04" cy="548.85" r="226.42" transform="translate(-318.96 327.66) rotate(-45)"/><circle class="cls-59" cx="235.98" cy="548.79" r="226.36" transform="translate(-318.93 327.6) rotate(-45)"/><circle class="cls-60" cx="235.92" cy="548.73" r="226.3" transform="translate(-318.91 327.54) rotate(-45)"/><circle class="cls-61" cx="235.86" cy="548.67" r="226.24" transform="translate(-318.88 327.48) rotate(-45)"/><circle class="cls-62" cx="235.8" cy="548.61" r="226.18" transform="translate(-318.86 327.42) rotate(-45)"/><circle class="cls-63" cx="235.74" cy="548.55" r="226.12" transform="translate(-318.83 327.36) rotate(-45)"/><circle class="cls-64" cx="235.68" cy="548.49" r="226.06" transform="translate(-318.81 327.3) rotate(-45)"/><circle class="cls-65" cx="235.62" cy="548.43" r="226" transform="translate(-318.78 327.24) rotate(-45)"/><circle class="cls-66" cx="235.56" cy="548.37" r="225.94" transform="translate(-318.76 327.18) rotate(-45)"/><circle class="cls-67" cx="235.5" cy="548.31" r="225.88" transform="translate(-318.74 327.12) rotate(-45)"/><circle class="cls-68" cx="235.44" cy="548.25" r="225.82" transform="translate(-318.71 327.06) rotate(-45)"/><circle class="cls-69" cx="235.38" cy="548.19" r="225.76" transform="translate(-318.69 327) rotate(-45)"/><circle class="cls-70" cx="235.32" cy="548.13" r="225.7" transform="translate(-318.66 326.94) rotate(-45)"/><circle class="cls-71" cx="235.26" cy="548.07" r="225.64" transform="translate(-318.64 326.88) rotate(-45)"/><circle class="cls-72" cx="235.2" cy="548.01" r="225.58" transform="translate(-318.61 326.82) rotate(-45)"/><circle class="cls-73" cx="235.14" cy="547.95" r="225.52" transform="translate(-318.59 326.76) rotate(-45)"/><circle class="cls-74" cx="235.08" cy="547.89" r="225.46" transform="translate(-318.56 326.7) rotate(-45)"/><circle class="cls-75" cx="235.02" cy="547.83" r="225.4" transform="translate(-318.54 326.64) rotate(-45)"/><circle class="cls-76" cx="234.96" cy="547.77" r="225.34" transform="translate(-318.51 326.58) rotate(-45)"/><circle class="cls-77" cx="234.9" cy="547.71" r="225.28" transform="translate(-318.49 326.52) rotate(-45)"/><circle class="cls-78" cx="234.84" cy="547.65" r="225.22" transform="translate(-318.46 326.46) rotate(-45)"/><circle class="cls-79" cx="234.78" cy="547.59" r="225.16" transform="translate(-318.44 326.4) rotate(-45)"/><circle class="cls-80" cx="234.72" cy="547.53" r="225.1" transform="translate(-318.41 326.34) rotate(-45)"/><circle class="cls-81" cx="234.66" cy="547.47" r="225.04" transform="translate(-318.39 326.28) rotate(-45)"/><circle class="cls-82" cx="234.6" cy="547.41" r="224.98" transform="translate(-318.36 326.22) rotate(-45)"/><circle class="cls-83" cx="234.54" cy="547.35" r="224.92" transform="translate(-318.34 326.16) rotate(-45)"/><circle class="cls-84" cx="234.48" cy="547.29" r="224.86" transform="translate(-318.31 326.1) rotate(-45)"/><circle class="cls-85" cx="234.42" cy="547.23" r="224.8" transform="translate(-318.29 326.04) rotate(-45)"/><circle class="cls-86" cx="234.36" cy="547.17" r="224.74" transform="translate(-318.26 325.98) rotate(-45)"/><circle class="cls-87" cx="234.3" cy="547.11" r="224.68" transform="translate(-318.24 325.92) rotate(-45)"/><circle class="cls-88" cx="234.24" cy="547.05" r="224.62" transform="translate(-318.21 325.86) rotate(-45)"/><circle class="cls-89" cx="234.18" cy="546.99" r="224.56" transform="translate(-318.19 325.8) rotate(-45)"/><circle class="cls-90" cx="234.12" cy="546.93" r="224.5" transform="translate(-318.16 325.74) rotate(-45)"/><circle class="cls-91" cx="234.06" cy="546.87" r="224.44" transform="translate(-318.14 325.68) rotate(-45)"/><circle class="cls-92" cx="234" cy="546.81" r="224.38" transform="translate(-318.11 325.62) rotate(-45)"/><circle class="cls-93" cx="233.94" cy="546.75" r="224.32" transform="translate(-318.09 325.56) rotate(-45)"/><circle class="cls-94" cx="233.88" cy="546.69" r="224.26" transform="translate(-318.06 325.5) rotate(-45)"/><circle class="cls-95" cx="233.82" cy="546.63" r="224.2" transform="translate(-318.04 325.44) rotate(-45)"/><circle class="cls-96" cx="233.76" cy="546.57" r="224.14" transform="translate(-318.01 325.38) rotate(-45)"/><circle class="cls-97" cx="233.7" cy="546.51" r="224.08" transform="translate(-317.99 325.32) rotate(-45)"/><circle class="cls-98" cx="233.64" cy="546.45" r="224.02" transform="translate(-317.96 325.26) rotate(-45)"/><circle class="cls-99" cx="233.58" cy="546.39" r="223.96" transform="translate(-317.94 325.2) rotate(-45)"/><circle class="cls-100" cx="233.52" cy="546.33" r="223.9" transform="translate(-317.91 325.14) rotate(-45)"/><circle class="cls-101" cx="233.46" cy="546.27" r="223.84" transform="translate(-317.89 325.08) rotate(-45)"/><circle class="cls-102" cx="233.4" cy="546.21" r="223.78" transform="translate(-317.87 325.02) rotate(-45)"/><circle class="cls-103" cx="233.34" cy="546.15" r="223.72" transform="translate(-317.84 324.96) rotate(-45)"/><circle class="cls-104" cx="233.28" cy="546.09" r="223.66" transform="translate(-317.82 324.9) rotate(-45)"/><circle class="cls-105" cx="233.22" cy="546.03" r="223.6" transform="translate(-317.79 324.84) rotate(-45)"/><circle class="cls-106" cx="233.16" cy="545.97" r="223.54" transform="translate(-317.77 324.78) rotate(-45)"/><circle class="cls-107" cx="233.1" cy="545.91" r="223.48" transform="translate(-317.74 324.72) rotate(-45)"/><circle class="cls-108" cx="233.04" cy="545.85" r="223.42" transform="translate(-317.72 324.66) rotate(-45)"/><circle class="cls-109" cx="232.98" cy="545.79" r="223.36" transform="translate(-317.69 324.6) rotate(-45)"/><circle class="cls-110" cx="232.92" cy="545.73" r="223.3" transform="translate(-317.67 324.54) rotate(-45)"/><circle class="cls-111" cx="232.86" cy="545.67" r="223.24" transform="translate(-317.64 324.48) rotate(-45)"/><circle class="cls-112" cx="232.8" cy="545.61" r="223.18" transform="translate(-317.62 324.42) rotate(-45)"/><circle class="cls-113" cx="232.74" cy="545.55" r="223.12" transform="translate(-317.59 324.36) rotate(-45)"/><circle class="cls-114" cx="232.68" cy="545.49" r="223.06" transform="translate(-317.57 324.3) rotate(-45)"/><circle class="cls-115" cx="232.62" cy="545.43" r="223" transform="translate(-317.54 324.24) rotate(-45)"/><circle class="cls-116" cx="232.56" cy="545.37" r="222.94" transform="translate(-317.52 324.18) rotate(-45)"/><circle class="cls-117" cx="232.5" cy="545.31" r="222.88" transform="translate(-317.49 324.12) rotate(-45)"/><circle class="cls-118" cx="232.44" cy="545.25" r="222.82" transform="translate(-317.47 324.06) rotate(-45)"/><circle class="cls-119" cx="232.38" cy="545.19" r="222.76" transform="translate(-317.44 324) rotate(-45)"/><circle class="cls-120" cx="232.32" cy="545.13" r="222.7" transform="translate(-317.42 323.94) rotate(-45)"/><circle class="cls-121" cx="232.26" cy="545.07" r="222.64" transform="translate(-317.39 323.88) rotate(-45)"/><circle class="cls-122" cx="232.2" cy="545.01" r="222.58" transform="translate(-317.37 323.82) rotate(-45)"/><circle class="cls-123" cx="232.14" cy="544.95" r="222.52" transform="translate(-317.34 323.76) rotate(-45)"/><circle class="cls-124" cx="232.08" cy="544.89" r="222.46" transform="translate(-317.32 323.7) rotate(-45)"/><circle class="cls-125" cx="232.02" cy="544.83" r="222.4" transform="translate(-317.29 323.64) rotate(-45)"/><circle class="cls-126" cx="231.96" cy="544.77" r="222.34" transform="translate(-317.27 323.58) rotate(-45)"/><circle class="cls-127" cx="231.9" cy="544.71" r="222.28" transform="translate(-317.24 323.52) rotate(-45)"/><circle class="cls-128" cx="231.84" cy="544.65" r="222.22" transform="translate(-317.22 323.46) rotate(-45)"/><circle class="cls-129" cx="231.78" cy="544.59" r="222.16" transform="translate(-317.19 323.4) rotate(-45)"/><circle class="cls-130" cx="231.72" cy="544.53" r="222.1" transform="translate(-317.17 323.34) rotate(-45)"/><circle class="cls-131" cx="231.66" cy="544.47" r="222.04" transform="translate(-317.14 323.28) rotate(-45)"/><circle class="cls-132" cx="231.6" cy="544.41" r="221.98" transform="translate(-317.12 323.22) rotate(-45)"/><circle class="cls-133" cx="231.54" cy="544.35" r="221.92" transform="translate(-317.09 323.16) rotate(-45)"/><circle class="cls-134" cx="231.48" cy="544.29" r="221.86" transform="translate(-317.07 323.1) rotate(-45)"/><circle class="cls-135" cx="231.42" cy="544.23" r="221.8" transform="translate(-317.04 323.04) rotate(-45)"/><circle class="cls-136" cx="231.36" cy="544.17" r="221.74" transform="translate(-317.02 322.98) rotate(-45)"/><circle class="cls-137" cx="231.3" cy="544.11" r="221.68" transform="translate(-317 322.92) rotate(-45)"/><circle class="cls-138" cx="231.24" cy="544.05" r="221.62" transform="translate(-316.97 322.86) rotate(-45)"/><circle class="cls-139" cx="231.18" cy="543.99" r="221.56" transform="translate(-316.95 322.8) rotate(-45)"/><circle class="cls-140" cx="231.12" cy="543.93" r="221.5" transform="translate(-316.92 322.74) rotate(-45)"/><circle class="cls-141" cx="231.06" cy="543.87" r="221.44" transform="translate(-316.9 322.68) rotate(-45)"/><circle class="cls-142" cx="231" cy="543.81" r="221.38" transform="translate(-316.87 322.62) rotate(-45)"/><circle class="cls-143" cx="230.94" cy="543.75" r="221.32" transform="translate(-316.85 322.56) rotate(-45)"/><circle class="cls-144" cx="230.88" cy="543.69" r="221.26" transform="translate(-316.82 322.5) rotate(-45)"/><circle class="cls-145" cx="230.82" cy="543.63" r="221.2" transform="translate(-316.8 322.44) rotate(-45)"/><circle class="cls-146" cx="230.76" cy="543.57" r="221.14" transform="translate(-316.77 322.38) rotate(-45)"/><circle class="cls-147" cx="230.7" cy="543.51" r="221.08" transform="translate(-316.75 322.32) rotate(-45)"/><circle class="cls-148" cx="230.64" cy="543.45" r="221.02" transform="translate(-316.72 322.26) rotate(-45)"/><circle class="cls-149" cx="230.58" cy="543.39" r="220.96" transform="translate(-316.7 322.2) rotate(-45)"/><circle class="cls-150" cx="230.52" cy="543.33" r="220.9" transform="translate(-316.67 322.14) rotate(-45)"/><circle class="cls-151" cx="230.46" cy="543.27" r="220.84" transform="translate(-316.65 322.08) rotate(-45)"/><circle class="cls-152" cx="230.4" cy="543.21" r="220.78" transform="translate(-316.62 322.02) rotate(-45)"/><circle class="cls-153" cx="230.34" cy="543.15" r="220.72" transform="translate(-316.6 321.96) rotate(-45)"/><circle class="cls-154" cx="230.28" cy="543.09" r="220.66" transform="translate(-316.57 321.9) rotate(-45)"/><circle class="cls-155" cx="230.22" cy="543.03" r="220.6" transform="translate(-316.55 321.84) rotate(-45)"/><circle class="cls-156" cx="230.16" cy="542.97" r="220.54" transform="translate(-316.52 321.78) rotate(-45)"/><circle class="cls-157" cx="230.1" cy="542.91" r="220.48" transform="translate(-316.5 321.72) rotate(-45)"/><circle class="cls-158" cx="230.04" cy="542.85" r="220.42" transform="translate(-316.47 321.66) rotate(-45)"/><circle class="cls-159" cx="229.98" cy="542.79" r="220.36" transform="translate(-316.45 321.6) rotate(-45)"/><circle class="cls-160" cx="229.92" cy="542.73" r="220.3" transform="translate(-316.42 321.54) rotate(-45)"/><circle class="cls-161" cx="229.86" cy="542.67" r="220.24" transform="translate(-316.4 321.48) rotate(-45)"/><circle class="cls-162" cx="229.8" cy="542.61" r="220.18" transform="translate(-316.37 321.42) rotate(-45)"/><circle class="cls-163" cx="229.74" cy="542.55" r="220.12" transform="translate(-316.35 321.36) rotate(-45)"/><circle class="cls-164" cx="229.68" cy="542.49" r="220.06" transform="translate(-316.32 321.3) rotate(-45)"/><circle class="cls-165" cx="229.62" cy="542.43" r="220" transform="translate(-316.3 321.24) rotate(-45)"/><circle class="cls-166" cx="229.56" cy="542.37" r="219.94" transform="translate(-316.27 321.18) rotate(-45)"/><circle class="cls-167" cx="229.5" cy="542.31" r="219.88" transform="translate(-316.25 321.12) rotate(-45)"/><circle class="cls-168" cx="229.44" cy="542.25" r="219.82" transform="translate(-316.22 321.06) rotate(-45)"/><circle class="cls-169" cx="229.38" cy="542.19" r="219.76" transform="translate(-316.2 321) rotate(-45)"/><circle class="cls-170" cx="229.32" cy="542.13" r="219.7" transform="translate(-316.17 320.94) rotate(-45)"/><circle class="cls-171" cx="229.26" cy="542.07" r="219.64" transform="translate(-316.15 320.88) rotate(-45)"/><circle class="cls-172" cx="229.2" cy="542.01" r="219.58" transform="translate(-316.13 320.82) rotate(-45)"/><circle class="cls-173" cx="229.14" cy="541.95" r="219.52" transform="translate(-316.1 320.76) rotate(-45)"/><circle class="cls-174" cx="229.08" cy="541.89" r="219.46" transform="translate(-316.08 320.7) rotate(-45)"/><circle class="cls-175" cx="229.02" cy="541.83" r="219.4" transform="translate(-316.05 320.64) rotate(-45)"/><circle class="cls-176" cx="228.96" cy="541.77" r="219.34" transform="translate(-316.03 320.58) rotate(-45)"/><circle class="cls-177" cx="228.9" cy="541.71" r="219.28" transform="translate(-316 320.52) rotate(-45)"/><circle class="cls-178" cx="228.84" cy="541.65" r="219.22" transform="translate(-315.98 320.46) rotate(-45)"/><circle class="cls-179" cx="228.78" cy="541.59" r="219.16" transform="translate(-315.95 320.4) rotate(-45)"/><circle class="cls-180" cx="228.72" cy="541.53" r="219.1" transform="translate(-315.93 320.34) rotate(-45)"/><circle class="cls-181" cx="228.66" cy="541.47" r="219.04" transform="translate(-315.9 320.28) rotate(-45)"/><circle class="cls-182" cx="228.6" cy="541.41" r="218.98" transform="translate(-315.88 320.22) rotate(-45)"/><circle class="cls-183" cx="228.54" cy="541.35" r="218.92" transform="translate(-315.85 320.16) rotate(-45)"/><circle class="cls-184" cx="228.48" cy="541.29" r="218.86" transform="translate(-315.83 320.1) rotate(-45)"/><circle class="cls-185" cx="228.42" cy="541.23" r="218.8" transform="translate(-315.8 320.04) rotate(-45)"/><circle class="cls-186" cx="228.36" cy="541.17" r="218.74" transform="translate(-315.78 319.98) rotate(-45)"/><circle class="cls-187" cx="228.3" cy="541.11" r="218.68" transform="translate(-315.75 319.92) rotate(-45)"/><circle class="cls-188" cx="228.24" cy="541.05" r="218.62" transform="translate(-315.73 319.86) rotate(-45)"/><circle class="cls-189" cx="228.18" cy="540.99" r="218.56" transform="translate(-315.7 319.8) rotate(-45)"/><circle class="cls-190" cx="228.12" cy="540.93" r="218.5" transform="translate(-315.68 319.74) rotate(-45)"/><circle class="cls-191" cx="228.06" cy="540.87" r="218.44" transform="translate(-315.65 319.68) rotate(-45)"/><circle class="cls-192" cx="228" cy="540.81" r="218.38" transform="translate(-315.63 319.62) rotate(-45)"/><circle class="cls-193" cx="227.94" cy="540.75" r="218.32" transform="translate(-315.6 319.56) rotate(-45)"/><circle class="cls-194" cx="227.88" cy="540.69" r="218.26" transform="translate(-315.58 319.5) rotate(-45)"/><circle class="cls-195" cx="227.82" cy="540.63" r="218.2" transform="translate(-315.55 319.44) rotate(-45)"/><circle class="cls-196" cx="227.76" cy="540.57" r="218.14" transform="translate(-315.53 319.38) rotate(-45)"/><circle class="cls-197" cx="227.7" cy="540.51" r="218.08" transform="translate(-315.5 319.32) rotate(-45)"/><circle class="cls-198" cx="227.64" cy="540.45" r="218.02" transform="translate(-315.48 319.26) rotate(-45)"/><circle class="cls-199" cx="227.58" cy="540.39" r="217.96" transform="translate(-315.45 319.2) rotate(-45)"/><circle class="cls-200" cx="227.52" cy="540.33" r="217.9" transform="translate(-315.43 319.14) rotate(-45)"/><circle class="cls-201" cx="227.46" cy="540.27" r="217.84" transform="translate(-315.4 319.08) rotate(-45)"/><circle class="cls-202" cx="227.4" cy="540.21" r="217.78" transform="translate(-315.38 319.02) rotate(-45)"/><circle class="cls-203" cx="227.34" cy="540.15" r="217.72" transform="translate(-315.35 318.96) rotate(-45)"/><circle class="cls-204" cx="227.28" cy="540.08" r="217.66" transform="translate(-315.33 318.9) rotate(-45)"/><circle class="cls-205" cx="227.22" cy="540.02" r="217.6" transform="translate(-315.3 318.84) rotate(-45)"/><circle class="cls-206" cx="227.16" cy="539.96" r="217.54" transform="translate(-315.28 318.78) rotate(-45)"/><circle class="cls-207" cx="227.1" cy="539.9" r="217.48" transform="translate(-315.26 318.72) rotate(-45)"/><circle class="cls-208" cx="227.04" cy="539.84" r="217.42" transform="translate(-315.23 318.66) rotate(-45)"/><circle class="cls-209" cx="226.98" cy="539.78" r="217.36" transform="translate(-315.21 318.6) rotate(-45)"/><circle class="cls-210" cx="226.92" cy="539.72" r="217.3" transform="translate(-315.18 318.54) rotate(-45)"/><circle class="cls-211" cx="226.86" cy="539.66" r="217.24" transform="translate(-315.16 318.48) rotate(-45)"/><circle class="cls-212" cx="226.8" cy="539.6" r="217.18" transform="translate(-315.13 318.42) rotate(-45)"/><circle class="cls-213" cx="226.74" cy="539.54" r="217.12" transform="translate(-315.11 318.36) rotate(-45)"/><circle class="cls-214" cx="226.68" cy="539.48" r="217.06" transform="translate(-315.08 318.3) rotate(-45)"/><circle class="cls-215" cx="226.62" cy="539.42" r="217" transform="translate(-315.06 318.24) rotate(-45)"/><circle class="cls-216" cx="226.56" cy="539.36" r="216.94" transform="translate(-315.03 318.18) rotate(-45)"/><circle class="cls-217" cx="226.5" cy="539.3" r="216.88" transform="translate(-315.01 318.12) rotate(-45)"/><circle class="cls-218" cx="226.44" cy="539.24" r="216.82" transform="translate(-314.98 318.06) rotate(-45)"/><circle class="cls-219" cx="226.38" cy="539.18" r="216.76" transform="translate(-314.96 318) rotate(-45)"/><circle class="cls-220" cx="226.32" cy="539.12" r="216.7" transform="translate(-314.93 317.94) rotate(-45)"/><circle class="cls-221" cx="226.26" cy="539.06" r="216.64" transform="translate(-314.91 317.88) rotate(-45)"/><circle class="cls-222" cx="226.2" cy="539" r="216.58" transform="translate(-314.88 317.82) rotate(-45)"/><circle class="cls-223" cx="226.14" cy="538.94" r="216.52" transform="translate(-314.86 317.76) rotate(-45)"/><circle class="cls-224" cx="226.08" cy="538.88" r="216.46" transform="translate(-314.83 317.7) rotate(-45)"/><circle class="cls-225" cx="226.02" cy="538.82" r="216.4" transform="translate(-314.81 317.64) rotate(-45)"/><circle class="cls-226" cx="225.96" cy="538.76" r="216.34" transform="translate(-314.78 317.58) rotate(-45)"/><circle class="cls-227" cx="225.9" cy="538.7" r="216.28" transform="translate(-314.76 317.52) rotate(-45)"/><circle class="cls-228" cx="225.84" cy="538.64" r="216.22" transform="translate(-314.73 317.46) rotate(-45)"/><circle class="cls-229" cx="225.78" cy="538.58" r="216.16" transform="translate(-314.71 317.4) rotate(-45)"/><circle class="cls-230" cx="225.72" cy="538.52" r="216.1" transform="translate(-314.68 317.34) rotate(-45)"/><circle class="cls-231" cx="225.66" cy="538.46" r="216.04" transform="translate(-314.66 317.28) rotate(-45)"/><circle class="cls-232" cx="225.6" cy="538.4" r="215.98" transform="translate(-314.63 317.22) rotate(-45)"/><circle class="cls-233" cx="225.54" cy="538.34" r="215.92" transform="translate(-314.61 317.16) rotate(-45)"/><circle class="cls-234" cx="225.48" cy="538.28" r="215.86" transform="translate(-314.58 317.1) rotate(-45)"/><circle class="cls-235" cx="225.42" cy="538.22" r="215.8" transform="translate(-314.56 317.04) rotate(-45)"/><circle class="cls-236" cx="225.36" cy="538.16" r="215.74" transform="translate(-314.53 316.98) rotate(-45)"/><circle class="cls-237" cx="225.3" cy="538.1" r="215.68" transform="translate(-314.51 316.92) rotate(-45)"/><circle class="cls-238" cx="225.24" cy="538.04" r="215.62" transform="translate(-314.48 316.86) rotate(-45)"/><circle class="cls-239" cx="225.18" cy="537.98" r="215.56" transform="translate(-314.46 316.8) rotate(-45)"/><circle class="cls-240" cx="225.12" cy="537.92" r="215.5" transform="translate(-314.43 316.74) rotate(-45)"/><circle class="cls-241" cx="225.06" cy="537.86" r="215.44" transform="translate(-314.41 316.68) rotate(-45)"/><circle class="cls-242" cx="225" cy="537.8" r="215.38" transform="translate(-314.39 316.62) rotate(-45)"/><circle class="cls-243" cx="224.94" cy="537.74" r="215.32" transform="translate(-314.36 316.56) rotate(-45)"/><circle class="cls-244" cx="224.88" cy="537.68" r="215.26" transform="translate(-314.34 316.5) rotate(-45)"/><circle class="cls-245" cx="224.82" cy="537.62" r="215.2" transform="translate(-314.31 316.44) rotate(-45)"/><circle cx="224.76" cy="537.56" r="215.14" transform="translate(-314.29 316.38) rotate(-45)"/></g><g class="cls-246"><rect class="cls-247" x="-128.08" y="165.06" width="663.76" height="683.78"/><path class="cls-248" d="M91.61,750.77c5.39,44,6.29,159.1-2.7,210.33s-16.18,105.17-16.18,105.17,64.72-4.5,124.05,7.19,113.25-.9,113.25-.9L330.7,738.19Z"/><path class="cls-249" d="M201,400.22s-19.55-6.74-36.4,22.92-31,116-33,161.79,4.72,88.31,4.72,88.31l147-43.81s22.25-224.49-17.53-229.21S201,400.22,201,400.22Z"/><path class="cls-250" d="M164,628.08c-35.51,17.53-66.07,13-89.44,38.2s-40.45,77.3-44.94,158.2-13.71,138.87-3.82,200c8.7,53.8,28.54,87.64,28.54,87.64l42.24-32.36S79,1039.3,78.35,979.3C77.7,921.72,88,884.7,90.71,843.35s7.19-79.1,7.19-79.1l224.71-16.18s-18,132.13-18.87,191.46-9,142-9,142l44.94,25.16s30.56-94.38,31.46-144.71-3.59-97.08,3.6-138.42,25.16-134.83-7.19-167.19-66.07-17.08-88.32-28.31S164,628.08,164,628.08Z"/><path class="cls-251" d="M367.56,656.39c-32.36-32.36-66.07-17.08-88.32-28.31s-115.27,0-115.27,0c-35.51,17.53-66.07,13-89.44,38.2-15.28,16.46-27.88,44.47-36,84.5,15.19,5.36,33,13.43,43.21,14.82,6.82.93,12,1.86,15.73,2.59l.45-3.94,224.71-16.18a93.59,93.59,0,0,1,47-10.11A74.77,74.77,0,0,0,386,736.9C387.35,704.21,383.78,672.62,367.56,656.39Z"/><path class="cls-252" d="M188.91,555.27c1.35,23.6-4,54.61-24.94,72.81,0,0,23.59,14.15,53.25,14.15s62-14.15,62-14.15-16.17-28.32-19.55-58.65-4.71-18.2-4.71-18.2Z"/><path class="cls-253" d="M188.91,555.27c1.35,23.6-4,54.61-24.94,72.81,0,0,23.59,14.15,53.25,14.15s62-14.15,62-14.15-16.17-28.32-19.55-58.65-4.71-18.2-4.71-18.2Z"/><path class="cls-252" d="M168,490.55c.78,47.19,20.9,82.92,52.58,81.57s51.9-31.68,58-72.13c6.74-44.83-8.76-88.31-51.23-88.31C179.47,411.68,167.34,449.43,168,490.55Z"/><path class="cls-249" d="M290,397.52c20.22,20.23,41.8,82.92,39.77,151s-27,134.83-51.23,136.17S263.07,589.65,267.78,558s12.81-78.2,4.72-110.56-25.61-35.06-25.61-35.06Z"/><path class="cls-249" d="M184.24,405c1.08-16.62,28.84-26.06,57-28.3s57.68,4.47,56.24,21.59S280.86,428,246.25,431,182.8,427.29,184.24,405Z"/><path class="cls-254" d="M242,483.64a3.83,3.83,0,1,0,4.45-3.1A3.82,3.82,0,0,0,242,483.64Z"/><path class="cls-254" d="M180.76,482.13a3.83,3.83,0,1,0,4.44-3.1A3.82,3.82,0,0,0,180.76,482.13Z"/><path class="cls-255" d="M215.22,484.4l-13.1,21a4,4,0,0,0,3,6l13.29,1.31Z"/><path class="cls-256" d="M199.14,527.19c0,4.7,5.67,8.54,12.71,8.58s12.79-3.74,12.81-8.44-5.29,0-12.33-.07S199.16,522.49,199.14,527.19Z"/><path class="cls-257" d="M235.12,505.64a12.36,12.36,0,1,0,14.34-10A12.36,12.36,0,0,0,235.12,505.64Z"/><path class="cls-257" d="M175.66,492.38a12.36,12.36,0,1,1-4.35,24.33c-.14,0-.26-.09-.4-.12a178.15,178.15,0,0,1-2.44-23.35A12.24,12.24,0,0,1,175.66,492.38Z"/></g><g class="cls-3"><circle class="cls-4" cx="561.83" cy="552.85" r="229.66" transform="translate(-226.37 559.2) rotate(-45)"/><circle class="cls-5" cx="561.77" cy="552.79" r="229.6" transform="translate(-226.34 559.14) rotate(-45)"/><circle class="cls-6" cx="561.71" cy="552.73" r="229.54" transform="translate(-226.32 559.08) rotate(-45)"/><circle class="cls-7" cx="561.65" cy="552.67" r="229.48" transform="translate(-226.29 559.02) rotate(-45)"/><circle class="cls-8" cx="561.59" cy="552.61" r="229.42" transform="translate(-226.27 558.96) rotate(-45)"/><circle class="cls-9" cx="561.53" cy="552.55" r="229.36" transform="translate(-226.25 558.9) rotate(-45)"/><circle class="cls-10" cx="561.47" cy="552.49" r="229.3" transform="translate(-226.22 558.84) rotate(-45)"/><circle class="cls-11" cx="561.41" cy="552.43" r="229.24" transform="translate(-226.2 558.78) rotate(-45)"/><circle class="cls-12" cx="561.35" cy="552.37" r="229.18" transform="translate(-226.17 558.72) rotate(-45)"/><circle class="cls-13" cx="561.29" cy="552.31" r="229.12" transform="translate(-226.15 558.66) rotate(-45)"/><circle class="cls-14" cx="561.23" cy="552.25" r="229.06" transform="translate(-226.12 558.6) rotate(-45)"/><circle class="cls-15" cx="561.17" cy="552.19" r="229" transform="translate(-226.1 558.54) rotate(-45)"/><circle class="cls-16" cx="561.11" cy="552.13" r="228.94" transform="translate(-226.07 558.48) rotate(-45)"/><circle class="cls-17" cx="561.05" cy="552.07" r="228.88" transform="translate(-226.05 558.42) rotate(-45)"/><circle class="cls-18" cx="560.99" cy="552.01" r="228.82" transform="translate(-226.02 558.36) rotate(-45)"/><circle class="cls-19" cx="560.93" cy="551.95" r="228.76" transform="translate(-226 558.3) rotate(-45)"/><circle class="cls-20" cx="560.87" cy="551.89" r="228.7" transform="translate(-225.97 558.24) rotate(-45)"/><circle class="cls-21" cx="560.81" cy="551.83" r="228.64" transform="translate(-225.95 558.18) rotate(-45)"/><circle class="cls-22" cx="560.75" cy="551.77" r="228.58" transform="translate(-225.92 558.12) rotate(-45)"/><circle class="cls-23" cx="560.69" cy="551.71" r="228.52" transform="translate(-225.9 558.06) rotate(-45)"/><circle class="cls-24" cx="560.63" cy="551.65" r="228.46" transform="translate(-225.87 558) rotate(-45)"/><circle class="cls-25" cx="560.57" cy="551.59" r="228.4" transform="translate(-225.85 557.94) rotate(-45)"/><circle class="cls-26" cx="560.51" cy="551.53" r="228.34" transform="translate(-225.82 557.88) rotate(-45)"/><circle class="cls-27" cx="560.45" cy="551.47" r="228.28" transform="translate(-225.8 557.82) rotate(-45)"/><circle class="cls-28" cx="560.39" cy="551.41" r="228.22" transform="translate(-225.77 557.76) rotate(-45)"/><circle class="cls-29" cx="560.33" cy="551.35" r="228.16" transform="translate(-225.75 557.7) rotate(-45)"/><circle class="cls-30" cx="560.27" cy="551.29" r="228.1" transform="translate(-225.72 557.64) rotate(-45)"/><circle class="cls-31" cx="560.21" cy="551.23" r="228.04" transform="translate(-225.7 557.58) rotate(-45)"/><circle class="cls-32" cx="560.15" cy="551.17" r="227.98" transform="translate(-225.67 557.52) rotate(-45)"/><circle class="cls-33" cx="560.09" cy="551.11" r="227.92" transform="translate(-225.65 557.46) rotate(-45)"/><circle class="cls-34" cx="560.03" cy="551.05" r="227.86" transform="translate(-225.62 557.4) rotate(-45)"/><circle class="cls-35" cx="559.97" cy="550.99" r="227.8" transform="translate(-225.6 557.34) rotate(-45)"/><circle class="cls-36" cx="559.91" cy="550.93" r="227.74" transform="translate(-225.57 557.28) rotate(-45)"/><circle class="cls-37" cx="559.85" cy="550.87" r="227.68" transform="translate(-225.55 557.22) rotate(-45)"/><circle class="cls-38" cx="559.79" cy="550.81" r="227.62" transform="translate(-225.52 557.16) rotate(-45)"/><circle class="cls-39" cx="559.73" cy="550.75" r="227.56" transform="translate(-225.5 557.1) rotate(-45)"/><circle class="cls-40" cx="559.67" cy="550.69" r="227.5" transform="translate(-225.47 557.04) rotate(-45)"/><circle class="cls-41" cx="559.61" cy="550.63" r="227.44" transform="translate(-225.45 556.98) rotate(-45)"/><circle class="cls-42" cx="559.55" cy="550.57" r="227.38" transform="translate(-225.42 556.92) rotate(-45)"/><circle class="cls-43" cx="559.49" cy="550.51" r="227.32" transform="translate(-225.4 556.86) rotate(-45)"/><circle class="cls-44" cx="559.43" cy="550.45" r="227.26" transform="translate(-225.38 556.8) rotate(-45)"/><circle class="cls-45" cx="559.37" cy="550.39" r="227.2" transform="translate(-225.35 556.74) rotate(-45)"/><circle class="cls-46" cx="559.31" cy="550.33" r="227.14" transform="translate(-225.33 556.68) rotate(-45)"/><circle class="cls-47" cx="559.25" cy="550.27" r="227.08" transform="translate(-225.3 556.62) rotate(-45)"/><circle class="cls-48" cx="559.19" cy="550.21" r="227.02" transform="translate(-225.28 556.56) rotate(-45)"/><circle class="cls-49" cx="559.13" cy="550.15" r="226.96" transform="translate(-225.25 556.5) rotate(-45)"/><circle class="cls-50" cx="559.07" cy="550.09" r="226.9" transform="translate(-225.23 556.44) rotate(-45)"/><circle class="cls-51" cx="559.01" cy="550.03" r="226.84" transform="translate(-225.2 556.38) rotate(-45)"/><circle class="cls-52" cx="558.95" cy="549.97" r="226.78" transform="translate(-225.18 556.32) rotate(-45)"/><circle class="cls-53" cx="558.89" cy="549.91" r="226.72" transform="translate(-225.15 556.26) rotate(-45)"/><circle class="cls-54" cx="558.83" cy="549.85" r="226.66" transform="translate(-225.13 556.2) rotate(-45)"/><circle class="cls-55" cx="558.77" cy="549.79" r="226.6" transform="translate(-225.1 556.14) rotate(-45)"/><circle class="cls-56" cx="558.71" cy="549.73" r="226.54" transform="translate(-225.08 556.08) rotate(-45)"/><circle class="cls-57" cx="558.65" cy="549.67" r="226.48" transform="translate(-225.05 556.02) rotate(-45)"/><circle class="cls-58" cx="558.59" cy="549.61" r="226.42" transform="translate(-225.03 555.96) rotate(-45)"/><circle class="cls-59" cx="558.53" cy="549.55" r="226.36" transform="translate(-225 555.9) rotate(-45)"/><circle class="cls-60" cx="558.47" cy="549.49" r="226.3" transform="translate(-224.98 555.84) rotate(-45)"/><circle class="cls-61" cx="558.41" cy="549.43" r="226.24" transform="translate(-224.95 555.78) rotate(-45)"/><circle class="cls-62" cx="558.35" cy="549.37" r="226.18" transform="translate(-224.93 555.72) rotate(-45)"/><circle class="cls-63" cx="558.29" cy="549.31" r="226.12" transform="translate(-224.9 555.66) rotate(-45)"/><circle class="cls-64" cx="558.23" cy="549.25" r="226.06" transform="translate(-224.88 555.6) rotate(-45)"/><circle class="cls-65" cx="558.17" cy="549.19" r="226" transform="translate(-224.85 555.54) rotate(-45)"/><circle class="cls-66" cx="558.11" cy="549.13" r="225.94" transform="translate(-224.83 555.48) rotate(-45)"/><circle class="cls-67" cx="558.05" cy="549.07" r="225.88" transform="translate(-224.8 555.42) rotate(-45)"/><circle class="cls-68" cx="557.99" cy="549.01" r="225.82" transform="translate(-224.78 555.36) rotate(-45)"/><circle class="cls-69" cx="557.93" cy="548.95" r="225.76" transform="translate(-224.75 555.3) rotate(-45)"/><circle class="cls-70" cx="557.87" cy="548.89" r="225.7" transform="translate(-224.73 555.24) rotate(-45)"/><circle class="cls-71" cx="557.81" cy="548.83" r="225.64" transform="translate(-224.7 555.18) rotate(-45)"/><circle class="cls-72" cx="557.75" cy="548.77" r="225.58" transform="translate(-224.68 555.12) rotate(-45)"/><circle class="cls-73" cx="557.69" cy="548.71" r="225.52" transform="translate(-224.65 555.06) rotate(-45)"/><circle class="cls-74" cx="557.63" cy="548.65" r="225.46" transform="translate(-224.63 555) rotate(-45)"/><circle class="cls-75" cx="557.57" cy="548.59" r="225.4" transform="translate(-224.6 554.94) rotate(-45)"/><circle class="cls-76" cx="557.51" cy="548.53" r="225.34" transform="translate(-224.58 554.88) rotate(-45)"/><circle class="cls-77" cx="557.45" cy="548.47" r="225.28" transform="translate(-224.55 554.82) rotate(-45)"/><circle class="cls-78" cx="557.39" cy="548.41" r="225.22" transform="translate(-224.53 554.76) rotate(-45)"/><circle class="cls-79" cx="557.33" cy="548.35" r="225.16" transform="translate(-224.51 554.7) rotate(-45)"/><circle class="cls-80" cx="557.27" cy="548.29" r="225.1" transform="translate(-224.48 554.64) rotate(-45)"/><circle class="cls-81" cx="557.21" cy="548.23" r="225.04" transform="translate(-224.46 554.58) rotate(-45)"/><circle class="cls-82" cx="557.15" cy="548.17" r="224.98" transform="translate(-224.43 554.52) rotate(-45)"/><circle class="cls-83" cx="557.09" cy="548.11" r="224.92" transform="translate(-224.41 554.46) rotate(-45)"/><circle class="cls-84" cx="557.03" cy="548.05" r="224.86" transform="translate(-224.38 554.4) rotate(-45)"/><circle class="cls-85" cx="556.97" cy="547.99" r="224.8" transform="translate(-224.36 554.34) rotate(-45)"/><circle class="cls-86" cx="556.91" cy="547.93" r="224.74" transform="translate(-224.33 554.28) rotate(-45)"/><circle class="cls-87" cx="556.85" cy="547.87" r="224.68" transform="translate(-224.31 554.22) rotate(-45)"/><circle class="cls-88" cx="556.79" cy="547.81" r="224.62" transform="translate(-224.28 554.16) rotate(-45)"/><circle class="cls-89" cx="556.73" cy="547.75" r="224.56" transform="translate(-224.26 554.1) rotate(-45)"/><circle class="cls-90" cx="556.67" cy="547.69" r="224.5" transform="translate(-224.23 554.04) rotate(-45)"/><circle class="cls-91" cx="556.61" cy="547.63" r="224.44" transform="translate(-224.21 553.98) rotate(-45)"/><circle class="cls-92" cx="556.55" cy="547.57" r="224.38" transform="translate(-224.18 553.92) rotate(-45)"/><circle class="cls-93" cx="556.49" cy="547.51" r="224.32" transform="translate(-224.16 553.86) rotate(-45)"/><circle class="cls-94" cx="556.43" cy="547.45" r="224.26" transform="translate(-224.13 553.8) rotate(-45)"/><circle class="cls-95" cx="556.37" cy="547.39" r="224.2" transform="translate(-224.11 553.74) rotate(-45)"/><circle class="cls-96" cx="556.31" cy="547.33" r="224.14" transform="translate(-224.08 553.68) rotate(-45)"/><circle class="cls-97" cx="556.25" cy="547.27" r="224.08" transform="translate(-224.06 553.62) rotate(-45)"/><circle class="cls-98" cx="556.19" cy="547.21" r="224.02" transform="translate(-224.03 553.56) rotate(-45)"/><circle class="cls-99" cx="556.13" cy="547.15" r="223.96" transform="translate(-224.01 553.5) rotate(-45)"/><circle class="cls-100" cx="556.07" cy="547.09" r="223.9" transform="translate(-223.98 553.44) rotate(-45)"/><circle class="cls-101" cx="556.01" cy="547.03" r="223.84" transform="translate(-223.96 553.38) rotate(-45)"/><circle class="cls-102" cx="555.95" cy="546.97" r="223.78" transform="translate(-223.93 553.32) rotate(-45)"/><circle class="cls-103" cx="555.89" cy="546.91" r="223.72" transform="translate(-223.91 553.26) rotate(-45)"/><circle class="cls-104" cx="555.83" cy="546.85" r="223.66" transform="translate(-223.88 553.2) rotate(-45)"/><circle class="cls-105" cx="555.77" cy="546.79" r="223.6" transform="translate(-223.86 553.14) rotate(-45)"/><circle class="cls-106" cx="555.71" cy="546.73" r="223.54" transform="translate(-223.83 553.08) rotate(-45)"/><circle class="cls-107" cx="555.65" cy="546.67" r="223.48" transform="translate(-223.81 553.02) rotate(-45)"/><circle class="cls-108" cx="555.59" cy="546.61" r="223.42" transform="translate(-223.78 552.96) rotate(-45)"/><circle class="cls-109" cx="555.53" cy="546.55" r="223.36" transform="translate(-223.76 552.9) rotate(-45)"/><circle class="cls-110" cx="555.47" cy="546.49" r="223.3" transform="translate(-223.73 552.84) rotate(-45)"/><circle class="cls-111" cx="555.41" cy="546.43" r="223.24" transform="translate(-223.71 552.78) rotate(-45)"/><circle class="cls-112" cx="555.35" cy="546.37" r="223.18" transform="translate(-223.68 552.72) rotate(-45)"/><circle class="cls-113" cx="555.29" cy="546.31" r="223.12" transform="translate(-223.66 552.66) rotate(-45)"/><circle class="cls-114" cx="555.23" cy="546.25" r="223.06" transform="translate(-223.64 552.6) rotate(-45)"/><circle class="cls-115" cx="555.17" cy="546.19" r="223" transform="translate(-223.61 552.54) rotate(-45)"/><circle class="cls-116" cx="555.11" cy="546.13" r="222.94" transform="translate(-223.59 552.48) rotate(-45)"/><circle class="cls-117" cx="555.05" cy="546.07" r="222.88" transform="translate(-223.56 552.42) rotate(-45)"/><circle class="cls-118" cx="554.99" cy="546.01" r="222.82" transform="translate(-223.54 552.36) rotate(-45)"/><circle class="cls-119" cx="554.93" cy="545.95" r="222.76" transform="translate(-223.51 552.3) rotate(-45)"/><circle class="cls-120" cx="554.87" cy="545.89" r="222.7" transform="translate(-223.49 552.24) rotate(-45)"/><circle class="cls-121" cx="554.81" cy="545.83" r="222.64" transform="translate(-223.46 552.18) rotate(-45)"/><circle class="cls-122" cx="554.75" cy="545.77" r="222.58" transform="translate(-223.44 552.12) rotate(-45)"/><circle class="cls-123" cx="554.69" cy="545.71" r="222.52" transform="translate(-223.41 552.06) rotate(-45)"/><circle class="cls-124" cx="554.63" cy="545.65" r="222.46" transform="translate(-223.39 552) rotate(-45)"/><circle class="cls-125" cx="554.57" cy="545.59" r="222.4" transform="translate(-223.36 551.94) rotate(-45)"/><circle class="cls-126" cx="554.51" cy="545.53" r="222.34" transform="translate(-223.34 551.88) rotate(-45)"/><circle class="cls-127" cx="554.45" cy="545.47" r="222.28" transform="translate(-223.31 551.82) rotate(-45)"/><circle class="cls-128" cx="554.39" cy="545.41" r="222.22" transform="translate(-223.29 551.76) rotate(-45)"/><circle class="cls-129" cx="554.33" cy="545.35" r="222.16" transform="translate(-223.26 551.7) rotate(-45)"/><circle class="cls-130" cx="554.27" cy="545.29" r="222.1" transform="translate(-223.24 551.64) rotate(-45)"/><circle class="cls-131" cx="554.21" cy="545.23" r="222.04" transform="translate(-223.21 551.58) rotate(-45)"/><circle class="cls-132" cx="554.15" cy="545.17" r="221.98" transform="translate(-223.19 551.52) rotate(-45)"/><circle class="cls-133" cx="554.09" cy="545.11" r="221.92" transform="translate(-223.16 551.46) rotate(-45)"/><circle class="cls-134" cx="554.03" cy="545.05" r="221.86" transform="translate(-223.14 551.4) rotate(-45)"/><circle class="cls-135" cx="553.97" cy="544.99" r="221.8" transform="translate(-223.11 551.34) rotate(-45)"/><circle class="cls-136" cx="553.91" cy="544.93" r="221.74" transform="translate(-223.09 551.28) rotate(-45)"/><circle class="cls-137" cx="553.85" cy="544.87" r="221.68" transform="translate(-223.06 551.22) rotate(-45)"/><circle class="cls-138" cx="553.79" cy="544.81" r="221.62" transform="translate(-223.04 551.16) rotate(-45)"/><circle class="cls-139" cx="553.73" cy="544.75" r="221.56" transform="translate(-223.01 551.1) rotate(-45)"/><circle class="cls-140" cx="553.67" cy="544.69" r="221.5" transform="translate(-222.99 551.04) rotate(-45)"/><circle class="cls-141" cx="553.61" cy="544.63" r="221.44" transform="translate(-222.96 550.98) rotate(-45)"/><circle class="cls-142" cx="553.55" cy="544.57" r="221.38" transform="translate(-222.94 550.92) rotate(-45)"/><circle class="cls-143" cx="553.49" cy="544.51" r="221.32" transform="translate(-222.91 550.86) rotate(-45)"/><circle class="cls-144" cx="553.43" cy="544.45" r="221.26" transform="translate(-222.89 550.8) rotate(-45)"/><circle class="cls-145" cx="553.37" cy="544.39" r="221.2" transform="translate(-222.86 550.74) rotate(-45)"/><circle class="cls-146" cx="553.31" cy="544.33" r="221.14" transform="translate(-222.84 550.68) rotate(-45)"/><circle class="cls-147" cx="553.25" cy="544.27" r="221.08" transform="translate(-222.81 550.62) rotate(-45)"/><circle class="cls-148" cx="553.19" cy="544.21" r="221.02" transform="translate(-222.79 550.56) rotate(-45)"/><circle class="cls-149" cx="553.13" cy="544.15" r="220.96" transform="translate(-222.77 550.5) rotate(-45)"/><circle class="cls-150" cx="553.07" cy="544.09" r="220.9" transform="translate(-222.74 550.44) rotate(-45)"/><circle class="cls-151" cx="553.01" cy="544.03" r="220.84" transform="translate(-222.72 550.38) rotate(-45)"/><circle class="cls-152" cx="552.95" cy="543.97" r="220.78" transform="translate(-222.69 550.32) rotate(-45)"/><circle class="cls-153" cx="552.89" cy="543.91" r="220.72" transform="translate(-222.67 550.26) rotate(-45)"/><circle class="cls-154" cx="552.83" cy="543.85" r="220.66" transform="translate(-222.64 550.2) rotate(-45)"/><circle class="cls-155" cx="552.77" cy="543.79" r="220.6" transform="translate(-222.62 550.14) rotate(-45)"/><circle class="cls-156" cx="552.71" cy="543.73" r="220.54" transform="translate(-222.59 550.08) rotate(-45)"/><circle class="cls-157" cx="552.65" cy="543.67" r="220.48" transform="translate(-222.57 550.02) rotate(-45)"/><circle class="cls-158" cx="552.59" cy="543.61" r="220.42" transform="translate(-222.54 549.96) rotate(-45)"/><circle class="cls-159" cx="552.53" cy="543.55" r="220.36" transform="translate(-222.52 549.9) rotate(-45)"/><circle class="cls-160" cx="552.47" cy="543.49" r="220.3" transform="translate(-222.49 549.84) rotate(-45)"/><circle class="cls-161" cx="552.41" cy="543.43" r="220.24" transform="translate(-222.47 549.78) rotate(-45)"/><circle class="cls-162" cx="552.35" cy="543.37" r="220.18" transform="translate(-222.44 549.72) rotate(-45)"/><circle class="cls-163" cx="552.29" cy="543.31" r="220.12" transform="translate(-222.42 549.66) rotate(-45)"/><circle class="cls-164" cx="552.23" cy="543.25" r="220.06" transform="translate(-222.39 549.6) rotate(-45)"/><circle class="cls-165" cx="552.17" cy="543.19" r="220" transform="translate(-222.37 549.54) rotate(-45)"/><circle class="cls-166" cx="552.11" cy="543.13" r="219.94" transform="translate(-222.34 549.48) rotate(-45)"/><circle class="cls-167" cx="552.05" cy="543.07" r="219.88" transform="translate(-222.32 549.42) rotate(-45)"/><circle class="cls-168" cx="551.99" cy="543.01" r="219.82" transform="translate(-222.29 549.36) rotate(-45)"/><circle class="cls-169" cx="551.93" cy="542.95" r="219.76" transform="translate(-222.27 549.3) rotate(-45)"/><circle class="cls-170" cx="551.87" cy="542.89" r="219.7" transform="translate(-222.24 549.24) rotate(-45)"/><circle class="cls-171" cx="551.81" cy="542.83" r="219.64" transform="translate(-222.22 549.18) rotate(-45)"/><circle class="cls-172" cx="551.75" cy="542.77" r="219.58" transform="translate(-222.19 549.12) rotate(-45)"/><circle class="cls-173" cx="551.69" cy="542.71" r="219.52" transform="translate(-222.17 549.06) rotate(-45)"/><circle class="cls-174" cx="551.63" cy="542.65" r="219.46" transform="translate(-222.14 549) rotate(-45)"/><circle class="cls-175" cx="551.57" cy="542.59" r="219.4" transform="translate(-222.12 548.94) rotate(-45)"/><circle class="cls-176" cx="551.51" cy="542.53" r="219.34" transform="translate(-222.09 548.88) rotate(-45)"/><circle class="cls-177" cx="551.45" cy="542.47" r="219.28" transform="translate(-222.07 548.82) rotate(-45)"/><circle class="cls-178" cx="551.39" cy="542.41" r="219.22" transform="translate(-222.04 548.76) rotate(-45)"/><circle class="cls-179" cx="551.33" cy="542.35" r="219.16" transform="translate(-222.02 548.7) rotate(-45)"/><circle class="cls-180" cx="551.27" cy="542.29" r="219.1" transform="translate(-221.99 548.64) rotate(-45)"/><circle class="cls-181" cx="551.21" cy="542.23" r="219.04" transform="translate(-221.97 548.58) rotate(-45)"/><circle class="cls-182" cx="551.15" cy="542.17" r="218.98" transform="translate(-221.94 548.52) rotate(-45)"/><circle class="cls-183" cx="551.09" cy="542.11" r="218.92" transform="translate(-221.92 548.46) rotate(-45)"/><circle class="cls-184" cx="551.03" cy="542.05" r="218.86" transform="translate(-221.9 548.4) rotate(-45)"/><circle class="cls-185" cx="550.97" cy="541.99" r="218.8" transform="translate(-221.87 548.34) rotate(-45)"/><circle class="cls-186" cx="550.91" cy="541.93" r="218.74" transform="translate(-221.85 548.28) rotate(-45)"/><circle class="cls-187" cx="550.85" cy="541.87" r="218.68" transform="translate(-221.82 548.22) rotate(-45)"/><circle class="cls-188" cx="550.79" cy="541.81" r="218.62" transform="translate(-221.8 548.16) rotate(-45)"/><circle class="cls-189" cx="550.73" cy="541.75" r="218.56" transform="translate(-221.77 548.1) rotate(-45)"/><circle class="cls-190" cx="550.67" cy="541.69" r="218.5" transform="translate(-221.75 548.04) rotate(-45)"/><circle class="cls-191" cx="550.61" cy="541.63" r="218.44" transform="translate(-221.72 547.98) rotate(-45)"/><circle class="cls-192" cx="550.55" cy="541.57" r="218.38" transform="translate(-221.7 547.92) rotate(-45)"/><circle class="cls-193" cx="550.49" cy="541.51" r="218.32" transform="translate(-221.67 547.86) rotate(-45)"/><circle class="cls-194" cx="550.43" cy="541.45" r="218.26" transform="translate(-221.65 547.8) rotate(-45)"/><circle class="cls-195" cx="550.37" cy="541.39" r="218.2" transform="translate(-221.62 547.74) rotate(-45)"/><circle class="cls-196" cx="550.31" cy="541.33" r="218.14" transform="translate(-221.6 547.68) rotate(-45)"/><circle class="cls-197" cx="550.25" cy="541.27" r="218.08" transform="translate(-221.57 547.62) rotate(-45)"/><circle class="cls-198" cx="550.19" cy="541.21" r="218.02" transform="translate(-221.55 547.56) rotate(-45)"/><circle class="cls-199" cx="550.13" cy="541.15" r="217.96" transform="translate(-221.52 547.5) rotate(-45)"/><circle class="cls-200" cx="550.07" cy="541.09" r="217.9" transform="translate(-221.5 547.44) rotate(-45)"/><circle class="cls-201" cx="550.01" cy="541.03" r="217.84" transform="translate(-221.47 547.38) rotate(-45)"/><circle class="cls-202" cx="549.95" cy="540.97" r="217.78" transform="translate(-221.45 547.32) rotate(-45)"/><circle class="cls-203" cx="549.89" cy="540.91" r="217.72" transform="translate(-221.42 547.26) rotate(-45)"/><circle class="cls-204" cx="549.83" cy="540.85" r="217.66" transform="translate(-221.4 547.2) rotate(-45)"/><circle class="cls-205" cx="549.77" cy="540.79" r="217.6" transform="translate(-221.37 547.14) rotate(-45)"/><circle class="cls-206" cx="549.71" cy="540.73" r="217.54" transform="translate(-221.35 547.08) rotate(-45)"/><circle class="cls-207" cx="549.65" cy="540.67" r="217.48" transform="translate(-221.32 547.02) rotate(-45)"/><circle class="cls-208" cx="549.59" cy="540.61" r="217.42" transform="translate(-221.3 546.96) rotate(-45)"/><circle class="cls-209" cx="549.53" cy="540.55" r="217.36" transform="translate(-221.27 546.9) rotate(-45)"/><circle class="cls-210" cx="549.47" cy="540.49" r="217.3" transform="translate(-221.25 546.84) rotate(-45)"/><circle class="cls-211" cx="549.41" cy="540.43" r="217.24" transform="translate(-221.22 546.78) rotate(-45)"/><circle class="cls-212" cx="549.35" cy="540.37" r="217.18" transform="translate(-221.2 546.72) rotate(-45)"/><circle class="cls-213" cx="549.29" cy="540.31" r="217.12" transform="translate(-221.17 546.66) rotate(-45)"/><circle class="cls-214" cx="549.23" cy="540.25" r="217.06" transform="translate(-221.15 546.6) rotate(-45)"/><circle class="cls-215" cx="549.17" cy="540.19" r="217" transform="translate(-221.12 546.54) rotate(-45)"/><circle class="cls-216" cx="549.11" cy="540.13" r="216.94" transform="translate(-221.1 546.48) rotate(-45)"/><circle class="cls-217" cx="549.05" cy="540.07" r="216.88" transform="translate(-221.07 546.42) rotate(-45)"/><circle class="cls-218" cx="548.99" cy="540.01" r="216.82" transform="translate(-221.05 546.36) rotate(-45)"/><circle class="cls-219" cx="548.93" cy="539.95" r="216.76" transform="translate(-221.03 546.3) rotate(-45)"/><circle class="cls-220" cx="548.87" cy="539.89" r="216.7" transform="translate(-221 546.24) rotate(-45)"/><circle class="cls-221" cx="548.81" cy="539.83" r="216.64" transform="translate(-220.98 546.18) rotate(-45)"/><circle class="cls-222" cx="548.75" cy="539.77" r="216.58" transform="translate(-220.95 546.12) rotate(-45)"/><circle class="cls-223" cx="548.69" cy="539.71" r="216.52" transform="translate(-220.93 546.06) rotate(-45)"/><circle class="cls-224" cx="548.63" cy="539.65" r="216.46" transform="translate(-220.9 546) rotate(-45)"/><circle class="cls-225" cx="548.57" cy="539.59" r="216.4" transform="translate(-220.88 545.94) rotate(-45)"/><circle class="cls-226" cx="548.51" cy="539.53" r="216.34" transform="translate(-220.85 545.88) rotate(-45)"/><circle class="cls-227" cx="548.45" cy="539.47" r="216.28" transform="translate(-220.83 545.82) rotate(-45)"/><circle class="cls-228" cx="548.39" cy="539.41" r="216.22" transform="translate(-220.8 545.76) rotate(-45)"/><circle class="cls-229" cx="548.33" cy="539.35" r="216.16" transform="translate(-220.78 545.7) rotate(-45)"/><circle class="cls-230" cx="548.27" cy="539.29" r="216.1" transform="translate(-220.75 545.64) rotate(-45)"/><circle class="cls-231" cx="548.21" cy="539.23" r="216.04" transform="translate(-220.73 545.58) rotate(-45)"/><circle class="cls-232" cx="548.15" cy="539.17" r="215.98" transform="translate(-220.7 545.52) rotate(-45)"/><circle class="cls-233" cx="548.09" cy="539.11" r="215.92" transform="translate(-220.68 545.46) rotate(-45)"/><circle class="cls-234" cx="548.03" cy="539.05" r="215.86" transform="translate(-220.65 545.4) rotate(-45)"/><circle class="cls-235" cx="547.97" cy="538.99" r="215.8" transform="translate(-220.63 545.34) rotate(-45)"/><circle class="cls-236" cx="547.91" cy="538.93" r="215.74" transform="translate(-220.6 545.28) rotate(-45)"/><circle class="cls-237" cx="547.85" cy="538.87" r="215.68" transform="translate(-220.58 545.22) rotate(-45)"/><circle class="cls-238" cx="547.79" cy="538.81" r="215.62" transform="translate(-220.55 545.16) rotate(-45)"/><circle class="cls-239" cx="547.73" cy="538.75" r="215.56" transform="translate(-220.53 545.1) rotate(-45)"/><circle class="cls-240" cx="547.67" cy="538.69" r="215.5" transform="translate(-220.5 545.04) rotate(-45)"/><circle class="cls-241" cx="547.61" cy="538.63" r="215.44" transform="translate(-220.48 544.98) rotate(-45)"/><circle class="cls-242" cx="547.55" cy="538.57" r="215.38" transform="translate(-220.45 544.92) rotate(-45)"/><circle class="cls-243" cx="547.49" cy="538.51" r="215.32" transform="translate(-220.43 544.86) rotate(-45)"/><circle class="cls-244" cx="547.43" cy="538.45" r="215.26" transform="translate(-220.4 544.8) rotate(-45)"/><circle class="cls-245" cx="547.37" cy="538.39" r="215.2" transform="translate(-220.38 544.74) rotate(-45)"/><circle cx="547.31" cy="538.33" r="215.14" transform="translate(-220.35 544.68) rotate(-45)"/></g><g class="cls-258"><rect class="cls-259" x="207.88" y="197.66" width="663.76" height="648.03"/><path class="cls-248" d="M285.77,763.59S345.1,695.27,390,668.31s85.39-38.65,85.39-38.65L596.77,618s64.72,22.47,107,62S755,736.62,755,736.62l-62,66.51-14.38-18s-5.39,113.25,1.8,157.3,13.48,142.91,14.38,171.68c0,0-40.45,25.16-122.24,24.26s-148.31-19.77-148.31-19.77,2.24-107.4-6.52-171.68C407.57,872.8,396.11,802.85,382,804c-16.85,7.42-35.06,29-35.06,29Z"/><path class="cls-250" d="M498.35,544.72c-2.7,26.51-22.92,84.94-22.92,84.94s23.82,18.87,61.12,17.52S596.77,618,596.77,618,590,582.92,595,555.05Z"/><path class="cls-260" d="M498.35,544.72c-2.7,26.51-22.92,84.94-22.92,84.94s23.82,18.87,61.12,17.52S596.77,618,596.77,618,590,582.92,595,555.05Z"/><circle class="cls-261" cx="494.76" cy="497.08" r="17.53" transform="translate(-206.58 495.44) rotate(-45)"/><circle class="cls-261" cx="618.8" cy="520.45" r="17.53" transform="translate(-186.77 589.99) rotate(-45)"/><path class="cls-250" d="M495.65,489.44c8.15-59.07,28.32-82.7,86.74-75.51S630,487.64,618.8,514.6c-10.24,24.58-22.48,81.35-80.45,71.91C488.28,578.36,490.26,528.54,495.65,489.44Z"/><path d="M529.54,474.09a4.06,4.06,0,1,1-2.91-5.22A4.23,4.23,0,0,1,529.54,474.09Z"/><path d="M601.39,488.61a4.06,4.06,0,1,1-2.9-5.22A4.24,4.24,0,0,1,601.39,488.61Z"/><path class="cls-256" d="M554.17,530.25c-2.91,4.56-11.63,4.21-19.49-.79s-11.86-12.76-9-17.32,7.21,3,15.06,8S557.07,525.68,554.17,530.25Z"/><path class="cls-261" d="M586.44,507.6a12.36,12.36,0,1,0,16.28-6.36A12.36,12.36,0,0,0,586.44,507.6Z"/><path class="cls-261" d="M500.07,489.42a12.36,12.36,0,1,0,16.28-6.36A12.35,12.35,0,0,0,500.07,489.42Z"/><path class="cls-261" d="M563.78,472.69,539.7,496.36a5.39,5.39,0,0,0,2,8.93l17.19,6Z"/><path class="cls-262" d="M521.05,427s-.9-24.27,25.61-32.36c21.18-6.46,35.31-1.49,52.59-10.34,18.42-9.44,32.8-28.76,39.55-27.86s5.39,36.4-8.54,53c0,0,9.43-5.84,9,1.8s-3.59,33.25-16.17,33.25-11.24-11.23-20.68-13.93-16.18,4.5-34.15,1.35-16.18-9.44-27.87-9.89A33.59,33.59,0,0,0,521.05,427Z"/><path class="cls-250" d="M285.77,763.59c-38.65,40.44-80.89,105.16-74.6,152.8s137.52,142,174.38,159.09S435,1091.66,435,1058.41s.45-39.1-29.21-43.6S282.18,911,283.08,899.31,346,829.2,346,829.2s1.34-16.18-22.92-39.55S285.77,763.59,285.77,763.59Z"/><path class="cls-250" d="M755,736.62c52.36,65.39,84,99.77,84,145.61S753.85,1049.64,734.3,1063.8s-39.55,15.73-47.64,9.44c-7.14-5.55-8.76-7.87-10.79-31.46s1.35-34.83,9.44-35.51,25.62-2.69,25.62-2.69,57.3-95.73,56-119.32-71.46-85-71.46-85,4.72-20.22,22.92-37.75S755,736.62,755,736.62Z"/><path class="cls-263" d="M611.9,781.32a598.93,598.93,0,0,1-150,5.93l-.57-14.37a598.93,598.93,0,0,0,150-5.93Zm.75,18.86a598.94,598.94,0,0,1-150,5.93l.57,14.37a598.94,598.94,0,0,0,150-5.93ZM614,833.41a598.93,598.93,0,0,1-150,5.93l.57,14.37a598.93,598.93,0,0,0,150-5.93Z"/></g><circle class="cls-264" cx="266.74" cy="120.36" r="120.36"/><circle class="cls-256" cx="222.55" cy="119.49" r="13.13"/><circle class="cls-256" cx="267.77" cy="119.49" r="13.13"/><circle class="cls-256" cx="312.98" cy="119.49" r="13.13"/><circle class="cls-251" cx="829.86" cy="120.36" r="120.36"/><circle class="cls-256" cx="789.11" cy="119.49" r="13.13"/><circle class="cls-256" cx="834.32" cy="119.49" r="13.13"/><circle class="cls-256" cx="879.53" cy="119.49" r="13.13"/><rect class="cls-248" x="442.04" y="14.1" width="212.51" height="212.51" rx="10.71"/><rect class="cls-256" x="492.58" y="92.38" width="106.99" height="11.89"/><rect class="cls-256" x="492.58" y="125.81" width="106.99" height="11.89"/><g class="cls-3"><circle class="cls-4" cx="885.95" cy="552.85" r="229.66" transform="translate(-131.44 788.39) rotate(-45)"/><circle class="cls-5" cx="885.89" cy="552.79" r="229.6" transform="translate(-131.41 788.33) rotate(-45)"/><circle class="cls-6" cx="885.83" cy="552.73" r="229.54" transform="translate(-131.39 788.27) rotate(-45)"/><circle class="cls-7" cx="885.77" cy="552.67" r="229.48" transform="translate(-131.36 788.21) rotate(-45)"/><circle class="cls-8" cx="885.71" cy="552.61" r="229.42" transform="translate(-131.34 788.15) rotate(-45)"/><circle class="cls-9" cx="885.65" cy="552.55" r="229.36" transform="translate(-131.31 788.09) rotate(-45)"/><circle class="cls-10" cx="885.59" cy="552.49" r="229.3" transform="translate(-131.29 788.03) rotate(-45)"/><circle class="cls-11" cx="885.53" cy="552.43" r="229.24" transform="translate(-131.26 787.97) rotate(-45)"/><circle class="cls-12" cx="885.47" cy="552.37" r="229.18" transform="translate(-131.24 787.91) rotate(-45)"/><circle class="cls-13" cx="885.41" cy="552.31" r="229.12" transform="translate(-131.21 787.85) rotate(-45)"/><circle class="cls-14" cx="885.35" cy="552.25" r="229.06" transform="translate(-131.19 787.79) rotate(-45)"/><circle class="cls-15" cx="885.29" cy="552.19" r="229" transform="translate(-131.16 787.73) rotate(-45)"/><circle class="cls-16" cx="885.23" cy="552.13" r="228.94" transform="translate(-131.14 787.67) rotate(-45)"/><circle class="cls-17" cx="885.17" cy="552.07" r="228.88" transform="translate(-131.11 787.61) rotate(-45)"/><circle class="cls-18" cx="885.11" cy="552.01" r="228.82" transform="translate(-131.09 787.55) rotate(-45)"/><circle class="cls-19" cx="885.05" cy="551.95" r="228.76" transform="translate(-131.07 787.49) rotate(-45)"/><circle class="cls-20" cx="884.99" cy="551.89" r="228.7" transform="translate(-131.04 787.43) rotate(-45)"/><circle class="cls-21" cx="884.93" cy="551.83" r="228.64" transform="translate(-131.02 787.37) rotate(-45)"/><circle class="cls-22" cx="884.87" cy="551.77" r="228.58" transform="translate(-130.99 787.31) rotate(-45)"/><circle class="cls-23" cx="884.81" cy="551.71" r="228.52" transform="translate(-130.97 787.25) rotate(-45)"/><circle class="cls-24" cx="884.75" cy="551.65" r="228.46" transform="translate(-130.94 787.19) rotate(-45)"/><circle class="cls-25" cx="884.69" cy="551.59" r="228.4" transform="translate(-130.92 787.13) rotate(-45)"/><circle class="cls-26" cx="884.63" cy="551.53" r="228.34" transform="translate(-130.89 787.07) rotate(-45)"/><circle class="cls-27" cx="884.57" cy="551.47" r="228.28" transform="translate(-130.87 787.01) rotate(-45)"/><circle class="cls-28" cx="884.51" cy="551.41" r="228.22" transform="translate(-130.84 786.95) rotate(-45)"/><circle class="cls-29" cx="884.45" cy="551.35" r="228.16" transform="translate(-130.82 786.89) rotate(-45)"/><circle class="cls-30" cx="884.39" cy="551.29" r="228.1" transform="translate(-130.79 786.83) rotate(-45)"/><circle class="cls-31" cx="884.33" cy="551.23" r="228.04" transform="translate(-130.77 786.77) rotate(-45)"/><circle class="cls-32" cx="884.27" cy="551.17" r="227.98" transform="translate(-130.74 786.71) rotate(-45)"/><circle class="cls-33" cx="884.21" cy="551.11" r="227.92" transform="translate(-130.72 786.65) rotate(-45)"/><circle class="cls-34" cx="884.15" cy="551.05" r="227.86" transform="translate(-130.69 786.59) rotate(-45)"/><circle class="cls-35" cx="884.09" cy="550.99" r="227.8" transform="translate(-130.67 786.53) rotate(-45)"/><circle class="cls-36" cx="884.03" cy="550.93" r="227.74" transform="translate(-130.64 786.47) rotate(-45)"/><circle class="cls-37" cx="883.97" cy="550.87" r="227.68" transform="translate(-130.62 786.41) rotate(-45)"/><circle class="cls-38" cx="883.91" cy="550.81" r="227.62" transform="translate(-130.59 786.35) rotate(-45)"/><circle class="cls-39" cx="883.85" cy="550.75" r="227.56" transform="translate(-130.57 786.29) rotate(-45)"/><circle class="cls-40" cx="883.79" cy="550.69" r="227.5" transform="translate(-130.54 786.23) rotate(-45)"/><circle class="cls-41" cx="883.73" cy="550.63" r="227.44" transform="translate(-130.52 786.17) rotate(-45)"/><circle class="cls-42" cx="883.67" cy="550.57" r="227.38" transform="translate(-130.49 786.11) rotate(-45)"/><circle class="cls-43" cx="883.61" cy="550.51" r="227.32" transform="translate(-130.47 786.05) rotate(-45)"/><circle class="cls-44" cx="883.55" cy="550.45" r="227.26" transform="translate(-130.44 785.99) rotate(-45)"/><circle class="cls-45" cx="883.49" cy="550.39" r="227.2" transform="translate(-130.42 785.93) rotate(-45)"/><circle class="cls-46" cx="883.43" cy="550.33" r="227.14" transform="translate(-130.39 785.87) rotate(-45)"/><circle class="cls-47" cx="883.37" cy="550.27" r="227.08" transform="translate(-130.37 785.81) rotate(-45)"/><circle class="cls-48" cx="883.31" cy="550.21" r="227.02" transform="translate(-130.34 785.75) rotate(-45)"/><circle class="cls-49" cx="883.25" cy="550.15" r="226.96" transform="translate(-130.32 785.69) rotate(-45)"/><circle class="cls-50" cx="883.19" cy="550.09" r="226.9" transform="translate(-130.29 785.63) rotate(-45)"/><circle class="cls-51" cx="883.13" cy="550.03" r="226.84" transform="translate(-130.27 785.57) rotate(-45)"/><circle class="cls-52" cx="883.07" cy="549.97" r="226.78" transform="translate(-130.24 785.51) rotate(-45)"/><circle class="cls-53" cx="883.01" cy="549.91" r="226.72" transform="translate(-130.22 785.45) rotate(-45)"/><circle class="cls-54" cx="882.95" cy="549.85" r="226.66" transform="translate(-130.2 785.39) rotate(-45)"/><circle class="cls-55" cx="882.89" cy="549.79" r="226.6" transform="translate(-130.17 785.33) rotate(-45)"/><circle class="cls-56" cx="882.83" cy="549.73" r="226.54" transform="translate(-130.15 785.27) rotate(-45)"/><circle class="cls-57" cx="882.77" cy="549.67" r="226.48" transform="translate(-130.12 785.21) rotate(-45)"/><circle class="cls-58" cx="882.71" cy="549.61" r="226.42" transform="translate(-130.1 785.15) rotate(-45)"/><circle class="cls-59" cx="882.65" cy="549.55" r="226.36" transform="translate(-130.07 785.09) rotate(-45)"/><circle class="cls-60" cx="882.59" cy="549.49" r="226.3" transform="translate(-130.05 785.03) rotate(-45)"/><circle class="cls-61" cx="882.53" cy="549.43" r="226.24" transform="translate(-130.02 784.97) rotate(-45)"/><circle class="cls-62" cx="882.47" cy="549.37" r="226.18" transform="translate(-130 784.91) rotate(-45)"/><circle class="cls-63" cx="882.41" cy="549.31" r="226.12" transform="translate(-129.97 784.85) rotate(-45)"/><circle class="cls-64" cx="882.35" cy="549.25" r="226.06" transform="translate(-129.95 784.79) rotate(-45)"/><circle class="cls-65" cx="882.29" cy="549.19" r="226" transform="translate(-129.92 784.73) rotate(-45)"/><circle class="cls-66" cx="882.23" cy="549.13" r="225.94" transform="translate(-129.9 784.67) rotate(-45)"/><circle class="cls-67" cx="882.17" cy="549.07" r="225.88" transform="translate(-129.87 784.61) rotate(-45)"/><circle class="cls-68" cx="882.11" cy="549.01" r="225.82" transform="translate(-129.85 784.55) rotate(-45)"/><circle class="cls-69" cx="882.05" cy="548.95" r="225.76" transform="translate(-129.82 784.49) rotate(-45)"/><circle class="cls-70" cx="881.99" cy="548.89" r="225.7" transform="translate(-129.8 784.43) rotate(-45)"/><circle class="cls-71" cx="881.93" cy="548.83" r="225.64" transform="translate(-129.77 784.37) rotate(-45)"/><circle class="cls-72" cx="881.87" cy="548.77" r="225.58" transform="translate(-129.75 784.31) rotate(-45)"/><circle class="cls-73" cx="881.81" cy="548.71" r="225.52" transform="translate(-129.72 784.25) rotate(-45)"/><circle class="cls-74" cx="881.75" cy="548.65" r="225.46" transform="translate(-129.7 784.19) rotate(-45)"/><circle class="cls-75" cx="881.69" cy="548.59" r="225.4" transform="translate(-129.67 784.13) rotate(-45)"/><circle class="cls-76" cx="881.63" cy="548.53" r="225.34" transform="translate(-129.65 784.07) rotate(-45)"/><circle class="cls-77" cx="881.57" cy="548.47" r="225.28" transform="translate(-129.62 784.01) rotate(-45)"/><circle class="cls-78" cx="881.51" cy="548.41" r="225.22" transform="translate(-129.6 783.95) rotate(-45)"/><circle class="cls-79" cx="881.45" cy="548.35" r="225.16" transform="translate(-129.57 783.89) rotate(-45)"/><circle class="cls-80" cx="881.39" cy="548.29" r="225.1" transform="translate(-129.55 783.83) rotate(-45)"/><circle class="cls-81" cx="881.33" cy="548.23" r="225.04" transform="translate(-129.52 783.77) rotate(-45)"/><circle class="cls-82" cx="881.27" cy="548.17" r="224.98" transform="translate(-129.5 783.71) rotate(-45)"/><circle class="cls-83" cx="881.21" cy="548.11" r="224.92" transform="translate(-129.47 783.65) rotate(-45)"/><circle class="cls-84" cx="881.15" cy="548.05" r="224.86" transform="translate(-129.45 783.59) rotate(-45)"/><circle class="cls-85" cx="881.09" cy="547.99" r="224.8" transform="translate(-129.42 783.53) rotate(-45)"/><circle class="cls-86" cx="881.03" cy="547.93" r="224.74" transform="translate(-129.4 783.47) rotate(-45)"/><circle class="cls-87" cx="880.97" cy="547.87" r="224.68" transform="translate(-129.37 783.41) rotate(-45)"/><circle class="cls-88" cx="880.91" cy="547.81" r="224.62" transform="translate(-129.35 783.35) rotate(-45)"/><circle class="cls-89" cx="880.85" cy="547.75" r="224.56" transform="translate(-129.33 783.29) rotate(-45)"/><circle class="cls-90" cx="880.79" cy="547.69" r="224.5" transform="translate(-129.3 783.23) rotate(-45)"/><circle class="cls-91" cx="880.73" cy="547.63" r="224.44" transform="translate(-129.28 783.17) rotate(-45)"/><circle class="cls-92" cx="880.67" cy="547.57" r="224.38" transform="translate(-129.25 783.11) rotate(-45)"/><circle class="cls-93" cx="880.61" cy="547.51" r="224.32" transform="translate(-129.23 783.05) rotate(-45)"/><circle class="cls-94" cx="880.55" cy="547.45" r="224.26" transform="translate(-129.2 782.99) rotate(-45)"/><circle class="cls-95" cx="880.49" cy="547.39" r="224.2" transform="translate(-129.18 782.93) rotate(-45)"/><circle class="cls-96" cx="880.43" cy="547.33" r="224.14" transform="translate(-129.15 782.87) rotate(-45)"/><circle class="cls-97" cx="880.37" cy="547.27" r="224.08" transform="translate(-129.13 782.81) rotate(-45)"/><circle class="cls-98" cx="880.31" cy="547.21" r="224.02" transform="translate(-129.1 782.75) rotate(-45)"/><circle class="cls-99" cx="880.25" cy="547.15" r="223.96" transform="translate(-129.08 782.69) rotate(-45)"/><circle class="cls-100" cx="880.19" cy="547.09" r="223.9" transform="translate(-129.05 782.63) rotate(-45)"/><circle class="cls-101" cx="880.13" cy="547.03" r="223.84" transform="translate(-129.03 782.57) rotate(-45)"/><circle class="cls-102" cx="880.07" cy="546.97" r="223.78" transform="translate(-129 782.51) rotate(-45)"/><circle class="cls-103" cx="880.01" cy="546.91" r="223.72" transform="translate(-128.98 782.45) rotate(-45)"/><circle class="cls-104" cx="879.95" cy="546.85" r="223.66" transform="translate(-128.95 782.39) rotate(-45)"/><circle class="cls-105" cx="879.89" cy="546.79" r="223.6" transform="translate(-128.93 782.33) rotate(-45)"/><circle class="cls-106" cx="879.83" cy="546.73" r="223.54" transform="translate(-128.9 782.27) rotate(-45)"/><circle class="cls-107" cx="879.77" cy="546.67" r="223.48" transform="translate(-128.88 782.21) rotate(-45)"/><circle class="cls-108" cx="879.71" cy="546.61" r="223.42" transform="translate(-128.85 782.15) rotate(-45)"/><circle class="cls-109" cx="879.65" cy="546.55" r="223.36" transform="translate(-128.83 782.09) rotate(-45)"/><circle class="cls-110" cx="879.59" cy="546.49" r="223.3" transform="translate(-128.8 782.03) rotate(-45)"/><circle class="cls-111" cx="879.53" cy="546.43" r="223.24" transform="translate(-128.78 781.97) rotate(-45)"/><circle class="cls-112" cx="879.47" cy="546.37" r="223.18" transform="translate(-128.75 781.91) rotate(-45)"/><circle class="cls-113" cx="879.41" cy="546.31" r="223.12" transform="translate(-128.73 781.85) rotate(-45)"/><circle class="cls-114" cx="879.35" cy="546.25" r="223.06" transform="translate(-128.7 781.79) rotate(-45)"/><circle class="cls-115" cx="879.29" cy="546.19" r="223" transform="translate(-128.68 781.73) rotate(-45)"/><circle class="cls-116" cx="879.23" cy="546.13" r="222.94" transform="translate(-128.65 781.67) rotate(-45)"/><circle class="cls-117" cx="879.17" cy="546.07" r="222.88" transform="translate(-128.63 781.61) rotate(-45)"/><circle class="cls-118" cx="879.11" cy="546.01" r="222.82" transform="translate(-128.6 781.55) rotate(-45)"/><circle class="cls-119" cx="879.05" cy="545.95" r="222.76" transform="translate(-128.58 781.49) rotate(-45)"/><circle class="cls-120" cx="878.99" cy="545.89" r="222.7" transform="translate(-128.55 781.43) rotate(-45)"/><circle class="cls-121" cx="878.93" cy="545.83" r="222.64" transform="translate(-128.53 781.37) rotate(-45)"/><circle class="cls-122" cx="878.87" cy="545.77" r="222.58" transform="translate(-128.5 781.31) rotate(-45)"/><circle class="cls-123" cx="878.81" cy="545.71" r="222.52" transform="translate(-128.48 781.25) rotate(-45)"/><circle class="cls-124" cx="878.75" cy="545.65" r="222.46" transform="translate(-128.46 781.19) rotate(-45)"/><circle class="cls-125" cx="878.69" cy="545.59" r="222.4" transform="translate(-128.43 781.13) rotate(-45)"/><circle class="cls-126" cx="878.63" cy="545.53" r="222.34" transform="translate(-128.41 781.07) rotate(-45)"/><circle class="cls-127" cx="878.57" cy="545.47" r="222.28" transform="translate(-128.38 781.01) rotate(-45)"/><circle class="cls-128" cx="878.51" cy="545.41" r="222.22" transform="translate(-128.36 780.95) rotate(-45)"/><circle class="cls-129" cx="878.45" cy="545.35" r="222.16" transform="translate(-128.33 780.89) rotate(-45)"/><circle class="cls-130" cx="878.39" cy="545.29" r="222.1" transform="translate(-128.31 780.83) rotate(-45)"/><circle class="cls-131" cx="878.33" cy="545.23" r="222.04" transform="translate(-128.28 780.77) rotate(-45)"/><circle class="cls-132" cx="878.27" cy="545.17" r="221.98" transform="translate(-128.26 780.71) rotate(-45)"/><circle class="cls-133" cx="878.21" cy="545.11" r="221.92" transform="translate(-128.23 780.65) rotate(-45)"/><circle class="cls-134" cx="878.15" cy="545.05" r="221.86" transform="translate(-128.21 780.59) rotate(-45)"/><circle class="cls-135" cx="878.09" cy="544.99" r="221.8" transform="translate(-128.18 780.53) rotate(-45)"/><circle class="cls-136" cx="878.03" cy="544.93" r="221.74" transform="translate(-128.16 780.47) rotate(-45)"/><circle class="cls-137" cx="877.97" cy="544.87" r="221.68" transform="translate(-128.13 780.41) rotate(-45)"/><circle class="cls-138" cx="877.91" cy="544.81" r="221.62" transform="translate(-128.11 780.35) rotate(-45)"/><circle class="cls-139" cx="877.85" cy="544.75" r="221.56" transform="translate(-128.08 780.29) rotate(-45)"/><circle class="cls-140" cx="877.79" cy="544.69" r="221.5" transform="translate(-128.06 780.23) rotate(-45)"/><circle class="cls-141" cx="877.73" cy="544.63" r="221.44" transform="translate(-128.03 780.17) rotate(-45)"/><circle class="cls-142" cx="877.67" cy="544.57" r="221.38" transform="translate(-128.01 780.11) rotate(-45)"/><circle class="cls-143" cx="877.61" cy="544.51" r="221.32" transform="translate(-127.98 780.05) rotate(-45)"/><circle class="cls-144" cx="877.55" cy="544.45" r="221.26" transform="translate(-127.96 779.99) rotate(-45)"/><circle class="cls-145" cx="877.49" cy="544.39" r="221.2" transform="translate(-127.93 779.93) rotate(-45)"/><circle class="cls-146" cx="877.43" cy="544.33" r="221.14" transform="translate(-127.91 779.87) rotate(-45)"/><circle class="cls-147" cx="877.37" cy="544.27" r="221.08" transform="translate(-127.88 779.81) rotate(-45)"/><circle class="cls-148" cx="877.31" cy="544.21" r="221.02" transform="translate(-127.86 779.75) rotate(-45)"/><circle class="cls-149" cx="877.25" cy="544.15" r="220.96" transform="translate(-127.83 779.69) rotate(-45)"/><circle class="cls-150" cx="877.19" cy="544.09" r="220.9" transform="translate(-127.81 779.63) rotate(-45)"/><circle class="cls-151" cx="877.13" cy="544.03" r="220.84" transform="translate(-127.78 779.57) rotate(-45)"/><circle class="cls-152" cx="877.07" cy="543.97" r="220.78" transform="translate(-127.76 779.51) rotate(-45)"/><circle class="cls-153" cx="877.01" cy="543.91" r="220.72" transform="translate(-127.73 779.45) rotate(-45)"/><circle class="cls-154" cx="876.95" cy="543.85" r="220.66" transform="translate(-127.71 779.39) rotate(-45)"/><circle class="cls-155" cx="876.89" cy="543.79" r="220.6" transform="translate(-127.68 779.33) rotate(-45)"/><circle class="cls-156" cx="876.83" cy="543.73" r="220.54" transform="translate(-127.66 779.27) rotate(-45)"/><circle class="cls-157" cx="876.77" cy="543.67" r="220.48" transform="translate(-127.63 779.21) rotate(-45)"/><circle class="cls-158" cx="876.71" cy="543.61" r="220.42" transform="translate(-127.61 779.15) rotate(-45)"/><circle class="cls-159" cx="876.65" cy="543.55" r="220.36" transform="translate(-127.59 779.09) rotate(-45)"/><circle class="cls-160" cx="876.59" cy="543.49" r="220.3" transform="translate(-127.56 779.03) rotate(-45)"/><circle class="cls-161" cx="876.53" cy="543.43" r="220.24" transform="translate(-127.54 778.97) rotate(-45)"/><circle class="cls-162" cx="876.47" cy="543.37" r="220.18" transform="translate(-127.51 778.91) rotate(-45)"/><circle class="cls-163" cx="876.41" cy="543.31" r="220.12" transform="translate(-127.49 778.85) rotate(-45)"/><circle class="cls-164" cx="876.35" cy="543.25" r="220.06" transform="translate(-127.46 778.79) rotate(-45)"/><circle class="cls-165" cx="876.29" cy="543.19" r="220" transform="translate(-127.44 778.73) rotate(-45)"/><circle class="cls-166" cx="876.23" cy="543.13" r="219.94" transform="translate(-127.41 778.67) rotate(-45)"/><circle class="cls-167" cx="876.17" cy="543.07" r="219.88" transform="translate(-127.39 778.61) rotate(-45)"/><circle class="cls-168" cx="876.11" cy="543.01" r="219.82" transform="translate(-127.36 778.55) rotate(-45)"/><circle class="cls-169" cx="876.05" cy="542.95" r="219.76" transform="translate(-127.34 778.49) rotate(-45)"/><circle class="cls-170" cx="875.99" cy="542.89" r="219.7" transform="translate(-127.31 778.43) rotate(-45)"/><circle class="cls-171" cx="875.93" cy="542.83" r="219.64" transform="translate(-127.29 778.37) rotate(-45)"/><circle class="cls-172" cx="875.87" cy="542.77" r="219.58" transform="translate(-127.26 778.31) rotate(-45)"/><circle class="cls-173" cx="875.81" cy="542.71" r="219.52" transform="translate(-127.24 778.25) rotate(-45)"/><circle class="cls-174" cx="875.75" cy="542.65" r="219.46" transform="translate(-127.21 778.19) rotate(-45)"/><circle class="cls-175" cx="875.69" cy="542.59" r="219.4" transform="translate(-127.19 778.13) rotate(-45)"/><circle class="cls-176" cx="875.63" cy="542.53" r="219.34" transform="translate(-127.16 778.07) rotate(-45)"/><circle class="cls-177" cx="875.57" cy="542.47" r="219.28" transform="translate(-127.14 778.01) rotate(-45)"/><circle class="cls-178" cx="875.51" cy="542.41" r="219.22" transform="translate(-127.11 777.95) rotate(-45)"/><circle class="cls-179" cx="875.45" cy="542.35" r="219.16" transform="translate(-127.09 777.89) rotate(-45)"/><circle class="cls-180" cx="875.39" cy="542.29" r="219.1" transform="translate(-127.06 777.83) rotate(-45)"/><circle class="cls-181" cx="875.33" cy="542.23" r="219.04" transform="translate(-127.04 777.77) rotate(-45)"/><circle class="cls-182" cx="875.27" cy="542.17" r="218.98" transform="translate(-127.01 777.71) rotate(-45)"/><circle class="cls-183" cx="875.21" cy="542.11" r="218.92" transform="translate(-126.99 777.65) rotate(-45)"/><circle class="cls-184" cx="875.15" cy="542.05" r="218.86" transform="translate(-126.96 777.59) rotate(-45)"/><circle class="cls-185" cx="875.09" cy="541.99" r="218.8" transform="translate(-126.94 777.53) rotate(-45)"/><circle class="cls-186" cx="875.03" cy="541.93" r="218.74" transform="translate(-126.91 777.47) rotate(-45)"/><circle class="cls-187" cx="874.97" cy="541.87" r="218.68" transform="translate(-126.89 777.41) rotate(-45)"/><circle class="cls-188" cx="874.91" cy="541.81" r="218.62" transform="translate(-126.86 777.35) rotate(-45)"/><circle class="cls-189" cx="874.85" cy="541.75" r="218.56" transform="translate(-126.84 777.29) rotate(-45)"/><circle class="cls-190" cx="874.79" cy="541.69" r="218.5" transform="translate(-126.81 777.23) rotate(-45)"/><circle class="cls-191" cx="874.73" cy="541.63" r="218.44" transform="translate(-126.79 777.17) rotate(-45)"/><circle class="cls-192" cx="874.67" cy="541.57" r="218.38" transform="translate(-126.76 777.11) rotate(-45)"/><circle class="cls-193" cx="874.61" cy="541.51" r="218.32" transform="translate(-126.74 777.05) rotate(-45)"/><circle class="cls-194" cx="874.55" cy="541.45" r="218.26" transform="translate(-126.72 776.99) rotate(-45)"/><circle class="cls-195" cx="874.49" cy="541.39" r="218.2" transform="translate(-126.69 776.93) rotate(-45)"/><circle class="cls-196" cx="874.43" cy="541.33" r="218.14" transform="translate(-126.67 776.87) rotate(-45)"/><circle class="cls-197" cx="874.37" cy="541.27" r="218.08" transform="translate(-126.64 776.81) rotate(-45)"/><circle class="cls-198" cx="874.31" cy="541.21" r="218.02" transform="translate(-126.62 776.75) rotate(-45)"/><circle class="cls-199" cx="874.25" cy="541.15" r="217.96" transform="translate(-126.59 776.69) rotate(-45)"/><circle class="cls-200" cx="874.19" cy="541.09" r="217.9" transform="translate(-126.57 776.63) rotate(-45)"/><circle class="cls-201" cx="874.13" cy="541.03" r="217.84" transform="translate(-126.54 776.57) rotate(-45)"/><circle class="cls-202" cx="874.07" cy="540.97" r="217.78" transform="translate(-126.52 776.51) rotate(-45)"/><circle class="cls-203" cx="874.01" cy="540.91" r="217.72" transform="translate(-126.49 776.45) rotate(-45)"/><circle class="cls-204" cx="873.95" cy="540.85" r="217.66" transform="translate(-126.47 776.39) rotate(-45)"/><circle class="cls-205" cx="873.89" cy="540.79" r="217.6" transform="translate(-126.44 776.33) rotate(-45)"/><circle class="cls-206" cx="873.83" cy="540.73" r="217.54" transform="translate(-126.42 776.27) rotate(-45)"/><circle class="cls-207" cx="873.77" cy="540.67" r="217.48" transform="translate(-126.39 776.21) rotate(-45)"/><circle class="cls-208" cx="873.71" cy="540.61" r="217.42" transform="translate(-126.37 776.15) rotate(-45)"/><circle class="cls-209" cx="873.65" cy="540.55" r="217.36" transform="translate(-126.34 776.09) rotate(-45)"/><circle class="cls-210" cx="873.59" cy="540.49" r="217.3" transform="translate(-126.32 776.03) rotate(-45)"/><circle class="cls-211" cx="873.53" cy="540.43" r="217.24" transform="translate(-126.29 775.97) rotate(-45)"/><circle class="cls-212" cx="873.47" cy="540.37" r="217.18" transform="translate(-126.27 775.91) rotate(-45)"/><circle class="cls-213" cx="873.41" cy="540.31" r="217.12" transform="translate(-126.24 775.85) rotate(-45)"/><circle class="cls-214" cx="873.35" cy="540.25" r="217.06" transform="translate(-126.22 775.79) rotate(-45)"/><circle class="cls-215" cx="873.29" cy="540.19" r="217" transform="translate(-126.19 775.73) rotate(-45)"/><circle class="cls-216" cx="873.23" cy="540.13" r="216.94" transform="translate(-126.17 775.67) rotate(-45)"/><circle class="cls-217" cx="873.17" cy="540.07" r="216.88" transform="translate(-126.14 775.61) rotate(-45)"/><circle class="cls-218" cx="873.11" cy="540.01" r="216.82" transform="translate(-126.12 775.55) rotate(-45)"/><circle class="cls-219" cx="873.05" cy="539.95" r="216.76" transform="translate(-126.09 775.49) rotate(-45)"/><circle class="cls-220" cx="872.99" cy="539.89" r="216.7" transform="translate(-126.07 775.43) rotate(-45)"/><circle class="cls-221" cx="872.93" cy="539.83" r="216.64" transform="translate(-126.04 775.37) rotate(-45)"/><circle class="cls-222" cx="872.87" cy="539.77" r="216.58" transform="translate(-126.02 775.31) rotate(-45)"/><circle class="cls-223" cx="872.81" cy="539.71" r="216.52" transform="translate(-125.99 775.25) rotate(-45)"/><circle class="cls-224" cx="872.75" cy="539.65" r="216.46" transform="translate(-125.97 775.19) rotate(-45)"/><circle class="cls-225" cx="872.69" cy="539.59" r="216.4" transform="translate(-125.94 775.13) rotate(-45)"/><circle class="cls-226" cx="872.63" cy="539.53" r="216.34" transform="translate(-125.92 775.07) rotate(-45)"/><circle class="cls-227" cx="872.57" cy="539.47" r="216.28" transform="translate(-125.89 775.01) rotate(-45)"/><circle class="cls-228" cx="872.51" cy="539.41" r="216.22" transform="translate(-125.87 774.94) rotate(-45)"/><circle class="cls-229" cx="872.45" cy="539.35" r="216.16" transform="translate(-125.85 774.88) rotate(-45)"/><circle class="cls-230" cx="872.39" cy="539.29" r="216.1" transform="translate(-125.82 774.82) rotate(-45)"/><circle class="cls-231" cx="872.33" cy="539.23" r="216.04" transform="translate(-125.8 774.76) rotate(-45)"/><circle class="cls-232" cx="872.27" cy="539.17" r="215.98" transform="translate(-125.77 774.7) rotate(-45)"/><circle class="cls-233" cx="872.21" cy="539.11" r="215.92" transform="translate(-125.75 774.64) rotate(-45)"/><circle class="cls-234" cx="872.15" cy="539.05" r="215.86" transform="translate(-125.72 774.58) rotate(-45)"/><circle class="cls-235" cx="872.09" cy="538.99" r="215.8" transform="translate(-125.7 774.52) rotate(-45)"/><circle class="cls-236" cx="872.03" cy="538.93" r="215.74" transform="translate(-125.67 774.46) rotate(-45)"/><circle class="cls-237" cx="871.97" cy="538.87" r="215.68" transform="translate(-125.65 774.4) rotate(-45)"/><circle class="cls-238" cx="871.91" cy="538.81" r="215.62" transform="translate(-125.62 774.34) rotate(-45)"/><circle class="cls-239" cx="871.85" cy="538.75" r="215.56" transform="translate(-125.6 774.28) rotate(-45)"/><circle class="cls-240" cx="871.79" cy="538.69" r="215.5" transform="translate(-125.57 774.22) rotate(-45)"/><circle class="cls-241" cx="871.73" cy="538.63" r="215.44" transform="translate(-125.55 774.16) rotate(-45)"/><circle class="cls-242" cx="871.67" cy="538.57" r="215.38" transform="translate(-125.52 774.1) rotate(-45)"/><circle class="cls-243" cx="871.61" cy="538.51" r="215.32" transform="translate(-125.5 774.04) rotate(-45)"/><circle class="cls-244" cx="871.55" cy="538.45" r="215.26" transform="translate(-125.47 773.98) rotate(-45)"/><circle class="cls-245" cx="871.49" cy="538.39" r="215.2" transform="translate(-125.45 773.92) rotate(-45)"/><circle cx="871.43" cy="538.33" r="215.14" transform="translate(-125.42 773.86) rotate(-45)"/></g><g class="cls-265"><rect class="cls-263" x="548.71" y="183.89" width="663.76" height="648.03"/><path class="cls-264" d="M988.32,657.59C952.36,642.31,925.4,610,925.4,610l-108.76,3.6C813,631.53,756.42,653.1,716,681s-40.45,85.39-40.45,85.39l59.25,26.53L685,1055.78s90.41,27.92,165.83,32.36c91.69,5.39,191.46-22.92,191.46-22.92L979.86,873.29l1.27,0c.9-33.26,3.82-73,3.82-73l70.78-36.62C1060.23,707,1024.27,672.87,988.32,657.59Z"/><path class="cls-266" d="M922.7,387.49A79.54,79.54,0,0,1,951,437.38c3.14,19.77-3.15,47.18-3.15,47.18l-58.43-76.4Z"/><ellipse class="cls-267" cx="945.4" cy="479.28" rx="13.26" ry="17.63"/><path class="cls-268" d="M920.9,529.06c-1.79,45.84,4.5,80.89,4.5,80.89s-12.59,9.89-45.84,9-49.44-3.59-49.44-3.59,6.29-61.12,5.39-83.6Z"/><path class="cls-269" d="M920.9,529.06c-1.79,45.84,4.5,80.89,4.5,80.89s-12.59,9.89-45.84,9-49.44-3.59-49.44-3.59,6.29-61.12,5.39-83.6Z"/><path class="cls-268" d="M945.17,476.92c0,49.89-34.15,89-67,88.09s-69.66-40.89-69.66-90.78,22.47-90.79,69.66-89.89C929.06,385.31,945.17,427,945.17,476.92Z"/><path d="M850.35,467.94a4.06,4.06,0,1,1-4.05-4.4A4.24,4.24,0,0,1,850.35,467.94Z"/><path d="M923.6,465.24a4.06,4.06,0,1,1-4-4.4A4.22,4.22,0,0,1,923.6,465.24Z"/><path class="cls-256" d="M910.26,508.31c0,8.48-11.84,15.35-26.43,15.35s-26.43-6.87-26.43-15.35,12-2.15,26.62-2.15S910.26,499.83,910.26,508.31Z"/><path class="cls-257" d="M913.51,487.2a12.36,12.36,0,1,0,14.34-10A12.36,12.36,0,0,0,913.51,487.2Z"/><path class="cls-257" d="M826.77,492.59a12.36,12.36,0,1,0,14.34-10A12.36,12.36,0,0,0,826.77,492.59Z"/><path class="cls-266" d="M929.44,381.2c-5.24-15.22-48.08-21.58-78.2-10.79s-66.51,38.65-67.86,100.67,6.07,139.77,1.35,205.16-41.12,199.55,0,198.2S838,739.61,840.68,678.94s-1.93-129.72-5.17-160.22c-3.14-29.66-4-55.73-4-55.73s25.17-10.78,53.48-31.91C920.34,404.68,933.94,394.23,929.44,381.2Z"/><path class="cls-250" d="M987,772.65s-40.45,207.63-15.51,225.83,56.63-64,56.63-64l27.64-170.78s-10.78,9-33.71,11.68S987,772.65,987,772.65Z"/><path class="cls-250" d="M675.52,766.35a103.56,103.56,0,0,0,36.4,9.67c20.23,1.34,29-.68,29-.68s4.72,99.1,3.37,158.42-9.44,87-28.31,89-37.08-125.39-39.1-161.12S675.52,766.35,675.52,766.35Z"/><path class="cls-270" d="M987,772.65s-40.45,207.63-15.51,225.83,56.63-64,56.63-64l27.64-170.78s-10.78,9-33.71,11.68S987,772.65,987,772.65Z"/><path class="cls-271" d="M675.52,766.35a103.56,103.56,0,0,0,36.4,9.67c20.23,1.34,29-.68,29-.68s4.72,99.1,3.37,158.42-9.44,87-28.31,89-37.08-125.39-39.1-161.12S675.52,766.35,675.52,766.35Z"/><path class="cls-250" d="M976.86,1004.55c-13.49-6.49-6.74-58,31.68-98.43s128.09-138.87,138.87-141.56,36.41,2,60.68-.68,53.93-16.18,56.62-12.13-33,33-55.28,38.42-43.14,8.09-43.14,8.09-37.75,55.28-62,105.84S1011.91,1021.4,976.86,1004.55Z"/><path class="cls-250" d="M716,1022.75c-29.05,7.26-60-29-84.94-80.22s-60.68-130.79-60.68-130.79-22.92,4-43.14-2-39.77-29-33.71-30.33,37.75,10.11,54.61,8.09,33-12.14,45.84-6.07,49.88,66.74,72.81,97.75,52.58,60,63.36,88.31S737.54,1017.36,716,1022.75Z"/><path class="cls-272" d="M885.87,461.78l-13.1,21a4,4,0,0,0,3,6L889,490.12Z"/></g></g></g></svg>