<svg xmlns="http://www.w3.org/2000/svg" xmlns:xlink="http://www.w3.org/1999/xlink" viewBox="0 0 498.68 242.73"><defs><style>.cls-1{isolation:isolate;}.cls-2{fill:#f29d7e;}.cls-3{opacity:0.61;fill:url(#linear-gradient);}.cls-10,.cls-11,.cls-19,.cls-3,.cls-4,.cls-5,.cls-6,.cls-7,.cls-9{mix-blend-mode:multiply;}.cls-4{opacity:0.43;fill:url(#linear-gradient-2);}.cls-5{opacity:0.73;fill:url(#linear-gradient-3);}.cls-19,.cls-6,.cls-7{fill:#cbc7ff;}.cls-6{opacity:0.39;}.cls-7{opacity:0.32;}.cls-8{opacity:0.16;fill:url(#linear-gradient-4);}.cls-10,.cls-11,.cls-9{opacity:0.72;}.cls-9{fill:url(#linear-gradient-5);}.cls-10{fill:url(#linear-gradient-6);}.cls-11{fill:url(#linear-gradient-7);}.cls-12,.cls-18{fill:#f8c3b8;}.cls-13{fill:#f6b7ab;}.cls-14{fill:#fad8d1;}.cls-15{fill:#f4a696;}.cls-16{fill:#f4a494;}.cls-17{fill:#f3a08f;}.cls-18{opacity:0.5;}.cls-19{opacity:0.7;}.cls-20{fill:#faf8dc;}.cls-21{fill:#0d232b;}</style><linearGradient id="linear-gradient" x1="285.59" y1="177.37" x2="318.55" y2="132.25" gradientUnits="userSpaceOnUse"><stop offset="0" stop-color="#f0c3a8"/><stop offset="1" stop-color="#fff"/></linearGradient><linearGradient id="linear-gradient-2" x1="159.32" y1="216.55" x2="168.19" y2="50.3" xlink:href="#linear-gradient"/><linearGradient id="linear-gradient-3" x1="249.98" y1="218.25" x2="263.15" y2="179.52" xlink:href="#linear-gradient"/><linearGradient id="linear-gradient-4" x1="248.1" y1="65.34" x2="273.96" y2="91.96" gradientUnits="userSpaceOnUse"><stop offset="0" stop-color="#fff"/><stop offset="1" stop-color="#f5d0ba" stop-opacity="0"/></linearGradient><linearGradient id="linear-gradient-5" x1="250.26" y1="226.94" x2="272.06" y2="224.41" xlink:href="#linear-gradient"/><linearGradient id="linear-gradient-6" x1="217.74" y1="221.18" x2="239.54" y2="223.71" xlink:href="#linear-gradient"/><linearGradient id="linear-gradient-7" x1="185.91" y1="215.22" x2="215.06" y2="212.68" xlink:href="#linear-gradient"/></defs><title>workexpAsset 16</title><g class="cls-1"><g id="Layer_2" data-name="Layer 2"><g id="Layer_1-2" data-name="Layer 1"><path class="cls-2" d="M232.76,120.81s15.21,43.72,38,60.45S323,197.86,323,197.86s61.09-31.05,76.68-47.78c0,0,11.78-38.4-4.57-67.3S232.76,120.81,232.76,120.81Z"/><path class="cls-3" d="M232.76,120.81s15.21,43.72,38,60.45S323,197.86,323,197.86s61.09-31.05,76.68-47.78c0,0,11.78-38.4-4.57-67.3S232.76,120.81,232.76,120.81Z"/><path class="cls-2" d="M16.28,43.24S2.38,68.34,1.2,114c-1.14,44.11,11,67.17,11,67.17s78.07.26,106.46,4.31,63.88,33.72,106.46,37.77,54.5-1.9,54.5-1.9,24.66,6.25,36.57-2c10.2-7.09,6.78-21.42,6.78-21.42s-43.86-20.4-60.2-39a111.55,111.55,0,0,1-22.06-39.55L288.27,79s-31.56-25.09-65.4-25.85-76,.76-102.66,1.14S16.28,43.24,16.28,43.24Z"/><path class="cls-4" d="M16.28,43.24S2.38,68.34,1.2,114c-1.14,44.11,11,67.17,11,67.17s78.07.26,106.46,4.31,63.88,33.72,106.46,37.77,54.25-1.9,54.25-1.9,23.18,6.48,36.25-1.65c11.21-7,7.35-21.8,7.35-21.8s-43.86-20.4-60.2-39a111.55,111.55,0,0,1-22.06-39.55L288.27,79s-31.56-25.09-65.4-25.85-76,.76-102.66,1.14S16.28,43.24,16.28,43.24Z"/><path class="cls-5" d="M316.22,219.28c12.35-8.87,6.78-21.42,6.78-21.42s-43.86-20.4-60.2-39a111.55,111.55,0,0,1-22.06-39.55l1.23-1-2.12-2-28.64,8.37s-4.31,43.85,19.27,63.11c18.46,15.09,37.3,29.45,53.48,34.61C291.06,223.47,305.21,227.19,316.22,219.28Z"/><path class="cls-6" d="M277.5,227.08c.6-1.91,1.19-3.82,1.69-5.76a6.57,6.57,0,0,0-.79-.23,21,21,0,0,0-13.86,2c.79-5.3-3.34-9-10-10.62-6.12-1.51-12.66.23-18.67,3.36,4-8.62,1.64-16.27-5.36-19.65-7.49-3.6-12.83-4.9-22.28,2.77,3.7-7.46,3.36-13.69-2.12-18.06-9.17-7.34-23.4-6.66-35.46,10-4.63,6.42-7.54,12.71-8.35,18.26,18.07,8.62,38,17.39,59.77,19.46,42.59,4.06,54.37-2.15,54.37-2.15A5.76,5.76,0,0,0,277.5,227.08Z"/><path class="cls-7" d="M393,93.05,362.3,42c-22.59,5.28-73.1,23.34-111.1,40.4-35.08,15.76-42.19,32.88-58,52.3s2.56,30.43,18.65,22.76c8.36-4,11.44-11.24,17.87-17.11,6.15-5.63,20.61,1.2,25.17,8.18,3.24,5,7.17,10,11.33,13.3,18.63,18.06,56.78,36,56.78,36s-47.91-25.6-59.57-47.4c14.7,2.54,21.8-10.9,41.82-9.88C341.38,142.41,379.13,112.75,393,93.05Z"/><path class="cls-2" d="M362.79,39.06C340,43.24,288.65,58.83,249.87,74c-35.8,14-43.73,30.8-60.46,49.43s-.38,29.65,17.11,26.23,37.26-25.47,37.26-25.47,28.14,15.59,64.26,13.69,73.77-22.44,88.59-41.45Z"/><path class="cls-8" d="M362.79,39.06C340,43.24,288.65,58.83,249.87,74c-35.8,14-43.73,30.8-60.46,49.43s-.38,29.65,17.11,26.23,37.26-25.47,37.26-25.47,28.14,15.59,64.26,13.69,73.77-22.44,88.59-41.45Z"/><path class="cls-2" d="M244.67,235.63c9.63,4.06,18.76,7.35,31.94-3.8s8.36-20-.76-21-17,4.82-22.05,11.15A111.54,111.54,0,0,0,244.67,235.63Z"/><path class="cls-9" d="M244.67,235.63c9.63,4.06,18.76,7.35,31.94-3.8s8.36-20-.76-21-17,4.82-22.05,11.15A111.54,111.54,0,0,0,244.67,235.63Z"/><path class="cls-2" d="M251.26,204.71c10.41,1.42,15.46,8.36,6.09,20s-20.54,19.52-31.44,17.75-12.42-5.07-12.42-9.64S232.76,202.17,251.26,204.71Z"/><path class="cls-10" d="M251.26,204.71c10.41,1.42,15.46,8.36,6.09,20s-20.54,19.52-31.44,17.75-12.42-5.07-12.42-9.64S232.76,202.17,251.26,204.71Z"/><path class="cls-2" d="M197.27,236.65c13.58,2.26,19.77-3.55,30.16-16.73s8.12-25.35-1.77-28.9-16-3.8-29.4,13.94S180.54,233.86,197.27,236.65Z"/><path class="cls-11" d="M197.27,236.65c13.58,2.26,19.77-3.55,30.16-16.73s8.12-25.35-1.77-28.9-16-3.8-29.4,13.94S180.54,233.86,197.27,236.65Z"/><path class="cls-2" d="M165.58,192c10.26-17.86,24.34-20,34.22-13.68,9,5.75,6.6,17-3.54,31.17s-9.76,24.06-27.89,16.73C156.46,221.44,156.71,207.5,165.58,192Z"/><path class="cls-12" d="M182.19,180.12l6.08,3.87a38.44,38.44,0,0,0,8.87,4.24c2.76.94,5.48,1.87,5,2.73s-6.37,2.75-13.21-2.57S182.19,180.12,182.19,180.12Z"/><path class="cls-12" d="M211.08,195.33s.57.06,3.3,2.79a17.71,17.71,0,0,0,8.55,4.5c3.21.77,8.56,1.14,8.12,2.4s-7,1.4-12.23-1.07S211.08,195.33,211.08,195.33Z"/><path class="cls-13" d="M183.09,133.67c4.5,3.55,9.31,6.13,16.67.83a3.34,3.34,0,0,0,.68-4.74,34.54,34.54,0,0,0-9.12-8.46c-.62.72-1.26,1.44-1.91,2.17A28.6,28.6,0,0,0,183.09,133.67Z"/><path class="cls-14" d="M183.54,132.43c-.17.42-.32.83-.45,1.24,3.09,2.43,6.32,4.41,10.42,3.71C189.7,137,186.45,134.75,183.54,132.43Z"/><path class="cls-15" d="M182.19,180.12a29.15,29.15,0,0,0,9.31,7A75.43,75.43,0,0,0,202.15,191s-5.51,12.54-18.25,5.51S182.19,180.12,182.19,180.12Z"/><path class="cls-12" d="M246.83,213.58s.69.13,2.59,2.22a11.31,11.31,0,0,0,5.52,3.55c2,.63,5.26,1.26,5.26,1.26l-.76,1s-5.2.7-8.56-2.16A12.14,12.14,0,0,1,246.83,213.58Z"/><path class="cls-16" d="M211.08,195.33a16.29,16.29,0,0,0,9.51,7.79,42.49,42.49,0,0,0,10.46,1.9s-2.86,11.22-15.59,6.28S211.08,195.33,211.08,195.33Z"/><path class="cls-12" d="M272.11,221.37a5.68,5.68,0,0,1,2.66,1.4c1.52,1.27,6.21,2.53,7.54,2.66l-.5.95s-4.44-.13-7-1.77S272.11,221.37,272.11,221.37Z"/><path class="cls-15" d="M257.35,224.73a32.6,32.6,0,0,0,2.47-3.5l-.26,0c-10.26-1.52-12.73-7.6-12.73-7.6-5.71,5.51-2.86,12.55,4.94,15.4a9.21,9.21,0,0,0,1.54.41Q255.37,227.19,257.35,224.73Z"/><path class="cls-17" d="M282.05,226.07c-7.51-1.16-9.94-4.7-9.94-4.7s-4,6.28,2.09,9.32a8,8,0,0,0,2.86.74A30.8,30.8,0,0,0,282.05,226.07Z"/><path class="cls-12" d="M199.43,128.52a32.42,32.42,0,0,0-8.11-7.22c-.62.72-1.26,1.44-1.91,2.17-.82.91-1.56,1.8-2.22,2.68a10.69,10.69,0,0,0,3.38,2.46A9.57,9.57,0,0,0,199.43,128.52Z"/><path class="cls-18" d="M187.12,192c-3.22-1.42-6.53-1.31-8.3.08a13.15,13.15,0,0,0,5.08,4.44,14.15,14.15,0,0,0,8.77,2C192.74,196.17,190.53,193.45,187.12,192Z"/><path class="cls-18" d="M209.67,207.13a11.78,11.78,0,0,0,5.79,4.17,14.75,14.75,0,0,0,7.75,1.11c-.41-2.21-2.81-4.48-6.15-5.56A9.54,9.54,0,0,0,209.67,207.13Z"/><path class="cls-18" d="M250.94,223a9.38,9.38,0,0,0-6.42,0c1.14,2.51,3.67,4.7,7.25,6a9.21,9.21,0,0,0,1.54.41c.89-1,1.77-2,2.64-3A9.75,9.75,0,0,0,250.94,223Z"/><path class="cls-18" d="M271.2,227.68a5.8,5.8,0,0,0,3,3,8,8,0,0,0,2.86.74c.84-.73,1.6-1.45,2.29-2.15a7.65,7.65,0,0,0-3.56-1.86A7.34,7.34,0,0,0,271.2,227.68Z"/><path class="cls-19" d="M121.92,54.24l-1.71,0c-10.26.14-28-1.46-46-3.49-4.51,11.37-10.32,31.75-11.35,62.9a385.93,385.93,0,0,0,3.73,68.42c18.06.57,36.64,1.47,48.75,2.91a2.22,2.22,0,0,0-.06-.44C103,136.7,109.78,81.05,121.9,54.31,121.91,54.29,121.91,54.26,121.92,54.24Z"/><path class="cls-20" d="M118.06,51.53c-8-.46-30.44-1.87-45.55-3.66-5,11-11.94,31.36-14.28,63.32a382,382,0,0,0,1.57,73.65c15.63.44,32.32,1.14,45.38,2.22a2.44,2.44,0,0,0,2.59-2.93C97.45,135.8,106.46,80.47,119.64,54.24A1.88,1.88,0,0,0,118.06,51.53Z"/><path class="cls-21" d="M59,111.15c2.19-30.88,8.41-51.29,13.3-63a1.87,1.87,0,0,0-1.5-2.58C43.51,42.12,17,37.92,17,37.92S3.17,56.21.44,112.82c-2.66,55.13,7.61,73,7.61,73s25.62.55,49.57,1.21a2.53,2.53,0,0,0,2.6-2.82A408.69,408.69,0,0,1,59,111.15Z"/><path class="cls-19" d="M63.94,111.93c.49-30.64,6.29-52.06,11.15-63.87-1.85-.2-.88,0-2.58-.19-5,11-11.94,31.36-14.28,63.32a382,382,0,0,0,1.57,73.65c2,0,12.75.79,14.78.86C74.64,185.44,63.43,143.62,63.94,111.93Z"/><path class="cls-19" d="M391.81,157a67.16,67.16,0,0,0,7.87-6.94s11.78-38.4-4.57-67.3c-1.87-3.31-5.45-5.36-10.32-6.4l-22-37.32c-1.4.25-2.92.56-4.53.9C375.49,62.32,393.33,111,391.81,157Z"/><path class="cls-20" d="M360.55,35.42c7.66-2.23,29.25-8.61,43.58-13.69,7.22,9,18.35,26.21,27.47,55.14a341.53,341.53,0,0,1,14.26,68.24c-15.13,3.95-31.24,8.37-43.72,12.32a2.36,2.36,0,0,1-3.16-2.11c-.3-46.89-20.93-95.85-39.39-117A1.78,1.78,0,0,1,360.55,35.42Z"/><path class="cls-21" d="M430.86,77c-8.76-28-19.19-45.37-26.47-55.11a1.76,1.76,0,0,1,.91-2.71C431.15,9.86,456,0,456,0s34.3,5.77,40.22,64.53c5.33,52.85.23,69.77.23,69.77s-24.85,6.31-48,12.34a2.47,2.47,0,0,1-3.14-2A365.79,365.79,0,0,0,430.86,77Z"/><path class="cls-19" d="M426.21,78.84c-7-28.14-17.28-46.56-24.55-56.35,1.76-.6.86-.19,2.47-.76,7.22,9,18.35,26.21,27.47,55.14a341.53,341.53,0,0,1,14.26,68.24c-1.95.51-12.25,3.62-14.22,4.14C431.53,149,433.49,107.94,426.21,78.84Z"/></g></g></g></svg>