<svg xmlns="http://www.w3.org/2000/svg" viewBox="0 0 40 40">
  <defs>
    <style>
      .cls-1 {
        fill: #22283a;
      }
    </style>
  </defs>
  <g id="Group_5086" data-name="Group 5086" transform="translate(380 1818)">
    <g id="Group_41" data-name="Group 41" transform="translate(-380 -1818)">
      <path id="Path_5" data-name="Path 5" class="cls-1" d="M107.5,38.727,95.483,31.8,91.1,34.319l5.013,2.947,9.673,5.567L108,41.548A21.344,21.344,0,0,0,107.5,38.727Z" transform="translate(-68.153 -23.79)"/>
      <path id="Path_6" data-name="Path 6" class="cls-1" d="M15.743,54.156l4.232-2.443-3.1-1.814L4.358,42.569,4.332,30A19.917,19.917,0,0,0,0,42.368v.151A19.958,19.958,0,0,0,4.358,54.912V47.557l9.5,5.491Z" transform="translate(0 -22.443)"/>
      <path id="Path_7" data-name="Path 7" class="cls-1" d="M55.236,0a20.434,20.434,0,0,0-3.048.227l6.1,3.5h0l-1.562.907h0L52.818,6.9,49.846,8.615h0L47.1,10.2v4.912l7.909-4.534h-.025l1.562-.907h0l3.98-2.292,2.04-1.159L73.825,12.7A20.017,20.017,0,0,0,55.236,0Z" transform="translate(-35.236 0)"/>
      <path id="Path_8" data-name="Path 8" class="cls-1" d="M62.212,107.6,57.7,110.22l-.781.453L47.3,116.24v2.544a21.475,21.475,0,0,0,2.7.957l12.242-7.078Z" transform="translate(-35.386 -80.497)"/>
      <path id="Path_9" data-name="Path 9" class="cls-1" d="M28.008,112.969,23.6,110.4v6.4a19.388,19.388,0,0,0,4.408,3.3l-.025-2.645.025-.025Z" transform="translate(-17.655 -82.591)"/>
      <path id="Path_10" data-name="Path 10" class="cls-1" d="M88.788,73.312l-5.97,3.451V74.975h0V69.886h0V68.1h0v-3.9L78.486,61.7v8.892h0v8.69L67,85.907a21.469,21.469,0,0,0,3.123.252,20.084,20.084,0,0,0,10.3-2.846l.1-.05A19.982,19.982,0,0,0,88.788,73.312Z" transform="translate(-50.123 -46.158)"/>
      <path id="Path_11" data-name="Path 11" class="cls-1" d="M47.2,75.487l2.393,1.385,6.448,3.778-.05-5.39-3.476-1.889h0L47.2,70.5Z" transform="translate(-35.311 -52.742)"/>
      <path id="Path_12" data-name="Path 12" class="cls-1" d="M23.4,17.34l.025,13.426,4.358,2.544.05-4.761V25.7l-.025-4.861h.025V16.634L25.692,15.4A16.965,16.965,0,0,0,23.4,17.34Z" transform="translate(-17.506 -11.521)"/>
      <path id="Path_13" data-name="Path 13" class="cls-1" d="M50.5,50.537l4.509,2.443,3.4-1.839,1.562-.831h0l.756-.428,3.048-1.637-.176-.1-2.569-1.461L59.19,45.6l-1.637.882-3.879,2.242Z" transform="translate(-37.78 -34.114)"/>
      <path id="Path_14" data-name="Path 14" class="cls-1" d="M141.743,78.128V77.7l-2.267,1.335-.076-.05-3.4,1.94v5.088l5.113-2.972A19.04,19.04,0,0,0,141.743,78.128Z" transform="translate(-101.743 -58.128)"/>
      <path id="Path_15" data-name="Path 15" class="cls-1" d="M88.176,71.35l.025,2.519,4.534-2.645L92.71,61.4,88.1,63.894Z" transform="translate(-65.909 -45.934)"/>
      <path id="Path_16" data-name="Path 16" class="cls-1" d="M38.4,5.041,40.591,6.25v.126l3.652,2.091,4.383-2.544L43.387,2.9A19.008,19.008,0,0,0,38.4,5.041Z" transform="translate(-28.727 -2.17)"/>
    </g>
    <path id="Path_17" data-name="Path 17" class="cls-1" d="M107.5,38.727,95.483,31.8,91.1,34.319l5.013,2.947,9.673,5.567L108,41.548A21.336,21.336,0,0,0,107.5,38.727Z" transform="translate(-448.152 -1841.79)"/>
    <path id="Path_18" data-name="Path 18" class="cls-1" d="M15.743,54.156l4.232-2.443-3.1-1.814L4.358,42.569,4.333,30A19.917,19.917,0,0,0,0,42.368v.151A19.958,19.958,0,0,0,4.358,54.912V47.557l9.5,5.491Z" transform="translate(-380 -1840.444)"/>
    <path id="Path_19" data-name="Path 19" class="cls-1" d="M55.236,0a20.434,20.434,0,0,0-3.048.227l6.1,3.5h0l-1.562.907h0L52.818,6.9,49.846,8.615h0L47.1,10.2v4.912l7.909-4.534h-.025l1.562-.907h0l3.98-2.292,2.04-1.159L73.825,12.7A20.017,20.017,0,0,0,55.236,0Z" transform="translate(-415.235 -1818)"/>
    <path id="Path_20" data-name="Path 20" class="cls-1" d="M62.212,107.6,57.7,110.22l-.781.453L47.3,116.24v2.544a21.475,21.475,0,0,0,2.7.957l12.242-7.078Z" transform="translate(-415.386 -1898.497)"/>
    <path id="Path_21" data-name="Path 21" class="cls-1" d="M28.008,112.969,23.6,110.4v6.4a19.387,19.387,0,0,0,4.408,3.3l-.025-2.645.025-.025Z" transform="translate(-397.656 -1900.591)"/>
    <path id="Path_22" data-name="Path 22" class="cls-1" d="M88.788,73.312l-5.97,3.451V74.975h0V69.886h0V68.1h0v-3.9L78.486,61.7v8.892h0v8.69L67,85.907a21.465,21.465,0,0,0,3.123.252,20.084,20.084,0,0,0,10.3-2.846l.1-.05A19.982,19.982,0,0,0,88.788,73.312Z" transform="translate(-430.123 -1864.158)"/>
    <path id="Path_23" data-name="Path 23" class="cls-1" d="M47.2,75.487l2.393,1.385,6.448,3.778-.05-5.39-3.476-1.889h0L47.2,70.5Z" transform="translate(-415.311 -1870.742)"/>
    <path id="Path_24" data-name="Path 24" class="cls-1" d="M23.4,17.34l.025,13.426,4.358,2.544.05-4.761V25.7l-.025-4.861h.025V16.634L25.692,15.4A16.965,16.965,0,0,0,23.4,17.34Z" transform="translate(-397.506 -1829.521)"/>
    <path id="Path_25" data-name="Path 25" class="cls-1" d="M50.5,50.537l4.509,2.443,3.4-1.839,1.562-.831h0l.756-.428,3.048-1.637-.176-.1-2.569-1.461L59.19,45.6l-1.637.882-3.879,2.242Z" transform="translate(-417.78 -1852.114)"/>
    <path id="Path_26" data-name="Path 26" class="cls-1" d="M141.743,78.128V77.7l-2.267,1.335-.076-.05L136,80.924v5.088l5.113-2.972A19.041,19.041,0,0,0,141.743,78.128Z" transform="translate(-481.743 -1876.128)"/>
    <path id="Path_27" data-name="Path 27" class="cls-1" d="M88.176,71.35l.025,2.519,4.534-2.645L92.71,61.4,88.1,63.894Z" transform="translate(-445.909 -1863.934)"/>
    <path id="Path_28" data-name="Path 28" class="cls-1" d="M38.4,5.041,40.591,6.25v.126l3.652,2.091,4.383-2.544L43.387,2.9A19.008,19.008,0,0,0,38.4,5.041Z" transform="translate(-408.728 -1820.17)"/>
  </g>
</svg>
