<svg id="Group_1" data-name="Group 1" xmlns="http://www.w3.org/2000/svg" viewBox="0 0 86.908 14">
  <defs>
    <style>
      .cls-1 {
        fill: #8446e8;
      }

      .cls-2 {
        fill: rgba(13,13,13,0.25);
      }
    </style>
  </defs>
  <g id="Group_4772" data-name="Group 4772">
    <path id="path-23" class="cls-1" d="M8.053.41,9.7,3.771a.754.754,0,0,0,.58.428l3.7.55a.781.781,0,0,1,.428,1.344l-2.658,2.6a.739.739,0,0,0-.214.7l.641,3.666a.78.78,0,0,1-1.13.825l-3.3-1.741a.778.778,0,0,0-.733,0l-3.33,1.741a.775.775,0,0,1-1.13-.825L3.2,9.391a.85.85,0,0,0-.214-.7L.263,6.092A.789.789,0,0,1,.691,4.748l3.7-.55a.709.709,0,0,0,.58-.428L6.617.41A.81.81,0,0,1,8.053.41Z" transform="translate(-0.027 0.025)"/>
    <path id="path-23-2" data-name="path-23" class="cls-1" d="M8.053.41,9.7,3.771a.754.754,0,0,0,.58.428l3.7.55a.781.781,0,0,1,.428,1.344l-2.658,2.6a.739.739,0,0,0-.214.7l.641,3.666a.78.78,0,0,1-1.13.825l-3.3-1.741a.778.778,0,0,0-.733,0l-3.33,1.741a.775.775,0,0,1-1.13-.825L3.2,9.391a.85.85,0,0,0-.214-.7L.263,6.092A.789.789,0,0,1,.691,4.748l3.7-.55a.709.709,0,0,0,.58-.428L6.617.41A.81.81,0,0,1,8.053.41Z" transform="translate(17.8 0.025)"/>
    <path id="path-23-3" data-name="path-23" class="cls-1" d="M8.053.41,9.7,3.771a.754.754,0,0,0,.58.428l3.7.55a.781.781,0,0,1,.428,1.344l-2.658,2.6a.739.739,0,0,0-.214.7l.641,3.666a.78.78,0,0,1-1.13.825l-3.3-1.741a.778.778,0,0,0-.733,0l-3.33,1.741a.775.775,0,0,1-1.13-.825L3.2,9.391a.85.85,0,0,0-.214-.7L.263,6.092A.789.789,0,0,1,.691,4.748l3.7-.55a.709.709,0,0,0,.58-.428L6.617.41A.81.81,0,0,1,8.053.41Z" transform="translate(36.598 0.025)"/>
    <path id="path-23-4" data-name="path-23" class="cls-1" d="M8.053.41,9.7,3.771a.754.754,0,0,0,.58.428l3.7.55a.781.781,0,0,1,.428,1.344l-2.658,2.6a.739.739,0,0,0-.214.7l.641,3.666a.78.78,0,0,1-1.13.825l-3.3-1.741a.778.778,0,0,0-.733,0l-3.33,1.741a.775.775,0,0,1-1.13-.825L3.2,9.391a.85.85,0,0,0-.214-.7L.263,6.092A.789.789,0,0,1,.691,4.748l3.7-.55a.709.709,0,0,0,.58-.428L6.617.41A.81.81,0,0,1,8.053.41Z" transform="translate(54.425 0.025)"/>
    <path id="path-23-5" data-name="path-23" class="cls-2" d="M8.053.41,9.7,3.771a.754.754,0,0,0,.58.428l3.7.55a.781.781,0,0,1,.428,1.344l-2.658,2.6a.739.739,0,0,0-.214.7l.641,3.666a.78.78,0,0,1-1.13.825l-3.3-1.741a.778.778,0,0,0-.733,0l-3.33,1.741a.775.775,0,0,1-1.13-.825L3.2,9.391a.85.85,0,0,0-.214-.7L.263,6.092A.789.789,0,0,1,.691,4.748l3.7-.55a.709.709,0,0,0,.58-.428L6.617.41A.81.81,0,0,1,8.053.41Z" transform="translate(72.252 0.025)"/>
  </g>
</svg>
