<svg xmlns="http://www.w3.org/2000/svg" viewBox="0 0 301.168 232.005">
  <defs>
    <style>
      .cls-1 {
        fill: #bce1e9;
      }
    </style>
  </defs>
  <g id="Group_7677" data-name="Group 7677" transform="translate(-936.404 -929)">
    <path id="Path_14625" data-name="Path 14625" class="cls-1" d="M554.173,20.989a6.973,6.973,0,0,1,0-13.946h.563a10.523,10.523,0,0,1,19.862,0c.282,0,.563-.07.845-.07a7.417,7.417,0,0,1,3.1.7A9.108,9.108,0,0,1,586.5,2.888a9.015,9.015,0,1,1,0,18.031H554.173Z" transform="translate(389.205 1140.016)"/>
    <path id="Path_30786" data-name="Path 30786" class="cls-1" d="M297.874,196.241a12.509,12.509,0,1,0,0-25.018,11.874,11.874,0,0,0-4.284.771,19.348,19.348,0,0,0-37.184-.771,13.449,13.449,0,1,0-6.854,25.018h48.322Z" transform="translate(927.189 918.417)"/>
    <path id="Path_30788" data-name="Path 30788" class="cls-1" d="M396.59,123.156a13.863,13.863,0,0,1,6.577-26.069,11.7,11.7,0,0,1,1.664.079,17.633,17.633,0,0,1,29.238-13.074,25.83,25.83,0,0,1,50.87,6.339,30.3,30.3,0,0,1-.555,5.388,21.292,21.292,0,0,1,30.981,27.416H396.59Z" transform="translate(645.371 864.4)"/>
  </g>
</svg>
