<svg xmlns="http://www.w3.org/2000/svg" viewBox="0 0 20 15.006">
  <defs>
    <style>
      .cls-1 {
        fill: #fff;
      }
    </style>
  </defs>
  <g id="code" transform="translate(0 -65.225)">
    <g id="Group_5732" data-name="Group 5732" transform="translate(0 65.225)">
      <path id="Path_12825" data-name="Path 12825" class="cls-1" d="M195.189,65.428l-.678-.186a.305.305,0,0,0-.257.027.355.355,0,0,0-.17.213l-4.077,14.109a.327.327,0,0,0,.027.268.355.355,0,0,0,.213.169l.678.186a.3.3,0,0,0,.257-.027.356.356,0,0,0,.169-.213l4.077-14.11a.328.328,0,0,0-.027-.268A.355.355,0,0,0,195.189,65.428Z" transform="translate(-182.719 -65.225)"/>
      <path id="Path_12826" data-name="Path 12826" class="cls-1" d="M6.361,119.672a.346.346,0,0,0-.109-.251l-.547-.546a.344.344,0,0,0-.5,0L.109,123.967a.344.344,0,0,0,0,.5L5.2,129.563a.344.344,0,0,0,.5,0l.547-.546a.344.344,0,0,0,0-.5l-4.3-4.3,4.3-4.3A.345.345,0,0,0,6.361,119.672Z" transform="translate(0 -116.716)"/>
      <path id="Path_12827" data-name="Path 12827" class="cls-1" d="M362.563,123.964l-5.093-5.093a.344.344,0,0,0-.5,0l-.546.546a.344.344,0,0,0,0,.5l4.3,4.3-4.3,4.3a.344.344,0,0,0,0,.5l.546.546a.344.344,0,0,0,.5,0l5.093-5.093a.344.344,0,0,0,0-.5Z" transform="translate(-342.672 -116.713)"/>
    </g>
  </g>
</svg>
