<svg xmlns="http://www.w3.org/2000/svg" viewBox="0 0 155.192 25">
  <defs>
    <style>
      .cls-1 {
        fill: #bcbcbc;
      }
    </style>
  </defs>
  <g id="Group_6581" data-name="Group 6581" transform="translate(-523 -1567)">
    <path id="path-23" class="cls-1" d="M13.418.752l2.752,6a1.268,1.268,0,0,0,.968.764L23.3,8.5a1.422,1.422,0,0,1,.714,2.4l-4.434,4.637a1.379,1.379,0,0,0-.357,1.255l1.07,6.546a1.322,1.322,0,0,1-1.886,1.473l-5.5-3.109a1.224,1.224,0,0,0-1.223,0L6.129,24.808a1.314,1.314,0,0,1-1.886-1.473l1.07-6.546a1.59,1.59,0,0,0-.357-1.255L.421,10.9a1.439,1.439,0,0,1,.714-2.4L7.3,7.516a1.193,1.193,0,0,0,.968-.764l2.752-6A1.311,1.311,0,0,1,13.418.752Z" transform="translate(522.973 1567.025)"/>
    <path id="path-23-2" data-name="path-23" class="cls-1" d="M13.418.752l2.752,6a1.268,1.268,0,0,0,.968.764L23.3,8.5a1.422,1.422,0,0,1,.714,2.4l-4.434,4.637a1.379,1.379,0,0,0-.357,1.255l1.07,6.546a1.322,1.322,0,0,1-1.886,1.473l-5.5-3.109a1.224,1.224,0,0,0-1.223,0L6.129,24.808a1.314,1.314,0,0,1-1.886-1.473l1.07-6.546a1.59,1.59,0,0,0-.357-1.255L.421,10.9a1.439,1.439,0,0,1,.714-2.4L7.3,7.516a1.193,1.193,0,0,0,.968-.764l2.752-6A1.311,1.311,0,0,1,13.418.752Z" transform="translate(555.23 1567.025)"/>
    <path id="path-23-3" data-name="path-23" class="cls-1" d="M13.418.752l2.752,6a1.268,1.268,0,0,0,.968.764L23.3,8.5a1.422,1.422,0,0,1,.714,2.4l-4.434,4.637a1.379,1.379,0,0,0-.357,1.255l1.07,6.546a1.322,1.322,0,0,1-1.886,1.473l-5.5-3.109a1.224,1.224,0,0,0-1.223,0L6.129,24.808a1.314,1.314,0,0,1-1.886-1.473l1.07-6.546a1.59,1.59,0,0,0-.357-1.255L.421,10.9a1.439,1.439,0,0,1,.714-2.4L7.3,7.516a1.193,1.193,0,0,0,.968-.764l2.752-6A1.311,1.311,0,0,1,13.418.752Z" transform="translate(589.244 1567.025)"/>
    <path id="path-23-4" data-name="path-23" class="cls-1" d="M13.418.752l2.752,6a1.268,1.268,0,0,0,.968.764L23.3,8.5a1.422,1.422,0,0,1,.714,2.4l-4.434,4.637a1.379,1.379,0,0,0-.357,1.255l1.07,6.546a1.322,1.322,0,0,1-1.886,1.473l-5.5-3.109a1.224,1.224,0,0,0-1.223,0L6.129,24.808a1.314,1.314,0,0,1-1.886-1.473l1.07-6.546a1.59,1.59,0,0,0-.357-1.255L.421,10.9a1.439,1.439,0,0,1,.714-2.4L7.3,7.516a1.193,1.193,0,0,0,.968-.764l2.752-6A1.311,1.311,0,0,1,13.418.752Z" transform="translate(621.5 1567.025)"/>
    <path id="path-23-5" data-name="path-23" class="cls-1" d="M13.418.752l2.752,6a1.268,1.268,0,0,0,.968.764L23.3,8.5a1.422,1.422,0,0,1,.714,2.4l-4.434,4.637a1.379,1.379,0,0,0-.357,1.255l1.07,6.546a1.322,1.322,0,0,1-1.886,1.473l-5.5-3.109a1.224,1.224,0,0,0-1.223,0L6.129,24.808a1.314,1.314,0,0,1-1.886-1.473l1.07-6.546a1.59,1.59,0,0,0-.357-1.255L.421,10.9a1.439,1.439,0,0,1,.714-2.4L7.3,7.516a1.193,1.193,0,0,0,.968-.764l2.752-6A1.311,1.311,0,0,1,13.418.752Z" transform="translate(653.757 1567.025)"/>
  </g>
</svg>
