<svg xmlns="http://www.w3.org/2000/svg" xmlns:xlink="http://www.w3.org/1999/xlink" viewBox="0 0 40 40">
  <defs>
    <style>
      .cls-1 {
        fill: #fff;
      }

      .cls-2 {
        fill: #3ebae8;
      }

      .cls-3 {
        clip-path: url(#clip-path);
      }
    </style>
    <clipPath id="clip-path">
      <rect id="Rectangle_5687" data-name="Rectangle 5687" class="cls-1" width="17.5" height="14.573"/>
    </clipPath>
  </defs>
  <g id="Group_6572" data-name="Group 6572" transform="translate(-423 -656)">
    <circle id="Ellipse_1152" data-name="Ellipse 1152" class="cls-2" cx="20" cy="20" r="20" transform="translate(423 656)"/>
    <g id="twitter" transform="translate(434.25 668.5)">
      <g id="Group_3917" data-name="Group 3917" transform="translate(0 0)">
        <g id="Group_3916" data-name="Group 3916" class="cls-3">
          <path id="Path_6104" data-name="Path 6104" class="cls-1" d="M17.222,1.687a6.949,6.949,0,0,1-1.2.4,3.7,3.7,0,0,0,.99-1.58.2.2,0,0,0-.291-.229,6.973,6.973,0,0,1-1.838.761.415.415,0,0,1-.117.016.493.493,0,0,1-.325-.122A3.763,3.763,0,0,0,11.953,0,4.008,4.008,0,0,0,10.76.186,3.652,3.652,0,0,0,8.3,2.811,4.078,4.078,0,0,0,8.214,4.2a.157.157,0,0,1-.032.107.134.134,0,0,1-.107.048H8.062A9.893,9.893,0,0,1,1.276.729.2.2,0,0,0,.952.755a3.762,3.762,0,0,0,.613,4.577A3.285,3.285,0,0,1,.7,5a.2.2,0,0,0-.293.171,3.78,3.78,0,0,0,2.2,3.475h-.08A3.594,3.594,0,0,1,1.9,8.59a.2.2,0,0,0-.223.255,3.769,3.769,0,0,0,2.98,2.565,6.972,6.972,0,0,1-3.89,1.181H.329a.285.285,0,0,0-.282.218.3.3,0,0,0,.143.33,10.344,10.344,0,0,0,5.195,1.4A10.44,10.44,0,0,0,9.824,13.6a9.846,9.846,0,0,0,3.246-2.432,10.709,10.709,0,0,0,1.991-3.332,10.538,10.538,0,0,0,.676-3.646V4.13a.646.646,0,0,1,.24-.5,7.333,7.333,0,0,0,1.5-1.645.2.2,0,0,0-.25-.3Zm0,0" transform="translate(-0.035 -0.005)"/>
        </g>
      </g>
    </g>
  </g>
</svg>
