<svg xmlns="http://www.w3.org/2000/svg" viewBox="0 0 527.922 394.067">
  <defs>
    <style>
      .cls-1 {
        fill: #78c7b2;
      }

      .cls-2 {
        fill: #faf8dc;
        opacity: 0.2;
      }
    </style>
  </defs>
  <g id="Group_6860" data-name="Group 6860" transform="translate(-0.078 -985.869)">
    <path id="Path_30782" data-name="Path 30782" class="cls-1" d="M66.3,280.159a49.591,49.591,0,0,1,87.189-32.047A67.17,67.17,0,0,1,266.224,288.54h.563a60.843,60.843,0,0,1,60.8,60.853,61.56,61.56,0,0,1-3.307,19.862,38.953,38.953,0,0,1,45.952,38.315c0,.916-.07,1.831-.07,2.676a64.93,64.93,0,0,1,28.359-6.409,65.59,65.59,0,0,1,65.586,65.643,64.717,64.717,0,0,1-1.056,11.762,62.96,62.96,0,0,1,86.415,76.771,52.289,52.289,0,0,1,44.756,51.768,60.515,60.515,0,0,1-1.618,13.946H66.3V280.159Z" transform="translate(-66.223 756.069)"/>
    <path id="Path_30783" data-name="Path 30783" class="cls-2" d="M124.8,315.008c.141-25.426,19.279-45.922,42.92-45.922a41.466,41.466,0,0,1,32.507,16.129A55.975,55.975,0,0,1,240.122,268.1c29.622,0,54.037,23.876,57.7,54.726h.493c29.059,0,52.63,25.356,52.63,56.7a59.684,59.684,0,0,1-2.885,18.524,29.112,29.112,0,0,1,6.121-.634c18.575,0,33.7,16.27,33.7,36.273,0,.845-.07,1.69-.07,2.536a52.949,52.949,0,0,1,24.556-5.987c31.311,0,56.782,27.4,56.782,61.135a63.161,63.161,0,0,1-.915,10.987,51.351,51.351,0,0,1,23.078-5.494c30.044,0,54.46,26.271,54.46,58.67a63.14,63.14,0,0,1-2.744,18.383c21.882,3.381,38.7,23.665,38.7,48.246a61.593,61.593,0,0,1-1.407,13.03H124.941V315.008Z" transform="translate(-94.93 744.745)"/>
  </g>
</svg>
