<svg xmlns="http://www.w3.org/2000/svg" viewBox="0 0 40 40">
  <defs>
    <style>
      .cls-1 {
        fill: #f5f5f4;
      }

      .cls-2 {
        fill: #bcbcbc;
      }
    </style>
  </defs>
  <g id="Group_5514" data-name="Group 5514" transform="translate(-1142 2349)">
    <circle id="Ellipse_1129" data-name="Ellipse 1129" class="cls-1" cx="20" cy="20" r="20" transform="translate(1142 -2349)"/>
    <path id="play-button" class="cls-2" d="M10,0A10,10,0,1,0,20,10,10.011,10.011,0,0,0,10,0Zm5.188,10.275-7.333,5a.334.334,0,0,1-.188.058A.334.334,0,0,1,7.333,15V5a.333.333,0,0,1,.521-.275l7.333,5a.333.333,0,0,1,0,.551Z" transform="translate(1152 -2339)"/>
  </g>
</svg>
