<svg xmlns="http://www.w3.org/2000/svg" viewBox="0 0 40 40">
  <defs>
    <style>
      .cls-1 {
        fill: #f5f5f4;
      }

      .cls-2 {
        fill: #bcbcbc;
      }
    </style>
  </defs>
  <g id="Group_5508" data-name="Group 5508" transform="translate(-1262 2349)">
    <circle id="Ellipse_1127" data-name="Ellipse 1127" class="cls-1" cx="20" cy="20" r="20" transform="translate(1262 -2349)"/>
    <g id="Group_4484" data-name="Group 4484">
      <path id="Path_12666" data-name="Path 12666" class="cls-2" d="M19.683,33.331H.317A.319.319,0,0,0,0,33.652V49.01a.319.319,0,0,0,.317.321H19.683A.319.319,0,0,0,20,49.01V33.652A.319.319,0,0,0,19.683,33.331ZM18.1,46.769l-4.358-4.578a.128.128,0,0,0-.179-.007l-3.023,2.7L6.676,40.057a.126.126,0,0,0-.1-.049.129.129,0,0,0-.1.053L1.9,46.281V35.259H18.1V46.769Z" transform="translate(1272 -2370.331)"/>
      <path id="Path_12667" data-name="Path 12667" class="cls-2" d="M187.085,89.645a1.577,1.577,0,1,0-1.554-1.577A1.566,1.566,0,0,0,187.085,89.645Z" transform="translate(1098.227 -2420.074)"/>
    </g>
  </g>
</svg>
