<svg xmlns="http://www.w3.org/2000/svg" viewBox="0 0 32 32">
  <defs>
    <style>
      .cls-1 {
        fill: #ea4c89;
      }

      .cls-2 {
        fill: #fff;
      }
    </style>
  </defs>
  <g id="Group_6201" data-name="Group 6201" transform="translate(-475 -656)">
    <circle id="Ellipse_1153" data-name="Ellipse 1153" class="cls-1" cx="16" cy="16" r="16" transform="translate(475 656)"/>
    <g id="dribbble" transform="translate(484 665)">
      <path id="Path_13438" data-name="Path 13438" class="cls-2" d="M7,0a7,7,0,1,0,7,7A7,7,0,0,0,7,0Zm5.661,6.5a18.139,18.139,0,0,0-3.747.249q-.216-.519-.44-.994c.093-.043.184-.087.274-.132a8.32,8.32,0,0,0,2.719-2.132A5.628,5.628,0,0,1,12.661,6.5ZM10.533,2.548A7.046,7.046,0,0,1,7.889,4.577c-.123-.233-.245-.454-.363-.662a25.641,25.641,0,0,0-1.612-2.5A5.745,5.745,0,0,1,7,1.317,5.64,5.64,0,0,1,10.533,2.548Zm-7.552.433A5.687,5.687,0,0,1,4.588,1.851,23.815,23.815,0,0,1,6.4,4.6c.082.144.165.3.25.452a13.131,13.131,0,0,1-1.768.409,16.939,16.939,0,0,1-3.4.19A5.647,5.647,0,0,1,2.981,2.981ZM1.317,7c0-.013,0-.027,0-.04.243.013.552.024.912.024a18.024,18.024,0,0,0,2.828-.22,14.084,14.084,0,0,0,2.19-.526q.181.383.359.8a11.712,11.712,0,0,0-2.393.918,8.247,8.247,0,0,0-2.831,2.363A5.641,5.641,0,0,1,1.317,7Zm1.975,4.307a7.9,7.9,0,0,1,4.8-3.042,20.753,20.753,0,0,1,1.032,4.008,5.7,5.7,0,0,1-5.835-.966Zm7.727-.288a5.762,5.762,0,0,1-.668.573A22.221,22.221,0,0,0,9.4,8a17.048,17.048,0,0,1,3.227-.186A5.64,5.64,0,0,1,11.019,11.019Z"/>
    </g>
  </g>
</svg>
