<svg xmlns="http://www.w3.org/2000/svg" xmlns:xlink="http://www.w3.org/1999/xlink" viewBox="0 0 1425.29 890.39"><defs><style>.cls-1{isolation:isolate;}.cls-2{fill:#addacf;}.cls-3,.cls-63{fill:#7ac4b2;}.cls-4{fill:#035e80;}.cls-5{fill:#f29d7e;}.cls-6{fill:#184657;}.cls-13,.cls-18,.cls-22,.cls-29,.cls-36,.cls-7{fill:#cbc7ff;}.cls-21,.cls-7{opacity:0.7;}.cls-13,.cls-18,.cls-21,.cls-28,.cls-29,.cls-32,.cls-33,.cls-36,.cls-39,.cls-40,.cls-51,.cls-52,.cls-53,.cls-54,.cls-55,.cls-56,.cls-7{mix-blend-mode:multiply;}.cls-8{fill:#ed6d53;}.cls-9{fill:#faf8de;}.cls-10{fill:#46acc3;}.cls-11{fill:#192e36;}.cls-12{fill:#e5af6e;}.cls-13{opacity:0.48;}.cls-14{fill:#dba25e;}.cls-15{fill:#efbf7f;}.cls-16{fill:#0d232b;}.cls-17{fill:#b57c3c;}.cls-19{fill:#e289a9;}.cls-20{fill:#ec7d7a;}.cls-23{fill:#41b093;}.cls-24{fill:#f6f6ee;}.cls-25{fill:#e6e5ce;}.cls-26{fill:#fcc14a;}.cls-27{fill:#d6b88d;}.cls-28{fill:url(#New_Gradient_Swatch_2);}.cls-29{opacity:0.58;}.cls-30{fill:#bd422a;}.cls-31{fill:#fcc962;}.cls-32{fill:url(#New_Gradient_Swatch_2-2);}.cls-34{fill:#c3b9dd;}.cls-35{fill:#fff;}.cls-36{opacity:0.47;}.cls-37{fill:#539f7a;}.cls-38{fill:#faf8dc;}.cls-39,.cls-40{opacity:0.72;}.cls-39{fill:url(#linear-gradient);}.cls-40{fill:url(#linear-gradient-2);}.cls-41{fill:url(#linear-gradient-3);}.cls-42{fill:#f2f2f2;}.cls-43{fill:#69bcce;}.cls-44{fill:#2b5564;}.cls-45{fill:#2f5868;}.cls-46{fill:#bbd4dd;}.cls-47{fill:#f0846f;}.cls-48{fill:#fcc85e;}.cls-49{fill:#283b42;}.cls-50{fill:#45565c;}.cls-51{fill:url(#New_Gradient_Swatch_copy_5);}.cls-52{fill:url(#New_Gradient_Swatch_copy_5-2);}.cls-53{fill:url(#New_Gradient_Swatch_copy_5-3);}.cls-54{fill:url(#New_Gradient_Swatch_copy_5-4);}.cls-55{fill:url(#New_Gradient_Swatch_copy_5-5);}.cls-56{fill:url(#New_Gradient_Swatch_copy_5-6);}.cls-57{fill:url(#linear-gradient-4);}.cls-58{fill:#9c5f2d;}.cls-59{fill:#d28d54;}.cls-60{fill:#60423a;}.cls-61{fill:#7aba8e;}.cls-62{fill:#42966d;}.cls-63{opacity:0.49;}</style><linearGradient id="New_Gradient_Swatch_2" x1="-5447.45" y1="-4050.31" x2="-5451.2" y2="-4008.14" gradientTransform="translate(5417.32 6764.6) rotate(14.83) scale(1.22)" gradientUnits="userSpaceOnUse"><stop offset="0" stop-color="#f0c3a8"/><stop offset="1" stop-color="#fff"/></linearGradient><linearGradient id="New_Gradient_Swatch_2-2" x1="-8651.3" y1="-1953.61" x2="-8656.57" y2="-1894.32" gradientTransform="matrix(-0.91, 0.18, 0.18, 0.91, -6361.51, 3652.75)" xlink:href="#New_Gradient_Swatch_2"/><linearGradient id="linear-gradient" x1="1333.04" y1="507.71" x2="1333.04" y2="504.19" gradientUnits="userSpaceOnUse"><stop offset="0" stop-color="#cbc7ff"/><stop offset="1" stop-color="#fff"/></linearGradient><linearGradient id="linear-gradient-2" x1="1321.76" y1="489.92" x2="1333" y2="489.92" xlink:href="#linear-gradient"/><linearGradient id="linear-gradient-3" x1="1333.05" y1="489.72" x2="1333.05" y2="468.33" gradientUnits="userSpaceOnUse"><stop offset="0" stop-color="#996b5a"/><stop offset="1" stop-color="#5a3c37"/></linearGradient><linearGradient id="New_Gradient_Swatch_copy_5" x1="914.84" y1="432.82" x2="890.53" y2="351.78" gradientUnits="userSpaceOnUse"><stop offset="0" stop-color="#bcc1e8"/><stop offset="1" stop-color="#bcc1e8" stop-opacity="0"/></linearGradient><linearGradient id="New_Gradient_Swatch_copy_5-2" x1="964.9" y1="437.49" x2="962.28" y2="335.77" xlink:href="#New_Gradient_Swatch_copy_5"/><linearGradient id="New_Gradient_Swatch_copy_5-3" x1="942.8" y1="441.42" x2="937.43" y2="376.44" xlink:href="#New_Gradient_Swatch_copy_5"/><linearGradient id="New_Gradient_Swatch_copy_5-4" x1="991.48" y1="398.91" x2="972.55" y2="381.35" xlink:href="#New_Gradient_Swatch_copy_5"/><linearGradient id="New_Gradient_Swatch_copy_5-5" x1="1018.09" y1="430.97" x2="1010.84" y2="403.58" xlink:href="#New_Gradient_Swatch_copy_5"/><linearGradient id="New_Gradient_Swatch_copy_5-6" x1="912.4" y1="418.9" x2="917.86" y2="405.68" xlink:href="#New_Gradient_Swatch_copy_5"/><linearGradient id="linear-gradient-4" x1="4562.83" y1="501.46" x2="4610.3" y2="501.46" gradientTransform="matrix(-1, 0, 0, 1, 4693.79, 0)" gradientUnits="userSpaceOnUse"><stop offset="0" stop-color="#d6925a"/><stop offset="0.33" stop-color="#c37b40"/><stop offset="1" stop-color="#804b1f"/></linearGradient></defs><title>myclasses teachAsset 21</title><g class="cls-1"><g id="Layer_2" data-name="Layer 2"><g id="Layer_1-2" data-name="Layer 1"><path class="cls-2" d="M517.63,32.22H861.92a394.5,394.5,0,0,1,394.5,394.5v0a118.69,118.69,0,0,1-118.69,118.69H257.63A118.69,118.69,0,0,1,138.94,426.72V410.91A378.69,378.69,0,0,1,517.63,32.22Z"/><polygon class="cls-3" points="1378.77 812.44 63.26 812.44 119.08 516.78 1339.7 516.78 1378.77 812.44"/><path class="cls-4" d="M0,761.62H1425.29a0,0,0,0,1,0,0v59.57a69.2,69.2,0,0,1-69.2,69.2H69.2A69.2,69.2,0,0,1,0,821.19V761.62a0,0,0,0,1,0,0Z"/><path class="cls-5" d="M569.81,723.87c0,10.69-3.64,38.23-3.64,38.23s-.29,3.57,4.75,3.86,55.83,0,55.83,0,.59-4.75-3-5.64S602.1,755.27,598,749.63s-.89-27-.89-27Z"/><path class="cls-6" d="M623.78,760.32c-3.43-.86-20.3-4.73-25.29-10.05-2.08,2.63-7.25,8.52-11.75,8.34-5.17-.19-12.64-2.87-19.56-4.55-.57,4.75-1,8-1,8s-.29,3.57,4.75,3.86,55.83,0,55.83,0S627.34,761.21,623.78,760.32Z"/><path class="cls-7" d="M595.87,735.79a122.7,122.7,0,0,1,1.19-13.18l-27.25,1.26c0,2.17-.15,5-.39,8.24C575.64,733.55,590.23,735.32,595.87,735.79Z"/><path class="cls-8" d="M570.92,766c5.05.3,55.83,0,55.83,0a7.69,7.69,0,0,0-.4-3.29c-5.59.14-24.48.62-33.16.62a203.12,203.12,0,0,1-27-1.59c0,.26-.05.4-.05.4S565.88,765.67,570.92,766Z"/><path class="cls-5" d="M459.92,722.18c-3,8.61-7.47,21.85-10.91,28.51-3.34,6.46-4.24,12.17-2.45,14.25s13.58,1.78,32.07,6.91a70.82,70.82,0,0,0,26.5,2s-1-6.31-5.79-6.9-17.45-7.2-20.71-11.36,7.79-28.29,7.79-28.29Z"/><path class="cls-6" d="M505.13,773.85s-1-6.31-5.79-6.9c-4.15-.52-14.36-5.63-19.06-9.68-3.09,1.84-11.33,6-17,2.11-5-3.42-10.9-7.15-14.05-9.11l-.2.42c-3.34,6.46-4.24,12.17-2.45,14.25s13.58,1.78,32.07,6.91A70.82,70.82,0,0,0,505.13,773.85Z"/><path class="cls-7" d="M486.42,727.3l-26.5-5.12c-.95,2.77-2.07,6-3.25,9.36,5.1,3.94,18.94,7.67,24.39,9C483.46,733.76,486.42,727.3,486.42,727.3Z"/><path class="cls-8" d="M505.13,773.85a12.07,12.07,0,0,0-.83-2.64c-6.83.23-19.93.46-29.24-2.93-9.52-3.46-16.33-2.94-29.4-6.39a4.8,4.8,0,0,0,.9,3.05c1.78,2.08,13.58,1.78,32.07,6.91A70.82,70.82,0,0,0,505.13,773.85Z"/><rect class="cls-9" x="624.16" y="4.21" width="284.84" height="347.34"/><path class="cls-4" d="M909,355.75H624.16a4.2,4.2,0,0,1-4.21-4.2V4.21A4.2,4.2,0,0,1,624.16,0H909a4.21,4.21,0,0,1,4.21,4.21V351.55A4.21,4.21,0,0,1,909,355.75Zm-280.64-8.41H904.79V8.41H628.36Z"/><path class="cls-10" d="M669.87,247a62.4,62.4,0,0,1,28.76-111.7l2,14A48.29,48.29,0,1,0,746,226l11.28,8.46A62.4,62.4,0,0,1,669.87,247Z"/><path class="cls-4" d="M653,741a5.12,5.12,0,0,1-.78-.06,6,6,0,0,1-5.19-6.73l49.28-379.79a6,6,0,1,1,11.92,1.55L659,735.72A6,6,0,0,1,653,741Z"/><path class="cls-4" d="M878.68,522.21H682.18c-2.84,0-5.14-2.69-5.14-6s2.3-6,5.14-6h196.5c2.85,0,5.15,2.7,5.15,6S881.53,522.21,878.68,522.21Z"/><path class="cls-11" d="M517.19,303.07c-12.82,29.65-28.24,49.68-30.05,100.76-1.44,40.85-.6,128.6-7.81,167.06s-26.24,159.25-26.24,159.25l32.85,1.6s44.07-137,57.69-200.31,12.62-61.5,12.62-61.5,7.21,41.87,7.21,100.36.2,159.05.2,159.05l36.86-2.41s17-132.6,17-240.77-27.45-192.7-27.45-192.7Z"/><path class="cls-12" d="M508,195.71c-16.43,16-52.89,81.32-43.67,101s50.48-1.2,50.48-1.2Z"/><path class="cls-8" d="M484.74,227.75c9.62,10.82,23.24,12,23.24,12V195.71s-8.42,8-13.62,16S484.74,227.75,484.74,227.75Z"/><path class="cls-13" d="M508,195.71s-8.42,8-13.62,16-9.62,16-9.62,16l.48.52c-14.18,25-26.77,55.92-20.91,68.39,9.21,19.63,50.48-1.2,50.48-1.2Z"/><path class="cls-14" d="M560.91,102.13l5.73,6.83a1.6,1.6,0,0,1-.89,2.6l-4,.86Z"/><path class="cls-4" d="M553.15,74.62c2.1-6.91-5.11-15.93-12.32-16.23S529.41,63.2,523.1,65.3s-12.62-2.7-23.74,5.11-6.31,17.73-11.11,24.64-7.22.3-15.93,11.42-3.9,17.42-11.42,23.73-13.82-1.2-22.53,11.42.6,17.73-6.31,25.84-18.63,12.62-15.33,25.84S434.46,205,439.57,202s9-17.72,14.42-21.33,14.43,1.2,25.54-6.61,9.62-18.33,19.53-21.63,27.05-12,27.05-12Z"/><path class="cls-5" d="M515.69,116.23a389.21,389.21,0,0,1,2,59.79s7.51,4.51,20.13,6.31,18.93-.6,18.93-.6-5.41-14.12-6.31-28.54-1.5-31.85-1.5-31.85Z"/><path class="cls-15" d="M515.69,116.23a389.21,389.21,0,0,1,2,59.79s7.51,4.51,20.13,6.31,18.93-.6,18.93-.6-5.41-14.12-6.31-28.54-1.5-31.85-1.5-31.85Z"/><path class="cls-15" d="M534.52,69.21c14.9-2.43,28.78,8,27.34,30.85-.8,12.72,3.76,33.45-6.31,38-9.28,4.15-18.63-1.06-24.19-18.48C524.74,98.78,505.07,74,534.52,69.21Z"/><path class="cls-14" d="M562.12,117.11c-1.75-.08-5.67-1.06-6,.24s6.1,2,6.1,2Z"/><path class="cls-6" d="M547.61,97.17a5.81,5.81,0,0,1,2-2,9,9,0,0,1,2.65-1,10.09,10.09,0,0,1,5.5.4c-1.84.27-3.57.44-5.27.78A15.26,15.26,0,0,0,547.61,97.17Z"/><circle class="cls-16" cx="554.25" cy="101.76" r="1.4"/><path class="cls-4" d="M553.45,74c-.4,6.1-8.16,1-8.92,12-.79,11.64-2.4,12.92-10,16.53S530.41,121.19,523,126.2s-20.43,6-20.43,6-10.42-38.86,2.2-51.68S533,63.46,542.43,65.1C553.35,67,553.45,74,553.45,74Z"/><circle class="cls-14" cx="548.64" cy="112.58" r="5.41"/><path class="cls-8" d="M517.69,176c-12.12,15.68-19.33,38.11-16.92,66.56s-4.81,62.9-4.81,62.9,16.82,5.6,49.27,6,54.09-8.82,54.09-8.82l-18.43-64.1s6.81-6.81,4-20.83-30-41.26-30-41.26-5.21,2-18,2.8S517.69,176,517.69,176Z"/><path class="cls-13" d="M518,231c3.41,4.41,18.83,11.22,18.83,11.22s23.44,3.4,24.44-7.41-3.61-17-3.61-17-5.2-15-12.42-19.43c0,0,11,7,18,15.42s25.64,52.48,27.85,60.7,3.8,13.82,3.8,13.82-8.61,1.6-32.25-14.22S518,231,518,231Z"/><path class="cls-15" d="M557.65,217.74s44.47,30.45,52.89,30.45,61.69-72.92,63.7-79.73,4-21.23,9.61-23.23a14.48,14.48,0,0,1,9.62-.4l-1.61-5.21s10-.8,12,6.81,2.41,19.23-6.41,33.25-26,46.87-48.47,72.91-32.85,25.64-50.08,24.84-62.1-35.25-62.1-35.25,5.21-1.2,12.82-10S557.65,217.74,557.65,217.74Z"/><path class="cls-7" d="M527.71,102.46c-9.62,2.4-11.12,1.2-19.53,10.22S498,125,489.55,127.7s-7.21,8.41-11.42,16.83-13.22,4.8-23.44,11.11-6.61,17.73-15.62,23.74c-7.7,5.14-17.16,8.3-19.93,19.24,5.34,7.37,16.15,5.91,20.43,3.39,5.11-3,9-17.72,14.42-21.33s14.43,1.2,25.54-6.61,9.62-18.33,19.53-21.63a193.59,193.59,0,0,0,18.74-8c-.18-4.93-.45-10.06-.85-15.3,2.54-.88,6-2.46,8-5a14.69,14.69,0,0,0,2.61-6.13l4.24.65Z"/><path class="cls-6" d="M562.17,101.79c-.17,0-17.62-4.11-27.75-2.84a2.37,2.37,0,0,0-2.11,2l-1.19-.14a3.56,3.56,0,0,1,3.15-3.08c10.35-1.31,27.46,2.69,28.18,2.86Z"/><path class="cls-14" d="M536.38,119.64a10.34,10.34,0,1,1-2-20.59Z"/><path class="cls-17" d="M535.91,114.77a5.45,5.45,0,0,1-1-10.85Z"/><path class="cls-6" d="M561.06,109.07H561a.59.59,0,0,1-.49-.69l2.1-12.77a.6.6,0,0,1,1.19.2l-2.11,12.77A.6.6,0,0,1,561.06,109.07Z"/><path class="cls-18" d="M525.6,347.94c-5.4,29.45,28.25,104,30.65,122l-8.41,40.26s-8.41-35.45-20.43-68.5S525.6,347.94,525.6,347.94Z"/><path class="cls-8" d="M795.63,69.11H673a5.21,5.21,0,0,1,0-10.42h122.6a5.21,5.21,0,0,1,0,10.42Z"/><path class="cls-19" d="M822.87,98H700.28a5.21,5.21,0,1,1,0-10.41H822.87a5.21,5.21,0,1,1,0,10.41Z"/><path class="cls-16" d="M693.17,145.55a1.22,1.22,0,0,1-.72-.24l-17.63-13.06a1.2,1.2,0,0,1,1.43-1.93l17.63,13.06a1.2,1.2,0,0,1-.71,2.17Z"/><path class="cls-4" d="M908.81,741a5.12,5.12,0,0,0,.78-.06,6,6,0,0,0,5.19-6.73L865.5,354.38a6,6,0,1,0-11.92,1.55l49.28,379.79A6,6,0,0,0,908.81,741Z"/><rect class="cls-20" x="228.74" y="643.2" width="19.62" height="131.65"/><rect class="cls-18" x="228.74" y="643.2" width="19.62" height="16.99"/><path class="cls-20" d="M308.47,794.68h-7.36v-4.6a10.74,10.74,0,0,0-10.73-10.73H186.73A10.74,10.74,0,0,0,176,790.08v4.6h-7.36v-4.6A18.12,18.12,0,0,1,186.73,772H290.38a18.11,18.11,0,0,1,18.09,18.09Z"/><circle class="cls-4" cx="193.4" cy="794.06" r="11.67" transform="translate(-334.69 170.32) rotate(-26.57)"/><circle class="cls-6" cx="193.4" cy="794.06" r="6.12"/><circle class="cls-4" cx="284.23" cy="794.06" r="11.67" transform="translate(-257.14 147.35) rotate(-20.24)"/><circle class="cls-6" cx="284.23" cy="794.06" r="6.12"/><g class="cls-21"><path class="cls-22" d="M273.62,789.21h21.21a11.66,11.66,0,0,0-21.21,0Z"/><path class="cls-22" d="M182.8,789.21H204a11.66,11.66,0,0,0-21.21,0Z"/><path class="cls-23" d="M273.62,789.21h21.21a11.66,11.66,0,0,0-21.21,0Z"/><path class="cls-23" d="M182.8,789.21H204a11.66,11.66,0,0,0-21.21,0Z"/></g><rect class="cls-20" x="223.51" y="692.47" width="30.08" height="32.54" rx="3.47"/><path class="cls-24" d="M382.21,543.07c0,69.51-63.35,103.12-141.49,103.12S99.24,612.58,99.24,543.07s39.38-148.62,141.48-148.62C349.52,394.45,382.21,473.55,382.21,543.07Z"/><path class="cls-25" d="M382.59,551c0,69.52-63.35,103.12-141.49,103.12S99.62,620.55,99.62,551,139,402.41,241.1,402.41C349.9,402.41,382.59,481.51,382.59,551Z"/><path class="cls-7" d="M99.62,551c0,69.52,63.34,103.12,141.48,103.12S382.59,620.55,382.59,551c0-5.15-.18-10.36-.56-15.58H100.28C99.84,540.67,99.62,545.88,99.62,551Z"/><path class="cls-16" d="M173,547.33C173,601.05,196.11,627,249.8,627s96.29-22.3,96.29-76c-5.58-13-18.35-10.85-18.61-14.89l-154-.82Q173,541.34,173,547.33Z"/><path class="cls-16" d="M249.8,627c53.7,0,96.29-22.3,96.29-76-5.58-13-13-13-18.61-14.89"/><path class="cls-5" d="M281.15,560.79c6.7,32.06-110.45,180.81-117.64,190.6-4.63,6.31,10.4,45.25,5.3,47.69s-37.93-51.16-37.93-51.16,12-15.92,22.43-33.45,63.61-123.84,78.14-150.54S274.45,528.72,281.15,560.79Z"/><path class="cls-6" d="M136.66,739.09c4.84,5.86,9,23.92,12.61,27.4,3.9,3.76,6.85,2.44,15.24.74,2.51,13.06,8.17,30.37,4.76,32-5.18,2.47-38.52-52-38.52-52S133.11,744.12,136.66,739.09Z"/><path class="cls-26" d="M132.13,745.4c2.43,4,32.57,52.77,38.14,51.76-.11,1.07-.43,1.79-1,2.07-5.18,2.47-38.52-52-38.52-52Z"/><path class="cls-5" d="M342.38,560.79c6.7,32.06-110.45,180.81-117.64,190.6-4.63,6.31,10.4,45.25,5.3,47.69s-37.93-51.16-37.93-51.16,12-15.92,22.43-33.45,63.61-123.84,78.14-150.54S335.68,528.72,342.38,560.79Z"/><path class="cls-6" d="M197.89,739.09c4.84,5.86,9,23.92,12.61,27.4,3.9,3.76,6.85,2.44,15.24.74,2.5,13.06,8.17,30.37,4.76,32-5.18,2.47-38.52-52-38.52-52S194.34,744.12,197.89,739.09Z"/><path class="cls-26" d="M193.36,745.4c2.43,4,32.57,52.77,38.14,51.76-.11,1.07-.43,1.79-1,2.07-5.18,2.47-38.52-52-38.52-52Z"/><polygon class="cls-27" points="83.7 796.09 66.2 796.09 113.92 534.42 131.42 534.42 83.7 796.09"/><polygon class="cls-18" points="106.81 573.39 124.31 573.39 131.42 534.42 113.92 534.42 106.81 573.39"/><polygon class="cls-27" points="535.07 796.09 552.57 796.09 504.84 534.42 487.34 534.42 535.07 796.09"/><polygon class="cls-18" points="511.95 573.39 494.45 573.39 487.34 534.42 504.84 534.42 511.95 573.39"/><rect class="cls-27" x="54.86" y="516.32" width="502.87" height="19.09"/><path class="cls-5" d="M238.3,381.36c12.16,12.9,34.68,9.44,39.27,6.69,8.27-4.93,5.89-.17,8.9-8.38C276.76,364,273,361.11,273.14,353.6c.18-8.29,13.29-49.13,13.29-49.13l-34.06-8.64s-12.26,40.49-15.14,47C235.49,346.8,226,353,221.85,357.44,224.9,367.64,231,373.63,238.3,381.36Z"/><path class="cls-28" d="M273.24,355.65a11.81,11.81,0,0,1-.1-2c.18-8.29,13.29-49.13,13.29-49.13l-34.06-8.64s-12.26,40.49-15.14,47a7,7,0,0,1-2.14,2.69Z"/><path class="cls-29" d="M273.51,333.15a25.84,25.84,0,0,0,4.19.64c3.53-14.17,7.1-27.37,7.1-27.37L260.25,301C257.66,316.65,261.93,330.52,273.51,333.15Z"/><path class="cls-6" d="M245.83,265.15c-4.37,8.2-12,16.91,4.15,37.77l12.29-3.25L255.52,274Z"/><path class="cls-5" d="M298.32,282.32c2,10,3.47,22.83-.7,29.39-2.76,4.34-7.53,5.25-18.25,4.86-10.39-.38-22.08-8.69-25.42-25.36s-1.87-31,16.13-34.63C289.91,252.61,295,265.65,298.32,282.32Z"/><circle cx="290.64" cy="279.49" r="1.7"/><circle class="cls-8" cx="284.64" cy="291.25" r="5.29"/><path class="cls-8" d="M296.08,279l9.18,8.15a2,2,0,0,1-.57,3.28l-6.13,2.49Z"/><path class="cls-6" d="M280.69,275.37a12.89,12.89,0,0,1,2.48-1.52,15.22,15.22,0,0,1,2.74-1,12.88,12.88,0,0,1,2.92-.44,9.41,9.41,0,0,1,1.5.06l.74.14.37.08.17.06.05,0h0c-.17,0-.46.3-.41.46a.51.51,0,0,1,1,.11c0,.17-.3.5-.5.48l-.21,0-.18,0-.34.05c-.22,0-.44.08-.66.14l-1.3.27c-.87.2-1.74.4-2.6.64-1.75.44-3.48,1-5.36,1.31a.53.53,0,0,1-.61-.42A.52.52,0,0,1,280.69,275.37Z"/><path class="cls-8" d="M298.73,296.42c.49,0,1,0,1.41-.05.06.53.12,1.14.15,1.78a13.09,13.09,0,0,1-2.12.14c-2.72,0-4.72-.76-4.47-1.67S296,296.4,298.73,296.42Z"/><path class="cls-6" d="M285.51,236.16a11.44,11.44,0,0,0-11.08,6.74s-22.73.48-31.28,20.06C234.8,282.05,254,289.38,254,289.38l9-7.9,1.36,7.42,3.31-.47a68,68,0,0,1-1.32-9.88s-1.56-17.62,5.82-18c9.3-.48,13.48-2.19,13.48-2.19C292.73,257.08,301.23,236.65,285.51,236.16Z"/><path class="cls-8" d="M266.66,300.37a12.07,12.07,0,1,1-4.74-23.66Z"/><path class="cls-30" d="M265.54,294.77A6.36,6.36,0,0,1,263,282.3Z"/><path class="cls-26" d="M355.4,516.78,329.8,518a41.13,41.13,0,0,1-40.73-27.59l-14.31-41.17c-6.38,13.56,4.34,66.46,4.34,66.46H163.74s-1.86-160,67.37-167c0,0,31.23,29.52,32.95,30.8s11.55-18,11.55-18c18.15,22,41.5,98.84,47.5,127.5a217.24,217.24,0,0,1,33.55.35C355.33,496.79,355.26,508.89,355.4,516.78Z"/><path class="cls-5" d="M386.25,513.12,354,512.47c-.14-5.83-.07-14.8,1.21-20.33,11,.86,21.65,2.84,25.73,7C390.77,509.32,386.25,513.12,386.25,513.12Z"/><path class="cls-16" d="M396,517H316.36a3.21,3.21,0,0,1,0-6.42h77.26l27.09-82.93a3.21,3.21,0,0,1,6.1,2L399,514.79A3.2,3.2,0,0,1,396,517Z"/><path class="cls-16" d="M356.4,438.94a1.3,1.3,0,0,1-1.16-.73L335,396.5a1.28,1.28,0,1,1,2.31-1.12l20.22,41.71a1.3,1.3,0,0,1-.6,1.72A1.39,1.39,0,0,1,356.4,438.94Z"/><path class="cls-31" d="M325.7,437.89c-9.24,24.67-33.68,67.8-45.81,71.2-16.05,4.49-27-7.7-52-44.61-21.43-31.6-31.12-67-27.27-78.94s14.55-19.25,26.63-13.48c22.14,10.59,45.57,100.44,45.57,100.44s22.49-25.89,33.14-46.89C311.07,430.79,320.53,435.52,325.7,437.89Z"/><path class="cls-5" d="M354.32,433a63.09,63.09,0,0,1-19.85-.09c-2.59-.43-6.63,4-11.5,11-4.43-3.57-12.42-10.5-16.08-16.77,4.89-5.57,8.94-9.56,11.16-10.36,9.24-3.38,25.54-1.87,32.47.33S354.32,433,354.32,433Z"/><path class="cls-6" d="M1353.06,321.9c12.41-10.62,9.43-26,.27-32.57s-10.25-11.24-25.82-18.57-20.91-4.2-35.19-4.07-17.91-6.77-29.6-15.54-21.82-12.09-37.21-10.69-18.93,5.84-35.81,2.57-16.24-13.45-33.32-12.52c-20.47,1.11-24.73,19.61-20.93,35.25S1177,306.33,1177,306.33s4.93,2.46,17.8,11.16,19.27,9.46,36.38,4,26.86-2.14,35.49,2.46,21.31,4.17,31.31-.84,18.38-4.37,29-.3S1348.55,325.77,1353.06,321.9Z"/><path class="cls-18" d="M1150.06,272.25l37.71,7.68c18.44-.31,22.17-7.1,32.73-.34s21.15,13.81,30.06,13.53,20.92-7.91,33.13-3.34,17.35,15,29.36,16.56,16.82-2.29,27.46,5.66a27.64,27.64,0,0,1,8.7,12c-5.5,2-14,2-22.29-1.23-10.58-4.07-19-4.72-29,.3s-22.67,5.44-31.31.84-18.38-7.94-35.49-2.46-23.51,4.7-36.38-4-17.8-11.15-17.8-11.15-16.09-10.63-28.31-22.36Z"/><circle class="cls-8" cx="1175.02" cy="282.06" r="12.88"/><circle class="cls-30" cx="1175.02" cy="282.06" r="6.79"/><path class="cls-5" d="M1157.35,397.54a202.22,202.22,0,0,0-30.8,8.29c-2.41-6.22-2.87-12.57-3.8-19.25-.52-3.71,2.38-8.95,4.45-13.69a22.68,22.68,0,0,1,10.89-11.61c2.82-1.33,4.33-2.61,4.5-7.15.35-8.85-2.81-55.87-2.81-55.87l36.88-7s2.27,46.59,4.91,53.73c2.42,6.54,14.13,7.95,28.74,11.32-5.59,11.67-5,27-1.24,39.4C1192.09,387.62,1173.57,394.61,1157.35,397.54Z"/><path class="cls-32" d="M1142.35,356.3a12.81,12.81,0,0,0,.24-2.17c.35-8.85-2.81-55.87-2.81-55.87l36.88-7s2.27,46.59,4.91,53.73a7.54,7.54,0,0,0,2.11,3Z"/><path class="cls-29" d="M1157.32,324.21c-3.2,1.35-12.71,3.39-15.74,2.85-1.19-14.72-1.8-28.8-1.8-28.8l30-5.63C1171.72,307.39,1166.73,320.26,1157.32,324.21Z"/><path class="cls-5" d="M1126.77,285c1.17,18.12,9.15,32.41,24.8,31.39,13.32-.86,24-16.22,23.75-34.38s-8.07-32.54-26.57-31.39C1122.18,252.26,1125.59,266.86,1126.77,285Z"/><g class="cls-33"><path class="cls-34" d="M1162.37,269.61a18.74,18.74,0,0,0-7.62-1.46,19.71,19.71,0,0,0-7.61,1.54.28.28,0,0,0-.14.36.3.3,0,0,0,.31.16h0a35.23,35.23,0,0,1,7.43-.87,25.82,25.82,0,0,1,3.73.18,36.3,36.3,0,0,1,3.71.61h0a.28.28,0,0,0,.32-.22A.26.26,0,0,0,1162.37,269.61Z"/></g><g class="cls-33"><path class="cls-34" d="M1136.26,270.72a18.87,18.87,0,0,0-7.73-.66,19.72,19.72,0,0,0-7.41,2.34.28.28,0,0,0-.1.37.26.26,0,0,0,.32.12h0a34.88,34.88,0,0,1,7.3-1.65,25.92,25.92,0,0,1,3.73-.21,33.82,33.82,0,0,1,3.75.22h0a.27.27,0,0,0,.29-.25A.26.26,0,0,0,1136.26,270.72Z"/></g><circle cx="1154.69" cy="276.78" r="1.74"/><circle cx="1129.92" cy="278.28" r="1.74"/><path class="cls-8" d="M1126.68,283.71c.13,0,.25-.06.38-.07a5.63,5.63,0,0,1,1.13,11.2,60.63,60.63,0,0,1-1.42-9.86Z"/><circle class="cls-8" cx="1156.21" cy="286.71" r="5.65"/><path class="cls-18" d="M1137.82,266.09c-2,2.63-9.19,10-11.62,10.92-2.36-19.74,14.16-26.76,14.16-26.76l23.36,3.15,23.77,23.67.36,7.12c-25.39,4.82-31.58-30.32-44.79-32.39A25,25,0,0,1,1137.82,266.09Z"/><path class="cls-8" d="M1139.32,276.31l-4,8.84a1.55,1.55,0,0,0,1.47,2.19l5.23-.18Z"/><path class="cls-35" d="M1134.2,294.85c.16,2.43,3.67,4.17,7.84,3.9s7.44-2.46,7.28-4.88-3.48-.39-7.65-.12S1134,292.42,1134.2,294.85Z"/><circle class="cls-35" cx="1177.59" cy="291.21" r="1.09"/><path class="cls-6" d="M1112.9,259.31c2.23-9.47,11.92-24,30.45-23a35.9,35.9,0,0,1,24.28,11l23.7,32.31c-25.4,4.82-32.18-23.42-39.63-26.2a52.26,52.26,0,0,0-9.33-2.09c-3.12,15.23-16.41,10.2-19.77,14.71-4.47,6,1.06,21.75-.34,21.84S1109.49,273.78,1112.9,259.31Z"/><rect class="cls-20" x="1153.55" y="625.72" width="19.62" height="131.65"/><rect class="cls-18" x="1153.55" y="625.72" width="19.62" height="16.99"/><path class="cls-20" d="M1233.27,777.2h-7.36v-4.6a10.74,10.74,0,0,0-10.72-10.73H1111.53a10.74,10.74,0,0,0-10.73,10.73v4.6h-7.35v-4.6a18.1,18.1,0,0,1,18.08-18.09h103.66a18.1,18.1,0,0,1,18.08,18.09Z"/><circle class="cls-4" cx="1118.21" cy="776.57" r="11.67" transform="translate(-229.24 582.06) rotate(-26.57)"/><circle class="cls-6" cx="1118.21" cy="776.57" r="6.12"/><circle class="cls-4" cx="1209.03" cy="776.57" r="11.67" transform="translate(-193.99 466.18) rotate(-20.24)"/><circle class="cls-6" cx="1209.03" cy="776.57" r="6.12"/><g class="cls-21"><path class="cls-22" d="M1198.43,771.73h21.2a11.64,11.64,0,0,0-21.2,0Z"/><path class="cls-22" d="M1107.61,771.73h21.2a11.64,11.64,0,0,0-21.2,0Z"/><path class="cls-23" d="M1198.43,771.73h21.2a11.64,11.64,0,0,0-21.2,0Z"/><path class="cls-23" d="M1107.61,771.73h21.2a11.64,11.64,0,0,0-21.2,0Z"/></g><rect class="cls-20" x="1148.32" y="674.99" width="30.08" height="32.54" rx="3.47"/><path class="cls-24" d="M1307,525.58c0,69.52-63.34,103.12-141.48,103.12S1024,595.1,1024,525.58,1063.42,377,1165.53,377C1274.32,377,1307,456.07,1307,525.58Z"/><path class="cls-25" d="M1307.39,533.54c0,69.52-63.34,103.13-141.48,103.13s-141.49-33.61-141.49-103.13,39.38-148.62,141.49-148.62C1274.7,384.92,1307.39,464,1307.39,533.54Z"/><path class="cls-7" d="M1024.42,533.54c0,69.52,63.35,103.13,141.49,103.13s141.48-33.61,141.48-103.13c0-5.15-.18-10.35-.56-15.57H1025.08C1024.64,523.19,1024.42,528.39,1024.42,533.54Z"/><path class="cls-36" d="M1053.16,529.84c0,53.72,48.95,79.69,109.33,79.69s109.34-26,109.34-79.69q0-6-.43-12H1053.67Q1053.16,523.86,1053.16,529.84Z"/><path class="cls-16" d="M1196.6,599.14l-63.3,1.61c-10.42,0-36.55-26.29-34.06-50.48,2.81-27.24,15.43-30.57,15.43-30.57l129.6-3.49s14,25.24,4,52.49C1241.48,587.19,1210.29,599.14,1196.6,599.14Z"/><path class="cls-37" d="M1153.53,352.76c-27,3.61-92.55,58.89-103.36,118.38-4.68,25.74,5.82,35.06,19.25,37.35,17.6,3,157.42.51,176.65-.09s47.48,4.81,48.68-24.64-21-109.37-65.5-127.39S1153.53,352.76,1153.53,352.76Z"/><path class="cls-5" d="M1063.7,504c-3.94-5.34-3.06-14.51,1.29-20.67a17.18,17.18,0,0,1,16.83-7.12c13.74,2.4,48.13,15.92,48.13,15.92,27.35,9,24.94,18.37-1.81,16.27,0,0-20.19.18-38.69.09C1078.9,508.44,1068.29,510.22,1063.7,504Z"/><path class="cls-5" d="M1230.82,503.72c3.76-5.42,2.64-14.57-1.83-20.62a17,17,0,0,0-16.86-6.71c-13.55,2.74-47.25,17.08-47.25,17.08l2.22,16.22s20-.31,38.33-.85C1215.88,508.54,1226.44,510.05,1230.82,503.72Z"/><path class="cls-38" d="M1351.74,502.72c-.09,1.43-2.74,4.43-4,5.3h-29.38a14.14,14.14,0,0,1-4-5.3Z"/><path class="cls-39" d="M1351.74,502.72c-.09,1.43-2.74,4.43-4,5.3h-29.38a14.14,14.14,0,0,1-4-5.3Z"/><path class="cls-38" d="M1347,482.42l-.34-.06.88-4.43a.67.67,0,0,0-.66-.8h-27.73a.68.68,0,0,0-.66.8l4.94,24.79h19.17l.91-4.54.49.09a7.34,7.34,0,0,0,1.31.12,7.06,7.06,0,0,0,6.92-5.73l.38-2A7.06,7.06,0,0,0,1347,482.42Zm2.93,7.72-.38,2a4.32,4.32,0,0,1-5,3.44l-.47-.09,2.09-10.47.36.07A4.32,4.32,0,0,1,1350,490.14Z"/><path class="cls-40" d="M1347,482.42l-.34-.06.88-4.43a.67.67,0,0,0-.66-.8h-27.73a.68.68,0,0,0-.66.8l4.94,24.79h19.17l.91-4.54.49.09a7.34,7.34,0,0,0,1.31.12,7.06,7.06,0,0,0,6.92-5.73l.38-2A7.06,7.06,0,0,0,1347,482.42Zm2.93,7.72-.38,2a4.32,4.32,0,0,1-5,3.44l-.47-.09,2.09-10.47.36.07A4.32,4.32,0,0,1,1350,490.14Z"/><circle class="cls-38" cx="1333.05" cy="477.31" r="14.54"/><circle class="cls-7" cx="1333.05" cy="477.31" r="12.85"/><ellipse class="cls-41" cx="1333.05" cy="479.13" rx="12.72" ry="11.04"/><path class="cls-42" d="M1338.42,480.35l.84-1.59a2.63,2.63,0,0,0-.94-3,15.61,15.61,0,0,0-4.59-2.41,3.12,3.12,0,0,0-3,.94,22.79,22.79,0,0,0-2.41,4.59,3.35,3.35,0,0,0-.19,1.57c1.48.1,3.06.15,4.71.15C1334.8,480.56,1336.69,480.48,1338.42,480.35Z"/><rect class="cls-43" x="1061.57" y="334.73" width="219.25" height="133.34" rx="4.81"/><rect class="cls-44" x="1061.57" y="337.71" width="219.25" height="133.34" rx="4.81"/><path class="cls-45" d="M1128.06,504.06h89.83a2,2,0,0,1,2,2v2.55a0,0,0,0,1,0,0h-93.82a0,0,0,0,1,0,0v-2.55A2,2,0,0,1,1128.06,504.06Z"/><path class="cls-46" d="M1197.29,502.68h-50.84l5.11-80h42.73ZM1173.18,453a12.61,12.61,0,1,0,12.6,12.6A12.61,12.61,0,0,0,1173.18,453Z"/><path class="cls-6" d="M1202,508.61h-58l7.46-83.87h43.12ZM1173.18,455a12.61,12.61,0,1,0,12.6,12.61A12.62,12.62,0,0,0,1173.18,455Z"/><polygon class="cls-27" points="918.55 788.65 901.05 788.65 948.78 526.97 966.28 526.97 918.55 788.65"/><polygon class="cls-18" points="941.67 565.95 959.17 565.95 966.28 526.97 948.78 526.97 941.67 565.95"/><polygon class="cls-27" points="1369.92 788.65 1387.42 788.65 1339.69 526.97 1322.2 526.97 1369.92 788.65"/><polygon class="cls-18" points="1346.8 565.95 1329.3 565.95 1322.2 526.97 1339.69 526.97 1346.8 565.95"/><rect class="cls-27" x="889.72" y="508.88" width="502.87" height="19.09"/><path class="cls-5" d="M1169.12,549.62c-6.7,32.07,110.45,180.81,117.63,190.61,4.63,6.31-10.4,45.25-5.29,47.68s37.92-51.16,37.92-51.16-12-15.92-22.42-33.44-63.62-123.85-78.14-150.54S1175.82,517.55,1169.12,549.62Z"/><path class="cls-6" d="M1313.6,727.93c-4.83,5.85-9,23.92-12.61,27.39-3.9,3.77-6.85,2.45-15.23.74-2.51,13.07-8.17,30.37-4.77,32,5.19,2.48,38.52-52,38.52-52S1317.15,733,1313.6,727.93Z"/><path class="cls-26" d="M1318.14,734.24c-2.44,4-32.58,52.77-38.15,51.76.12,1.06.43,1.79,1,2.06,5.19,2.48,38.52-52,38.52-52Z"/><path class="cls-5" d="M1107.89,549.62c-6.7,32.07,110.45,180.81,117.64,190.61,4.62,6.31-10.41,45.25-5.3,47.68s37.92-51.16,37.92-51.16-12-15.92-22.42-33.44-63.62-123.85-78.14-150.54S1114.59,517.55,1107.89,549.62Z"/><path class="cls-6" d="M1252.37,727.93c-4.83,5.85-9,23.92-12.61,27.39-3.9,3.77-6.84,2.45-15.23.74-2.51,13.07-8.17,30.37-4.77,32,5.19,2.48,38.53-52,38.53-52S1255.92,733,1252.37,727.93Z"/><path class="cls-26" d="M1256.91,734.24c-2.44,4-32.58,52.77-38.15,51.76.12,1.06.43,1.79,1,2.06,5.19,2.48,38.53-52,38.53-52S1257.78,735.42,1256.91,734.24Z"/><polygon class="cls-26" points="971.88 509.38 922.46 509.38 912.94 442.44 981.41 442.44 971.88 509.38"/><rect class="cls-47" x="918.54" y="481.94" width="57.13" height="1.58"/><rect class="cls-18" x="918.66" y="483.52" width="56.89" height="1.34"/><path class="cls-18" d="M913.55,442.44c-.15.51-.28,1-.39,1.54l3.57,25.11a35.23,35.23,0,0,0,60.69,1.4l4-28.05Z"/><circle class="cls-48" cx="947.48" cy="442.44" r="35.24"/><circle class="cls-49" cx="947.48" cy="442.44" r="28.19"/><circle class="cls-50" cx="930.44" cy="452.94" r="3.83"/><circle class="cls-50" cx="959.31" cy="460.86" r="2.82"/><circle class="cls-50" cx="942.18" cy="460.86" r="5.3"/><path class="cls-23" d="M933.52,443.44c-2.32-17-8.83-60.58-17.68-85.06-11.17-30.86-49-44.73-53.57-29.17-4.82,16.24,23.19,20.42,38.74,29.53,12.66,7.41,22,63.89,25,84.7Z"/><path class="cls-51" d="M933.52,443.44c-2.32-17-8.83-60.58-17.68-85.06-11.17-30.86-49-44.73-53.57-29.17-4.82,16.24,23.19,20.42,38.74,29.53,12.66,7.41,22,63.89,25,84.7Z"/><path class="cls-23" d="M979.57,317.51c-7.38-11.29-34.15,8.74-35.69,36S951,431.24,951,431.24l6-1.3s-11.46-68.77-1.25-79.72S987.27,329.29,979.57,317.51Z"/><path class="cls-52" d="M979.57,317.51c-7.38-11.29-34.15,8.74-35.69,36S951,431.24,951,431.24l6-1.3s-11.46-68.77-1.25-79.72S987.27,329.29,979.57,317.51Z"/><path class="cls-23" d="M944.74,448.63c2.53-7.75,8.68-30.13,4.47-53.88-5.21-29.41-17.29-43.83-22.6-42.16-4.81,1.51,8.37,81.06,10.9,96Z"/><path class="cls-53" d="M944.74,448.63c2.53-7.75,8.68-30.13,4.47-53.88-5.21-29.41-17.29-43.83-22.6-42.16-4.81,1.51,8.37,81.06,10.9,96Z"/><path class="cls-23" d="M959,448.63C975.55,418.4,1021,334,1015.66,330.16c-6.48-4.74-30,9.28-51.41,46.89-17.3,30.45-17.89,61-17.48,71.58Z"/><path class="cls-54" d="M959,448.63C975.55,418.4,1021,334,1015.66,330.16c-6.48-4.74-30,9.28-51.41,46.89-17.3,30.45-17.89,61-17.48,71.58Z"/><path class="cls-23" d="M1077.9,373.1c-3.56-7.91-33.84-8-75.12,14.88-32.73,18.1-48.77,51.78-54,65h17.67C1002.89,429.68,1080.64,379.16,1077.9,373.1Z"/><path class="cls-55" d="M1077.9,373.1c-3.56-7.91-33.84-8-75.12,14.88-32.73,18.1-48.77,51.78-54,65h17.67C1002.89,429.68,1080.64,379.16,1077.9,373.1Z"/><path class="cls-23" d="M935.75,443.44a70.4,70.4,0,0,0-15.64-34.14c-14.14-16.46-27.05-21-29.76-18.05-2.06,2.28,23,36.12,35.15,52.19Z"/><path class="cls-56" d="M935.75,443.44a70.4,70.4,0,0,0-15.64-34.14c-14.14-16.46-27.05-21-29.76-18.05-2.06,2.28,23,36.12,35.15,52.19Z"/><path class="cls-57" d="M115.28,521.74H99.17a11.71,11.71,0,0,1-11.61-10.16l-4.08-30.4H131l-4.07,30.4A11.71,11.71,0,0,1,115.28,521.74Z"/><path class="cls-58" d="M101.23,483c-.51,0-.55-.8,0-.8S101.75,483,101.23,483Z"/><path class="cls-58" d="M96,483.15c.52-.55,2,.68.14.68A.43.43,0,0,1,96,483.15Z"/><path class="cls-58" d="M85.55,483.41c0,.32.22.41,0,.42.1,0,.08.06.12.17.14.42-.52.67-1-.17C84,482.51,85.71,481.71,85.55,483.41Z"/><path class="cls-58" d="M127.09,481.78c.24.28,0,1.39-.44.94C125.75,481.76,126.14,480.67,127.09,481.78Z"/><path class="cls-58" d="M128.46,481.31c0-.21.63-.27.74.18C129.48,482.11,128.4,482.81,128.46,481.31Z"/><path class="cls-58" d="M116.16,481.18H117C117.24,481.66,116.4,481.66,116.16,481.18Z"/><path class="cls-58" d="M106.08,481.18c.64,0,.56-.05.61.16C106.77,481.73,106.2,481.86,106.08,481.18Z"/><path class="cls-58" d="M110.89,514c.38-.29,1.12.39.72,1C111.46,517.07,109.47,515.09,110.89,514Z"/><path class="cls-58" d="M111,510.34a.9.9,0,0,1,.42-1.09.4.4,0,0,1,.43.68c-.15.09-.1.13-.08.17A.4.4,0,0,1,111,510.34Z"/><path class="cls-58" d="M109.75,514.43a.4.4,0,0,1-.78,0C108,513.63,110.06,512.38,109.75,514.43Z"/><path class="cls-58" d="M106.52,506.2c.14.24.56.39.62,1s-1,.68-1.41-.57C105.59,506.18,106.25,505.76,106.52,506.2Z"/><path class="cls-58" d="M109.63,504.14c.13,1.05-1.39.44-.8-.2S109.66,503.84,109.63,504.14Z"/><path class="cls-58" d="M107.38,501.64c.16-.21.25-.09.36-.19.49-.44,1,.38.9,1C108.12,504.94,106.18,503.23,107.38,501.64Z"/><path class="cls-58" d="M103.46,502.75c0-.5.93-.83,1,.13C104.51,503.65,103.46,503.8,103.46,502.75Z"/><path class="cls-58" d="M101,509.46c-.43.86-1,.29-.87-.11C100.35,508.28,101.47,508.47,101,509.46Z"/><path class="cls-58" d="M104.57,517.11c-.13.52-.54.75-.55,1,0,.52-.82.56-.8,0,0-.7.48-.9.57-1.23A.4.4,0,0,1,104.57,517.11Z"/><path class="cls-58" d="M96,502.33c.52,0,.55.8,0,.8S95.47,502.33,96,502.33Z"/><path class="cls-58" d="M114.61,512c.29-.33.86-.07.68.56C114.92,513.78,113.7,512.23,114.61,512Z"/><path class="cls-58" d="M118.09,514.86c-.3,1.42-1.91.56-1.25-1.24C117.23,512.56,118.67,512.12,118.09,514.86Z"/><path class="cls-58" d="M115.18,518c.47-.51,1.12.49.46,1.1S114.44,518,115.18,518Z"/><path class="cls-58" d="M114.77,521.23c.21,0,.83.32-.37.44A.38.38,0,0,1,114.77,521.23Z"/><path class="cls-58" d="M110.34,518.05c.52,0,.55.81,0,.81S109.82,518.05,110.34,518.05Z"/><path class="cls-58" d="M124.46,516a.26.26,0,0,1,.11-.29C124.58,515.54,125.13,515.08,124.46,516Z"/><path class="cls-58" d="M120.35,507.88c-.33,0-.62-.95-.42-1.15C120.34,505.91,121.32,508.48,120.35,507.88Z"/><path class="cls-58" d="M126.09,502.62c-.11.22-.5.33-.61-.46C125.41,501.65,126.44,501.93,126.09,502.62Z"/><path class="cls-58" d="M118.87,493.05c-.36-.82.88.31,1,.81.29.83-.32,1.54-.71,1.09C118.29,494.92,117.53,493,118.87,493.05Z"/><path class="cls-58" d="M117.14,498.55c.3,1.19-1.13.71-1-.41C116.25,497.73,117,497.8,117.14,498.55Z"/><path class="cls-58" d="M115.93,504.33a.35.35,0,0,1-.58,0c-.68.89-1.44-.2-1-1C114.27,501.69,116.44,503.2,115.93,504.33Z"/><path class="cls-58" d="M124.51,491.58c.3-.56,1.53.39,1,1.08C125.4,493.74,123.94,492.64,124.51,491.58Z"/><path class="cls-58" d="M129,491.59c.41-.07.18,1.33-.5.38C128.33,491.75,128.66,491.1,129,491.59Z"/><path class="cls-58" d="M127.52,493.58c.7-.77,1,1.48.22,1.36C127.29,495.11,126.52,493.73,127.52,493.58Z"/><path class="cls-58" d="M124.84,494.07c.13.23-.07.55-.44.4C123.85,494.23,124.5,493.47,124.84,494.07Z"/><path class="cls-58" d="M119.67,487.49c-1.26-.1-1.11-2.38,0-1.52C119.94,486,120.17,487.53,119.67,487.49Z"/><path class="cls-58" d="M112,486.65c0-.06-.29-.78.18-.74C113.26,486,112.17,487.48,112,486.65Z"/><path class="cls-58" d="M112.25,489.6c.56-.43,1.09,1.31.39,1.41C111.9,491.69,111.45,490.24,112.25,489.6Z"/><path class="cls-58" d="M109.35,497.5c-.34-.57-.06-.85.25-.73C110.34,497.06,109.58,497.9,109.35,497.5Z"/><path class="cls-58" d="M106.72,495.81c.08-.53.91-.21,1.18.41C108.44,497.43,106.43,497.74,106.72,495.81Z"/><path class="cls-58" d="M108.34,494.55c.06-.5.79-.36.64.25C109.24,495.6,108.2,495.06,108.34,494.55Z"/><path class="cls-58" d="M91.1,513.56A2.13,2.13,0,0,1,93,514c.6.65,0,1.72-.64.8a.55.55,0,0,1-.71-.42C90.74,514.27,90.72,513.69,91.1,513.56Z"/><path class="cls-58" d="M88.54,510.68c1.53,2-.37,1.66-.37,1.18C87.44,511,88.15,510.17,88.54,510.68Z"/><path class="cls-58" d="M90.91,511.9c.47,0,.07,1.5-.52.17C90.29,511.84,90.62,511.52,90.91,511.9Z"/><path class="cls-58" d="M98,511.37c.82.57,0,1.59-.53.23A.29.29,0,0,1,98,511.37Z"/><path class="cls-58" d="M91.81,496.82c-.23-.34-.35-1.09,0-1.24.42-1.2,1.7.51.9,1.42C92.63,497.79,91.56,497.26,91.81,496.82Z"/><path class="cls-58" d="M88.64,492.52a.27.27,0,0,1-.51-.17c-.3.09-.48-.32-.48-.55C87.66,490.42,89.29,491.56,88.64,492.52Z"/><path class="cls-58" d="M103.18,488.54c.25-.71,1.31.4.62,1.26C103.42,490.28,102.59,489,103.18,488.54Z"/><path class="cls-58" d="M97.8,488.5c.19.26,0,.78-.4.28a.28.28,0,0,1-.22-.41C96.9,487.67,98.09,487.85,97.8,488.5Z"/><path class="cls-58" d="M100.6,489.44c0-.28.39-.4.71-.1C102.92,490.12,100.26,492.7,100.6,489.44Z"/><path class="cls-58" d="M100.6,488a.31.31,0,0,1-.54-.17c-.35.08-.4-.46-.36-.82C99.79,486.23,101.08,487.32,100.6,488Z"/><path class="cls-58" d="M102.26,487.5c-.21,0-.53-.51-.29-.71C102.38,486.45,102.84,487.43,102.26,487.5Z"/><path class="cls-58" d="M84.74,488.79c0,.09,0,1.86-.32-.61A1.42,1.42,0,0,1,84.74,488.79Z"/><path class="cls-58" d="M91.35,488.52c.34,1-1,1.16-.9.34C90,488.14,91,487.43,91.35,488.52Z"/><path class="cls-58" d="M88.18,489.28c0,.52-.89.16-.7-.35S88.27,488.39,88.18,489.28Z"/><path class="cls-58" d="M97.51,483.83c.17-.68,1-.73,1-.17,0,.11,0,.16-.09.17h.08C98.47,484.72,97.28,484.73,97.51,483.83Z"/><path class="cls-58" d="M96.66,483.83a.47.47,0,0,1-.57,0Z"/><path class="cls-58" d="M87,483.81a.32.32,0,0,1,.17,0h-.09a.77.77,0,0,1,.35.3.31.31,0,0,1-.53.33C86.65,484.06,86.78,483.79,87,483.81Z"/><path class="cls-58" d="M127.92,483.83a.62.62,0,0,1,.48-.35c.23-.31.44-.19.59.08.37.21.3.26-.12.27.46.05.69.23,0,.91C128.58,485.05,127.63,484.5,127.92,483.83Z"/><circle class="cls-59" cx="107.22" cy="479.14" r="23.74"/><circle class="cls-60" cx="107.22" cy="479.14" r="20.65"/><path class="cls-61" d="M113,443.08c.34,0-.09.7,5.2-10.68a.37.37,0,0,0-.68-.31C112.39,443,112.15,443.08,113,443.08Z"/><path class="cls-61" d="M116,444.65c11.46-11.47,11-10.8,10.64-11.18s.1-.62-11.17,10.65A.37.37,0,0,0,116,444.65Z"/><path class="cls-61" d="M118.39,447.69c9.8-6.08,9.74-5.85,9.46-6.31s.08-.49-9.85,5.67A.37.37,0,0,0,118.39,447.69Z"/><path class="cls-62" d="M117.26,481.17l2.89-25.67a12.68,12.68,0,1,0-25.2,0l2.89,25.67C101.94,489.84,113.05,489.45,117.26,481.17Z"/><path class="cls-63" d="M104.92,481.32c-1.6-31.61-1.21-30.25-2.27-30.21s-.8-1,.78,30.28A.75.75,0,0,0,104.92,481.32Z"/><path class="cls-63" d="M110.15,481.92c1,0,.64,1.44,2.24-30.22a.75.75,0,0,0-1.49-.07C109.3,483.2,109,481.92,110.15,481.92Z"/></g></g></g></svg>