<svg xmlns="http://www.w3.org/2000/svg" viewBox="0 0 242.102 274.662">
  <defs>
    <style>
      .cls-1 {
        fill: #41b093;
      }
    </style>
  </defs>
  <path id="Path_30785" data-name="Path 30785" class="cls-1" d="M345.055,765.854c0-15.373-7.392-28.814-18.565-36.374a19.628,19.628,0,0,1-7.9-19.825,35.055,35.055,0,0,0,.672-6.72c0-15.289-9.829-28.058-23.017-31.25a7.563,7.563,0,0,1-5.46-8.232,21.92,21.92,0,0,0,0-4.7c-1.092-8.821-5.628-13.693-12.265-17.641a9.679,9.679,0,0,1-4.116-10.417,25.886,25.886,0,0,0,.756-6.3c.42-16.3-7.644-23.017-13.273-26.042a11.622,11.622,0,0,1-5.544-7.393c-2.184-8.736-9.745-15.037-18.565-14.365-8.653.588-15.709,7.98-16.633,17.389v.252a5.656,5.656,0,0,1-5.8,5.376,17.2,17.2,0,0,0-2.94.084c-10.921,1.008-19.741,10.669-20.5,22.6a24.1,24.1,0,0,0,.252,5.544,10.879,10.879,0,0,1-4.368,10.5,35.448,35.448,0,0,0-13.441,18.229,9.188,9.188,0,0,1-5.964,5.964c-12.349,3.7-21.337,16.045-21.337,30.578a34.622,34.622,0,0,0,1.848,11.173c1.848,5.376-.5,11.341-5.376,13.525-13.1,5.964-22.261,19.993-22.261,36.374a41.972,41.972,0,0,0,4.2,18.4c4.032,8.316,2.52,18.565-3.864,24.865a50.324,50.324,0,0,0-14.7,36.038V851.2H349V833.478c0-7.141-4.2-13.945-9.073-20.077-5.376-6.636-5.712-16.381-1.26-23.773A46.98,46.98,0,0,0,345.055,765.854Z" transform="translate(-106.9 -576.542)"/>
</svg>
