<svg xmlns="http://www.w3.org/2000/svg" viewBox="0 0 297.06 135.01"><defs><style>.cls-1{isolation:isolate;}.cls-2{fill:#fff;}</style></defs><title>peercertAsset 1</title><g id="Layer_2" data-name="Layer 2"><g id="Layer_1-2" data-name="Layer 1"><g id="Group_7657" data-name="Group 7657"><g id="_50" data-name=" 50" class="cls-1"><g class="cls-1"><path class="cls-2" d="M4.84,28.2,8,.74H38.24v9H16.75L15.42,21.3a17,17,0,0,1,8.12-2q7.73,0,12.1,4.79T40,37.44a19.58,19.58,0,0,1-2.21,9.37,15.54,15.54,0,0,1-6.33,6.42,19.73,19.73,0,0,1-9.72,2.29,21.05,21.05,0,0,1-9.09-2A16,16,0,0,1,6.05,48a15.26,15.26,0,0,1-2.58-8.21H14.08A7.92,7.92,0,0,0,16.44,45a7.44,7.44,0,0,0,5.28,1.87,6.58,6.58,0,0,0,5.61-2.62q2-2.61,2-7.4,0-4.6-2.26-7a8.32,8.32,0,0,0-6.42-2.45,9.33,9.33,0,0,0-6.2,2l-1,1Z"/><path class="cls-2" d="M83.21,32.43q0,11.22-4.63,17.15T65,55.52q-8.82,0-13.5-5.83T46.7,33V23q0-11.31,4.69-17.18T64.92,0q8.83,0,13.51,5.81t4.78,16.68ZM72.49,21.5c0-4.48-.61-7.75-1.84-9.79a6.2,6.2,0,0,0-5.73-3.06,6.11,6.11,0,0,0-5.59,2.91c-1.2,1.95-1.83,5-1.91,9.12V33.83c0,4.41.6,7.68,1.8,9.83A6.13,6.13,0,0,0,65,46.87a6,6,0,0,0,5.68-3.08c1.16-2.06,1.77-5.2,1.82-9.44Z"/></g></g><g id="Students_enrolled" data-name="Students enrolled" class="cls-1"><g class="cls-1"><path class="cls-2" d="M6.07,97.17a10.62,10.62,0,0,1-4.21-2,3.89,3.89,0,0,1-1.32-3,4.16,4.16,0,0,1,1.61-3.34,6.44,6.44,0,0,1,4.19-1.31,6.86,6.86,0,0,1,3.13.68A5.15,5.15,0,0,1,11.61,90a4.83,4.83,0,0,1,.75,2.61H10.1a3.16,3.16,0,0,0-1-2.44,4,4,0,0,0-2.78-.88,4.12,4.12,0,0,0-2.6.73,2.45,2.45,0,0,0-.93,2,2.2,2.2,0,0,0,.89,1.76,8.51,8.51,0,0,0,3,1.32A14,14,0,0,1,10,96.49a5.1,5.1,0,0,1,1.78,1.69,4.25,4.25,0,0,1,.58,2.26,4,4,0,0,1-1.62,3.32A6.91,6.91,0,0,1,6.46,105a8,8,0,0,1-3.28-.68,5.5,5.5,0,0,1-2.35-1.84A4.51,4.51,0,0,1,0,99.83H2.26a2.94,2.94,0,0,0,1.14,2.44,4.82,4.82,0,0,0,3.06.9,4.41,4.41,0,0,0,2.73-.73,2.56,2.56,0,0,0,.07-3.92A10,10,0,0,0,6.07,97.17Z"/><path class="cls-2" d="M17.88,89v3.07h2.37v1.68H17.88v7.87a1.79,1.79,0,0,0,.32,1.15,1.35,1.35,0,0,0,1.08.38,5.56,5.56,0,0,0,1-.14v1.75a6.58,6.58,0,0,1-1.67.23,2.74,2.74,0,0,1-2.19-.88,3.8,3.8,0,0,1-.74-2.5V93.77h-2.3V92.09h2.3V89Z"/><path class="cls-2" d="M30.61,103.52A4.61,4.61,0,0,1,26.89,105a3.9,3.9,0,0,1-3.08-1.18,5.11,5.11,0,0,1-1.08-3.49V92.09H24.9v8.2c0,1.92.78,2.88,2.35,2.88a3.25,3.25,0,0,0,3.3-1.85V92.09h2.17v12.68H30.66Z"/><path class="cls-2" d="M35.48,98.33a7.46,7.46,0,0,1,1.39-4.7,4.38,4.38,0,0,1,3.62-1.77A4.43,4.43,0,0,1,44,93.38V86.77h2.16v18h-2l-.1-1.36a4.42,4.42,0,0,1-3.63,1.6,4.33,4.33,0,0,1-3.59-1.81,7.53,7.53,0,0,1-1.39-4.71Zm2.17.24a5.66,5.66,0,0,0,.89,3.38A2.9,2.9,0,0,0,41,103.17a3.18,3.18,0,0,0,3-1.85V95.49a3.2,3.2,0,0,0-3-1.79,2.9,2.9,0,0,0-2.49,1.23A6.2,6.2,0,0,0,37.65,98.57Z"/><path class="cls-2" d="M54.81,105a5.55,5.55,0,0,1-4.2-1.7A6.28,6.28,0,0,1,49,98.79v-.4A7.62,7.62,0,0,1,49.72,95a5.63,5.63,0,0,1,2-2.32,5.08,5.08,0,0,1,2.81-.84,4.72,4.72,0,0,1,3.84,1.63,7,7,0,0,1,1.37,4.66v.9H51.16a4.55,4.55,0,0,0,1.1,3,3.45,3.45,0,0,0,2.67,1.16,3.79,3.79,0,0,0,1.94-.47,5,5,0,0,0,1.4-1.24l1.32,1A5.33,5.33,0,0,1,54.81,105Zm-.27-11.37a2.87,2.87,0,0,0-2.2,1,4.62,4.62,0,0,0-1.11,2.67h6.36v-.16a4.17,4.17,0,0,0-.89-2.56A2.72,2.72,0,0,0,54.54,93.64Z"/><path class="cls-2" d="M64.31,92.09l.07,1.6a4.63,4.63,0,0,1,3.8-1.83q4,0,4,4.53v8.38H70.07V96.38a2.9,2.9,0,0,0-.63-2,2.51,2.51,0,0,0-1.92-.66,3.16,3.16,0,0,0-1.85.56,3.9,3.9,0,0,0-1.24,1.48v9H62.26V92.09Z"/><path class="cls-2" d="M78.45,89v3.07h2.36v1.68H78.45v7.87a1.79,1.79,0,0,0,.31,1.15,1.35,1.35,0,0,0,1.08.38,5.56,5.56,0,0,0,1-.14v1.75a6.5,6.5,0,0,1-1.66.23,2.71,2.71,0,0,1-2.19-.88,3.75,3.75,0,0,1-.74-2.5V93.77H74V92.09h2.31V89Z"/><path class="cls-2" d="M90.73,101.41a1.59,1.59,0,0,0-.67-1.37,6.38,6.38,0,0,0-2.3-.83,11.18,11.18,0,0,1-2.62-.85,3.72,3.72,0,0,1-1.43-1.17,2.78,2.78,0,0,1-.46-1.62,3.29,3.29,0,0,1,1.32-2.63,5.14,5.14,0,0,1,3.37-1.08A5.32,5.32,0,0,1,91.44,93a3.54,3.54,0,0,1,1.34,2.85H90.6a1.93,1.93,0,0,0-.76-1.53,2.83,2.83,0,0,0-1.9-.65,2.91,2.91,0,0,0-1.85.52,1.6,1.6,0,0,0-.67,1.34A1.31,1.31,0,0,0,86,96.69a7.7,7.7,0,0,0,2.24.76,11.21,11.21,0,0,1,2.63.87,3.81,3.81,0,0,1,1.5,1.21,3,3,0,0,1,.48,1.73A3.24,3.24,0,0,1,91.54,104,5.69,5.69,0,0,1,88,105a6.38,6.38,0,0,1-2.7-.54A4.34,4.34,0,0,1,83.48,103a3.62,3.62,0,0,1-.66-2.09H85a2.24,2.24,0,0,0,.88,1.73,3.36,3.36,0,0,0,2.15.64,3.48,3.48,0,0,0,2-.5A1.53,1.53,0,0,0,90.73,101.41Z"/></g><g class="cls-1"><path class="cls-2" d="M10.76,133a5.55,5.55,0,0,1-4.2-1.7A6.24,6.24,0,0,1,5,126.79v-.4A7.62,7.62,0,0,1,5.67,123a5.63,5.63,0,0,1,2-2.32,5.06,5.06,0,0,1,2.81-.84,4.72,4.72,0,0,1,3.84,1.63,7,7,0,0,1,1.37,4.66v.9H7.11a4.5,4.5,0,0,0,1.1,3,3.45,3.45,0,0,0,2.67,1.16,3.79,3.79,0,0,0,1.94-.47,4.82,4.82,0,0,0,1.39-1.24l1.33,1A5.33,5.33,0,0,1,10.76,133Zm-.27-11.37a2.87,2.87,0,0,0-2.2,1,4.55,4.55,0,0,0-1.11,2.67h6.36v-.16a4.11,4.11,0,0,0-.9-2.56A2.7,2.7,0,0,0,10.49,121.64Z"/><path class="cls-2" d="M20.26,120.09l.07,1.6a4.63,4.63,0,0,1,3.8-1.83q4,0,4.05,4.53v8.38H26v-8.39a2.9,2.9,0,0,0-.63-2,2.51,2.51,0,0,0-1.92-.66,3.16,3.16,0,0,0-1.85.56,3.9,3.9,0,0,0-1.24,1.48v9H18.21V120.09Z"/><path class="cls-2" d="M37.58,122a5.93,5.93,0,0,0-1.06-.08,2.86,2.86,0,0,0-2.9,1.81v9H31.45V120.09h2.11l0,1.47a3.38,3.38,0,0,1,3-1.7,2.22,2.22,0,0,1,1,.16Z"/><path class="cls-2" d="M38.77,126.32A7.5,7.5,0,0,1,39.5,123a5.4,5.4,0,0,1,5-3.1,5.36,5.36,0,0,1,4.19,1.79,6.9,6.9,0,0,1,1.6,4.77v.15a7.61,7.61,0,0,1-.71,3.33,5.38,5.38,0,0,1-2,2.29,5.68,5.68,0,0,1-3,.82,5.3,5.3,0,0,1-4.17-1.8,6.82,6.82,0,0,1-1.6-4.74Zm2.18.25a5.44,5.44,0,0,0,1,3.39,3.15,3.15,0,0,0,2.62,1.28,3.11,3.11,0,0,0,2.63-1.3,5.9,5.9,0,0,0,1-3.62,5.41,5.41,0,0,0-1-3.38,3.29,3.29,0,0,0-5.22,0A5.85,5.85,0,0,0,41,126.57Z"/><path class="cls-2" d="M55.38,132.77H53.21v-18h2.17Z"/><path class="cls-2" d="M61.21,132.77H59v-18h2.17Z"/><path class="cls-2" d="M69.94,133a5.55,5.55,0,0,1-4.2-1.7,6.24,6.24,0,0,1-1.62-4.52v-.4a7.62,7.62,0,0,1,.73-3.37,5.63,5.63,0,0,1,2-2.32,5.06,5.06,0,0,1,2.81-.84,4.72,4.72,0,0,1,3.84,1.63,7,7,0,0,1,1.37,4.66v.9H66.29a4.5,4.5,0,0,0,1.1,3,3.45,3.45,0,0,0,2.66,1.16,3.8,3.8,0,0,0,2-.47,4.82,4.82,0,0,0,1.39-1.24l1.33,1A5.33,5.33,0,0,1,69.94,133Zm-.27-11.37a2.9,2.9,0,0,0-2.21,1,4.61,4.61,0,0,0-1.1,2.67h6.35v-.16a4.05,4.05,0,0,0-.89-2.56A2.7,2.7,0,0,0,69.67,121.64Z"/><path class="cls-2" d="M76.86,126.33a7.4,7.4,0,0,1,1.39-4.7,4.7,4.7,0,0,1,7.14-.25v-6.61h2.17v18h-2l-.11-1.36a4.38,4.38,0,0,1-3.62,1.6,4.33,4.33,0,0,1-3.59-1.81,7.53,7.53,0,0,1-1.39-4.71Zm2.17.24a5.66,5.66,0,0,0,.89,3.38,2.9,2.9,0,0,0,2.46,1.22,3.16,3.16,0,0,0,3-1.85v-5.83a3.18,3.18,0,0,0-3-1.79,2.9,2.9,0,0,0-2.49,1.23A6.2,6.2,0,0,0,79,126.57Z"/></g></g><g id="_3.5" data-name=" 3.5" class="cls-1"><g class="cls-1"><path class="cls-2" d="M205.51,25h5.72q4.08,0,6-2a7.49,7.49,0,0,0,2-5.42,6.63,6.63,0,0,0-2-5.09,7.55,7.55,0,0,0-5.36-1.81,8,8,0,0,0-5.16,1.68,5.43,5.43,0,0,0-2.08,4.4H194a13.21,13.21,0,0,1,2.28-7.59,15.26,15.26,0,0,1,6.38-5.25,21.37,21.37,0,0,1,9-1.89q8.58,0,13.43,4.1T230,17.4a11.37,11.37,0,0,1-2.27,6.83A14.76,14.76,0,0,1,221.76,29a13.35,13.35,0,0,1,6.81,4.89,13.27,13.27,0,0,1,2.25,7.72,14.21,14.21,0,0,1-5.25,11.54q-5.25,4.35-13.9,4.35-8.08,0-13.23-4.27A13.94,13.94,0,0,1,193.3,42H204a6.21,6.21,0,0,0,2.28,5,9.52,9.52,0,0,0,11.61-.09,7,7,0,0,0,2.17-5.37q0-8.08-8.9-8.09h-5.68Z"/><path class="cls-2" d="M239.21,51.5a5.39,5.39,0,0,1,1.72-4.15,6.09,6.09,0,0,1,4.32-1.6,6.18,6.18,0,0,1,4.37,1.6,5.39,5.39,0,0,1,1.72,4.15,5.31,5.31,0,0,1-1.71,4.1,6.81,6.81,0,0,1-8.72,0A5.3,5.3,0,0,1,239.21,51.5Z"/><path class="cls-2" d="M261.88,30.2,265,2.74h30.28v9H273.79L272.46,23.3a17,17,0,0,1,8.12-2q7.73,0,12.1,4.79t4.38,13.39a19.58,19.58,0,0,1-2.21,9.37,15.54,15.54,0,0,1-6.33,6.42,19.73,19.73,0,0,1-9.72,2.29,21,21,0,0,1-9.09-2A16,16,0,0,1,263.09,50a15.18,15.18,0,0,1-2.58-8.21h10.61A7.92,7.92,0,0,0,273.48,47a7.44,7.44,0,0,0,5.28,1.87,6.58,6.58,0,0,0,5.61-2.62q2-2.61,2-7.4,0-4.6-2.26-7a8.32,8.32,0,0,0-6.42-2.45,9.33,9.33,0,0,0-6.2,2l-1,1Z"/></g></g><g id="Out_of_5_Stars" data-name="Out of 5 Stars" class="cls-1"><g class="cls-1"><path class="cls-2" d="M224.94,98.79a10.63,10.63,0,0,1-.84,4.38,6.38,6.38,0,0,1-2.39,2.85,6.59,6.59,0,0,1-9.61-2.83,10.09,10.09,0,0,1-.88-4.24V97.71a10.37,10.37,0,0,1,.85-4.34,6.32,6.32,0,0,1,6-3.89,6.64,6.64,0,0,1,3.62,1,6.41,6.41,0,0,1,2.41,2.87,10.61,10.61,0,0,1,.84,4.37Zm-2.24-1.1A7.7,7.7,0,0,0,221.48,93a4.35,4.35,0,0,0-6.77,0,7.55,7.55,0,0,0-1.25,4.51v1.25a7.73,7.73,0,0,0,1.23,4.63,4.33,4.33,0,0,0,6.78.09A7.58,7.58,0,0,0,222.7,99Z"/><path class="cls-2" d="M235.8,105.52a4.6,4.6,0,0,1-3.71,1.49,3.94,3.94,0,0,1-3.09-1.18,5.11,5.11,0,0,1-1.07-3.49V94.09h2.17v8.2q0,2.88,2.34,2.88a3.23,3.23,0,0,0,3.3-1.85V94.09h2.17v12.68h-2.06Z"/><path class="cls-2" d="M244.15,91v3.07h2.36v1.68h-2.36v7.87a1.79,1.79,0,0,0,.31,1.15,1.35,1.35,0,0,0,1.08.38,5.56,5.56,0,0,0,1-.14v1.75a6.5,6.5,0,0,1-1.66.23,2.71,2.71,0,0,1-2.19-.88,3.75,3.75,0,0,1-.74-2.5V95.77h-2.31V94.09H242V91Z"/><path class="cls-2" d="M254.41,100.32a7.64,7.64,0,0,1,.73-3.36,5.48,5.48,0,0,1,2-2.29,5.56,5.56,0,0,1,3-.81,5.38,5.38,0,0,1,4.19,1.79,7,7,0,0,1,1.6,4.77v.15a7.61,7.61,0,0,1-.71,3.33,5.45,5.45,0,0,1-2,2.29,5.68,5.68,0,0,1-3,.82,5.33,5.33,0,0,1-4.18-1.8,6.87,6.87,0,0,1-1.6-4.74Zm2.18.25a5.44,5.44,0,0,0,1,3.39,3.14,3.14,0,0,0,2.62,1.28,3.08,3.08,0,0,0,2.62-1.3,5.9,5.9,0,0,0,1-3.62,5.41,5.41,0,0,0-1-3.38,3.29,3.29,0,0,0-5.22,0A5.85,5.85,0,0,0,256.59,100.57Z"/><path class="cls-2" d="M269.74,106.77v-11h-2V94.09h2v-1.3a4.29,4.29,0,0,1,1.09-3.15,4.12,4.12,0,0,1,3.08-1.11,5.4,5.4,0,0,1,1.49.2l-.12,1.74a6.15,6.15,0,0,0-1.17-.1,2.13,2.13,0,0,0-1.63.61,2.55,2.55,0,0,0-.57,1.77v1.34h2.71v1.68h-2.71v11Z"/></g><g class="cls-1"><path class="cls-2" d="M210.46,126.22l.87-8.51h8.74v2h-6.9l-.52,4.66a5.55,5.55,0,0,1,2.85-.74,4.69,4.69,0,0,1,3.7,1.54,6,6,0,0,1,1.37,4.17,5.82,5.82,0,0,1-1.42,4.15,5.19,5.19,0,0,1-4,1.52,5.36,5.36,0,0,1-3.69-1.26,5,5,0,0,1-1.63-3.46h2.05a3.42,3.42,0,0,0,1,2.2,3.21,3.21,0,0,0,2.22.75,2.93,2.93,0,0,0,2.37-1,4.29,4.29,0,0,0,.87-2.85,3.92,3.92,0,0,0-.94-2.75,3.16,3.16,0,0,0-2.47-1,3.54,3.54,0,0,0-2.23.63l-.57.46Z"/><path class="cls-2" d="M234.47,127.17a10.62,10.62,0,0,1-4.21-2,3.89,3.89,0,0,1-1.32-3,4.16,4.16,0,0,1,1.61-3.34,6.46,6.46,0,0,1,4.19-1.31,6.93,6.93,0,0,1,3.14.68A5.12,5.12,0,0,1,240,120a4.84,4.84,0,0,1,.76,2.61H238.5a3.12,3.12,0,0,0-1-2.44,4,4,0,0,0-2.78-.88,4.07,4.07,0,0,0-2.59.73,2.46,2.46,0,0,0-.94,2,2.2,2.2,0,0,0,.89,1.76,8.51,8.51,0,0,0,3,1.32,14,14,0,0,1,3.33,1.32,5.1,5.1,0,0,1,1.78,1.69,4.25,4.25,0,0,1,.58,2.26,4,4,0,0,1-1.62,3.32,6.89,6.89,0,0,1-4.32,1.25,8,8,0,0,1-3.28-.68,5.5,5.5,0,0,1-2.35-1.84,4.51,4.51,0,0,1-.83-2.66h2.26a2.92,2.92,0,0,0,1.15,2.44,4.79,4.79,0,0,0,3.05.9,4.37,4.37,0,0,0,2.73-.73,2.36,2.36,0,0,0,.95-2,2.31,2.31,0,0,0-.88-1.94A10,10,0,0,0,234.47,127.17Z"/><path class="cls-2" d="M246.29,119v3.07h2.36v1.68h-2.36v7.87a1.79,1.79,0,0,0,.31,1.15,1.35,1.35,0,0,0,1.08.38,5.56,5.56,0,0,0,1-.14v1.75a6.5,6.5,0,0,1-1.66.23,2.71,2.71,0,0,1-2.19-.88,3.75,3.75,0,0,1-.74-2.5v-7.86h-2.31v-1.68h2.31V119Z"/><path class="cls-2" d="M259,134.77a4.78,4.78,0,0,1-.3-1.33A4.86,4.86,0,0,1,255.1,135,4.52,4.52,0,0,1,252,134a3.45,3.45,0,0,1-1.2-2.69,3.58,3.58,0,0,1,1.51-3.08,7.08,7.08,0,0,1,4.23-1.09h2.11v-1a2.41,2.41,0,0,0-.68-1.81,2.72,2.72,0,0,0-2-.67,3.18,3.18,0,0,0-2,.58,1.73,1.73,0,0,0-.78,1.42h-2.18a3,3,0,0,1,.67-1.83,4.57,4.57,0,0,1,1.83-1.4,6.07,6.07,0,0,1,2.54-.52,5,5,0,0,1,3.43,1.1,3.93,3.93,0,0,1,1.29,3v5.84a7.1,7.1,0,0,0,.45,2.78v.18Zm-3.6-1.65a3.75,3.75,0,0,0,1.94-.53,3.11,3.11,0,0,0,1.32-1.37v-2.6H257q-4,0-4,2.33a2,2,0,0,0,.68,1.6A2.6,2.6,0,0,0,255.41,133.12Z"/><path class="cls-2" d="M270.37,124a6,6,0,0,0-1.07-.08,2.84,2.84,0,0,0-2.89,1.81v9h-2.17V122.09h2.11l0,1.47a3.39,3.39,0,0,1,3-1.7,2.22,2.22,0,0,1,1,.16Z"/><path class="cls-2" d="M279.74,131.41a1.61,1.61,0,0,0-.66-1.37,6.37,6.37,0,0,0-2.31-.83,10.92,10.92,0,0,1-2.61-.85,3.64,3.64,0,0,1-1.43-1.17,2.78,2.78,0,0,1-.46-1.62,3.31,3.31,0,0,1,1.31-2.63,5.16,5.16,0,0,1,3.37-1.08,5.3,5.3,0,0,1,3.5,1.11,3.51,3.51,0,0,1,1.34,2.85h-2.18a1.94,1.94,0,0,0-.75-1.53,2.85,2.85,0,0,0-1.91-.65,2.93,2.93,0,0,0-1.85.52,1.63,1.63,0,0,0-.67,1.34,1.33,1.33,0,0,0,.62,1.19,7.9,7.9,0,0,0,2.25.76,11.37,11.37,0,0,1,2.63.87,3.77,3.77,0,0,1,1.49,1.21,2.94,2.94,0,0,1,.49,1.73,3.23,3.23,0,0,1-1.36,2.72,5.67,5.67,0,0,1-3.53,1,6.36,6.36,0,0,1-2.69-.54,4.44,4.44,0,0,1-1.84-1.51,3.62,3.62,0,0,1-.66-2.09H274a2.26,2.26,0,0,0,.87,1.73,3.38,3.38,0,0,0,2.15.64,3.54,3.54,0,0,0,2-.5A1.54,1.54,0,0,0,279.74,131.41Z"/></g></g><g id="Line_5" data-name="Line 5"><rect class="cls-2" x="146.07" y="25.27" width="2" height="85"/></g><g id="_" data-name=" " class="cls-1"><g class="cls-1"><path class="cls-2" d="M100.62,25.62h4.76v2.05h-4.76v5.39H98.44V27.67H93.68V25.62h4.76v-5h2.18Z"/></g></g></g></g></g></svg>