<svg xmlns="http://www.w3.org/2000/svg" viewBox="0 0 30 24.349">
  <defs>
    <style>
      .cls-1 {
        fill: #bcbcbc;
      }
    </style>
  </defs>
  <g id="photo-camera" transform="translate(0 -46.15)">
    <g id="Group_6064" data-name="Group 6064" transform="translate(0 46.15)">
      <path id="Path_13429" data-name="Path 13429" class="cls-1" d="M0,53.6V66.838A3.663,3.663,0,0,0,3.661,70.5H26.339A3.663,3.663,0,0,0,30,66.838V53.6a3.486,3.486,0,0,0-3.484-3.484H21.643l-.116-.508a4.45,4.45,0,0,0-4.359-3.459H12.827a4.461,4.461,0,0,0-4.359,3.459l-.116.508H3.484A3.49,3.49,0,0,0,0,53.6Zm8.951-1.984a.746.746,0,0,0,.729-.582l.251-1.09a2.961,2.961,0,0,1,2.9-2.3h4.341a2.961,2.961,0,0,1,2.9,2.3l.251,1.09a.753.753,0,0,0,.729.582H26.51A1.983,1.983,0,0,1,28.494,53.6V66.838A2.161,2.161,0,0,1,26.333,69H3.661A2.161,2.161,0,0,1,1.5,66.838V53.6a1.983,1.983,0,0,1,1.984-1.984H8.951Z" transform="translate(0 -46.15)"/>
      <circle id="Ellipse_1232" data-name="Ellipse 1232" class="cls-1" cx="1.004" cy="1.004" r="1.004" transform="translate(4.071 7.665)"/>
      <path id="Path_13430" data-name="Path 13430" class="cls-1" d="M148.4,187.75a6.3,6.3,0,1,0-6.3-6.3A6.31,6.31,0,0,0,148.4,187.75Zm0-11.1a4.8,4.8,0,1,1-4.8,4.8A4.808,4.808,0,0,1,148.4,176.65Z" transform="translate(-133.4 -167.252)"/>
    </g>
  </g>
</svg>
