<svg xmlns="http://www.w3.org/2000/svg" viewBox="0 0 205.996 40">
  <defs>
    <style>
      .cls-1 {
        fill: #fff;
      }

      .cls-2 {
        fill: #e04859;
      }

      .cls-3 {
        fill: #ebcb4d;
      }

      .cls-4 {
        fill: #3ea7f4;
      }
    </style>
  </defs>
  <g id="Group_3" data-name="Group 3" transform="translate(-379.1 -117.9)">
    <g id="Group_1" data-name="Group 1" transform="translate(437.901 117.9)">
      <path id="Path_1" data-name="Path 1" class="cls-1" d="M202.227,104.527v1.413a6.777,6.777,0,0,1,5.953-3.041c5.7,0,9.122,3.34,9.122,10.493s-3.469,10.535-9.122,10.535a7.113,7.113,0,0,1-5.953-3.041v9.893a1.413,1.413,0,0,1-2.827,0V104.613a1.426,1.426,0,0,1,1.413-1.413A1.353,1.353,0,0,1,202.227,104.527Zm5.953,16.831c4.026,0,6.3-2.527,6.3-8.009s-2.355-7.966-6.381-7.966c-3.255,0-5.953,2.27-5.953,7.966C202.141,119,204.753,121.358,208.179,121.358Z" transform="translate(-199.4 -92.193)"/>
      <path id="Path_2" data-name="Path 2" class="cls-1" d="M259.227,106.512c.857-2.013,3.041-3.512,6.081-3.512a1.37,1.37,0,1,1,0,2.741c-4.026,0-6.081,2.784-6.081,6.809v9.807a1.413,1.413,0,1,1-2.827,0v-17.73a1.413,1.413,0,0,1,2.827,0Z" transform="translate(-231.989 -92.251)"/>
      <path id="Path_3" data-name="Path 3" class="cls-1" d="M307.93,113.393c0,7.152-3.512,10.535-9.165,10.535s-9.165-3.383-9.165-10.535,3.555-10.493,9.165-10.493C304.418,102.9,307.93,106.2,307.93,113.393Zm-2.827,0c0-5.525-2.313-7.966-6.338-7.966s-6.338,2.441-6.338,7.966c0,5.61,2.313,8.009,6.338,8.009C302.791,121.358,305.1,118.96,305.1,113.393Z" transform="translate(-250.97 -92.193)"/>
      <path id="Path_4" data-name="Path 4" class="cls-1" d="M359.39,91.433V79.313a1.413,1.413,0,1,1,2.827,0v21.67c0,5.782-3.6,8.608-8.565,8.608-5.653,0-8.951-3.383-8.951-10.535s3.126-10.493,8.779-10.493A7.42,7.42,0,0,1,359.39,91.433Zm0,3.555s-1.67-3.854-5.782-3.854c-3.983,0-6.167,2.57-6.167,7.966,0,5.482,2.141,8.009,6.167,8.009,3.383,0,5.782-1.927,5.782-6.081Z" transform="translate(-282.473 -77.9)"/>
      <path id="Path_5" data-name="Path 5" class="cls-1" d="M409.894,102.9c6.981,0,8.351,5.567,8.351,8.522,0,1.285,0,2.784-1.756,2.784H403.727c0,4.325,2.484,7.109,6.6,7.109a7.83,7.83,0,0,0,5.225-1.884,1.2,1.2,0,0,1,.771-.257,1.279,1.279,0,0,1,.814,2.27,9.727,9.727,0,0,1-6.809,2.441c-5.824,0-9.422-3.212-9.422-10.535C400.9,106.626,404.2,102.9,409.894,102.9Zm0,2.527c-3.812,0-5.91,2.441-6.167,6.338H415.5C415.5,108.6,414.39,105.427,409.894,105.427Z" transform="translate(-314.605 -92.193)"/>
      <path id="Path_6" data-name="Path 6" class="cls-1" d="M458.327,104.813v11.392c0,2.827.9,5.268,5.311,5.268s5.31-2.441,5.31-5.268V104.813A1.435,1.435,0,0,1,470.4,103.4a1.39,1.39,0,0,1,1.37,1.413v11.392c0,4.154-1.37,7.966-8.137,7.966-6.724,0-8.137-3.812-8.137-7.966V104.813a1.4,1.4,0,0,1,1.413-1.413A1.455,1.455,0,0,1,458.327,104.813Z" transform="translate(-345.821 -92.479)"/>
      <path id="Path_7" data-name="Path 7" class="cls-1" d="M511.383,108.325c0,4.582,11.478,2.869,11.478,9.893,0,3.983-3.3,5.782-7.409,5.782A9.809,9.809,0,0,1,508,120.873a1.277,1.277,0,0,1,.985-2.1,1.313,1.313,0,0,1,.942.428,7.349,7.349,0,0,0,5.567,2.141c2.484,0,4.625-.814,4.625-3.084,0-4.5-11.477-2.7-11.477-9.893,0-3.64,2.955-5.268,6.681-5.268,2.955,0,5.268.985,6.638,2.784a1.3,1.3,0,0,1,.3.814,1.288,1.288,0,0,1-1.285,1.285,1.215,1.215,0,0,1-.9-.385,6.149,6.149,0,0,0-4.754-1.842C513.31,105.712,511.383,106.312,511.383,108.325Z" transform="translate(-375.666 -92.308)"/>
    </g>
    <g id="Group_2" data-name="Group 2" transform="translate(379.1 117.943)">
      <path id="Path_8" data-name="Path 8" class="cls-2" d="M132.246,103.5,120.64,96.814a.389.389,0,0,0-.428,0L116.7,98.827a.407.407,0,0,0,0,.728l4.368,2.57,9.422,5.439a.389.389,0,0,0,.428,0l1.756-1.028a.527.527,0,0,0,.214-.428,22.684,22.684,0,0,0-.428-2.355A1.136,1.136,0,0,0,132.246,103.5Z" transform="translate(-93.188 -88.72)"/>
      <path id="Path_9" data-name="Path 9" class="cls-2" d="M77.989,120.669l3.383-1.927a.407.407,0,0,0,0-.728L78.931,116.6,66.64,109.406a.45.45,0,0,1-.214-.385V98.014a.425.425,0,0,0-.771-.257A19.568,19.568,0,0,0,62.1,109.063v.171a19.608,19.608,0,0,0,3.6,11.306.423.423,0,0,0,.771-.257v-5.311a.426.426,0,0,1,.642-.385l8.822,5.1,1.67.985A.32.32,0,0,0,77.989,120.669Z" transform="translate(-62.1 -89.191)"/>
      <path id="Path_10" data-name="Path 10" class="cls-3" d="M97.737,78c-.6,0-1.156.043-1.756.086a.44.44,0,0,0-.171.814l4.968,2.869h0l-1.542.9h0l-3.9,2.27-3,1.627h0l-2.527,1.456a.45.45,0,0,0-.214.385v3.9a.44.44,0,0,0,.642.385l7.238-4.154h0l1.585-.9h0l3.94-2.27,1.8-1.028a.389.389,0,0,1,.428,0l9.893,5.7a.431.431,0,0,0,.6-.557A19.838,19.838,0,0,0,97.737,78Z" transform="translate(-77.823 -78)"/>
      <path id="Path_11" data-name="Path 11" class="cls-3" d="M104.661,142.229a.44.44,0,0,0-.642-.385l-3.854,2.227-.771.471-9.379,5.439a.45.45,0,0,0-.214.385v2.013a.375.375,0,0,0,.257.385,20.4,20.4,0,0,0,2.27.814.455.455,0,0,0,.343-.043l11.82-6.852a.45.45,0,0,0,.214-.385Z" transform="translate(-77.937 -114.477)"/>
      <path id="Path_12" data-name="Path 12" class="cls-4" d="M80,145.575l-3.555-2.056a.426.426,0,0,0-.642.385v5.439a.389.389,0,0,0,.128.3,19.08,19.08,0,0,0,3.64,2.784.426.426,0,0,0,.642-.385v-6.124A.437.437,0,0,0,80,145.575Z" transform="translate(-69.933 -115.425)"/>
      <path id="Path_13" data-name="Path 13" class="cls-4" d="M123.147,126.725l-4.2,2.441a.426.426,0,0,1-.642-.385V127.71h0v-5.1h0v-1.8h0v-3.64a.45.45,0,0,0-.214-.385l-3.469-1.97a.426.426,0,0,0-.642.385v8.137h0v8.437a.45.45,0,0,1-.214.385l-10.15,5.867a.44.44,0,0,0,.171.814c.6.043,1.2.086,1.842.086a20.055,20.055,0,0,0,10.278-2.827l.086-.043a20.23,20.23,0,0,0,7.794-8.737C123.918,126.9,123.489,126.511,123.147,126.725Z" transform="translate(-85.716 -99.017)"/>
      <path id="Path_14" data-name="Path 14" class="cls-3" d="M89.7,124.488a.45.45,0,0,0,.214.385l2.184,1.285,5.782,3.383a.426.426,0,0,0,.642-.385l-.043-4.368a.45.45,0,0,0-.214-.385l-3.255-1.756h0l-4.668-2.527a.426.426,0,0,0-.642.385Z" transform="translate(-77.88 -102.047)"/>
      <path id="Path_15" data-name="Path 15" class="cls-4" d="M75.7,89.233V102.21a.45.45,0,0,0,.214.385l3.512,2.056a.426.426,0,0,0,.642-.385l.043-4.026V92.531h0v-3.94a.45.45,0,0,0-.214-.385l-1.67-.985a.39.39,0,0,0-.471.043,24.121,24.121,0,0,0-1.927,1.627A.486.486,0,0,0,75.7,89.233Z" transform="translate(-69.876 -83.237)"/>
      <path id="Path_16" data-name="Path 16" class="cls-4" d="M92.9,110.153l3.6,1.97a.389.389,0,0,0,.428,0l3.212-1.713,1.542-.814h0l.771-.428,2.355-1.285a.407.407,0,0,0,0-.728l-2.056-1.2-1.627-.942a.389.389,0,0,0-.428,0l-1.413.771-3.9,2.184L92.9,109.425A.407.407,0,0,0,92.9,110.153Z" transform="translate(-79.581 -93.408)"/>
      <path id="Path_17" data-name="Path 17" class="cls-3" d="M147.539,124.146h0a.241.241,0,0,0-.385-.214l-5.139,2.912a.45.45,0,0,0-.214.385V131.3a.426.426,0,0,0,.642.385l4.325-2.484a.63.63,0,0,0,.214-.257A22.577,22.577,0,0,0,147.539,124.146Z" transform="translate(-107.667 -104.231)"/>
      <path id="Path_18" data-name="Path 18" class="cls-2" d="M113.843,124.279v1.756a.44.44,0,0,0,.642.385l3.683-2.141a.45.45,0,0,0,.214-.385v-8.865a.44.44,0,0,0-.642-.385l-3.726,2.013a.45.45,0,0,0-.214.385Z" transform="translate(-91.659 -98.926)"/>
      <path id="Path_19" data-name="Path 19" class="cls-2" d="M85.7,82.16l4.968,2.912a.389.389,0,0,0,.428,0l3.555-2.056a.407.407,0,0,0,0-.728L90.2,79.719a.455.455,0,0,0-.343-.043A20.7,20.7,0,0,0,85.7,81.389.443.443,0,0,0,85.7,82.16Z" transform="translate(-75.464 -78.948)"/>
    </g>
  </g>
</svg>
