<svg xmlns="http://www.w3.org/2000/svg" viewBox="3275 -223 23.999 24">
  <defs>
    <style>
      .cls-1 {
        fill: #f8f8f8;
      }

      .cls-2 {
        fill: #bcbcbc;
      }
    </style>
  </defs>
  <g id="user-3" transform="translate(3275 -223)">
    <path id="Path_3" data-name="Path 3" class="cls-1" d="M13.592,23.194l-3.581,1.953a3.218,3.218,0,0,0-.575.409,11.992,11.992,0,0,0,15.408.04,3.177,3.177,0,0,0-.631-.423L20.38,23.256a1.462,1.462,0,0,1-.808-1.308v-1.5a5.791,5.791,0,0,0,.363-.466,8.822,8.822,0,0,0,1.192-2.4,1.2,1.2,0,0,0,.854-1.146V14.824a1.2,1.2,0,0,0-.4-.89V11.613S22.056,8,17.164,8s-4.415,3.612-4.415,3.612v2.321a1.2,1.2,0,0,0-.4.89V16.43a1.2,1.2,0,0,0,.555,1.01,7.968,7.968,0,0,0,1.452,3v1.467A1.464,1.464,0,0,1,13.592,23.194Z" transform="translate(-5.164 -4.378)"/>
    <g id="Group_40" data-name="Group 40" transform="translate(0 0)">
      <path id="Path_4" data-name="Path 4" class="cls-2" d="M12.205,0A11.992,11.992,0,0,0,4.278,21.174a3.189,3.189,0,0,1,.569-.4l3.581-1.953a1.463,1.463,0,0,0,.762-1.284V16.066a7.961,7.961,0,0,1-1.452-3,1.2,1.2,0,0,1-.555-1.01V10.446a1.2,1.2,0,0,1,.4-.89V7.235S7.108,3.623,12,3.623s4.415,3.612,4.415,3.612V9.556a1.2,1.2,0,0,1,.4.89v1.606a1.2,1.2,0,0,1-.854,1.146,8.822,8.822,0,0,1-1.192,2.4,5.79,5.79,0,0,1-.363.466v1.5a1.462,1.462,0,0,0,.808,1.308l3.834,1.917a3.193,3.193,0,0,1,.629.422A12,12,0,0,0,12.205,0Z" transform="translate(0 0)"/>
    </g>
  </g>
</svg>
