<svg xmlns="http://www.w3.org/2000/svg" viewBox="0 0 100 16.109">
  <defs>
    <style>
      .cls-1 {
        fill: #ebcb4d;
      }

      .cls-2 {
        fill: #dbdbdb;
      }
    </style>
  </defs>
  <g id="Group_4612" data-name="Group 4612" transform="translate(-523 -1567)">
    <path id="path-23" class="cls-1" d="M9.262.476l1.9,3.866a.867.867,0,0,0,.668.492l4.253.633a.9.9,0,0,1,.492,1.547L13.515,10a.85.85,0,0,0-.246.808l.738,4.218a.9.9,0,0,1-1.3.949l-3.8-2a.9.9,0,0,0-.844,0l-3.831,2a.891.891,0,0,1-1.3-.949l.738-4.218A.978.978,0,0,0,3.427,10L.3,7.014A.908.908,0,0,1,.791,5.467l4.253-.633a.815.815,0,0,0,.668-.492L7.61.476A.932.932,0,0,1,9.262.476Z" transform="translate(522.973 1567.025)"/>
    <path id="path-23-2" data-name="path-23" class="cls-1" d="M9.262.476l1.9,3.866a.867.867,0,0,0,.668.492l4.253.633a.9.9,0,0,1,.492,1.547L13.515,10a.85.85,0,0,0-.246.808l.738,4.218a.9.9,0,0,1-1.3.949l-3.8-2a.9.9,0,0,0-.844,0l-3.831,2a.891.891,0,0,1-1.3-.949l.738-4.218A.978.978,0,0,0,3.427,10L.3,7.014A.908.908,0,0,1,.791,5.467l4.253-.633a.815.815,0,0,0,.668-.492L7.61.476A.932.932,0,0,1,9.262.476Z" transform="translate(543.485 1567.025)"/>
    <path id="path-23-3" data-name="path-23" class="cls-1" d="M9.262.476l1.9,3.866a.867.867,0,0,0,.668.492l4.253.633a.9.9,0,0,1,.492,1.547L13.515,10a.85.85,0,0,0-.246.808l.738,4.218a.9.9,0,0,1-1.3.949l-3.8-2a.9.9,0,0,0-.844,0l-3.831,2a.891.891,0,0,1-1.3-.949l.738-4.218A.978.978,0,0,0,3.427,10L.3,7.014A.908.908,0,0,1,.791,5.467l4.253-.633a.815.815,0,0,0,.668-.492L7.61.476A.932.932,0,0,1,9.262.476Z" transform="translate(565.115 1567.025)"/>
    <path id="path-23-4" data-name="path-23" class="cls-1" d="M9.262.476l1.9,3.866a.867.867,0,0,0,.668.492l4.253.633a.9.9,0,0,1,.492,1.547L13.515,10a.85.85,0,0,0-.246.808l.738,4.218a.9.9,0,0,1-1.3.949l-3.8-2a.9.9,0,0,0-.844,0l-3.831,2a.891.891,0,0,1-1.3-.949l.738-4.218A.978.978,0,0,0,3.427,10L.3,7.014A.908.908,0,0,1,.791,5.467l4.253-.633a.815.815,0,0,0,.668-.492L7.61.476A.932.932,0,0,1,9.262.476Z" transform="translate(585.627 1567.025)"/>
    <path id="path-23-5" data-name="path-23" class="cls-2" d="M9.262.476l1.9,3.866a.867.867,0,0,0,.668.492l4.253.633a.9.9,0,0,1,.492,1.547L13.515,10a.85.85,0,0,0-.246.808l.738,4.218a.9.9,0,0,1-1.3.949l-3.8-2a.9.9,0,0,0-.844,0l-3.831,2a.891.891,0,0,1-1.3-.949l.738-4.218A.978.978,0,0,0,3.427,10L.3,7.014A.908.908,0,0,1,.791,5.467l4.253-.633a.815.815,0,0,0,.668-.492L7.61.476A.932.932,0,0,1,9.262.476Z" transform="translate(606.14 1567.025)"/>
  </g>
</svg>
