<svg xmlns="http://www.w3.org/2000/svg" viewBox="0 0 20 20">
  <defs>
    <style>
      .cls-1 {
        fill: #3e99f4;
      }

      .cls-2 {
        fill: #fff;
      }
    </style>
  </defs>
  <g id="Group_4446" data-name="Group 4446" transform="translate(-1036 -635)">
    <circle id="Ellipse_1125" data-name="Ellipse 1125" class="cls-1" cx="10" cy="10" r="10" transform="translate(1036 635)"/>
    <path id="star" class="cls-2" d="M4.936,1.317,5.951,3.374a.485.485,0,0,0,.365.265l2.27.33a.485.485,0,0,1,.269.827L7.212,6.4a.485.485,0,0,0-.139.429L7.46,9.087a.485.485,0,0,1-.7.511L4.727,8.53a.485.485,0,0,0-.451,0L2.245,9.6a.485.485,0,0,1-.7-.511l.388-2.261A.485.485,0,0,0,1.79,6.4L.148,4.8a.485.485,0,0,1,.269-.827l2.27-.33a.485.485,0,0,0,.365-.265L4.066,1.317A.485.485,0,0,1,4.936,1.317Z" transform="translate(1041.624 639.578)"/>
  </g>
</svg>
