<svg xmlns="http://www.w3.org/2000/svg" viewBox="0 0 385.15 335.06"><defs><style>.cls-1{isolation:isolate;}.cls-2{fill:#1b4e61;}.cls-3{fill:#f29d7e;}.cls-4{fill:#236780;}.cls-5{fill:#184657;}.cls-6{fill:#0d232b;}.cls-7{fill:#1e323a;}.cls-8{fill:#e8a1ba;}.cls-10,.shadow-18{fill:#cbc7ff;mix-blend-mode:multiply;}.shadow-18{opacity:0.7;}.cls-9{fill:#fcc14a;}.cls-11{fill:#fdd688;}.cls-12{fill:#faf8dc;opacity:0.56;mix-blend-mode:overlay;}.cls-13{fill:#035e80;opacity:0.29;}.cls-14{fill:#fdce70;}.cls-15{fill:#fff;opacity:0.68;}.cls-16{fill:#f18a75;}.cls-17{fill:#e85f5b;}.cls-18{fill:#ee775f;}.cls-19{fill:#f5b198;}</style></defs><title>searchAsset 1</title><g class="cls-1"><g id="Layer_2" data-name="Layer 2"><g id="color_1" data-name="color 1"><polygon class="cls-2" points="173.93 329.88 171.12 328.45 171.32 334.58 174.01 334.61 173.93 329.88"/><path class="cls-3" d="M184.71,322.22c-2.69-5.6,2-17.18,7.48-42.8-5.5-.75-13-3.45-18.87-1.88-1.63,14.88-.08,24.19-2.13,34.75-1.09,5.62-2.82,12-2.7,15.49,4.1,1.32,8.23.46,13,3.75a18.21,18.21,0,0,0,13.1,2.62,6.22,6.22,0,0,0,2.66-1.23C196.53,331.17,187.79,328.64,184.71,322.22Z"/><path class="cls-4" d="M196.4,334.12c-1.88.85-8,1.72-12-.26s-9.87-3.33-13.15-4.53c-.09,1.37.12,3.15.1,5.42a7.33,7.33,0,0,0-2.75-.08s.05-3.39-.08-6.89c4.1,1.32,7.81.29,13.17,3.24,5.16,2.83,10.77,3.64,12.91,3.13a6.22,6.22,0,0,0,2.66-1.23C197.42,333.38,197.2,333.77,196.4,334.12Z"/><path class="cls-5" d="M194.57,334.15a6.22,6.22,0,0,0,2.66-1.23c-.42-1.06-3.57-2.63-7.38-5a8.48,8.48,0,0,1-7,1c-4.82-2.54-10-5.12-14.24-5.7a13.89,13.89,0,0,0-.16,4.61c4.1,1.32,11,3.15,13,4C187.35,334.41,192.43,334.66,194.57,334.15Z"/><polygon class="cls-2" points="30.54 317.7 30.79 314.9 24.93 314.37 25.84 317.24 30.54 317.7"/><path class="cls-3" d="M31.2,328.35c2.49-.36,25.54,2.07,50.75,5.11-.65-6-.07-15-1-21-12.84-.61-26.92,2.56-36.91,1.83-4.91-.35-9.25-1.72-12.31-2-1.78,3.92-3.73,6.5-8.37,10s-6,7.27-6.15,9.46a6.21,6.21,0,0,0,.32,2.92C19.44,334.6,24.16,329.39,31.2,328.35Z"/><path class="cls-4" d="M16.68,333.54a12.2,12.2,0,0,1,3.59-9.21c3.14-3.15,8.07-6.31,9.64-9.43-1.35-.25-2.72-.24-5-.53a12.76,12.76,0,0,1,1.32-2.45l5.51.45c-1.78,3.92-3.73,6.5-8.37,10s-6,7.27-6.15,9.46a6.21,6.21,0,0,0,.32,2.92C17.06,334.74,16.77,334.4,16.68,333.54Z"/><path class="cls-5" d="M17.24,331.79a6.21,6.21,0,0,0,.32,2.92c1.14-.07,3.33-2,6.45-3.76a6.83,6.83,0,0,1,1.46-6.43c3.88-2.06,8.2-7.74,9.28-11.92l-3-.23c-1.78,3.92-3.73,6.5-8.37,10S17.43,329.6,17.24,331.79Z"/><path class="cls-6" d="M95.82,256.25l78.5-23.33-9.5,70,22,2s28.5-77.5,10-101c-19-24.17-93,1.5-93,1.5l-38.5-26.5,1.5,56Z"/><path class="cls-7" d="M64.82,178.42c-14,17-38,67.5-27,93.5,11.54,27.27,95.5,33,95.5,33l-69,7-1,21.5s49.5,1.5,69.5,1.5,45.5-16.5,31.5-43-82.84-52.67-82.84-52.67l37.84-39.83Z"/><polygon class="cls-8" points="143.57 144.4 176.3 135.74 179.82 147.91 143.57 163.33 143.57 144.4"/><polygon class="shadow-18" points="143.57 144.4 176.3 135.74 179.82 147.91 143.57 163.33 143.57 144.4"/><path class="cls-9" d="M380.65,112.42A104.67,104.67,0,1,1,276,7.75,104.66,104.66,0,0,1,380.65,112.42ZM276,23.35a89.07,89.07,0,1,0,89.07,89.07A89.07,89.07,0,0,0,276,23.35Z"/><path class="cls-10" d="M380.65,112.42A104.67,104.67,0,1,1,276,7.75,104.66,104.66,0,0,1,380.65,112.42ZM276,23.35a89.07,89.07,0,1,0,89.07,89.07A89.07,89.07,0,0,0,276,23.35Z"/><path class="cls-9" d="M85.77,298C74.65,308.09,57.58,288.87,68.52,279l122-107.84c5.09-.42,14.36,8.71,14.7,16.24Z"/><path class="cls-11" d="M198.41,175,80.75,279c-6.78,6.14-2.8,15.86,3.86,20a12,12,0,0,0,1.16-.92L205.25,187.36C205.05,183.08,202,178.28,198.41,175Z"/><path class="cls-10" d="M205.25,187.36c-.34-7.53-9.61-16.66-14.7-16.24l-7.23,6.39c2.94-.3,7.55-.44,10.79,1,5.47,2.48,8.1,6.74,8.11,11.63Z"/><circle class="cls-12" cx="278.15" cy="109.58" r="89.06"/><path class="cls-13" d="M269.82,33.19a89.09,89.09,0,0,1,78.35,131.44A89.07,89.07,0,1,0,199.8,67.2,88.92,88.92,0,0,1,269.82,33.19Z"/><path class="cls-14" d="M384.15,105.92A104.67,104.67,0,1,1,279.48,1.25,104.66,104.66,0,0,1,384.15,105.92ZM279.48,16.85a89.07,89.07,0,1,0,89.07,89.07A89.07,89.07,0,0,0,279.48,16.85Z"/><path class="cls-9" d="M385.15,104.67A104.67,104.67,0,1,1,280.48,0,104.66,104.66,0,0,1,385.15,104.67ZM280.48,15.6a89.07,89.07,0,1,0,89.07,89.07A89.07,89.07,0,0,0,280.48,15.6Z"/><path class="cls-15" d="M295.72,48.33c15.15,2.41,36.12,19.51,44.68,37.21Z"/><path class="cls-16" d="M180,94.38l1,6.45a.71.71,0,0,1-.8.81l-3.38-.52Z"/><path class="cls-3" d="M184.78,75.48c2.62,4,0,12.22-3.25,17.24s-8.62,21.36-16.88,20.37a36.4,36.4,0,0,1-11-3.24l-14.54,19.46-20-12.15,35.66-36Z"/><path class="cls-17" d="M179.72,90.93a10.28,10.28,0,0,1,1.37-.09c.23,0,.46,0,.7,0a3.69,3.69,0,0,1,.75.13.39.39,0,0,1,.26.48.38.38,0,0,1-.47.25l-.12,0a3,3,0,0,0-.54-.26l-.63-.2A11.45,11.45,0,0,0,179.72,90.93Z"/><circle class="cls-18" cx="171.82" cy="99.62" r="3.95"/><path class="cls-8" d="M86.6,131.19C78.23,144,62.32,181.42,62.32,181.42a114.6,114.6,0,0,0,20.25,10.5c12.29,5.06,28.75,4.25,28.75,4.25L130.62,155Z"/><path class="cls-17" d="M151.72,52.9c15.79-7.21,24.44,9.6,29.84,10.9,11.05,2.65,6.54,20.14-6.54,25-10.09,3.77-13,24.63-27.17,16.3-8.82-5.18-12.61,8.56-27.18-.79-9-5.77-15.89,11.52-31.71,5.11s-25.5-10.22-34.64-1.64S32.74,124.6,17.53,119.46-.79,102.51.15,96.9C2.8,81.07,18.43,81.35,20.51,72.07c2.61-11.64,16.3-20,30.93-15.58s23.55,9.68,30.73,4,14.42-11.85,28.15-7.34S134.54,60.74,151.72,52.9Z"/><path class="cls-19" d="M180.75,206.91a1.89,1.89,0,0,0,1.74-2.31c-1.34.65-6.46.65-9.26,1.68-3-.76-6.37-1.6-9.93-2.71.28,4.19-1.53,9-3.26,12.58,5.87.18,10.58.44,13.44,1.27,8.42,2.41,8.67-7.84,8.67-7.84a10.73,10.73,0,0,0-4-1.94A9.43,9.43,0,0,1,180.75,206.91Z"/><path class="shadow-18" d="M114.07,196.42l11-46.25-29.5,45.25s6.25,2,10.5,2A34.91,34.91,0,0,0,114.07,196.42Z"/><path class="cls-8" d="M160,216.15c-15.06-.48-36.14-1.21-44.85-7.9-12.11-9.3,8-54.44,8-54.44L86.6,131.19s21-22,36.47-16.52c17.15,6.08,20.31,11.12,23.61,26.2s-13.1,54.54-13.1,54.54,16,3.86,29.72,8.16C163.58,207.76,161.77,212.58,160,216.15Z"/></g></g></g></svg>