<svg xmlns="http://www.w3.org/2000/svg" viewBox="0 0 20 20.001">
  <defs>
    <style>
      .cls-1 {
        fill: #bcbcbc;
        fill-rule: evenodd;
      }
    </style>
  </defs>
  <g id="settings-work-tool" transform="translate(-0.003)">
    <g id="Group_6303" data-name="Group 6303" transform="translate(0.003 0)">
      <path id="Path_13446" data-name="Path 13446" class="cls-1" d="M19.94,8.89A.651.651,0,0,0,19.3,8.4a2.208,2.208,0,0,1-1.511-3.843.555.555,0,0,0,.061-.754,9.9,9.9,0,0,0-1.584-1.6.557.557,0,0,0-.76.061,2.3,2.3,0,0,1-2.494.56A2.221,2.221,0,0,1,11.657.651a.555.555,0,0,0-.491-.584A9.984,9.984,0,0,0,8.917.061a.557.557,0,0,0-.5.572A2.225,2.225,0,0,1,7.052,2.767,2.311,2.311,0,0,1,4.577,2.2a.558.558,0,0,0-.755-.063A9.933,9.933,0,0,0,2.2,3.739a.556.556,0,0,0,.06.76,2.216,2.216,0,0,1,.559,2.5A2.312,2.312,0,0,1,.647,8.346a.544.544,0,0,0-.578.491,10.018,10.018,0,0,0,0,2.274.662.662,0,0,0,.656.492,2.193,2.193,0,0,1,2.058,1.37,2.224,2.224,0,0,1-.559,2.473.556.556,0,0,0-.061.754,9.931,9.931,0,0,0,1.582,1.6.556.556,0,0,0,.761-.06,2.3,2.3,0,0,1,2.493-.561A2.218,2.218,0,0,1,8.348,19.35a.555.555,0,0,0,.491.584,9.953,9.953,0,0,0,2.25.006.557.557,0,0,0,.5-.573,2.223,2.223,0,0,1,1.368-2.133,2.308,2.308,0,0,1,2.477.563.559.559,0,0,0,.755.063,9.956,9.956,0,0,0,1.618-1.6.555.555,0,0,0-.06-.76,2.216,2.216,0,0,1-.56-2.495,2.239,2.239,0,0,1,2.046-1.356l.124,0a.557.557,0,0,0,.585-.49A10.009,10.009,0,0,0,19.94,8.89Zm-9.922,4.467a3.336,3.336,0,1,1,3.336-3.336A3.339,3.339,0,0,1,10.019,13.357Z" transform="translate(-0.003 0)"/>
    </g>
  </g>
</svg>
