<svg id="twitter-logo-button" xmlns="http://www.w3.org/2000/svg" viewBox="0 0 49.652 49.652">
  <defs>
    <style>
      .cls-1 {
        fill: #bcbcbc;
      }
    </style>
  </defs>
  <g id="Group_6544" data-name="Group 6544">
    <path id="Path_13674" data-name="Path 13674" class="cls-1" d="M24.826,0A24.826,24.826,0,1,0,49.652,24.826,24.854,24.854,0,0,0,24.826,0ZM35.9,19.144c.011.246.017.494.017.742,0,7.551-5.746,16.255-16.259,16.255A16.163,16.163,0,0,1,10.9,33.576a11.538,11.538,0,0,0,8.46-2.366,5.72,5.72,0,0,1-5.338-3.969,5.736,5.736,0,0,0,2.58-.1,5.715,5.715,0,0,1-4.583-5.6c0-.024,0-.049,0-.072a5.691,5.691,0,0,0,2.587.714,5.723,5.723,0,0,1-1.768-7.629,16.225,16.225,0,0,0,11.777,5.972,5.718,5.718,0,0,1,9.737-5.213,11.406,11.406,0,0,0,3.63-1.387,5.74,5.74,0,0,1-2.516,3.162,11.36,11.36,0,0,0,3.282-.9A11.494,11.494,0,0,1,35.9,19.144Z"/>
  </g>
</svg>
