<svg xmlns="http://www.w3.org/2000/svg" viewBox="0 0 50 50">
  <defs>
    <style>
      .cls-1 {
        fill: #bcbcbc;
      }
    </style>
  </defs>
  <path id="Union_195" data-name="Union 195" class="cls-1" d="M0,25A25,25,0,1,1,25,50,25,25,0,0,1,0,25Zm9.962-7.384v14.9a7.6,7.6,0,0,0,7.587,7.587h14.9a7.6,7.6,0,0,0,7.587-7.587v-14.9a7.6,7.6,0,0,0-7.587-7.587h-14.9A7.6,7.6,0,0,0,9.962,17.616Zm7.587,19.217a4.319,4.319,0,0,1-4.314-4.315v-14.9A4.319,4.319,0,0,1,17.549,13.3h14.9a4.319,4.319,0,0,1,4.314,4.314v14.9a4.319,4.319,0,0,1-4.314,4.315Zm-.294-11.766A7.746,7.746,0,1,0,25,17.322,7.755,7.755,0,0,0,17.254,25.067ZM31.162,17.09A1.833,1.833,0,1,0,33,15.258,1.835,1.835,0,0,0,31.162,17.09ZM20.527,25.067A4.473,4.473,0,1,1,25,29.54,4.479,4.479,0,0,1,20.527,25.067Z"/>
</svg>
