<svg xmlns="http://www.w3.org/2000/svg" viewBox="0 0 160.001 31.069">
  <defs>
    <style>
      .cls-1 {
        fill: #22283a;
      }

      .cls-2 {
        fill: #e04859;
      }

      .cls-3 {
        fill: #ebcb4d;
      }

      .cls-4 {
        fill: #3ea7f4;
      }
    </style>
  </defs>
  <g id="Group_5806" data-name="Group 5806" transform="translate(-379.1 -117.9)">
    <g id="Group_1" data-name="Group 1" transform="translate(424.772 117.9)">
      <path id="Path_1" data-name="Path 1" class="cls-1" d="M201.6,104.164v1.1a5.264,5.264,0,0,1,4.624-2.362c4.424,0,7.085,2.595,7.085,8.15s-2.694,8.183-7.085,8.183a5.525,5.525,0,0,1-4.624-2.362v7.684a1.1,1.1,0,1,1-2.2,0V104.231a1.107,1.107,0,0,1,1.1-1.1A1.051,1.051,0,0,1,201.6,104.164Zm4.624,13.073c3.127,0,4.89-1.963,4.89-6.22s-1.83-6.187-4.956-6.187c-2.528,0-4.624,1.763-4.624,6.187C201.529,115.407,203.558,117.237,206.219,117.237Z" transform="translate(-199.4 -94.584)"/>
      <path id="Path_2" data-name="Path 2" class="cls-1" d="M258.6,105.728A4.883,4.883,0,0,1,263.319,103a1.064,1.064,0,1,1,0,2.129c-3.127,0-4.723,2.162-4.723,5.289v7.617a1.1,1.1,0,0,1-2.2,0V104.264a1.1,1.1,0,0,1,2.2,0Z" transform="translate(-237.44 -94.651)"/>
      <path id="Path_3" data-name="Path 3" class="cls-1" d="M303.837,111.05c0,5.555-2.728,8.183-7.119,8.183S289.6,116.6,289.6,111.05s2.761-8.15,7.118-8.15C301.109,102.9,303.837,105.461,303.837,111.05Zm-2.2,0c0-4.291-1.8-6.187-4.923-6.187s-4.923,1.9-4.923,6.187c0,4.358,1.8,6.22,4.923,6.22C299.845,117.237,301.642,115.374,301.642,111.05Z" transform="translate(-259.596 -94.584)"/>
      <path id="Path_4" data-name="Path 4" class="cls-1" d="M356.11,88.411V79a1.1,1.1,0,1,1,2.2,0V95.829c0,4.491-2.794,6.686-6.653,6.686-4.391,0-6.952-2.628-6.952-8.183s2.428-8.15,6.819-8.15A5.763,5.763,0,0,1,356.11,88.411Zm0,2.761a5.163,5.163,0,0,0-4.491-2.994c-3.094,0-4.79,2-4.79,6.187,0,4.258,1.663,6.22,4.79,6.22,2.628,0,4.491-1.5,4.491-4.724Z" transform="translate(-296.367 -77.9)"/>
      <path id="Path_5" data-name="Path 5" class="cls-1" d="M407.885,102.9c5.422,0,6.486,4.324,6.486,6.62,0,1,0,2.162-1.364,2.162H403.1c0,3.36,1.929,5.522,5.123,5.522a6.082,6.082,0,0,0,4.058-1.464.929.929,0,0,1,.6-.2.993.993,0,0,1,.632,1.763,7.555,7.555,0,0,1-5.289,1.9c-4.524,0-7.318-2.495-7.318-8.183C400.9,105.794,403.461,102.9,407.885,102.9Zm0,1.963c-2.96,0-4.59,1.9-4.79,4.923h9.148C412.243,107.324,411.378,104.863,407.885,104.863Z" transform="translate(-333.873 -94.584)"/>
      <path id="Path_6" data-name="Path 6" class="cls-1" d="M457.7,104.5v8.848c0,2.2.7,4.091,4.125,4.091s4.125-1.9,4.125-4.091V104.5a1.115,1.115,0,0,1,1.131-1.1,1.079,1.079,0,0,1,1.064,1.1v8.848c0,3.227-1.064,6.187-6.32,6.187-5.223,0-6.32-2.96-6.32-6.187V104.5a1.086,1.086,0,0,1,1.1-1.1A1.13,1.13,0,0,1,457.7,104.5Z" transform="translate(-370.311 -94.918)"/>
      <path id="Path_7" data-name="Path 7" class="cls-1" d="M510.561,107.158c0,3.559,8.915,2.229,8.915,7.684,0,3.094-2.561,4.491-5.755,4.491a7.619,7.619,0,0,1-5.788-2.428.992.992,0,0,1,.765-1.63,1.02,1.02,0,0,1,.732.333,5.708,5.708,0,0,0,4.324,1.663c1.929,0,3.593-.632,3.593-2.4,0-3.493-8.915-2.1-8.915-7.684,0-2.827,2.3-4.091,5.189-4.091a6.2,6.2,0,0,1,5.156,2.162,1.011,1.011,0,0,1,.233.632,1,1,0,0,1-1,1,.944.944,0,0,1-.7-.3,4.776,4.776,0,0,0-3.692-1.43C512.058,105.129,510.561,105.595,510.561,107.158Z" transform="translate(-405.147 -94.717)"/>
    </g>
    <g id="Group_2" data-name="Group 2" transform="translate(379.1 117.933)">
      <path id="Path_8" data-name="Path 8" class="cls-2" d="M128.724,101.989,119.71,96.8a.3.3,0,0,0-.333,0l-2.728,1.563a.316.316,0,0,0,0,.565l3.393,2,7.318,4.225a.3.3,0,0,0,.333,0l1.364-.8a.409.409,0,0,0,.166-.333,17.613,17.613,0,0,0-.333-1.83A.882.882,0,0,0,128.724,101.989Z" transform="translate(-98.388 -90.513)"/>
      <path id="Path_9" data-name="Path 9" class="cls-2" d="M74.441,115.512l2.628-1.5a.316.316,0,0,0,0-.565l-1.9-1.1-9.547-5.588a.349.349,0,0,1-.166-.3V97.916a.33.33,0,0,0-.6-.2A15.2,15.2,0,0,0,62.1,106.5v.133a15.23,15.23,0,0,0,2.794,8.782.329.329,0,0,0,.6-.2v-4.125a.331.331,0,0,1,.5-.3l6.852,3.958,1.3.765A.248.248,0,0,0,74.441,115.512Z" transform="translate(-62.1 -91.063)"/>
      <path id="Path_10" data-name="Path 10" class="cls-3" d="M95.92,78c-.466,0-.9.033-1.364.067a.342.342,0,0,0-.133.632l3.859,2.229h0l-1.2.7h0l-3.027,1.763-2.328,1.264h0l-1.963,1.131a.349.349,0,0,0-.166.3V89.11a.342.342,0,0,0,.5.3l5.622-3.227h0l1.231-.7h0l3.06-1.763,1.4-.8a.3.3,0,0,1,.333,0l7.684,4.424a.335.335,0,0,0,.466-.432A15.409,15.409,0,0,0,95.92,78Z" transform="translate(-80.452 -78)"/>
      <path id="Path_11" data-name="Path 11" class="cls-3" d="M101.343,142.133a.342.342,0,0,0-.5-.3l-2.994,1.73-.6.366-7.285,4.225a.349.349,0,0,0-.166.3v1.563a.291.291,0,0,0,.2.3,15.845,15.845,0,0,0,1.763.632.353.353,0,0,0,.266-.033l9.181-5.322a.349.349,0,0,0,.166-.3Z" transform="translate(-80.586 -120.578)"/>
      <path id="Path_12" data-name="Path 12" class="cls-4" d="M79.06,145.1l-2.761-1.6a.331.331,0,0,0-.5.3v4.225a.3.3,0,0,0,.1.233,14.819,14.819,0,0,0,2.827,2.162.331.331,0,0,0,.5-.3v-4.757A.339.339,0,0,0,79.06,145.1Z" transform="translate(-71.243 -121.685)"/>
      <path id="Path_13" data-name="Path 13" class="cls-4" d="M118.739,124.053l-3.26,1.9a.331.331,0,0,1-.5-.3v-.832h0V120.86h0v-1.4h0v-2.827a.349.349,0,0,0-.166-.3l-2.694-1.53a.331.331,0,0,0-.5.3v6.32h0v6.553a.349.349,0,0,1-.166.3l-7.884,4.557a.342.342,0,0,0,.133.632c.466.033.931.067,1.43.067a15.577,15.577,0,0,0,7.983-2.2l.067-.033a15.713,15.713,0,0,0,6.054-6.786C119.338,124.187,119.005,123.887,118.739,124.053Z" transform="translate(-89.666 -102.532)"/>
      <path id="Path_14" data-name="Path 14" class="cls-3" d="M89.7,123.5a.349.349,0,0,0,.166.3l1.7,1,4.491,2.628a.331.331,0,0,0,.5-.3l-.033-3.393a.349.349,0,0,0-.166-.3l-2.528-1.364h0L90.2,120.106a.331.331,0,0,0-.5.3Z" transform="translate(-80.519 -106.069)"/>
      <path id="Path_15" data-name="Path 15" class="cls-4" d="M75.7,88.77V98.849a.349.349,0,0,0,.166.3l2.728,1.6a.331.331,0,0,0,.5-.3l.033-3.127V91.332h0v-3.06a.349.349,0,0,0-.166-.3l-1.3-.765a.3.3,0,0,0-.366.033A18.737,18.737,0,0,0,75.8,88.5.378.378,0,0,0,75.7,88.77Z" transform="translate(-71.176 -84.113)"/>
      <path id="Path_16" data-name="Path 16" class="cls-4" d="M92.85,108.992l2.794,1.53a.3.3,0,0,0,.333,0l2.495-1.331,1.2-.632h0l.6-.333,1.83-1a.316.316,0,0,0,0-.565l-1.6-.931L99.236,105a.3.3,0,0,0-.333,0l-1.1.6-3.027,1.7-1.929,1.131A.316.316,0,0,0,92.85,108.992Z" transform="translate(-82.505 -95.985)"/>
      <path id="Path_17" data-name="Path 17" class="cls-3" d="M146.257,124.086h0a.187.187,0,0,0-.3-.166l-3.992,2.262a.349.349,0,0,0-.166.3v3.16a.331.331,0,0,0,.5.3l3.36-1.929a.489.489,0,0,0,.166-.2A17.536,17.536,0,0,0,146.257,124.086Z" transform="translate(-115.289 -108.619)"/>
      <path id="Path_18" data-name="Path 18" class="cls-2" d="M113.833,122.118v1.364a.342.342,0,0,0,.5.3l2.861-1.663a.349.349,0,0,0,.166-.3v-6.886a.342.342,0,0,0-.5-.3l-2.894,1.563a.349.349,0,0,0-.166.3Z" transform="translate(-96.602 -102.426)"/>
      <path id="Path_19" data-name="Path 19" class="cls-2" d="M85.65,81.6l3.859,2.262a.3.3,0,0,0,.333,0l2.761-1.6a.316.316,0,0,0,0-.565l-3.459-2a.353.353,0,0,0-.266-.033A16.077,16.077,0,0,0,85.65,81,.344.344,0,0,0,85.65,81.6Z" transform="translate(-77.7 -79.107)"/>
    </g>
  </g>
</svg>
